<svg width="1em" viewBox="0 0 59 38" fill="none" stroke="currentColor" xmlns="http://www.w3.org/2000/svg">
    <path
        d="M14.2801 36.32C17.4391 36.32 20.0001 33.759 20.0001 30.6C20.0001 27.4409 17.4391 24.88 14.2801 24.88C11.121 24.88 8.56006 27.4409 8.56006 30.6C8.56006 33.759 11.121 36.32 14.2801 36.32Z"
        stroke-width="2.5" stroke-miterlimit="10" stroke-linecap="round" stroke-linejoin="round" />
    <path
        d="M46.8401 36.3199C49.9992 36.3199 52.5601 33.759 52.5601 30.5999C52.5601 27.4409 49.9992 24.8799 46.8401 24.8799C43.681 24.8799 41.1201 27.4409 41.1201 30.5999C41.1201 33.759 43.681 36.3199 46.8401 36.3199Z"
        stroke-width="2.5" stroke-miterlimit="10" stroke-linecap="round" stroke-linejoin="round" />
    <path
        d="M33.4798 6.76001H25.7198C21.6398 6.76001 18.3198 9.96001 18.3198 13.88V17.92H42.1598V15.12C42.1598 10.48 38.2798 6.76001 33.4798 6.76001Z"
        stroke-width="2.5" stroke-miterlimit="10" stroke-linecap="round" stroke-linejoin="round" />
    <path d="M5.56 24H2V29.16H5.28" stroke-width="2.5" stroke-miterlimit="10" stroke-linecap="round"
        stroke-linejoin="round" />
    <path d="M29.5601 6.76001V17.88" stroke-width="2.5" stroke-miterlimit="10" stroke-linecap="round"
        stroke-linejoin="round" />
    <path
        d="M51.6403 19.12C50.8403 18.84 50.2803 18.08 50.2803 17.24C50.2803 8.84 43.4403 2 35.0403 2H24.8403C17.4803 2 11.5203 7.96 11.5203 15.32V17.24C11.5203 18.08 10.9603 18.84 10.1603 19.12C7.32027 20.12 5.28027 22.84 5.28027 26V29.64C5.28027 30.72 6.16027 31.64 7.28027 31.64H8.64027C8.56027 31.28 8.52027 30.96 8.52027 30.6C8.52027 27.44 11.0803 24.88 14.2403 24.88C17.4003 24.88 19.9603 27.44 19.9603 30.6C19.9603 30.96 19.9203 31.32 19.8403 31.64H41.1203C41.0403 31.28 41.0003 30.96 41.0003 30.6C41.0003 27.44 43.5603 24.88 46.7203 24.88C49.8803 24.88 52.4403 27.44 52.4403 30.6C52.4403 30.96 52.4003 31.32 52.3203 31.64H54.4003C55.4803 31.64 56.4003 30.76 56.4003 29.64V26C56.5203 22.84 54.4803 20.12 51.6403 19.12Z"
        stroke-width="2.5" stroke-miterlimit="10" stroke-linecap="round" stroke-linejoin="round" />
</svg>