<svg width="104" height="24" viewBox="0 0 104 24" fill="none" xmlns="http://www.w3.org/2000/svg">
    <path d="M9.9648 23.127C6.72 23.127 4.2432 22.2246 2.5344 20.4198C0.8448 18.615 0 16.0518 0 12.7302C0 11.079 0.2592 9.6102 0.7776 8.3238C1.296 7.0182 2.0064 5.9238 2.9088 5.0406C3.8112 4.1382 4.8864 3.4566 6.1344 2.9958C7.3824 2.535 8.736 2.3046 10.1952 2.3046C11.04 2.3046 11.808 2.3718 12.4992 2.5062C13.1904 2.6214 13.7952 2.7654 14.3136 2.9382C14.832 3.0918 15.264 3.255 15.6096 3.4278C15.9552 3.6006 16.2048 3.735 16.3584 3.831L15.0624 7.4598C14.448 7.1334 13.728 6.855 12.9024 6.6246C12.096 6.3942 11.1744 6.279 10.1376 6.279C9.4464 6.279 8.7648 6.3942 8.0928 6.6246C7.44 6.855 6.8544 7.2294 6.336 7.7478C5.8368 8.247 5.4336 8.8998 5.1264 9.7062C4.8192 10.5126 4.6656 11.4918 4.6656 12.6438C4.6656 13.5654 4.7616 14.4294 4.9536 15.2358C5.1648 16.023 5.4912 16.7046 5.9328 17.2806C6.3936 17.8566 6.9888 18.3174 7.7184 18.663C8.448 18.9894 9.3312 19.1526 10.368 19.1526C11.0208 19.1526 11.6064 19.1142 12.1248 19.0374C12.6432 18.9606 13.104 18.8742 13.5072 18.7782C13.9104 18.663 14.2656 18.5382 14.5728 18.4038C14.88 18.2694 15.1584 18.1446 15.408 18.0294L16.6464 21.6294C16.0128 22.0134 15.12 22.359 13.968 22.6662C12.816 22.9734 11.4816 23.127 9.9648 23.127Z" fill="black"/>
    <path d="M23.8811 19.7286C24.3035 19.7286 24.7067 19.719 25.0907 19.6998C25.4747 19.6806 25.7819 19.6518 26.0123 19.6134V16.359C25.8395 16.3206 25.5803 16.2822 25.2347 16.2438C24.8891 16.2054 24.5723 16.1862 24.2843 16.1862C23.8811 16.1862 23.4971 16.215 23.1323 16.2726C22.7867 16.311 22.4795 16.3974 22.2107 16.5318C21.9419 16.6662 21.7307 16.8486 21.5771 17.079C21.4235 17.3094 21.3467 17.5974 21.3467 17.943C21.3467 18.615 21.5675 19.0854 22.0091 19.3542C22.4699 19.6038 23.0939 19.7286 23.8811 19.7286ZM23.5355 7.1718C24.8027 7.1718 25.8587 7.3158 26.7035 7.6038C27.5483 7.8918 28.2203 8.3046 28.7195 8.8422C29.2379 9.3798 29.6027 10.0326 29.8139 10.8006C30.0251 11.5686 30.1307 12.423 30.1307 13.3638V22.2918C29.5163 22.4262 28.6619 22.5798 27.5675 22.7526C26.4731 22.9446 25.1483 23.0406 23.5931 23.0406C22.6139 23.0406 21.7211 22.9542 20.9147 22.7814C20.1275 22.6086 19.4459 22.3302 18.8699 21.9462C18.2939 21.543 17.8523 21.0246 17.5451 20.391C17.2379 19.7574 17.0843 18.9798 17.0843 18.0582C17.0843 17.175 17.2571 16.4262 17.6027 15.8118C17.9675 15.1974 18.4475 14.7078 19.0427 14.343C19.6379 13.9782 20.3195 13.719 21.0875 13.5654C21.8555 13.3926 22.6523 13.3062 23.4779 13.3062C24.0347 13.3062 24.5243 13.335 24.9467 13.3926C25.3883 13.431 25.7435 13.4886 26.0123 13.5654V13.1622C26.0123 12.4326 25.7915 11.847 25.3499 11.4054C24.9083 10.9638 24.1403 10.743 23.0459 10.743C22.3163 10.743 21.5963 10.8006 20.8859 10.9158C20.1755 11.0118 19.5611 11.1558 19.0427 11.3478L18.4955 7.8918C18.7451 7.815 19.0523 7.7382 19.4171 7.6614C19.8011 7.5654 20.2139 7.4886 20.6555 7.431C21.0971 7.3542 21.5579 7.2966 22.0379 7.2582C22.5371 7.2006 23.0363 7.1718 23.5355 7.1718Z" fill="black"/>
    <path d="M41.7006 11.3766C41.3166 11.2806 40.8654 11.1846 40.347 11.0886C39.8286 10.9734 39.2718 10.9158 38.6766 10.9158C38.4078 10.9158 38.0814 10.9446 37.6974 11.0022C37.3326 11.0406 37.0542 11.0886 36.8622 11.1462V22.7238H32.571V8.3814C33.339 8.1126 34.2414 7.863 35.2782 7.6326C36.3342 7.383 37.5054 7.2582 38.7918 7.2582C39.0222 7.2582 39.3006 7.2774 39.627 7.3158C39.9534 7.335 40.2798 7.3734 40.6062 7.431C40.9326 7.4694 41.259 7.527 41.5854 7.6038C41.9118 7.6614 42.1902 7.7382 42.4206 7.8342L41.7006 11.3766Z" fill="black"/>
    <path d="M52.9866 15.0342C52.9866 12.2694 51.969 10.887 49.9338 10.887C49.4922 10.887 49.0506 10.9446 48.609 11.0598C48.1866 11.175 47.841 11.319 47.5722 11.4918V19.2966C47.7834 19.335 48.0522 19.3734 48.3786 19.4118C48.705 19.431 49.0602 19.4406 49.4442 19.4406C50.6154 19.4406 51.4986 19.0374 52.0938 18.231C52.689 17.4246 52.9866 16.359 52.9866 15.0342ZM57.3642 15.1494C57.3642 16.359 57.1818 17.4534 56.817 18.4326C56.4714 19.4118 55.9626 20.247 55.2906 20.9382C54.6186 21.6294 53.793 22.167 52.8138 22.551C51.8346 22.9158 50.721 23.0982 49.473 23.0982C48.9546 23.0982 48.4074 23.0694 47.8314 23.0118C47.2746 22.9734 46.7178 22.9158 46.161 22.839C45.6234 22.7622 45.105 22.6758 44.6058 22.5798C44.1066 22.4646 43.665 22.3494 43.281 22.2342V1.0662L47.5722 0.375V7.9206C48.0522 7.7094 48.5514 7.5462 49.0698 7.431C49.5882 7.3158 50.145 7.2582 50.7402 7.2582C51.8154 7.2582 52.7658 7.4502 53.5914 7.8342C54.417 8.199 55.1082 8.727 55.665 9.4182C56.2218 10.1094 56.6442 10.9446 56.9322 11.9238C57.2202 12.8838 57.3642 13.959 57.3642 15.1494Z" fill="black"/>
    <path d="M73.3919 15.1206C73.3919 16.311 73.2191 17.4054 72.8735 18.4038C72.5279 19.383 72.0286 20.2278 71.3758 20.9382C70.723 21.6294 69.9359 22.167 69.0143 22.551C68.1119 22.935 67.0943 23.127 65.9615 23.127C64.8479 23.127 63.8302 22.935 62.9086 22.551C62.0062 22.167 61.2286 21.6294 60.5758 20.9382C59.923 20.2278 59.4143 19.383 59.0495 18.4038C58.6847 17.4054 58.5023 16.311 58.5023 15.1206C58.5023 13.9302 58.6847 12.8454 59.0495 11.8662C59.4335 10.887 59.9519 10.0518 60.6047 9.3606C61.2767 8.6694 62.0638 8.1318 62.9662 7.7478C63.8878 7.3638 64.8863 7.1718 65.9615 7.1718C67.0559 7.1718 68.0543 7.3638 68.9567 7.7478C69.8783 8.1318 70.6655 8.6694 71.3183 9.3606C71.9711 10.0518 72.4799 10.887 72.8447 11.8662C73.2095 12.8454 73.3919 13.9302 73.3919 15.1206ZM69.0143 15.1206C69.0143 13.7958 68.7455 12.759 68.2079 12.0102C67.6894 11.2422 66.9407 10.8582 65.9615 10.8582C64.9823 10.8582 64.2238 11.2422 63.6862 12.0102C63.1486 12.759 62.8799 13.7958 62.8799 15.1206C62.8799 16.4454 63.1486 17.5014 63.6862 18.2886C64.2238 19.0566 64.9823 19.4406 65.9615 19.4406C66.9407 19.4406 67.6894 19.0566 68.2079 18.2886C68.7455 17.5014 69.0143 16.4454 69.0143 15.1206Z" fill="black"/>
    <path d="M75.276 8.0934C76.0056 7.8822 76.9464 7.6902 78.0984 7.5174C79.2504 7.3254 80.46 7.2294 81.7272 7.2294C83.0136 7.2294 84.0792 7.4022 84.924 7.7478C85.788 8.0742 86.4696 8.5446 86.9688 9.159C87.468 9.7734 87.8232 10.503 88.0344 11.3478C88.2456 12.1926 88.3512 13.1334 88.3512 14.1702V22.7238H84.06V14.6886C84.06 13.3062 83.8776 12.327 83.5128 11.751C83.148 11.175 82.4664 10.887 81.468 10.887C81.1608 10.887 80.8344 10.9062 80.4888 10.9446C80.1432 10.9638 79.836 10.9926 79.5672 11.031V22.7238H75.276V8.0934Z" fill="black"/>
    <path d="M95.3458 23.1558C94.8274 23.1558 94.2802 23.1174 93.7042 23.0406C93.1282 22.983 92.5714 22.8966 92.0338 22.7814C91.4962 22.6662 91.0066 22.5414 90.565 22.407C90.1234 22.2726 89.7778 22.1478 89.5282 22.0326L90.3634 18.4614C90.8626 18.6726 91.4962 18.903 92.2642 19.1526C93.0514 19.383 94.021 19.4982 95.173 19.4982C96.4978 19.4982 97.4674 19.2486 98.0818 18.7494C98.6962 18.2502 99.0034 17.5782 99.0034 16.7334C99.0034 16.215 98.8882 15.783 98.6578 15.4374C98.4466 15.0726 98.149 14.7846 97.765 14.5734C97.381 14.343 96.9202 14.1894 96.3826 14.1126C95.8642 14.0166 95.3074 13.9686 94.7122 13.9686H93.0418V10.5126H94.9426C95.365 10.5126 95.7682 10.4742 96.1522 10.3974C96.5554 10.3206 96.9106 10.1958 97.2178 10.023C97.525 9.831 97.765 9.5814 97.9378 9.2742C98.1298 8.9478 98.2258 8.5446 98.2258 8.0646C98.2258 7.6998 98.149 7.383 97.9954 7.1142C97.8418 6.8454 97.6402 6.6246 97.3906 6.4518C97.1602 6.279 96.8818 6.1542 96.5554 6.0774C96.2482 5.9814 95.9314 5.9334 95.605 5.9334C94.7794 5.9334 94.0114 6.0582 93.301 6.3078C92.6098 6.5574 91.9762 6.8646 91.4002 7.2294L89.8738 4.0902C90.181 3.8982 90.5362 3.6966 90.9394 3.4854C91.3618 3.2742 91.8226 3.0822 92.3218 2.9094C92.821 2.7366 93.349 2.5926 93.9058 2.4774C94.4818 2.3622 95.0866 2.3046 95.7202 2.3046C96.8914 2.3046 97.8994 2.4486 98.7442 2.7366C99.6082 3.0054 100.319 3.399 100.875 3.9174C101.432 4.4166 101.845 5.0118 102.114 5.703C102.383 6.375 102.517 7.1142 102.517 7.9206C102.517 8.7078 102.296 9.4758 101.855 10.2246C101.413 10.9542 100.818 11.511 100.069 11.895C101.106 12.3174 101.903 12.951 102.459 13.7958C103.035 14.6214 103.323 15.6198 103.323 16.791C103.323 17.7126 103.17 18.567 102.863 19.3542C102.555 20.1222 102.075 20.7942 101.423 21.3702C100.77 21.927 99.9346 22.3686 98.917 22.695C97.9186 23.0022 96.7282 23.1558 95.3458 23.1558Z" fill="black"/>
</svg>
