<svg width="86" height="86" viewBox="0 0 86 86" fill="none" xmlns="http://www.w3.org/2000/svg">
    <path d="M1.24819 18.7228C1.24819 9.07183 9.07183 1.24819 18.7228 1.24819H67.2772C76.9282 1.24819 84.7518 9.07183 84.7518 18.7228V67.2772C84.7518 76.9282 76.9282 84.7518 67.2772 84.7518H18.7228C9.07183 84.7518 1.24819 76.9282 1.24819 67.2772V18.7228Z" stroke="#05761E" stroke-width="2.49637"/>
    <rect x="4.43101" y="4.43107" width="77.1379" height="77.1379" rx="14.9158" stroke="#05761E" stroke-width="0.87373"/>
    <mask id="mask0_7812_888" style="mask-type:alpha" maskUnits="userSpaceOnUse" x="16" y="22" width="54" height="55">
        <rect x="16.4761" y="22.8418" width="53.1727" height="53.672" fill="#D9D9D9"/>
    </mask>
    <g mask="url(#mask0_7812_888)">
        <circle cx="43.1457" cy="50.3356" r="24.8349" fill="white" stroke="#05761E" stroke-width="0.998549"/>
        <mask id="path-5-outside-1_7812_888" maskUnits="userSpaceOnUse" x="17.8105" y="25" width="51" height="51" fill="black">
            <rect fill="white" x="17.8105" y="25" width="51" height="51"/>
            <path fill-rule="evenodd" clip-rule="evenodd" d="M46.8344 27.185C46.7435 27.1354 46.5813 27.1264 46.4941 27.1745C45.7468 27.5881 44.9987 28.0085 44.2318 28.4416C44.1635 28.5039 44.0839 28.5572 44.002 28.5708C43.665 28.7615 43.3248 28.9537 42.977 29.1501C42.8814 29.2041 42.7852 29.2585 42.6883 29.3132C42.8316 29.397 42.9634 29.4912 43.0879 29.5802C43.3414 29.7615 43.5645 29.921 43.7917 29.9265C44.524 29.946 45.3412 29.9603 45.9766 29.663C46.5464 29.3958 47.0465 28.9804 47.5602 28.5538C47.7852 28.3668 48.0129 28.1777 48.2502 27.998C48.1184 27.9214 47.9913 27.8468 47.8674 27.7742C47.507 27.5628 47.1742 27.3677 46.8344 27.185ZM36.6067 30.7425C36.6983 30.7943 36.8223 30.8581 36.9101 30.8356C37.7465 30.6234 38.5805 30.4018 39.4316 30.1758C39.6613 30.1147 39.8922 30.0534 40.1248 29.9918C40.0583 29.8772 39.9932 29.7689 39.9303 29.6643C39.79 29.431 39.6609 29.2163 39.5525 28.9919C39.4158 28.7089 39.2543 28.6263 38.9606 28.7644C38.2824 29.0842 37.6057 29.1368 36.9477 28.7006C36.9252 28.6858 36.8907 28.6895 36.8859 28.6901C36.8856 28.6901 36.8854 28.6901 36.8854 28.6901C36.6057 28.9067 36.3306 29.1197 36.0506 29.3364C35.7921 29.5365 35.5295 29.7398 35.2555 29.952C35.3895 30.0307 35.5199 30.1078 35.6479 30.1833C35.9775 30.378 36.2907 30.563 36.6067 30.7425ZM27.1579 32.0284C30.6227 28.9964 34.6448 27.1137 39.1867 26.3502C41.02 26.0417 41.6761 26 43.53 26C45.0311 26 46.2318 26.211 47.103 26.3642C47.1822 26.3781 47.2587 26.3915 47.3324 26.4043C49.4137 26.7638 51.4116 27.3944 53.3231 28.2892L53.3096 28.4469C53.1559 28.4396 52.9995 28.4412 52.8432 28.4429C52.5008 28.4464 52.1583 28.45 51.8427 28.3598C50.7311 28.0423 49.7689 28.2044 48.9314 29.0092C48.7549 29.1789 48.581 29.3513 48.4072 29.5237C48.1334 29.7952 47.8596 30.0666 47.5757 30.3274C47.4375 30.4535 47.2415 30.5691 47.0612 30.5894C46.904 30.6071 46.7467 30.625 46.5895 30.643C45.5351 30.7634 44.4804 30.8839 43.4222 30.9362C43.0456 30.9543 42.6664 30.9009 42.2864 30.8473C42.038 30.8122 41.7892 30.7772 41.5407 30.762C41.3814 30.753 41.1516 30.8476 41.0607 30.9722C40.9022 31.1888 40.7601 31.4174 40.6179 31.646C40.4758 31.8745 40.3336 32.1031 40.1752 32.3197C40.0625 32.4728 39.8394 32.6192 39.6562 32.6335C39.4925 32.6461 39.3287 32.6594 39.1648 32.6727C38.3012 32.7429 37.4349 32.8133 36.5744 32.7761C36.0796 32.7543 35.5883 32.597 35.1009 32.441C34.9505 32.3928 34.8005 32.3448 34.6508 32.3009C34.3279 32.2063 34.0492 32.1838 33.7593 32.394C32.686 33.1702 31.4527 33.4442 30.1555 33.5456C28.3784 33.6844 26.6742 34.1709 24.979 34.6911C24.874 34.7232 24.7678 34.7523 24.6619 34.7813C24.6193 34.793 24.5767 34.8046 24.5343 34.8165C24.5185 34.7973 24.503 34.7782 24.4874 34.7591C24.4718 34.7399 24.4562 34.7208 24.4404 34.7016C24.7255 34.4195 25.0063 34.1325 25.2871 33.8454C25.8961 33.2228 26.505 32.6003 27.1579 32.0284ZM54.229 36.5196C53.9 36.2388 53.6979 35.9213 53.589 35.5047C53.221 34.0956 52.6284 32.8675 51.4289 31.8931C50.8244 31.4017 50.1708 31.2803 49.5171 31.1589C49.1912 31.0984 48.8653 31.0379 48.5454 30.9315C48.3787 31.6033 48.4575 32.0913 48.981 32.5139C49.4882 32.9235 49.9434 33.401 50.3955 33.8752L50.5155 34.001C50.8182 34.3177 51.1032 34.6508 51.384 34.9789C51.5053 35.1206 51.6258 35.2614 51.7466 35.3996C50.9902 36.0932 50.2128 36.1743 49.3679 35.7261C49.1733 35.6225 48.9675 35.5219 48.755 35.4739C48.1744 35.341 47.9535 35.0152 48.073 34.4237C48.1045 34.266 48.0564 33.9763 47.9573 33.929C47.5229 33.7196 47.0741 33.5397 46.6168 33.3563C46.4542 33.2911 46.2906 33.2255 46.1261 33.158C46.0721 33.3893 46.0152 33.6139 45.9593 33.8344C45.8324 34.3348 45.711 34.8138 45.6417 35.3005C45.5613 35.8635 45.3067 36.1172 44.7554 36.178C44.692 36.1851 44.6236 36.1913 44.553 36.1976L44.5528 36.1977C44.1892 36.2305 43.7653 36.2687 43.649 36.4648C43.5061 36.7056 43.5555 37.0666 43.6032 37.4149V37.4149C43.6177 37.5205 43.632 37.6249 43.6407 37.7244C43.652 37.8491 43.7699 38.0465 43.8706 38.0683C44.4652 38.1994 45.0642 38.3107 45.6764 38.4244L45.6765 38.4244C45.8701 38.4604 46.0649 38.4965 46.2613 38.5337L46.4297 37.6135C46.5286 37.0734 46.6269 36.5362 46.7293 35.9753C46.969 36.02 47.2114 36.0512 47.4513 36.082C47.9901 36.1513 48.5165 36.219 48.9728 36.434C49.6435 36.7508 50.2722 36.973 51 36.8942C51.3327 36.8574 51.525 36.9775 51.6467 37.2928C52.1394 38.572 52.9363 39.6349 53.9638 40.538C54.1993 40.7451 54.4157 40.9736 54.6322 41.2021L54.6322 41.2022C54.732 41.3075 54.8318 41.4129 54.9335 41.5162C55.4991 42.092 55.5359 42.3675 55.0995 43.212C53.6123 42.631 52.2941 43.1106 50.9114 43.8178C49.482 44.5482 48.266 45.419 47.3166 46.7177C47.1597 46.9322 46.9904 47.1385 46.8214 47.3444L46.8214 47.3444C46.253 48.0371 45.6886 48.725 45.6116 49.7024C45.6056 49.7828 45.4479 49.9209 45.3698 49.9149C45.3413 49.9127 45.3128 49.9106 45.2842 49.9086C45.259 49.9067 45.2337 49.905 45.2085 49.9032C44.8564 49.8782 44.4991 49.8529 44.1695 49.7475C43.8814 49.6551 43.6073 49.5203 43.3328 49.3854C43.1658 49.3033 42.9986 49.2211 42.8281 49.1484C42.7101 49.0981 42.5404 49.0674 42.433 49.1147C42.0059 49.3016 41.5855 49.5034 41.1552 49.71C41.005 49.7821 40.8535 49.8548 40.7002 49.9276L40.9934 51.1638L41.1516 51.8306L41.2395 51.9478C41.6699 50.8915 42.4893 50.8382 43.4237 50.9704L43.4042 51.3549L43.4041 51.357C43.3812 51.8069 43.3582 52.2609 43.3343 52.7375C44.141 52.8366 44.7974 53.1579 45.212 53.835C45.5373 54.3672 45.9376 54.4033 46.4866 54.1998C46.9373 54.0324 47.4511 53.8492 47.904 53.9116C48.7164 54.0224 49.5196 54.1999 50.3229 54.3775C50.6625 54.4526 51.0021 54.5276 51.3425 54.5977C51.559 54.6424 51.7762 54.6846 51.9932 54.7267C52.4425 54.8138 52.8915 54.901 53.3352 55.0113C53.5905 55.0744 53.897 55.1862 54.0449 55.3799C55.2309 56.9248 56.6783 58.1364 58.4306 58.9922C58.7715 59.1589 59.0959 59.3589 59.4202 59.5589L59.4204 59.559C59.5548 59.6419 59.6891 59.7247 59.8246 59.8052C59.9044 59.8524 59.9806 59.9054 60.0623 59.9622L60.0623 59.9622C60.1015 59.9894 60.1418 60.0175 60.1844 60.0462C59.9936 60.4106 59.8037 60.7738 59.6143 61.1361C58.9238 62.4567 58.2403 63.7642 57.5466 65.066C57.4744 65.2019 57.3047 65.307 57.1575 65.3783C56.8698 65.5167 56.5798 65.6501 56.2899 65.7834L56.2897 65.7835C55.8324 65.9938 55.3752 66.2041 54.9275 66.4338C54.7299 66.5351 54.5422 66.7506 54.4558 66.9578C54.3093 67.3088 54.1793 67.6666 54.0494 68.0243L54.0494 68.0243C53.9148 68.3948 53.7802 68.7652 53.6273 69.128C53.5192 69.3848 53.3276 69.6483 53.1023 69.8059C52.944 69.917 52.786 70.0287 52.6279 70.1405C51.7635 70.7516 50.8972 71.364 49.9777 71.8793C49.3036 72.2573 49.1644 72.8283 49.0197 73.4224L49.0196 73.4224C48.9818 73.5776 48.9436 73.7343 48.8954 73.8896C48.9192 73.8917 48.9391 73.8939 48.956 73.896C48.9653 73.8972 48.9738 73.8982 48.9814 73.8992C49.0149 73.9036 49.0338 73.9061 49.0516 73.9024C49.0927 73.8944 49.1331 73.8824 49.1735 73.8704C49.1858 73.8667 49.1982 73.863 49.2105 73.8595C49.2184 73.8572 49.2263 73.855 49.2342 73.8529C53.5597 72.7208 57.3062 70.5769 60.448 67.3969C64.0105 63.7899 66.2285 59.4787 67.1103 54.4903C67.2339 53.7894 67.3059 53.0789 67.3779 52.3684L67.3779 52.3683L67.378 52.3679C67.411 52.0422 67.4441 51.7164 67.4821 51.3915V49.2062C67.4774 49.1763 67.4723 49.1465 67.467 49.1167C67.4635 49.0973 67.46 49.0779 67.4565 49.0586C67.4376 48.9541 67.4186 48.8497 67.4115 48.7446C67.1411 44.7051 65.9438 40.9652 63.8017 37.5285L63.8006 37.5267C63.5969 37.2001 63.496 37.0382 63.3524 36.9776C63.2113 36.918 63.0291 36.9561 62.668 37.0315L62.6675 37.0316C62.6095 37.0434 62.5502 37.0476 62.4909 37.0518C62.4712 37.0532 62.4514 37.0546 62.4317 37.0563C62.1329 37.0829 61.8342 37.1104 61.5355 37.138L61.5344 37.1381L61.5343 37.1381C60.7611 37.2094 59.9879 37.2807 59.214 37.3348C58.8745 37.3581 58.6679 37.4865 58.5019 37.7792C58.3208 38.0999 58.1203 38.4097 57.8986 38.7522L57.8985 38.7524L57.8983 38.7527C57.7993 38.9056 57.6961 39.065 57.5886 39.2348C57.4485 39.1427 57.3092 39.0569 57.1728 38.9728C56.8823 38.7937 56.6044 38.6225 56.3576 38.4151C55.9778 38.0959 55.6114 37.7612 55.2449 37.4264L55.2449 37.4264C54.9097 37.1202 54.5745 36.814 54.229 36.5196ZM46.9819 67.302C47.021 67.1383 47.0518 66.9491 47.0075 66.7937C46.9063 66.4363 46.8116 66.076 46.7168 65.7155L46.7168 65.7154C46.3007 64.1329 45.8836 62.5465 44.9164 61.1861C44.2126 60.1967 44.1901 59.3214 44.8511 58.3207C45.1126 57.9248 45.3053 57.4836 45.5144 57.0048C45.6133 56.7782 45.7159 56.5432 45.8313 56.3006C44.5294 56.2973 43.7718 55.5263 43.0126 54.7537L43.0125 54.7536C42.9076 54.6468 42.8026 54.54 42.6962 54.4351C42.4761 54.2182 42.1607 54.0485 41.8602 53.9712C40.8192 53.7055 39.7677 53.4773 38.7146 53.2626C38.3984 53.198 38.2302 53.0456 38.1025 52.7596C37.8634 52.2285 37.6089 51.7044 37.3545 51.1803L37.354 51.1793C37.2529 50.971 37.1518 50.7628 37.0517 50.5541C37.0186 50.5593 36.9856 50.5646 36.9525 50.5706V51.9646C36.5342 52.1118 36.3119 51.9654 36.0985 51.6696C35.6351 51.0287 35.1654 50.3923 34.6956 49.7558L34.6955 49.7557C34.1693 49.0429 33.6431 48.33 33.1257 47.6106C32.983 47.4109 32.8959 47.1279 32.8891 46.881C32.8758 46.3437 32.8768 45.8063 32.8778 45.2688C32.8787 44.7774 32.8796 44.2861 32.8696 43.7949C32.8643 43.5577 32.7907 43.2949 32.6698 43.0915C32.389 42.6189 32.0997 42.1512 31.8104 41.6836L31.8103 41.6835C31.4255 41.0616 31.0408 40.4398 30.6764 39.8065C30.4248 39.3688 30.1724 39.26 29.6669 39.3545C29.4964 39.3864 29.326 39.4187 29.1556 39.451L29.1554 39.451L29.1553 39.451C27.6367 39.7387 26.1212 40.0258 24.5504 40.0204C23.583 40.0167 22.9123 39.6105 22.18 39.0655C22.4332 38.862 22.681 38.6626 22.926 38.4654L22.9274 38.4643C23.2089 38.2378 23.4867 38.0142 23.7648 37.7909C23.2818 37.8336 22.8334 37.9207 22.394 38.0431C22.2611 38.0806 22.1131 38.194 22.044 38.3133C20.7191 40.621 19.7742 43.0765 19.2897 45.6941C19.1459 46.4696 19.0477 47.2538 18.9495 48.0382L18.9495 48.0383C18.9047 48.3967 18.8598 48.7551 18.8105 49.1128V51.6779C18.85 51.9792 18.8847 52.2814 18.9195 52.5836L18.9195 52.5837C18.9944 53.2361 19.0694 53.8886 19.1921 54.532C20.6665 62.2881 24.8937 68.0647 31.8075 71.8541C34.7714 73.4786 37.9748 74.3629 41.3532 74.5919C41.4364 74.5979 41.5183 74.6192 41.6002 74.6405C41.6402 74.6509 41.6803 74.6613 41.7205 74.67H44.3824L44.6033 74.6419C45.1207 74.5761 45.6421 74.5098 46.191 74.4395C46.1845 74.3575 46.1777 74.2779 46.1711 74.1998L46.171 74.1997C46.1569 74.0342 46.1434 73.8759 46.1347 73.7173C46.1212 73.4715 46.0993 73.2261 46.0774 72.9809L46.0774 72.9809C46.0016 72.1325 45.9259 71.2863 46.2016 70.4278C46.442 69.6787 46.6161 68.9076 46.79 68.137C46.853 67.8583 46.9159 67.5796 46.9819 67.302Z"/>
        </mask>
        <path fill-rule="evenodd" clip-rule="evenodd" d="M46.8344 27.185C46.7435 27.1354 46.5813 27.1264 46.4941 27.1745C45.7468 27.5881 44.9987 28.0085 44.2318 28.4416C44.1635 28.5039 44.0839 28.5572 44.002 28.5708C43.665 28.7615 43.3248 28.9537 42.977 29.1501C42.8814 29.2041 42.7852 29.2585 42.6883 29.3132C42.8316 29.397 42.9634 29.4912 43.0879 29.5802C43.3414 29.7615 43.5645 29.921 43.7917 29.9265C44.524 29.946 45.3412 29.9603 45.9766 29.663C46.5464 29.3958 47.0465 28.9804 47.5602 28.5538C47.7852 28.3668 48.0129 28.1777 48.2502 27.998C48.1184 27.9214 47.9913 27.8468 47.8674 27.7742C47.507 27.5628 47.1742 27.3677 46.8344 27.185ZM36.6067 30.7425C36.6983 30.7943 36.8223 30.8581 36.9101 30.8356C37.7465 30.6234 38.5805 30.4018 39.4316 30.1758C39.6613 30.1147 39.8922 30.0534 40.1248 29.9918C40.0583 29.8772 39.9932 29.7689 39.9303 29.6643C39.79 29.431 39.6609 29.2163 39.5525 28.9919C39.4158 28.7089 39.2543 28.6263 38.9606 28.7644C38.2824 29.0842 37.6057 29.1368 36.9477 28.7006C36.9252 28.6858 36.8907 28.6895 36.8859 28.6901C36.8856 28.6901 36.8854 28.6901 36.8854 28.6901C36.6057 28.9067 36.3306 29.1197 36.0506 29.3364C35.7921 29.5365 35.5295 29.7398 35.2555 29.952C35.3895 30.0307 35.5199 30.1078 35.6479 30.1833C35.9775 30.378 36.2907 30.563 36.6067 30.7425ZM27.1579 32.0284C30.6227 28.9964 34.6448 27.1137 39.1867 26.3502C41.02 26.0417 41.6761 26 43.53 26C45.0311 26 46.2318 26.211 47.103 26.3642C47.1822 26.3781 47.2587 26.3915 47.3324 26.4043C49.4137 26.7638 51.4116 27.3944 53.3231 28.2892L53.3096 28.4469C53.1559 28.4396 52.9995 28.4412 52.8432 28.4429C52.5008 28.4464 52.1583 28.45 51.8427 28.3598C50.7311 28.0423 49.7689 28.2044 48.9314 29.0092C48.7549 29.1789 48.581 29.3513 48.4072 29.5237C48.1334 29.7952 47.8596 30.0666 47.5757 30.3274C47.4375 30.4535 47.2415 30.5691 47.0612 30.5894C46.904 30.6071 46.7467 30.625 46.5895 30.643C45.5351 30.7634 44.4804 30.8839 43.4222 30.9362C43.0456 30.9543 42.6664 30.9009 42.2864 30.8473C42.038 30.8122 41.7892 30.7772 41.5407 30.762C41.3814 30.753 41.1516 30.8476 41.0607 30.9722C40.9022 31.1888 40.7601 31.4174 40.6179 31.646C40.4758 31.8745 40.3336 32.1031 40.1752 32.3197C40.0625 32.4728 39.8394 32.6192 39.6562 32.6335C39.4925 32.6461 39.3287 32.6594 39.1648 32.6727C38.3012 32.7429 37.4349 32.8133 36.5744 32.7761C36.0796 32.7543 35.5883 32.597 35.1009 32.441C34.9505 32.3928 34.8005 32.3448 34.6508 32.3009C34.3279 32.2063 34.0492 32.1838 33.7593 32.394C32.686 33.1702 31.4527 33.4442 30.1555 33.5456C28.3784 33.6844 26.6742 34.1709 24.979 34.6911C24.874 34.7232 24.7678 34.7523 24.6619 34.7813C24.6193 34.793 24.5767 34.8046 24.5343 34.8165C24.5185 34.7973 24.503 34.7782 24.4874 34.7591C24.4718 34.7399 24.4562 34.7208 24.4404 34.7016C24.7255 34.4195 25.0063 34.1325 25.2871 33.8454C25.8961 33.2228 26.505 32.6003 27.1579 32.0284ZM54.229 36.5196C53.9 36.2388 53.6979 35.9213 53.589 35.5047C53.221 34.0956 52.6284 32.8675 51.4289 31.8931C50.8244 31.4017 50.1708 31.2803 49.5171 31.1589C49.1912 31.0984 48.8653 31.0379 48.5454 30.9315C48.3787 31.6033 48.4575 32.0913 48.981 32.5139C49.4882 32.9235 49.9434 33.401 50.3955 33.8752L50.5155 34.001C50.8182 34.3177 51.1032 34.6508 51.384 34.9789C51.5053 35.1206 51.6258 35.2614 51.7466 35.3996C50.9902 36.0932 50.2128 36.1743 49.3679 35.7261C49.1733 35.6225 48.9675 35.5219 48.755 35.4739C48.1744 35.341 47.9535 35.0152 48.073 34.4237C48.1045 34.266 48.0564 33.9763 47.9573 33.929C47.5229 33.7196 47.0741 33.5397 46.6168 33.3563C46.4542 33.2911 46.2906 33.2255 46.1261 33.158C46.0721 33.3893 46.0152 33.6139 45.9593 33.8344C45.8324 34.3348 45.711 34.8138 45.6417 35.3005C45.5613 35.8635 45.3067 36.1172 44.7554 36.178C44.692 36.1851 44.6236 36.1913 44.553 36.1976L44.5528 36.1977C44.1892 36.2305 43.7653 36.2687 43.649 36.4648C43.5061 36.7056 43.5555 37.0666 43.6032 37.4149V37.4149C43.6177 37.5205 43.632 37.6249 43.6407 37.7244C43.652 37.8491 43.7699 38.0465 43.8706 38.0683C44.4652 38.1994 45.0642 38.3107 45.6764 38.4244L45.6765 38.4244C45.8701 38.4604 46.0649 38.4965 46.2613 38.5337L46.4297 37.6135C46.5286 37.0734 46.6269 36.5362 46.7293 35.9753C46.969 36.02 47.2114 36.0512 47.4513 36.082C47.9901 36.1513 48.5165 36.219 48.9728 36.434C49.6435 36.7508 50.2722 36.973 51 36.8942C51.3327 36.8574 51.525 36.9775 51.6467 37.2928C52.1394 38.572 52.9363 39.6349 53.9638 40.538C54.1993 40.7451 54.4157 40.9736 54.6322 41.2021L54.6322 41.2022C54.732 41.3075 54.8318 41.4129 54.9335 41.5162C55.4991 42.092 55.5359 42.3675 55.0995 43.212C53.6123 42.631 52.2941 43.1106 50.9114 43.8178C49.482 44.5482 48.266 45.419 47.3166 46.7177C47.1597 46.9322 46.9904 47.1385 46.8214 47.3444L46.8214 47.3444C46.253 48.0371 45.6886 48.725 45.6116 49.7024C45.6056 49.7828 45.4479 49.9209 45.3698 49.9149C45.3413 49.9127 45.3128 49.9106 45.2842 49.9086C45.259 49.9067 45.2337 49.905 45.2085 49.9032C44.8564 49.8782 44.4991 49.8529 44.1695 49.7475C43.8814 49.6551 43.6073 49.5203 43.3328 49.3854C43.1658 49.3033 42.9986 49.2211 42.8281 49.1484C42.7101 49.0981 42.5404 49.0674 42.433 49.1147C42.0059 49.3016 41.5855 49.5034 41.1552 49.71C41.005 49.7821 40.8535 49.8548 40.7002 49.9276L40.9934 51.1638L41.1516 51.8306L41.2395 51.9478C41.6699 50.8915 42.4893 50.8382 43.4237 50.9704L43.4042 51.3549L43.4041 51.357C43.3812 51.8069 43.3582 52.2609 43.3343 52.7375C44.141 52.8366 44.7974 53.1579 45.212 53.835C45.5373 54.3672 45.9376 54.4033 46.4866 54.1998C46.9373 54.0324 47.4511 53.8492 47.904 53.9116C48.7164 54.0224 49.5196 54.1999 50.3229 54.3775C50.6625 54.4526 51.0021 54.5276 51.3425 54.5977C51.559 54.6424 51.7762 54.6846 51.9932 54.7267C52.4425 54.8138 52.8915 54.901 53.3352 55.0113C53.5905 55.0744 53.897 55.1862 54.0449 55.3799C55.2309 56.9248 56.6783 58.1364 58.4306 58.9922C58.7715 59.1589 59.0959 59.3589 59.4202 59.5589L59.4204 59.559C59.5548 59.6419 59.6891 59.7247 59.8246 59.8052C59.9044 59.8524 59.9806 59.9054 60.0623 59.9622L60.0623 59.9622C60.1015 59.9894 60.1418 60.0175 60.1844 60.0462C59.9936 60.4106 59.8037 60.7738 59.6143 61.1361C58.9238 62.4567 58.2403 63.7642 57.5466 65.066C57.4744 65.2019 57.3047 65.307 57.1575 65.3783C56.8698 65.5167 56.5798 65.6501 56.2899 65.7834L56.2897 65.7835C55.8324 65.9938 55.3752 66.2041 54.9275 66.4338C54.7299 66.5351 54.5422 66.7506 54.4558 66.9578C54.3093 67.3088 54.1793 67.6666 54.0494 68.0243L54.0494 68.0243C53.9148 68.3948 53.7802 68.7652 53.6273 69.128C53.5192 69.3848 53.3276 69.6483 53.1023 69.8059C52.944 69.917 52.786 70.0287 52.6279 70.1405C51.7635 70.7516 50.8972 71.364 49.9777 71.8793C49.3036 72.2573 49.1644 72.8283 49.0197 73.4224L49.0196 73.4224C48.9818 73.5776 48.9436 73.7343 48.8954 73.8896C48.9192 73.8917 48.9391 73.8939 48.956 73.896C48.9653 73.8972 48.9738 73.8982 48.9814 73.8992C49.0149 73.9036 49.0338 73.9061 49.0516 73.9024C49.0927 73.8944 49.1331 73.8824 49.1735 73.8704C49.1858 73.8667 49.1982 73.863 49.2105 73.8595C49.2184 73.8572 49.2263 73.855 49.2342 73.8529C53.5597 72.7208 57.3062 70.5769 60.448 67.3969C64.0105 63.7899 66.2285 59.4787 67.1103 54.4903C67.2339 53.7894 67.3059 53.0789 67.3779 52.3684L67.3779 52.3683L67.378 52.3679C67.411 52.0422 67.4441 51.7164 67.4821 51.3915V49.2062C67.4774 49.1763 67.4723 49.1465 67.467 49.1167C67.4635 49.0973 67.46 49.0779 67.4565 49.0586C67.4376 48.9541 67.4186 48.8497 67.4115 48.7446C67.1411 44.7051 65.9438 40.9652 63.8017 37.5285L63.8006 37.5267C63.5969 37.2001 63.496 37.0382 63.3524 36.9776C63.2113 36.918 63.0291 36.9561 62.668 37.0315L62.6675 37.0316C62.6095 37.0434 62.5502 37.0476 62.4909 37.0518C62.4712 37.0532 62.4514 37.0546 62.4317 37.0563C62.1329 37.0829 61.8342 37.1104 61.5355 37.138L61.5344 37.1381L61.5343 37.1381C60.7611 37.2094 59.9879 37.2807 59.214 37.3348C58.8745 37.3581 58.6679 37.4865 58.5019 37.7792C58.3208 38.0999 58.1203 38.4097 57.8986 38.7522L57.8985 38.7524L57.8983 38.7527C57.7993 38.9056 57.6961 39.065 57.5886 39.2348C57.4485 39.1427 57.3092 39.0569 57.1728 38.9728C56.8823 38.7937 56.6044 38.6225 56.3576 38.4151C55.9778 38.0959 55.6114 37.7612 55.2449 37.4264L55.2449 37.4264C54.9097 37.1202 54.5745 36.814 54.229 36.5196ZM46.9819 67.302C47.021 67.1383 47.0518 66.9491 47.0075 66.7937C46.9063 66.4363 46.8116 66.076 46.7168 65.7155L46.7168 65.7154C46.3007 64.1329 45.8836 62.5465 44.9164 61.1861C44.2126 60.1967 44.1901 59.3214 44.8511 58.3207C45.1126 57.9248 45.3053 57.4836 45.5144 57.0048C45.6133 56.7782 45.7159 56.5432 45.8313 56.3006C44.5294 56.2973 43.7718 55.5263 43.0126 54.7537L43.0125 54.7536C42.9076 54.6468 42.8026 54.54 42.6962 54.4351C42.4761 54.2182 42.1607 54.0485 41.8602 53.9712C40.8192 53.7055 39.7677 53.4773 38.7146 53.2626C38.3984 53.198 38.2302 53.0456 38.1025 52.7596C37.8634 52.2285 37.6089 51.7044 37.3545 51.1803L37.354 51.1793C37.2529 50.971 37.1518 50.7628 37.0517 50.5541C37.0186 50.5593 36.9856 50.5646 36.9525 50.5706V51.9646C36.5342 52.1118 36.3119 51.9654 36.0985 51.6696C35.6351 51.0287 35.1654 50.3923 34.6956 49.7558L34.6955 49.7557C34.1693 49.0429 33.6431 48.33 33.1257 47.6106C32.983 47.4109 32.8959 47.1279 32.8891 46.881C32.8758 46.3437 32.8768 45.8063 32.8778 45.2688C32.8787 44.7774 32.8796 44.2861 32.8696 43.7949C32.8643 43.5577 32.7907 43.2949 32.6698 43.0915C32.389 42.6189 32.0997 42.1512 31.8104 41.6836L31.8103 41.6835C31.4255 41.0616 31.0408 40.4398 30.6764 39.8065C30.4248 39.3688 30.1724 39.26 29.6669 39.3545C29.4964 39.3864 29.326 39.4187 29.1556 39.451L29.1554 39.451L29.1553 39.451C27.6367 39.7387 26.1212 40.0258 24.5504 40.0204C23.583 40.0167 22.9123 39.6105 22.18 39.0655C22.4332 38.862 22.681 38.6626 22.926 38.4654L22.9274 38.4643C23.2089 38.2378 23.4867 38.0142 23.7648 37.7909C23.2818 37.8336 22.8334 37.9207 22.394 38.0431C22.2611 38.0806 22.1131 38.194 22.044 38.3133C20.7191 40.621 19.7742 43.0765 19.2897 45.6941C19.1459 46.4696 19.0477 47.2538 18.9495 48.0382L18.9495 48.0383C18.9047 48.3967 18.8598 48.7551 18.8105 49.1128V51.6779C18.85 51.9792 18.8847 52.2814 18.9195 52.5836L18.9195 52.5837C18.9944 53.2361 19.0694 53.8886 19.1921 54.532C20.6665 62.2881 24.8937 68.0647 31.8075 71.8541C34.7714 73.4786 37.9748 74.3629 41.3532 74.5919C41.4364 74.5979 41.5183 74.6192 41.6002 74.6405C41.6402 74.6509 41.6803 74.6613 41.7205 74.67H44.3824L44.6033 74.6419C45.1207 74.5761 45.6421 74.5098 46.191 74.4395C46.1845 74.3575 46.1777 74.2779 46.1711 74.1998L46.171 74.1997C46.1569 74.0342 46.1434 73.8759 46.1347 73.7173C46.1212 73.4715 46.0993 73.2261 46.0774 72.9809L46.0774 72.9809C46.0016 72.1325 45.9259 71.2863 46.2016 70.4278C46.442 69.6787 46.6161 68.9076 46.79 68.137C46.853 67.8583 46.9159 67.5796 46.9819 67.302Z" fill="white"/>
        <path d="M46.4941 27.1745L46.012 26.3001L46.0106 26.3008L46.4941 27.1745ZM46.8344 27.185L46.3564 28.0617L46.3616 28.0645L46.8344 27.185ZM44.2318 28.4416L43.7407 27.5722C43.6755 27.6091 43.6145 27.6532 43.5591 27.7037L44.2318 28.4416ZM44.002 28.5708L43.8394 27.5855C43.7236 27.6046 43.6122 27.644 43.5101 27.7018L44.002 28.5708ZM42.977 29.1501L42.4859 28.2807L42.4859 28.2807L42.977 29.1501ZM42.6883 29.3132L42.1972 28.4438C41.886 28.6195 41.6925 28.9482 41.6898 29.3056C41.6871 29.663 41.8756 29.9945 42.184 30.175L42.6883 29.3132ZM43.0879 29.5802L43.6686 28.7679L43.6686 28.7679L43.0879 29.5802ZM43.7917 29.9265L43.8183 28.9283L43.816 28.9282L43.7917 29.9265ZM45.9766 29.663L46.3998 30.5675L46.4007 30.5671L45.9766 29.663ZM47.5602 28.5538L48.1982 29.3219V29.3219L47.5602 28.5538ZM48.2502 27.998L48.8532 28.7939C49.1195 28.5922 49.2672 28.2707 49.2469 27.9372C49.2266 27.6038 49.0409 27.3026 48.752 27.1347L48.2502 27.998ZM47.8674 27.7742L48.3725 26.9128L48.3725 26.9128L47.8674 27.7742ZM36.9101 30.8356L36.6645 29.8677L36.6623 29.8683L36.9101 30.8356ZM36.6067 30.7425L36.1134 31.6107L36.1153 31.6118L36.6067 30.7425ZM39.4316 30.1758L39.1752 29.2107V29.2107L39.4316 30.1758ZM40.1248 29.9918L40.3804 30.9571C40.6814 30.8774 40.928 30.6619 41.0473 30.3742C41.1665 30.0866 41.1448 29.7598 40.9885 29.4905L40.1248 29.9918ZM39.9303 29.6643L40.786 29.1497V29.1497L39.9303 29.6643ZM39.5525 28.9919L40.4517 28.5576L40.4517 28.5576L39.5525 28.9919ZM38.9606 28.7644L38.5356 27.8608L38.5348 27.8612L38.9606 28.7644ZM36.9477 28.7006L37.4994 27.8683L37.4954 27.8657L36.9477 28.7006ZM36.8859 28.6901L36.9923 29.6829L36.9927 29.6829L36.8859 28.6901ZM36.8854 28.6901V27.6916C36.664 27.6916 36.4488 27.7651 36.2738 27.9007L36.8854 28.6901ZM36.0506 29.3364L36.6618 30.1261L36.6618 30.1261L36.0506 29.3364ZM35.2555 29.952L34.644 29.1626C34.382 29.3655 34.2378 29.6852 34.259 30.0158C34.2801 30.3465 34.464 30.6452 34.7497 30.813L35.2555 29.952ZM35.6479 30.1833L36.1556 29.3235L36.1556 29.3235L35.6479 30.1833ZM39.1867 26.3502L39.3522 27.335L39.3524 27.3349L39.1867 26.3502ZM27.1579 32.0284L26.5003 31.277L26.5 31.2773L27.1579 32.0284ZM47.103 26.3642L46.9302 27.3476L46.9302 27.3476L47.103 26.3642ZM47.3324 26.4043L47.1621 27.3882L47.1624 27.3882L47.3324 26.4043ZM53.3231 28.2892L54.318 28.3746C54.3538 27.9575 54.1256 27.5624 53.7465 27.3849L53.3231 28.2892ZM53.3096 28.4469L53.2623 29.4443C53.7983 29.4698 54.2586 29.0669 54.3045 28.5322L53.3096 28.4469ZM52.8432 28.4429L52.8328 27.4444H52.8328L52.8432 28.4429ZM51.8427 28.3598L52.1171 27.3997L52.117 27.3997L51.8427 28.3598ZM48.9314 29.0092L48.2396 28.2891L48.2394 28.2893L48.9314 29.0092ZM48.4072 29.5237L49.1102 30.2328L49.1102 30.2328L48.4072 29.5237ZM47.5757 30.3274L48.2488 31.065L48.2512 31.0627L47.5757 30.3274ZM47.0612 30.5894L46.9496 29.5971L46.9493 29.5971L47.0612 30.5894ZM46.5895 30.643L46.7028 31.6351L46.5895 30.643ZM43.4222 30.9362L43.4702 31.9336L43.4714 31.9335L43.4222 30.9362ZM42.2864 30.8473L42.147 31.836H42.147L42.2864 30.8473ZM41.5407 30.762L41.6014 29.7653L41.5971 29.7651L41.5407 30.762ZM41.0607 30.9722L41.8665 31.5619L41.8675 31.5606L41.0607 30.9722ZM40.6179 31.646L41.4659 32.1733L41.4659 32.1733L40.6179 31.646ZM40.1752 32.3197L40.9795 32.9114L40.981 32.9094L40.1752 32.3197ZM39.6562 32.6335L39.7326 33.6291L39.7336 33.629L39.6562 32.6335ZM39.1648 32.6727L39.2458 33.668H39.2458L39.1648 32.6727ZM36.5744 32.7761L36.5304 33.7737L36.5312 33.7737L36.5744 32.7761ZM35.1009 32.441L34.7964 33.392H34.7964L35.1009 32.441ZM34.6508 32.3009L34.9319 31.3428L34.9315 31.3426L34.6508 32.3009ZM33.7593 32.394L34.3444 33.2031L34.3454 33.2025L33.7593 32.394ZM30.1555 33.5456L30.0777 32.5501L30.0777 32.5501L30.1555 33.5456ZM24.979 34.6911L25.2711 35.646L25.2719 35.6457L24.979 34.6911ZM24.6619 34.7813L24.9256 35.7444L24.9257 35.7444L24.6619 34.7813ZM24.5343 34.8165L23.7637 35.4515C24.0149 35.7563 24.4222 35.8845 24.8027 35.7783L24.5343 34.8165ZM24.4874 34.7591L23.713 35.3895L23.713 35.3895L24.4874 34.7591ZM24.4404 34.7016L23.7381 33.9918C23.371 34.355 23.3414 34.9381 23.6698 35.3366L24.4404 34.7016ZM25.2871 33.8454L26.0009 34.5437L26.0009 34.5437L25.2871 33.8454ZM53.589 35.5047L52.6229 35.757L52.6229 35.7572L53.589 35.5047ZM54.229 36.5196L53.5807 37.2791L53.5813 37.2796L54.229 36.5196ZM51.4289 31.8931L50.799 32.6679L50.7993 32.6681L51.4289 31.8931ZM49.5171 31.1589L49.3348 32.1407L49.5171 31.1589ZM48.5454 30.9315L48.8606 29.984C48.5965 29.8961 48.3077 29.9225 48.0639 30.0567C47.82 30.1909 47.6433 30.4208 47.5763 30.6909L48.5454 30.9315ZM48.981 32.5139L49.6085 31.7371L49.6083 31.737L48.981 32.5139ZM50.3955 33.8752L49.6727 34.5642L49.673 34.5644L50.3955 33.8752ZM50.5155 34.001L49.793 34.6903L49.7937 34.691L50.5155 34.001ZM51.384 34.9789L52.1427 34.3297L52.1427 34.3296L51.384 34.9789ZM51.7466 35.3996L52.4215 36.1355C52.8211 35.769 52.8552 35.1506 52.4983 34.7423L51.7466 35.3996ZM49.3679 35.7261L48.8985 36.6075L48.9 36.6083L49.3679 35.7261ZM48.755 35.4739L48.5322 36.4473L48.5348 36.4479L48.755 35.4739ZM48.073 34.4237L49.0518 34.6213L49.0521 34.6196L48.073 34.4237ZM47.9573 33.929L47.5238 34.8285L47.5274 34.8302L47.9573 33.929ZM46.6168 33.3563L46.2451 34.2831H46.2451L46.6168 33.3563ZM46.1261 33.158L46.5054 32.2343C46.2346 32.1231 45.9288 32.1363 45.6686 32.2704C45.4085 32.4045 45.2203 32.646 45.1537 32.931L46.1261 33.158ZM45.9593 33.8344L46.9272 34.0798L46.9272 34.0798L45.9593 33.8344ZM45.6417 35.3005L46.6302 35.4416L46.6302 35.4413L45.6417 35.3005ZM44.7554 36.178L44.6459 35.1855L44.6445 35.1856L44.7554 36.178ZM44.553 36.1976L44.6359 37.1928L44.6427 37.1922L44.553 36.1976ZM44.5528 36.1977L44.4699 35.2025L44.4631 35.2031L44.5528 36.1977ZM43.649 36.4648L44.5077 36.9745L44.5078 36.9743L43.649 36.4648ZM43.6032 37.4149H44.6018C44.6018 37.3696 44.5987 37.3243 44.5925 37.2794L43.6032 37.4149ZM43.6032 37.4149H42.6047C42.6047 37.4603 42.6078 37.5056 42.6139 37.5505L43.6032 37.4149ZM43.6407 37.7244L42.646 37.8118L42.6462 37.8144L43.6407 37.7244ZM43.8706 38.0683L44.0857 37.0932L44.0817 37.0923L43.8706 38.0683ZM45.6764 38.4244L45.4941 39.4062L45.4946 39.4062L45.6764 38.4244ZM45.6765 38.4244L45.8589 37.4427L45.8584 37.4426L45.6765 38.4244ZM46.2613 38.5337L46.0758 39.5149C46.337 39.5642 46.6072 39.5074 46.8264 39.357C47.0455 39.2066 47.1957 38.9749 47.2436 38.7134L46.2613 38.5337ZM46.4297 37.6135L45.4475 37.4337L45.4475 37.4338L46.4297 37.6135ZM46.7293 35.9753L46.912 34.9937C46.6511 34.9451 46.3815 35.0024 46.1629 35.153C45.9442 35.3035 45.7946 35.535 45.7469 35.7961L46.7293 35.9753ZM47.4513 36.082L47.324 37.0724L47.4513 36.082ZM48.9728 36.434L49.3992 35.5311L49.3985 35.5307L48.9728 36.434ZM51 36.8942L51.1075 37.8869L51.1097 37.8867L51 36.8942ZM51.6467 37.2928L52.5785 36.9339L52.5783 36.9333L51.6467 37.2928ZM53.9638 40.538L54.6232 39.7882L54.623 39.788L53.9638 40.538ZM54.6322 41.2021L55.366 40.5248L55.3571 40.5154L54.6322 41.2021ZM54.6322 41.2022L53.8984 41.8795L53.9073 41.8889L54.6322 41.2022ZM54.9335 41.5162L55.6459 40.8164L55.6451 40.8156L54.9335 41.5162ZM55.0995 43.212L54.7361 44.1421C55.2122 44.3281 55.7519 44.1245 55.9866 43.6704L55.0995 43.212ZM50.9114 43.8178L51.3657 44.707L51.366 44.7068L50.9114 43.8178ZM47.3166 46.7177L48.1225 47.3074L48.1227 47.307L47.3166 46.7177ZM46.8214 47.3444L46.0495 46.711C46.0403 46.7222 46.0313 46.7336 46.0226 46.7453L46.8214 47.3444ZM46.8214 47.3444L47.5934 47.9778C47.6026 47.9666 47.6116 47.9551 47.6203 47.9435L46.8214 47.3444ZM45.6116 49.7024L44.6161 49.624L44.6159 49.6279L45.6116 49.7024ZM45.3698 49.9149L45.4463 48.9193L45.4457 48.9192L45.3698 49.9149ZM45.2842 49.9086L45.3559 48.9126L45.3559 48.9126L45.2842 49.9086ZM45.2085 49.9032L45.2791 48.9071L45.279 48.9071L45.2085 49.9032ZM44.1695 49.7475L43.8645 50.6983L43.8652 50.6985L44.1695 49.7475ZM43.3328 49.3854L42.8924 50.2816L42.8924 50.2816L43.3328 49.3854ZM42.8281 49.1484L42.4363 50.0669L42.4364 50.067L42.8281 49.1484ZM42.433 49.1147L42.8335 50.0294L42.8354 50.0285L42.433 49.1147ZM41.1552 49.71L41.5873 50.6102L41.5873 50.6102L41.1552 49.71ZM40.7002 49.9276L40.2717 49.0257C39.8463 49.2278 39.6199 49.6998 39.7286 50.1581L40.7002 49.9276ZM40.9934 51.1638L40.0218 51.3943L40.0218 51.3943L40.9934 51.1638ZM41.1516 51.8306L40.18 52.0612C40.2117 52.1947 40.2706 52.3202 40.3529 52.43L41.1516 51.8306ZM41.2395 51.9478L40.4408 52.5471C40.6567 52.8348 41.0106 52.9841 41.3674 52.9381C41.7241 52.892 42.0285 52.6576 42.1642 52.3245L41.2395 51.9478ZM43.4237 50.9704L44.4209 51.0209C44.4471 50.5048 44.0752 50.054 43.5635 49.9816L43.4237 50.9704ZM43.4042 51.3549L42.4069 51.3044L42.4069 51.3053L43.4042 51.3549ZM43.4041 51.357L44.4013 51.4076L44.4014 51.4066L43.4041 51.357ZM43.3343 52.7375L42.337 52.6874C42.3107 53.2103 42.6929 53.6647 43.2125 53.7286L43.3343 52.7375ZM45.212 53.835L46.0641 53.3143L46.0636 53.3135L45.212 53.835ZM46.4866 54.1998L46.8336 55.1362L46.8344 55.1359L46.4866 54.1998ZM47.904 53.9116L47.7679 54.9008L47.769 54.9009L47.904 53.9116ZM50.3229 54.3775L50.1074 55.3525L50.3229 54.3775ZM51.3425 54.5977L51.5446 53.6198L51.5438 53.6196L51.3425 54.5977ZM51.9932 54.7267L51.803 55.707H51.803L51.9932 54.7267ZM53.3352 55.0113L53.0941 55.9803L53.0958 55.9807L53.3352 55.0113ZM54.0449 55.3799L53.2514 55.9861L53.2529 55.9879L54.0449 55.3799ZM58.4306 58.9922L58.8691 58.0951L58.8688 58.095L58.4306 58.9922ZM59.4202 59.5589L58.8961 60.4089L58.8969 60.4094L59.4202 59.5589ZM59.4204 59.559L59.9445 58.7091L59.9437 58.7086L59.4204 59.559ZM59.8246 59.8052L59.3148 60.6638L59.3159 60.6645L59.8246 59.8052ZM60.0623 59.9622L60.7684 59.2561C60.7265 59.2142 60.6809 59.1761 60.6322 59.1423L60.0623 59.9622ZM60.0623 59.9622L59.3563 60.6683C59.3982 60.7102 59.4437 60.7483 59.4924 60.7822L60.0623 59.9622ZM60.1844 60.0462L61.069 60.5093C61.305 60.0586 61.1644 59.5025 60.7425 59.2181L60.1844 60.0462ZM59.6143 61.1361L58.7294 60.6735L59.6143 61.1361ZM57.5466 65.066L56.6653 64.5965L56.6645 64.598L57.5466 65.066ZM57.1575 65.3783L57.5903 66.2782L57.5928 66.277L57.1575 65.3783ZM56.2899 65.7834L56.6607 66.7106C56.6763 66.7043 56.6918 66.6977 56.7071 66.6906L56.2899 65.7834ZM56.2897 65.7835L55.9189 64.8563C55.9033 64.8626 55.8878 64.8692 55.8725 64.8763L56.2897 65.7835ZM54.9275 66.4338L55.3833 67.3223L55.3833 67.3222L54.9275 66.4338ZM54.4558 66.9578L55.3773 67.3423L55.3775 67.342L54.4558 66.9578ZM54.0494 68.0243L53.1108 67.6833C53.1078 67.6917 53.1049 67.7001 53.1021 67.7085L54.0494 68.0243ZM54.0494 68.0243L54.9879 68.3653C54.9909 68.357 54.9938 68.3485 54.9967 68.3401L54.0494 68.0243ZM53.6273 69.128L52.7071 68.7403V68.7403L53.6273 69.128ZM53.1023 69.8059L52.5299 68.9877L52.5287 68.9885L53.1023 69.8059ZM52.6279 70.1405L52.0515 69.3251L52.0515 69.3251L52.6279 70.1405ZM49.9777 71.8793L49.4895 71.0082L49.4894 71.0083L49.9777 71.8793ZM49.0197 73.4224L49.9884 73.6646L49.9898 73.6588L49.0197 73.4224ZM49.0196 73.4224L48.0509 73.1803L48.0495 73.186L49.0196 73.4224ZM48.8954 73.8896L47.9418 73.5936C47.8522 73.882 47.898 74.1955 48.0664 74.4463C48.2348 74.6971 48.5077 74.8581 48.8086 74.8844L48.8954 73.8896ZM48.956 73.896L48.8345 74.8871L48.8347 74.8872L48.956 73.896ZM48.9814 73.8992L49.1103 72.909L49.11 72.909L48.9814 73.8992ZM49.0516 73.9024L48.8606 72.9223L48.851 72.9242L49.0516 73.9024ZM49.1735 73.8704L49.4581 74.8275L49.4581 74.8275L49.1735 73.8704ZM49.2105 73.8595L49.4863 74.8192L49.4867 74.8191L49.2105 73.8595ZM49.2342 73.8529L48.9813 72.8868L48.9725 72.8892L49.2342 73.8529ZM60.448 67.3969L61.1584 68.0987L61.1585 68.0986L60.448 67.3969ZM67.1103 54.4903L68.0936 54.6642L68.0937 54.6637L67.1103 54.4903ZM67.3779 52.3684L66.391 52.2166C66.3884 52.2335 66.3862 52.2506 66.3845 52.2677L67.3779 52.3684ZM67.3779 52.3683L68.3649 52.5202C68.368 52.5002 68.3704 52.4802 68.3723 52.4601L67.3779 52.3683ZM67.378 52.3679L66.3845 52.2672L66.3837 52.2762L67.378 52.3679ZM67.4821 51.3915L68.4739 51.5075C68.4784 51.469 68.4806 51.4303 68.4806 51.3915H67.4821ZM67.4821 49.2062H68.4806C68.4806 49.1547 68.4766 49.1032 68.4687 49.0522L67.4821 49.2062ZM67.467 49.1167L66.4838 49.2912L66.4838 49.2912L67.467 49.1167ZM67.4565 49.0586L68.439 48.8803L68.439 48.8803L67.4565 49.0586ZM67.4115 48.7446L66.4151 48.8113L66.4152 48.8123L67.4115 48.7446ZM63.8017 37.5285L62.9538 38.0559L62.9543 38.0567L63.8017 37.5285ZM63.8006 37.5267L64.6485 36.9993L64.6479 36.9984L63.8006 37.5267ZM63.3524 36.9776L63.7407 36.0577L63.7407 36.0576L63.3524 36.9776ZM62.668 37.0315L62.8707 38.0092L62.872 38.0089L62.668 37.0315ZM62.6675 37.0316L62.8669 38.01L62.8702 38.0093L62.6675 37.0316ZM62.4909 37.0518L62.5618 38.0479L62.5619 38.0479L62.4909 37.0518ZM62.4317 37.0563L62.3465 36.0614L62.3433 36.0617L62.4317 37.0563ZM61.5355 37.138L61.4438 36.1437L61.4429 36.1437L61.5355 37.138ZM61.5344 37.1381L61.4418 36.1438L61.435 36.1445L61.5344 37.1381ZM61.5343 37.1381L61.626 38.1325L61.6336 38.1317L61.5343 37.1381ZM59.214 37.3348L59.2823 38.331L59.2837 38.331L59.214 37.3348ZM58.5019 37.7792L57.6333 37.2867L57.6326 37.288L58.5019 37.7792ZM57.8986 38.7522L58.7295 39.3062L58.7369 39.2947L57.8986 38.7522ZM57.8985 38.7524L57.0677 38.1985C57.0636 38.2045 57.0596 38.2107 57.0557 38.2168L57.8985 38.7524ZM57.8983 38.7527L58.7366 39.2953L58.7411 39.2883L57.8983 38.7527ZM57.5886 39.2348L57.0402 40.0693C57.264 40.2164 57.5374 40.2674 57.7991 40.2109C58.0608 40.1545 58.2889 39.9953 58.4322 39.7691L57.5886 39.2348ZM57.1728 38.9728L56.6489 39.8229V39.8229L57.1728 38.9728ZM56.3576 38.4151L55.7151 39.1795L55.7153 39.1796L56.3576 38.4151ZM55.2449 37.4264L55.9183 36.6891C55.9131 36.6843 55.9078 36.6796 55.9024 36.6749L55.2449 37.4264ZM55.2449 37.4264L54.5714 38.1636C54.5766 38.1684 54.5819 38.1732 54.5873 38.1779L55.2449 37.4264ZM47.0075 66.7937L46.0467 67.0657L46.0472 67.0676L47.0075 66.7937ZM46.9819 67.302L46.0107 67.0701L46.0105 67.0708L46.9819 67.302ZM46.7168 65.7155L47.6825 65.4616C47.677 65.4408 47.6709 65.4201 47.6641 65.3997L46.7168 65.7155ZM46.7168 65.7154L45.751 65.9694C45.7565 65.9902 45.7627 66.0108 45.7695 66.0312L46.7168 65.7154ZM44.9164 61.1861L45.7303 60.6075L45.7301 60.6073L44.9164 61.1861ZM44.8511 58.3207L44.0179 57.7703L44.0179 57.7704L44.8511 58.3207ZM45.5144 57.0048L44.5993 56.6052H44.5993L45.5144 57.0048ZM45.8313 56.3006L46.7331 56.7293C46.88 56.4204 46.8585 56.0577 46.6761 55.7683C46.4937 55.4789 46.1759 55.3029 45.8338 55.3021L45.8313 56.3006ZM43.0126 54.7537L43.7249 54.0538L43.7187 54.0476L43.0126 54.7537ZM43.0125 54.7536L42.3002 55.4535L42.3064 55.4597L43.0125 54.7536ZM42.6962 54.4351L41.9952 55.1462L41.9955 55.1466L42.6962 54.4351ZM41.8602 53.9712L42.1091 53.0042L42.1072 53.0037L41.8602 53.9712ZM38.7146 53.2626L38.5149 54.2409L38.5151 54.241L38.7146 53.2626ZM38.1025 52.7596L39.0143 52.3525L39.013 52.3497L38.1025 52.7596ZM37.3545 51.1803L38.2528 50.7442L38.2519 50.7424L37.3545 51.1803ZM37.354 51.1793L36.4557 51.6154L36.4566 51.6172L37.354 51.1793ZM37.0517 50.5541L37.952 50.1221C37.7609 49.724 37.331 49.4986 36.8949 49.5679L37.0517 50.5541ZM36.9525 50.5706L36.774 49.5881C36.2992 49.6744 35.954 50.088 35.954 50.5706H36.9525ZM36.9525 51.9646L37.2838 52.9066C37.6836 52.766 37.9511 52.3884 37.9511 51.9646H36.9525ZM36.0985 51.6696L36.9084 51.0855L36.9077 51.0845L36.0985 51.6696ZM34.6956 49.7558L33.888 50.3431L33.8922 50.3488L34.6956 49.7558ZM34.6955 49.7557L35.5031 49.1684L35.4989 49.1627L34.6955 49.7557ZM33.1257 47.6106L32.3133 48.1912L32.3151 48.1937L33.1257 47.6106ZM32.8891 46.881L31.8909 46.9057L31.8909 46.9083L32.8891 46.881ZM32.8778 45.2688L31.8792 45.2669L32.8778 45.2688ZM32.8696 43.7949L33.8679 43.7745L33.8679 43.7727L32.8696 43.7949ZM32.6698 43.0915L31.8113 43.6015L31.8114 43.6017L32.6698 43.0915ZM31.8104 41.6836L30.96 42.207L30.9612 42.209L31.8104 41.6836ZM31.8103 41.6835L32.6607 41.1602L32.6595 41.1581L31.8103 41.6835ZM30.6764 39.8065L29.8107 40.3042L29.8109 40.3045L30.6764 39.8065ZM29.6669 39.3545L29.8504 40.3361L29.8506 40.3361L29.6669 39.3545ZM29.1556 39.451L28.9698 38.4699L28.9659 38.4706L29.1556 39.451ZM29.1554 39.451L29.2792 40.4419C29.3013 40.4391 29.3233 40.4356 29.3451 40.4314L29.1554 39.451ZM29.1553 39.451L29.0315 38.4602C29.0107 38.4628 28.99 38.466 28.9695 38.4699L29.1553 39.451ZM24.5504 40.0204L24.5466 41.019L24.547 41.019L24.5504 40.0204ZM22.18 39.0655L21.5544 38.2872C21.3135 38.4808 21.1758 38.7751 21.1816 39.0841C21.1873 39.3931 21.3359 39.6821 21.5838 39.8666L22.18 39.0655ZM22.926 38.4654L22.3004 37.6871L22.3 37.6875L22.926 38.4654ZM22.9274 38.4643L23.553 39.2426L23.5534 39.2423L22.9274 38.4643ZM23.7648 37.7909L24.3901 38.5693C24.7331 38.2938 24.8554 37.8263 24.6911 37.4181C24.5269 37.01 24.1149 36.7574 23.6767 36.7962L23.7648 37.7909ZM22.394 38.0431L22.1261 37.0811L22.1227 37.0821L22.394 38.0431ZM22.044 38.3133L21.1798 37.813L21.1781 37.8161L22.044 38.3133ZM19.2897 45.6941L20.2715 45.8762L20.2716 45.8758L19.2897 45.6941ZM18.9495 48.0382L17.9587 47.9142L17.9582 47.9187L18.9495 48.0382ZM18.9495 48.0383L19.9403 48.1623L19.9409 48.1578L18.9495 48.0383ZM18.8105 49.1128L17.8213 48.9766C17.8151 49.0217 17.812 49.0672 17.812 49.1128H18.8105ZM18.8105 51.6779H17.812C17.812 51.7212 17.8148 51.7645 17.8205 51.8075L18.8105 51.6779ZM18.9195 52.5836L19.9122 52.4757L19.9115 52.4696L18.9195 52.5836ZM18.9195 52.5837L17.9268 52.6916L17.9275 52.6976L18.9195 52.5837ZM19.1921 54.532L20.1731 54.3455L20.173 54.3449L19.1921 54.532ZM31.8075 71.8541L32.2875 70.9785L32.2875 70.9785L31.8075 71.8541ZM41.3532 74.5919L41.4256 73.596L41.4207 73.5956L41.3532 74.5919ZM41.6002 74.6405L41.3489 75.6069L41.349 75.6069L41.6002 74.6405ZM41.7205 74.67L41.511 75.6463C41.5799 75.6611 41.6501 75.6685 41.7205 75.6685V74.67ZM44.3824 74.67V75.6685C44.4245 75.6685 44.4666 75.6659 44.5083 75.6605L44.3824 74.67ZM44.6033 74.6419L44.7292 75.6325H44.7292L44.6033 74.6419ZM46.191 74.4395L46.3179 75.43C46.8463 75.3623 47.2285 74.8917 47.1865 74.3607L46.191 74.4395ZM46.1711 74.1998L47.166 74.1148L47.1653 74.1066L46.1711 74.1998ZM46.171 74.1997L45.1761 74.2847L45.1769 74.2929L46.171 74.1997ZM46.1347 73.7173L47.1318 73.6628L47.1318 73.6627L46.1347 73.7173ZM46.0774 72.9809L45.0823 73.0639L45.0828 73.0698L46.0774 72.9809ZM46.0774 72.9809L47.0725 72.8979L47.072 72.892L46.0774 72.9809ZM46.2016 70.4278L47.1523 70.7331L47.1523 70.733L46.2016 70.4278ZM46.79 68.137L47.7641 68.3569H47.7641L46.79 68.137ZM46.9763 28.0489C46.8774 28.1034 46.7929 28.1237 46.7462 28.132C46.6956 28.141 46.6545 28.1421 46.6241 28.1409C46.5931 28.1397 46.5592 28.1356 46.5216 28.1265C46.4865 28.1181 46.4275 28.1004 46.3564 28.0617L47.3123 26.3083C47.0951 26.1898 46.8701 26.1519 46.7016 26.1453C46.5431 26.1392 46.2761 26.1544 46.012 26.3001L46.9763 28.0489ZM44.7229 29.3111C45.4887 28.8785 46.234 28.4598 46.9777 28.0481L46.0106 26.3008C45.2596 26.7165 44.5087 27.1384 43.7407 27.5722L44.7229 29.3111ZM44.1646 29.556C44.5328 29.4952 44.7884 29.2855 44.9045 29.1796L43.5591 27.7037C43.5603 27.7026 43.5786 27.6857 43.6149 27.6643C43.6499 27.6437 43.7264 27.6042 43.8394 27.5855L44.1646 29.556ZM43.4681 30.0196C43.8158 29.8232 44.1564 29.6308 44.4939 29.4397L43.5101 27.7018C43.1736 27.8923 42.8338 28.0842 42.4859 28.2807L43.4681 30.0196ZM43.1795 30.1826C43.2763 30.1279 43.3724 30.0736 43.4681 30.0196L42.4859 28.2807C42.3903 28.3347 42.2941 28.389 42.1972 28.4438L43.1795 30.1826ZM43.6686 28.7679C43.5491 28.6825 43.3813 28.5618 43.1927 28.4514L42.184 30.175C42.2818 30.2322 42.3776 30.3 42.5072 30.3926L43.6686 28.7679ZM43.816 28.9282C43.9268 28.9309 43.9762 28.969 43.9279 28.9427C43.9074 28.9315 43.8769 28.913 43.831 28.882C43.7843 28.8505 43.7342 28.8148 43.6686 28.7679L42.5072 30.3925C42.6211 30.474 42.7919 30.5979 42.9714 30.6958C43.1548 30.7959 43.4294 30.9165 43.7674 30.9248L43.816 28.9282ZM45.5535 28.7585C45.1709 28.9375 44.6062 28.9493 43.8183 28.9283L43.7651 30.9247C44.4418 30.9427 45.5115 30.983 46.3998 30.5675L45.5535 28.7585ZM46.9222 27.7856C46.3883 28.229 45.9862 28.5556 45.5526 28.759L46.4007 30.5671C47.1066 30.2359 47.7047 29.7318 48.1982 29.3219L46.9222 27.7856ZM47.6472 27.202C47.3892 27.3975 47.1445 27.601 46.9222 27.7856L48.1982 29.3219C48.426 29.1327 48.6366 28.958 48.8532 28.7939L47.6472 27.202ZM47.3623 28.6355C47.4859 28.708 47.6147 28.7835 47.7484 28.8613L48.752 27.1347C48.6222 27.0592 48.4966 26.9856 48.3725 26.9128L47.3623 28.6355ZM46.3616 28.0645C46.6823 28.2369 46.9989 28.4224 47.3623 28.6355L48.3725 26.9128C48.0152 26.7032 47.6662 26.4984 47.3072 26.3054L46.3616 28.0645ZM36.6623 29.8683C36.8024 29.8324 36.9166 29.8403 36.9796 29.8493C37.0438 29.8584 37.0875 29.8735 37.104 29.8795C37.1319 29.8898 37.1376 29.8956 37.0981 29.8732L36.1153 31.6118C36.1674 31.6412 36.281 31.7048 36.4157 31.7543C36.5222 31.7934 36.8133 31.8912 37.158 31.8029L36.6623 29.8683ZM39.1752 29.2107C38.3232 29.437 37.4946 29.6571 36.6645 29.8677L37.1557 31.8035C37.9984 31.5896 38.8377 31.3667 39.6879 31.1408L39.1752 29.2107ZM39.8692 29.0265C39.6362 29.0882 39.4049 29.1497 39.1752 29.2107L39.6879 31.1408C39.9177 31.0798 40.1483 31.0186 40.3804 30.9571L39.8692 29.0265ZM39.0745 30.1789C39.1379 30.2843 39.1992 30.3862 39.2612 30.4931L40.9885 29.4905C40.9175 29.3682 40.8484 29.2535 40.786 29.1497L39.0745 30.1789ZM38.6533 29.4261C38.7851 29.6989 38.9388 29.9532 39.0745 30.1789L40.786 29.1497C40.6412 28.9089 40.5367 28.7337 40.4517 28.5576L38.6533 29.4261ZM39.3856 29.668C39.4231 29.6504 39.2182 29.76 38.9354 29.6436C38.6822 29.5394 38.6173 29.3516 38.6533 29.4262L40.4517 28.5576C40.351 28.3491 40.137 27.9785 39.6955 27.7968C39.2243 27.6029 38.7918 27.7403 38.5356 27.8608L39.3856 29.668ZM36.396 29.5329C37.4265 30.2161 38.4923 30.0892 39.3865 29.6676L38.5348 27.8612C38.0725 28.0792 37.7848 28.0575 37.4994 27.8683L36.396 29.5329ZM36.9927 29.6829C36.9928 29.6829 36.9919 29.683 36.9907 29.6831C36.9895 29.6832 36.9879 29.6834 36.986 29.6836C36.9822 29.6839 36.9778 29.6844 36.9729 29.6848C36.963 29.6856 36.9515 29.6864 36.9387 29.687C36.914 29.6881 36.8799 29.6885 36.8391 29.6856C36.7995 29.6828 36.7413 29.676 36.6722 29.6576C36.6043 29.6395 36.5056 29.6049 36.4 29.5356L37.4954 27.8657C37.2757 27.7216 37.062 27.6993 36.9812 27.6936C36.88 27.6864 36.8004 27.6949 36.7792 27.6972L36.9927 29.6829ZM36.8854 29.6887C36.9019 29.6887 36.9154 29.6882 36.9237 29.6879C36.9326 29.6876 36.9399 29.6872 36.9452 29.6869C36.9554 29.6863 36.9635 29.6856 36.9678 29.6853C36.9765 29.6845 36.9833 29.6839 36.9853 29.6837C36.988 29.6834 36.9902 29.6831 36.9909 29.6831C36.9914 29.683 36.9917 29.683 36.9919 29.683C36.992 29.683 36.9921 29.6829 36.9922 29.6829C36.9922 29.6829 36.9923 29.6829 36.9923 29.6829L36.7795 27.6972C36.7778 27.6974 36.7817 27.697 36.7858 27.6965C36.7877 27.6964 36.7944 27.6957 36.803 27.695C36.8073 27.6946 36.8154 27.694 36.8256 27.6934C36.8308 27.693 36.8382 27.6926 36.847 27.6923C36.8553 27.692 36.8688 27.6916 36.8854 27.6916V29.6887ZM36.6618 30.1261C36.9417 29.9094 37.2171 29.6963 37.4969 29.4795L36.2738 27.9007C35.9944 28.1172 35.7194 28.3301 35.4394 28.5468L36.6618 30.1261ZM35.867 30.7415C36.1408 30.5293 36.4033 30.3262 36.6618 30.1261L35.4394 28.5468C35.1809 28.7469 34.9182 28.9502 34.644 29.1626L35.867 30.7415ZM36.1556 29.3235C36.0278 29.248 35.8964 29.1704 35.7613 29.091L34.7497 30.813C34.8826 30.8911 35.012 30.9675 35.1401 31.0431L36.1556 29.3235ZM37.1 29.8743C36.7925 29.6996 36.4865 29.5189 36.1556 29.3235L35.1401 31.0431C35.4684 31.237 35.7889 31.4263 36.1134 31.6107L37.1 29.8743ZM39.0212 25.3655C34.3002 26.159 30.1069 28.1208 26.5003 31.277L27.8155 32.7799C31.1385 29.8719 34.9894 28.0683 39.3522 27.335L39.0212 25.3655ZM43.53 25.0014C41.6276 25.0014 40.9155 25.0467 39.021 25.3655L39.3524 27.3349C41.1244 27.0367 41.7246 26.9985 43.53 26.9985V25.0014ZM47.2759 25.3807C46.3991 25.2266 45.1247 25.0014 43.53 25.0014V26.9985C44.9374 26.9985 46.0645 27.1955 46.9302 27.3476L47.2759 25.3807ZM47.5027 25.4203C47.4305 25.4078 47.3553 25.3946 47.2759 25.3807L46.9302 27.3476C47.0091 27.3615 47.0868 27.3752 47.1621 27.3882L47.5027 25.4203ZM53.7465 27.3849C51.7551 26.4527 49.6721 25.7952 47.5024 25.4203L47.1624 27.3882C49.1552 27.7325 51.068 28.3361 52.8998 29.1936L53.7465 27.3849ZM54.3045 28.5322L54.318 28.3746L52.3282 28.2039L52.3147 28.3616L54.3045 28.5322ZM52.8536 29.4414C53.0151 29.4397 53.1423 29.4386 53.2623 29.4443L53.3569 27.4495C53.1694 27.4406 52.9839 27.4428 52.8328 27.4444L52.8536 29.4414ZM51.5683 29.3199C52.0483 29.4571 52.5414 29.4446 52.8536 29.4414L52.8328 27.4444C52.4601 27.4483 52.2682 27.4429 52.1171 27.3997L51.5683 29.3199ZM49.6233 29.7292C49.9224 29.4417 50.208 29.2998 50.489 29.241C50.7778 29.1805 51.128 29.1941 51.5684 29.32L52.117 27.3997C51.4458 27.2079 50.7591 27.1439 50.0795 27.2863C49.3922 27.4303 48.7779 27.7718 48.2396 28.2891L49.6233 29.7292ZM49.1102 30.2328C49.285 30.0595 49.4535 29.8925 49.6235 29.729L48.2394 28.2893C48.0564 28.4653 47.8771 28.6431 47.7041 28.8146L49.1102 30.2328ZM48.2512 31.0627C48.5515 30.7869 48.8387 30.502 49.1102 30.2328L47.7041 28.8146C47.428 29.0883 47.1677 29.3462 46.9002 29.592L48.2512 31.0627ZM47.1728 31.5817C47.6411 31.529 48.026 31.2683 48.2488 31.065L46.9026 29.5898C46.8983 29.5937 46.8917 29.5992 46.8837 29.6049C46.8757 29.6106 46.8693 29.6144 46.8656 29.6163C46.8618 29.6184 46.8649 29.6163 46.8757 29.6126C46.8861 29.609 46.9112 29.6014 46.9496 29.5971L47.1728 31.5817ZM46.7028 31.6351C46.8602 31.6171 47.0167 31.5993 47.1731 31.5816L46.9493 29.5971C46.7913 29.6149 46.6333 29.633 46.4762 29.6509L46.7028 31.6351ZM43.4714 31.9335C44.5671 31.8794 45.6538 31.7549 46.7028 31.6351L46.4762 29.6509C45.4164 29.772 44.3936 29.8884 43.3729 29.9388L43.4714 31.9335ZM42.147 31.836C42.5099 31.8872 42.9835 31.957 43.4702 31.9336L43.3741 29.9388C43.1078 29.9516 42.8229 29.9145 42.4258 29.8585L42.147 31.836ZM41.48 31.7587C41.6823 31.771 41.8917 31.8 42.147 31.836L42.4258 29.8585C42.1842 29.8244 41.8961 29.7833 41.6014 29.7653L41.48 31.7587ZM41.8675 31.5606C41.8111 31.6379 41.7567 31.6805 41.7314 31.6986C41.7032 31.7187 41.6817 31.7291 41.669 31.7345C41.6559 31.7402 41.6395 31.7459 41.6169 31.7507C41.5969 31.7549 41.5512 31.7628 41.4843 31.759L41.5971 29.7651C41.3214 29.7495 41.0675 29.8194 40.8811 29.8995C40.7025 29.9762 40.4443 30.1227 40.2539 30.3838L41.8675 31.5606ZM41.4659 32.1733C41.6114 31.9393 41.734 31.743 41.8665 31.5619L40.2549 30.3825C40.0704 30.6346 39.9087 30.8955 39.77 31.1187L41.4659 32.1733ZM40.981 32.9094C41.1654 32.6573 41.3271 32.3964 41.4659 32.1733L39.77 31.1187C39.6244 31.3527 39.5018 31.5489 39.3693 31.73L40.981 32.9094ZM39.7336 33.629C40.0364 33.6055 40.2925 33.4864 40.4684 33.3773C40.6508 33.2641 40.8358 33.1068 40.9795 32.9114L39.3708 31.728C39.3893 31.7028 39.4027 31.6906 39.4061 31.6875C39.4104 31.6837 39.4131 31.6818 39.4159 31.68C39.4183 31.6785 39.4285 31.6723 39.4489 31.6647C39.4675 31.6577 39.5118 31.6431 39.5787 31.6379L39.7336 33.629ZM39.2458 33.668C39.41 33.6546 39.5716 33.6415 39.7326 33.6291L39.5797 31.6379C39.4134 31.6506 39.2474 31.6641 39.0839 31.6774L39.2458 33.668ZM36.5312 33.7737C37.4643 33.8141 38.3929 33.7373 39.2458 33.668L39.0839 31.6774C38.2094 31.7485 37.4054 31.8126 36.6176 31.7785L36.5312 33.7737ZM34.7964 33.392C35.258 33.5398 35.8787 33.745 36.5304 33.7737L36.6184 31.7785C36.2805 31.7636 35.9186 31.6543 35.4053 31.49L34.7964 33.392ZM34.3698 33.2591C34.5057 33.299 34.644 33.3432 34.7964 33.392L35.4053 31.49C35.257 31.4425 35.0953 31.3907 34.9319 31.3428L34.3698 33.2591ZM34.3454 33.2025C34.3483 33.2003 34.3376 33.2084 34.3145 33.2167C34.291 33.2252 34.2686 33.229 34.2528 33.2299C34.239 33.2307 34.2389 33.2289 34.2588 33.2321C34.28 33.2355 34.3146 33.243 34.3702 33.2592L34.9315 31.3426C34.4874 31.2126 33.8312 31.1085 33.1732 31.5856L34.3454 33.2025ZM30.2333 34.5411C31.6128 34.4333 33.0576 34.1338 34.3444 33.2031L33.1741 31.5849C32.3143 32.2067 31.2925 32.4551 30.0777 32.5501L30.2333 34.5411ZM25.2719 35.6457C26.9665 35.1257 28.5771 34.6705 30.2333 34.5411L30.0777 32.5501C28.1798 32.6984 26.3819 33.2161 24.686 33.7365L25.2719 35.6457ZM24.9257 35.7444C25.0292 35.7161 25.1496 35.6832 25.2711 35.646L24.6868 33.7363C24.5983 33.7633 24.5064 33.7886 24.3981 33.8182L24.9257 35.7444ZM24.8027 35.7783C24.8424 35.7672 24.8827 35.7562 24.9256 35.7444L24.3981 33.8182C24.3559 33.8298 24.3111 33.8421 24.2659 33.8547L24.8027 35.7783ZM23.713 35.3895C23.7283 35.4083 23.7457 35.4297 23.7637 35.4515L25.305 34.1815C25.2914 34.165 25.2776 34.1481 25.2617 34.1286L23.713 35.3895ZM23.6698 35.3366C23.6834 35.3531 23.6971 35.37 23.713 35.3895L25.2617 34.1286C25.2465 34.1098 25.229 34.0884 25.2111 34.0666L23.6698 35.3366ZM24.5732 33.1472C24.2915 33.4352 24.0164 33.7164 23.7381 33.9918L25.1428 35.4114C25.4346 35.1226 25.7211 34.8297 26.0009 34.5437L24.5732 33.1472ZM26.5 31.2773C25.8132 31.8788 25.1777 32.5293 24.5732 33.1472L26.0009 34.5437C26.6145 33.9164 27.1968 33.3218 27.8158 32.7796L26.5 31.2773ZM52.6229 35.7572C52.7847 36.3761 53.1002 36.8691 53.5807 37.2791L54.8772 35.76C54.6997 35.6086 54.6111 35.4665 54.5551 35.2521L52.6229 35.7572ZM50.7993 32.6681C51.7792 33.4642 52.2875 34.473 52.6229 35.757L54.5552 35.2523C54.1545 33.7182 53.4776 32.2708 52.0585 31.118L50.7993 32.6681ZM49.3348 32.1407C50.007 32.2655 50.4165 32.357 50.799 32.6679L52.0588 31.1183C51.2323 30.4464 50.3346 30.2951 49.6994 30.1771L49.3348 32.1407ZM48.2302 31.879C48.626 32.0106 49.0195 32.0821 49.3348 32.1407L49.6994 30.1771C49.363 30.1147 49.1046 30.0651 48.8606 29.984L48.2302 31.879ZM49.6083 31.737C49.4839 31.6365 49.4762 31.5863 49.4734 31.5753C49.4643 31.5383 49.4507 31.4291 49.5146 31.172L47.5763 30.6909C47.4733 31.1057 47.4159 31.5764 47.5353 32.057C47.6612 32.5636 47.9547 32.9687 48.3538 33.2909L49.6083 31.737ZM51.1182 33.1861C50.6739 32.7202 50.1747 32.1944 49.6085 31.7371L48.3536 33.2907C48.8017 33.6527 49.2128 34.0817 49.6727 34.5642L51.1182 33.1861ZM51.238 33.3117L51.1179 33.1859L49.673 34.5644L49.793 34.6903L51.238 33.3117ZM52.1427 34.3296C51.8648 34.005 51.5621 33.6508 51.2374 33.3111L49.7937 34.691C50.0742 34.9845 50.3417 35.2966 50.6254 35.6281L52.1427 34.3296ZM52.4983 34.7423C52.3816 34.6088 52.2646 34.4721 52.1427 34.3297L50.6254 35.6281C50.746 35.7692 50.87 35.914 50.9948 36.0568L52.4983 34.7423ZM48.9 36.6083C49.4581 36.9043 50.0717 37.0648 50.7184 36.9813C51.3644 36.8979 51.931 36.5853 52.4215 36.1355L51.0717 34.6636C50.8058 34.9075 50.6055 34.9822 50.4625 35.0007C50.3201 35.0191 50.1226 34.9961 49.8357 34.844L48.9 36.6083ZM48.5348 36.4479C48.6064 36.464 48.7104 36.5073 48.8985 36.6075L49.8372 34.8447C49.6362 34.7377 49.3287 34.5798 48.9751 34.4999L48.5348 36.4479ZM47.0942 34.2261C47.0071 34.6573 47.0031 35.1908 47.3166 35.6686C47.6279 36.143 48.1144 36.3516 48.5322 36.4473L48.9777 34.5005C48.9019 34.4831 48.88 34.4687 48.8889 34.4739C48.9028 34.482 48.9463 34.512 48.9863 34.573C49.0266 34.6344 49.0377 34.688 49.0398 34.7074C49.0413 34.7207 49.0365 34.6969 49.0518 34.6213L47.0942 34.2261ZM47.5274 34.8302C47.3772 34.7586 47.2811 34.6633 47.2282 34.6005C47.1742 34.5364 47.1429 34.4796 47.1267 34.447C47.0956 34.3841 47.0874 34.3426 47.0867 34.339C47.0847 34.3298 47.0843 34.3248 47.0841 34.3188C47.0841 34.3172 47.0825 34.2844 47.0938 34.2277L49.0521 34.6196C49.1013 34.3737 49.0812 34.1207 49.0416 33.9309C49.0204 33.8292 48.9836 33.6965 48.9166 33.5611C48.865 33.457 48.716 33.1845 48.3872 33.0277L47.5274 34.8302ZM46.2451 34.2831C46.7079 34.4687 47.125 34.6363 47.5238 34.8285L48.3908 33.0294C47.9207 32.8029 47.4403 32.6107 46.9884 32.4295L46.2451 34.2831ZM45.7469 34.0817C45.9158 34.1511 46.0832 34.2182 46.2451 34.2831L46.9884 32.4295C46.8252 32.3641 46.6654 32.3 46.5054 32.2343L45.7469 34.0817ZM46.9272 34.0798C46.9828 33.8606 47.042 33.627 47.0985 33.3851L45.1537 32.931C45.1022 33.1516 45.0476 33.3672 44.9913 33.5891L46.9272 34.0798ZM46.6302 35.4413C46.6907 35.0166 46.798 34.5896 46.9272 34.0798L44.9913 33.5891C44.8669 34.0799 44.7312 34.6111 44.6531 35.1596L46.6302 35.4413ZM44.8648 37.1706C45.2662 37.1263 45.7169 36.9949 46.0782 36.6366C46.4353 36.2825 46.5739 35.8362 46.6302 35.4416L44.6531 35.1594C44.6475 35.1988 44.6415 35.2276 44.6363 35.2478C44.6311 35.2678 44.6273 35.2773 44.6266 35.2788C44.6261 35.2801 44.6289 35.2732 44.6368 35.2612C44.6448 35.2489 44.6565 35.2339 44.672 35.2185C44.6876 35.2031 44.7035 35.1907 44.7179 35.1815C44.732 35.1725 44.7416 35.1684 44.7437 35.1675C44.7455 35.1668 44.7396 35.1693 44.7233 35.1731C44.7069 35.1769 44.6817 35.1815 44.6459 35.1855L44.8648 37.1706ZM44.6427 37.1922C44.7109 37.186 44.7903 37.1789 44.8662 37.1704L44.6445 35.1856C44.5936 35.1913 44.5363 35.1965 44.4632 35.2031L44.6427 37.1922ZM44.6357 37.1928L44.6359 37.1927L44.47 35.2025L44.4699 35.2026L44.6357 37.1928ZM44.5078 36.9743C44.408 37.1425 44.2809 37.2145 44.2437 37.2335C44.2043 37.2537 44.1919 37.2523 44.232 37.2431C44.2674 37.235 44.32 37.226 44.395 37.2169C44.4697 37.2078 44.549 37.2006 44.6425 37.1922L44.4631 35.2031C44.2989 35.218 44.0296 35.2404 43.7843 35.2968C43.6584 35.3258 43.4956 35.3728 43.3326 35.4564C43.1719 35.5387 42.9482 35.689 42.7902 35.9553L44.5078 36.9743ZM44.5925 37.2794C44.5802 37.1896 44.5704 37.1173 44.5632 37.0489C44.5561 36.9813 44.5533 36.9325 44.5532 36.8967C44.5531 36.8603 44.5559 36.852 44.5538 36.8628C44.5513 36.875 44.541 36.9183 44.5077 36.9745L42.7903 35.9551C42.5849 36.3012 42.5554 36.6633 42.5561 36.9024C42.5568 37.1453 42.5921 37.3915 42.6139 37.5505L44.5925 37.2794ZM44.6018 37.4149V37.4149H42.6047V37.4149H44.6018ZM44.6355 37.6371C44.6242 37.5091 44.6063 37.3799 44.5925 37.2794L42.6139 37.5505C42.6291 37.6611 42.6398 37.7408 42.646 37.8118L44.6355 37.6371ZM44.0817 37.0923C44.3036 37.1403 44.4342 37.255 44.4724 37.2904C44.5234 37.3376 44.5507 37.3772 44.5622 37.3952C44.5754 37.4157 44.5869 37.4376 44.5973 37.4643C44.6057 37.4856 44.6271 37.5446 44.6352 37.6345L42.6462 37.8144C42.6711 38.0891 42.7853 38.3241 42.882 38.4747C42.9371 38.5603 43.0134 38.6611 43.1152 38.7554C43.2042 38.8378 43.3872 38.9854 43.6595 39.0442L44.0817 37.0923ZM45.8587 37.4426C45.2437 37.3284 44.6612 37.2201 44.0857 37.0932L43.6555 39.0434C44.2692 39.1788 44.8847 39.293 45.4941 39.4062L45.8587 37.4426ZM45.8584 37.4426L45.8582 37.4425L45.4946 39.4062L45.4947 39.4063L45.8584 37.4426ZM46.4468 37.5525C46.2485 37.515 46.0521 37.4786 45.8589 37.4427L45.4942 39.4062C45.688 39.4422 45.8812 39.4781 46.0758 39.5149L46.4468 37.5525ZM45.4475 37.4338L45.2791 38.3539L47.2436 38.7134L47.4119 37.7933L45.4475 37.4338ZM45.7469 35.7961C45.6446 36.3567 45.5464 36.8936 45.4475 37.4337L47.4119 37.7933C47.5108 37.2533 47.6092 36.7158 47.7116 36.1546L45.7469 35.7961ZM47.5787 35.0916C47.3341 35.0602 47.1196 35.0323 46.912 34.9937L46.5465 36.957C46.8184 37.0076 47.0887 37.0421 47.324 37.0724L47.5787 35.0916ZM49.3985 35.5307C48.774 35.2365 48.0829 35.1564 47.5787 35.0916L47.324 37.0724C47.8974 37.1461 48.259 37.2015 48.5471 37.3373L49.3985 35.5307ZM50.8925 35.9014C50.4465 35.9497 50.0255 35.8269 49.3992 35.5311L48.5463 37.3369C49.2615 37.6747 50.0979 37.9963 51.1075 37.8869L50.8925 35.9014ZM52.5783 36.9333C52.4721 36.6581 52.2831 36.3319 51.9276 36.1121C51.5692 35.8906 51.19 35.8685 50.8903 35.9017L51.1097 37.8867C51.1427 37.883 51.026 37.9027 50.8774 37.8108C50.7316 37.7207 50.6996 37.6122 50.7151 37.6523L52.5783 36.9333ZM54.623 39.788C53.6983 38.9753 53.0051 38.0414 52.5785 36.9339L50.7149 37.6517C51.2737 39.1026 52.1743 40.2946 53.3046 41.2881L54.623 39.788ZM55.3571 40.5154C55.146 40.2925 54.8986 40.0304 54.6232 39.7882L53.3044 41.2879C53.4999 41.4598 53.6854 41.6546 53.9072 41.8888L55.3571 40.5154ZM55.366 40.5249L55.3659 40.5248L53.8984 41.8794L53.8985 41.8795L55.366 40.5249ZM55.6451 40.8156C55.5513 40.7204 55.4581 40.622 55.3572 40.5155L53.9073 41.8889C54.0059 41.993 54.1124 42.1054 54.2219 42.2167L55.6451 40.8156ZM55.9866 43.6704C56.2004 43.2567 56.4445 42.7345 56.3855 42.1611C56.3221 41.5447 55.9406 41.1165 55.6459 40.8164L54.2211 42.2159C54.3456 42.3427 54.3964 42.409 54.4163 42.4404C54.4279 42.4586 54.4052 42.427 54.3989 42.3655C54.3934 42.3116 54.4076 42.3003 54.386 42.3677C54.3623 42.442 54.3127 42.5595 54.2124 42.7536L55.9866 43.6704ZM51.366 44.7068C52.7118 44.0186 53.6792 43.7291 54.7361 44.1421L55.4629 42.2819C53.5454 41.5328 51.8764 42.2027 50.4567 42.9287L51.366 44.7068ZM48.1227 47.307C48.9496 46.176 50.021 45.3942 51.3657 44.707L50.457 42.9286C48.9431 43.7022 47.5824 44.6621 46.5105 46.1284L48.1227 47.307ZM47.5934 47.9778C47.7594 47.7755 47.9464 47.5479 48.1225 47.3074L46.5108 46.128C46.3729 46.3164 46.2214 46.5015 46.0495 46.711L47.5934 47.9778ZM47.6203 47.9435L47.6203 47.9435L46.0226 46.7453L46.0226 46.7453L47.6203 47.9435ZM46.6071 49.7809C46.6559 49.1611 46.9975 48.704 47.5934 47.9778L46.0495 46.711C45.5086 47.3703 44.7213 48.2889 44.6162 49.624L46.6071 49.7809ZM45.2932 50.9105C45.5897 50.9333 45.8152 50.8254 45.8979 50.7827C46.0097 50.725 46.1032 50.6557 46.1763 50.5916C46.2495 50.5274 46.3298 50.4441 46.4012 50.3418C46.4555 50.2639 46.586 50.0622 46.6074 49.7769L44.6159 49.6279C44.6342 49.3828 44.7428 49.2285 44.7634 49.1989C44.8011 49.145 44.8359 49.1108 44.8592 49.0904C44.8823 49.0702 44.9214 49.0393 44.9814 49.0083C45.0124 48.9923 45.1889 48.8995 45.4463 48.9193L45.2932 50.9105ZM45.2124 50.9045C45.2402 50.9065 45.2672 50.9085 45.2938 50.9105L45.4457 48.9192C45.4154 48.9169 45.3853 48.9147 45.3559 48.9126L45.2124 50.9045ZM45.1379 50.8992C45.1634 50.901 45.188 50.9028 45.2125 50.9045L45.3559 48.9126C45.33 48.9107 45.3041 48.9089 45.2791 48.9071L45.1379 50.8992ZM43.8652 50.6985C44.3289 50.8469 44.8092 50.8759 45.138 50.8992L45.279 48.9071C44.9035 48.8805 44.6693 48.859 44.4738 48.7964L43.8652 50.6985ZM42.8924 50.2816C43.1552 50.4108 43.4949 50.5798 43.8645 50.6983L44.4745 48.7966C44.268 48.7304 44.0594 48.6299 43.7733 48.4893L42.8924 50.2816ZM42.4364 50.067C42.5781 50.1274 42.7212 50.1975 42.8924 50.2816L43.7733 48.4893C43.6103 48.4092 43.4191 48.3149 43.2197 48.2299L42.4364 50.067ZM42.8354 50.0285C42.7398 50.0706 42.6597 50.0832 42.6136 50.0874C42.5658 50.0917 42.5312 50.0891 42.5132 50.087C42.4813 50.0834 42.4598 50.0769 42.4363 50.0669L43.2198 48.2299C43.0784 48.1696 42.913 48.1226 42.74 48.1029C42.5849 48.0851 42.3136 48.0761 42.0306 48.2008L42.8354 50.0285ZM41.5873 50.6102C42.0204 50.4023 42.4251 50.2082 42.8335 50.0294L42.0325 48.1999C41.5868 48.3951 41.1507 48.6045 40.7231 48.8098L41.5873 50.6102ZM41.1287 50.8296C41.2841 50.7557 41.4374 50.6822 41.5873 50.6102L40.7231 48.8098C40.5726 48.882 40.4229 48.9539 40.2717 49.0257L41.1287 50.8296ZM41.965 50.9334L41.6718 49.6972L39.7286 50.1581L40.0218 51.3943L41.965 50.9334ZM42.1232 51.6001L41.965 50.9333L40.0218 51.3943L40.18 52.0612L42.1232 51.6001ZM42.0382 51.3484L41.9503 51.2313L40.3529 52.43L40.4408 52.5471L42.0382 51.3484ZM43.5635 49.9816C43.0694 49.9118 42.4304 49.859 41.8185 50.0689C41.1345 50.3036 40.6237 50.8128 40.3148 51.571L42.1642 52.3245C42.231 52.1607 42.2951 52.0788 42.3359 52.0381C42.3735 52.0005 42.4126 51.9765 42.4667 51.9579C42.6057 51.9102 42.8436 51.8968 43.2839 51.9591L43.5635 49.9816ZM44.4014 51.4055L44.4209 51.0209L42.4264 50.9198L42.4069 51.3044L44.4014 51.4055ZM44.4014 51.4066L44.4015 51.4045L42.4069 51.3053L42.4068 51.3074L44.4014 51.4066ZM44.3316 52.7876C44.3555 52.3112 44.3785 51.8576 44.4013 51.4076L42.4068 51.3064C42.384 51.7563 42.3609 52.2105 42.337 52.6874L44.3316 52.7876ZM46.0636 53.3135C45.4457 52.3043 44.4691 51.8708 43.456 51.7464L43.2125 53.7286C43.8129 53.8023 44.1492 54.0114 44.3604 54.3564L46.0636 53.3135ZM46.1397 53.2635C46.0937 53.2805 46.056 53.2925 46.0255 53.3008C45.9949 53.3092 45.9743 53.313 45.962 53.3147C45.938 53.3181 45.9558 53.3121 45.9978 53.3222C46.0185 53.3271 46.04 53.3348 46.0605 53.345C46.0807 53.3552 46.0949 53.3653 46.103 53.3719C46.118 53.3841 46.1017 53.3758 46.0641 53.3143L44.36 54.3556C44.6157 54.7742 44.9916 55.1348 45.533 55.2644C46.0288 55.3831 46.4921 55.2627 46.8336 55.1362L46.1397 53.2635ZM48.0401 52.9223C47.2933 52.8196 46.534 53.117 46.1389 53.2638L46.8344 55.1359C47.3406 54.9478 47.6088 54.8789 47.7679 54.9008L48.0401 52.9223ZM50.5384 53.4025C49.7419 53.2264 48.8988 53.0394 48.0389 52.9222L47.769 54.9009C48.5341 55.0053 49.2973 55.1734 50.1074 55.3525L50.5384 53.4025ZM51.5438 53.6196C51.2117 53.5513 50.8792 53.4778 50.5384 53.4025L50.1074 55.3525C50.4458 55.4273 50.7925 55.504 51.1412 55.5757L51.5438 53.6196ZM52.1834 53.7464C51.9654 53.7041 51.7542 53.6631 51.5446 53.6198L51.1404 55.5756C51.3639 55.6218 51.587 55.665 51.803 55.707L52.1834 53.7464ZM53.5762 54.0423C53.1031 53.9246 52.6284 53.8327 52.1834 53.7464L51.803 55.707C52.2566 55.7949 52.68 55.8773 53.0941 55.9803L53.5762 54.0423ZM54.8384 54.7737C54.6278 54.498 54.3541 54.337 54.1571 54.2439C53.9489 54.1455 53.7393 54.0826 53.5745 54.0419L53.0958 55.9807C53.1386 55.9913 53.1793 56.0029 53.2164 56.0153C53.2539 56.0279 53.2829 56.0396 53.3035 56.0494C53.3249 56.0595 53.3294 56.0637 53.3224 56.0586C53.3158 56.0538 53.2863 56.0317 53.2514 55.9861L54.8384 54.7737ZM58.8688 58.095C57.2622 57.3104 55.9339 56.2007 54.837 54.7719L53.2529 55.9879C54.528 57.649 56.0943 58.9625 57.9924 59.8895L58.8688 58.095ZM59.9444 58.709C59.6272 58.5134 59.2614 58.2869 58.8691 58.0951L57.9921 59.8893C58.2816 60.0309 58.5646 60.2045 58.8961 60.4089L59.9444 58.709ZM59.9437 58.7086L59.9436 58.7085L58.8969 60.4094L58.8971 60.4094L59.9437 58.7086ZM60.3345 58.9466C60.2073 58.8711 60.0801 58.7927 59.9445 58.7091L58.8962 60.4089C59.0294 60.4911 59.1709 60.5783 59.3148 60.6638L60.3345 58.9466ZM60.6322 59.1423C60.5562 59.0894 60.4498 59.0149 60.3334 58.946L59.3159 60.6645C59.3589 60.6899 59.4051 60.7215 59.4924 60.7822L60.6322 59.1423ZM60.7684 59.2562L60.7684 59.2561L59.3562 60.6683L59.3563 60.6683L60.7684 59.2562ZM60.7425 59.2181C60.7068 59.1941 60.6722 59.17 60.6322 59.1423L59.4924 60.7822C59.5308 60.8088 59.5769 60.8409 59.6264 60.8742L60.7425 59.2181ZM60.4992 61.5988C60.6886 61.2365 60.8784 60.8735 61.069 60.5093L59.2998 59.583C59.1088 59.9477 58.9188 60.3112 58.7294 60.6735L60.4992 61.5988ZM58.4278 65.5356C59.1237 64.2297 59.8091 62.9188 60.4992 61.5988L58.7294 60.6735C58.0386 61.9947 57.3569 63.2986 56.6653 64.5965L58.4278 65.5356ZM57.5928 66.277C57.6991 66.2255 57.8392 66.1499 57.9777 66.0464C58.1085 65.9487 58.2963 65.7834 58.4286 65.5341L56.6645 64.598C56.6969 64.537 56.7303 64.4974 56.7495 64.4771C56.7689 64.4566 56.7819 64.4469 56.7826 64.4464C56.7839 64.4455 56.7793 64.4489 56.7673 64.4559C56.7557 64.4627 56.7406 64.4707 56.7221 64.4797L57.5928 66.277ZM56.7071 66.6906C56.9958 66.5579 57.2936 66.4209 57.5903 66.2782L56.7247 64.4785C56.4461 64.6125 56.1639 64.7423 55.8726 64.8762L56.7071 66.6906ZM56.6606 66.7106L56.6607 66.7106L55.919 64.8563L55.9189 64.8563L56.6606 66.7106ZM55.3833 67.3222C55.8087 67.104 56.2464 66.9025 56.707 66.6907L55.8725 64.8763C55.4184 65.0851 54.9416 65.3042 54.4716 65.5454L55.3833 67.3222ZM55.3775 67.342C55.3754 67.3469 55.3742 67.3491 55.3743 67.3489C55.3744 67.3487 55.3754 67.347 55.3773 67.3439C55.3815 67.3374 55.3877 67.3291 55.3952 67.3207C55.3987 67.3168 55.4019 67.3135 55.4046 67.3109C55.4073 67.3083 55.409 67.3069 55.4094 67.3066C55.4098 67.3062 55.4083 67.3075 55.4045 67.31C55.4007 67.3125 55.3937 67.3169 55.3833 67.3223L54.4717 65.5453C54.0425 65.7655 53.7015 66.1721 53.5341 66.5735L55.3775 67.342ZM54.9879 68.3653C55.1192 68.0039 55.2414 67.6682 55.3773 67.3423L53.5342 66.5733C53.3773 66.9495 53.2395 67.3293 53.1108 67.6833L54.9879 68.3653ZM54.9967 68.3401L54.9967 68.3401L53.1021 67.7085L53.102 67.7086L54.9967 68.3401ZM54.5476 69.5157C54.7118 69.1259 54.8547 68.7318 54.9879 68.3653L53.1108 67.6833C52.9748 68.0578 52.8486 68.4045 52.7071 68.7403L54.5476 69.5157ZM53.6747 70.6241C54.0854 70.3368 54.3827 69.9071 54.5476 69.5157L52.7071 68.7403C52.6557 68.8624 52.5699 68.9597 52.5299 68.9877L53.6747 70.6241ZM53.2043 70.9558C53.3627 70.8439 53.5193 70.7332 53.6759 70.6233L52.5287 68.9885C52.3688 69.1008 52.2093 69.2135 52.0515 69.3251L53.2043 70.9558ZM50.466 72.7504C51.4386 72.2052 52.3472 71.5617 53.2043 70.9558L52.0515 69.3251C51.1797 69.9414 50.3557 70.5228 49.4895 71.0082L50.466 72.7504ZM49.9898 73.6588C50.0674 73.3403 50.1142 73.1691 50.1865 73.0298C50.2403 72.9261 50.3105 72.8375 50.4661 72.7503L49.4894 71.0083C48.4007 71.6187 48.19 72.6093 48.0495 73.1859L49.9898 73.6588ZM49.9884 73.6646L49.9884 73.6646L48.0509 73.1802L48.0509 73.1803L49.9884 73.6646ZM49.8491 74.1857C49.908 73.996 49.9531 73.8093 49.9898 73.6589L48.0495 73.186C48.0105 73.3459 47.9793 73.4727 47.9418 73.5936L49.8491 74.1857ZM49.0775 72.9049C49.0516 72.9017 49.02 72.8982 48.9822 72.8949L48.8086 74.8844C48.8185 74.8853 48.8266 74.8862 48.8345 74.8871L49.0775 72.9049ZM49.11 72.909C49.1026 72.9081 49.0908 72.9065 49.0773 72.9049L48.8347 74.8872C48.8399 74.8878 48.8449 74.8884 48.8528 74.8895L49.11 72.909ZM48.851 72.9242C48.9585 72.9022 49.0447 72.9047 49.0853 72.9073C49.1044 72.9085 49.1177 72.91 49.1194 72.9102C49.1207 72.9104 49.1205 72.9104 49.1103 72.909L48.8526 74.8894C48.8577 74.8901 48.9079 74.8971 48.9595 74.9004C49.0224 74.9044 49.127 74.9063 49.2523 74.8806L48.851 72.9242ZM48.8889 72.9132C48.8783 72.9164 48.871 72.9185 48.8643 72.9205C48.8578 72.9224 48.8538 72.9235 48.8512 72.9242C48.8457 72.9257 48.8501 72.9244 48.8606 72.9223L49.2427 74.8825C49.3391 74.8637 49.4258 74.8371 49.4581 74.8275L48.8889 72.9132ZM48.9348 72.8998C48.9172 72.9048 48.9004 72.9098 48.8888 72.9133L49.4581 74.8275C49.4712 74.8236 49.4791 74.8213 49.4863 74.8192L48.9348 72.8998ZM48.9725 72.8892C48.9587 72.893 48.9458 72.8966 48.9344 72.8999L49.4867 74.8191C49.491 74.8178 49.4939 74.817 49.4958 74.8165L48.9725 72.8892ZM59.7377 66.6951C56.7238 69.7456 53.1361 71.7995 48.9813 72.8868L49.487 74.8189C53.9834 73.6421 57.8886 71.4081 61.1584 68.0987L59.7377 66.6951ZM66.127 54.3165C65.2802 59.1065 63.1568 63.2333 59.7376 66.6953L61.1585 68.0986C64.8642 64.3465 67.1767 59.8508 68.0936 54.6642L66.127 54.3165ZM66.3845 52.2677C66.3118 52.9844 66.243 53.6582 66.1269 54.317L68.0937 54.6637C68.2247 53.9206 68.3 53.1735 68.3714 52.4691L66.3845 52.2677ZM66.391 52.2165L66.391 52.2166L68.3649 52.5202L68.3649 52.5202L66.391 52.2165ZM66.3837 52.2762L66.3836 52.2765L68.3723 52.4601L68.3723 52.4597L66.3837 52.2762ZM66.4903 51.2755C66.4512 51.6093 66.4174 51.9427 66.3845 52.2672L68.3714 52.4687C68.4046 52.1416 68.4369 51.8235 68.4739 51.5075L66.4903 51.2755ZM66.4835 49.2062V51.3915H68.4806V49.2062H66.4835ZM66.4838 49.2912C66.4885 49.3175 66.4923 49.3399 66.4955 49.3603L68.4687 49.0522C68.4625 49.0128 68.4561 48.9755 68.4501 48.9421L66.4838 49.2912ZM66.474 49.2369C66.4776 49.2565 66.4808 49.274 66.4838 49.2912L68.4502 48.9422C68.4463 48.9206 68.4425 48.8993 68.439 48.8803L66.474 49.2369ZM66.4152 48.8123C66.4268 48.9825 66.4568 49.1419 66.474 49.2369L68.439 48.8803C68.4183 48.7663 68.4104 48.7169 68.4077 48.6768L66.4152 48.8123ZM62.9543 38.0567C65.0088 41.3528 66.1556 44.934 66.4151 48.8113L68.4078 48.6779C68.1265 44.4762 66.8788 40.5775 64.6491 37.0003L62.9543 38.0567ZM62.9527 38.0542L62.9538 38.0559L64.6496 37.0011L64.6485 36.9993L62.9527 38.0542ZM62.964 37.8975C62.8875 37.8652 62.8313 37.8247 62.7959 37.7937C62.7646 37.7663 62.7534 37.7494 62.7637 37.7627C62.774 37.7761 62.7933 37.8031 62.8276 37.8559C62.8618 37.9084 62.9008 37.971 62.9532 38.055L64.6479 36.9984C64.5572 36.8529 64.4508 36.6799 64.3443 36.542C64.2306 36.3949 64.0419 36.1848 63.7407 36.0577L62.964 37.8975ZM62.872 38.0089C62.965 37.9895 63.034 37.9752 63.0928 37.9641C63.1518 37.9529 63.1828 37.9485 63.198 37.9469C63.2132 37.9453 63.193 37.9487 63.1519 37.9452C63.1058 37.9413 63.039 37.9291 62.964 37.8975L63.7407 36.0576C63.4456 35.9331 63.1692 35.9417 62.9874 35.9609C62.8176 35.979 62.6243 36.0205 62.464 36.054L62.872 38.0089ZM62.8702 38.0093L62.8707 38.0092L62.4653 36.0537L62.4648 36.0538L62.8702 38.0093ZM62.5619 38.0479C62.61 38.0444 62.7346 38.037 62.8669 38.01L62.4682 36.0531C62.4807 36.0506 62.4855 36.0504 62.4766 36.0513C62.4723 36.0518 62.466 36.0524 62.4564 36.0531C62.4463 36.0539 62.4355 36.0547 62.42 36.0558L62.5619 38.0479ZM62.5169 38.0512C62.5283 38.0503 62.5409 38.0493 62.5618 38.0479L62.42 36.0558C62.4014 36.0571 62.3745 36.059 62.3465 36.0614L62.5169 38.0512ZM61.6272 38.1323C61.9261 38.1047 62.2232 38.0773 62.5201 38.051L62.3433 36.0617C62.0426 36.0884 61.7422 36.1161 61.4438 36.1437L61.6272 38.1323ZM61.6269 38.1323L61.628 38.1322L61.4429 36.1437L61.4418 36.1438L61.6269 38.1323ZM61.6336 38.1317L61.6337 38.1317L61.435 36.1445L61.4349 36.1445L61.6336 38.1317ZM59.2837 38.331C60.0704 38.2759 60.8546 38.2036 61.626 38.1324L61.4426 36.1438C60.6675 36.2152 59.9054 36.2855 59.1443 36.3387L59.2837 38.331ZM59.3706 38.2717C59.3841 38.248 59.3878 38.2463 59.3791 38.256C59.369 38.2673 59.3496 38.2856 59.3212 38.3033C59.293 38.3209 59.269 38.3297 59.2568 38.3332C59.2464 38.3361 59.2522 38.3331 59.2823 38.331L59.1457 36.3386C58.8642 36.3579 58.5562 36.4268 58.2646 36.6087C57.9718 36.7912 57.774 37.0386 57.6333 37.2867L59.3706 38.2717ZM58.7369 39.2947C58.9554 38.9572 59.1728 38.6218 59.3713 38.2705L57.6326 37.288C57.4688 37.5779 57.2851 37.8623 57.0603 38.2097L58.7369 39.2947ZM58.7293 39.3063L58.7295 39.3061L57.0678 38.1983L57.0677 38.1985L58.7293 39.3063ZM58.7411 39.2883L58.7413 39.288L57.0557 38.2168L57.0555 38.2171L58.7411 39.2883ZM58.4322 39.7691C58.5367 39.6041 58.6373 39.4486 58.7366 39.2952L57.06 38.2101C56.9613 38.3626 56.8556 38.526 56.745 38.7005L58.4322 39.7691ZM56.6489 39.8229C56.7871 39.908 56.9141 39.9864 57.0402 40.0693L58.137 38.4004C57.9828 38.299 57.8314 38.2058 57.6968 38.1228L56.6489 39.8229ZM55.7153 39.1796C56.0279 39.4423 56.3701 39.6511 56.6489 39.8229L57.6968 38.1228C57.3944 37.9364 57.181 37.8027 56.9999 37.6505L55.7153 39.1796ZM54.5714 38.1636C54.9354 38.4961 55.3169 38.8449 55.7151 39.1795L57 37.6507C56.6387 37.347 56.2874 37.0262 55.9183 36.6891L54.5714 38.1636ZM54.5873 38.1779L54.5873 38.1779L55.9024 36.6749L55.9024 36.6749L54.5873 38.1779ZM53.5813 37.2796C53.9115 37.561 54.2341 37.8555 54.5714 38.1636L55.9183 36.6891C55.5853 36.3849 55.2374 36.067 54.8766 35.7595L53.5813 37.2796ZM46.0472 67.0676C46.0355 67.0264 46.0322 66.9957 46.0312 66.9803C46.0302 66.965 46.0311 66.9589 46.0307 66.9643C46.0302 66.9696 46.029 66.9812 46.0256 67.0003C46.0222 67.0193 46.0173 67.0422 46.0107 67.0701L47.9532 67.5338C47.993 67.367 48.0901 66.9489 47.9677 66.5199L46.0472 67.0676ZM45.7511 65.9694C45.8454 66.3284 45.9425 66.6978 46.0467 67.0657L47.9683 66.5217C47.8701 66.1749 47.7777 65.8236 47.6825 65.4616L45.7511 65.9694ZM45.7695 66.0312L45.7695 66.0312L47.6641 65.3997L47.6641 65.3997L45.7695 66.0312ZM44.1026 61.7647C44.947 62.9523 45.3272 64.3571 45.751 65.9694L47.6825 65.4615C47.2742 63.9086 46.8202 62.1406 45.7303 60.6075L44.1026 61.7647ZM44.0179 57.7704C43.6107 58.3869 43.3566 59.0537 43.3737 59.7811C43.3907 60.5061 43.6743 61.1625 44.1027 61.7649L45.7301 60.6073C45.4548 60.2202 45.3752 59.9443 45.3702 59.7342C45.3654 59.5263 45.4305 59.2552 45.6843 58.8711L44.0179 57.7704ZM44.5993 56.6052C44.3832 57.0999 44.2236 57.459 44.0179 57.7703L45.6843 58.8711C46.0017 58.3906 46.2274 57.8672 46.4295 57.4044L44.5993 56.6052ZM44.9294 55.8719C44.8062 56.1311 44.6974 56.3804 44.5993 56.6052L46.4295 57.4044C46.5292 57.176 46.6257 56.9553 46.7331 56.7293L44.9294 55.8719ZM42.3004 55.4536C43.0312 56.1973 44.06 57.2947 45.8287 57.2991L45.8338 55.3021C44.9988 55.2999 44.5124 54.8553 43.7249 54.0539L42.3004 55.4536ZM42.3064 55.4597L42.3066 55.4598L43.7187 54.0476L43.7186 54.0475L42.3064 55.4597ZM41.9955 55.1466C42.0951 55.2447 42.1944 55.3457 42.3003 55.4534L43.7248 54.0537C43.6208 53.9479 43.5101 53.8352 43.3969 53.7237L41.9955 55.1466ZM41.6113 54.9383C41.7575 54.9759 41.9121 55.0644 41.9952 55.1462L43.3972 53.724C43.0401 53.372 42.5638 53.1212 42.1091 53.0042L41.6113 54.9383ZM38.5151 54.241C39.5609 54.4542 40.5947 54.6787 41.6132 54.9387L42.1072 53.0037C41.0437 52.7322 39.9744 52.5003 38.9141 52.2841L38.5151 54.241ZM37.1907 53.1667C37.2935 53.3969 37.4462 53.6493 37.6957 53.8588C37.9497 54.0722 38.2357 54.1839 38.5149 54.2409L38.9144 52.2842C38.8933 52.2799 38.8953 52.2783 38.9112 52.2854C38.929 52.2934 38.9541 52.3077 38.98 52.3295C39.0344 52.3752 39.0392 52.4083 39.0143 52.3525L37.1907 53.1667ZM36.4562 51.6164C36.7117 52.1426 36.9598 52.6538 37.1919 53.1695L39.013 52.3497C38.767 51.8032 38.5062 51.2661 38.2528 50.7442L36.4562 51.6164ZM36.4566 51.6172L36.4571 51.6182L38.2519 50.7424L38.2514 50.7414L36.4566 51.6172ZM36.1514 50.986C36.2527 51.1971 36.3548 51.4075 36.4557 51.6154L38.2523 50.7432C38.1511 50.5346 38.051 50.3284 37.952 50.1221L36.1514 50.986ZM37.131 51.5531C37.1515 51.5493 37.1737 51.5458 37.2085 51.5402L36.8949 49.5679C36.8636 49.5729 36.8197 49.5798 36.774 49.5881L37.131 51.5531ZM37.9511 51.9646V50.5706H35.954V51.9646H37.9511ZM35.2887 52.2537C35.4323 52.4529 35.6761 52.7456 36.0698 52.9071C36.4966 53.0821 36.921 53.0342 37.2838 52.9066L36.6213 51.0226C36.5897 51.0337 36.601 51.0253 36.6444 51.024C36.6938 51.0226 36.7594 51.0314 36.8275 51.0593C36.8921 51.0858 36.9298 51.1176 36.9408 51.1278C36.949 51.1354 36.9388 51.1275 36.9084 51.0855L35.2887 52.2537ZM33.8922 50.3488C34.3625 50.9859 34.8293 51.6184 35.2894 52.2547L36.9077 51.0845C36.441 50.439 35.9683 49.7986 35.4989 49.1628L33.8922 50.3488ZM33.888 50.3431L33.888 50.3431L35.5031 49.1685L35.5031 49.1684L33.888 50.3431ZM32.3151 48.1937C32.8367 48.9189 33.3666 49.6368 33.8921 50.3488L35.4989 49.1627C34.9721 48.4491 34.4496 47.7411 33.9364 47.0276L32.3151 48.1937ZM31.8909 46.9083C31.9026 47.3334 32.0435 47.8137 32.3133 48.1912L33.9381 47.03C33.9389 47.0311 33.9347 47.0253 33.928 47.0116C33.9215 46.998 33.9142 46.9804 33.9076 46.9595C33.8932 46.9145 33.8879 46.8751 33.8873 46.8536L31.8909 46.9083ZM31.8792 45.2669C31.8782 45.8022 31.8771 46.353 31.8909 46.9057L33.8874 46.8562C33.8744 46.3345 33.8753 45.8104 33.8763 45.2707L31.8792 45.2669ZM31.8712 43.8153C31.881 44.2935 31.8802 44.7737 31.8792 45.2669L33.8763 45.2707C33.8772 44.7812 33.8782 44.2787 33.8679 43.7745L31.8712 43.8153ZM31.8114 43.6017C31.842 43.6531 31.8697 43.747 31.8713 43.817L33.8679 43.7727C33.8589 43.3683 33.7394 42.9367 33.5281 42.5813L31.8114 43.6017ZM30.9612 42.209C31.2513 42.6779 31.5359 43.1379 31.8113 43.6015L33.5283 42.5815C33.2422 42.0998 32.9481 41.6246 32.6595 41.1582L30.9612 42.209ZM30.9599 42.2069L30.96 42.207L32.6608 41.1603L32.6607 41.1602L30.9599 42.2069ZM29.8109 40.3045C30.1846 40.9539 30.5778 41.5893 30.9612 42.2089L32.6595 41.1581C32.2733 40.534 31.897 39.9256 31.5419 39.3084L29.8109 40.3045ZM29.8506 40.3361C29.8899 40.3287 29.9184 40.3249 29.9382 40.3231C29.9579 40.3212 29.9659 40.3216 29.9647 40.3215C29.9631 40.3215 29.9512 40.3209 29.9319 40.3167C29.912 40.3125 29.8877 40.3051 29.8613 40.2934C29.8349 40.2817 29.812 40.268 29.7933 40.2545C29.7752 40.2413 29.7644 40.2307 29.7606 40.2267C29.7571 40.223 29.7602 40.2257 29.7694 40.2386C29.7787 40.2516 29.7925 40.2725 29.8107 40.3042L31.5421 39.3088C31.3699 39.0094 31.1095 38.6627 30.6724 38.4684C30.2423 38.2773 29.8134 38.3112 29.4832 38.373L29.8506 40.3361ZM29.3415 40.4321C29.512 40.3998 29.6812 40.3677 29.8504 40.3361L29.4834 38.373C29.3115 38.4051 29.1399 38.4376 28.9698 38.4699L29.3415 40.4321ZM29.3451 40.4314L29.3454 40.4313L28.9659 38.4706L28.9656 38.4707L29.3451 40.4314ZM29.2792 40.4419L29.2792 40.4419L29.0315 38.4602L29.0315 38.4602L29.2792 40.4419ZM24.547 41.019C26.2287 41.0247 27.8373 40.717 29.3412 40.4321L28.9695 38.4699C27.436 38.7604 26.0136 39.0269 24.5539 39.0219L24.547 41.019ZM21.5838 39.8666C22.3596 40.4439 23.248 41.0139 24.5466 41.0189L24.5543 39.0219C23.918 39.0194 23.465 38.7771 22.7761 38.2645L21.5838 39.8666ZM22.3 37.6875C22.0549 37.8847 21.8073 38.0839 21.5544 38.2872L22.8055 39.8439C23.059 39.6401 23.3071 39.4405 23.5521 39.2434L22.3 37.6875ZM22.3018 37.6861L22.3004 37.6871L23.5517 39.2437L23.553 39.2426L22.3018 37.6861ZM23.1394 37.0124C22.861 37.2361 22.5828 37.4599 22.3014 37.6864L23.5534 39.2423C23.835 39.0157 24.1125 38.7924 24.3901 38.5693L23.1394 37.0124ZM22.6619 39.005C23.0483 38.8974 23.4365 38.8224 23.8529 38.7855L23.6767 36.7962C23.1272 36.8449 22.6185 36.944 22.1261 37.0811L22.6619 39.005ZM22.9082 38.8136C22.8835 38.8563 22.8601 38.8846 22.8452 38.9008C22.8297 38.9177 22.816 38.9297 22.8045 38.9386C22.7886 38.9508 22.7463 38.9812 22.6653 39.0041L22.1227 37.0821C21.7456 37.1886 21.3821 37.4636 21.1798 37.813L22.9082 38.8136ZM20.2716 45.8758C20.7337 43.379 21.636 41.0294 22.91 38.8105L21.1781 37.8161C19.8022 40.2125 18.8147 42.7739 18.3079 45.5124L20.2716 45.8758ZM19.9403 48.1623C20.0392 47.373 20.134 46.6179 20.2715 45.8762L18.3079 45.512C18.1579 46.3212 18.0563 47.1347 17.9587 47.9142L19.9403 48.1623ZM19.9409 48.1578L19.9409 48.1577L17.9582 47.9187L17.9582 47.9188L19.9409 48.1578ZM19.7998 49.2489C19.85 48.8842 19.8956 48.5197 19.9403 48.1623L17.9587 47.9142C17.9137 48.2737 17.8696 48.626 17.8213 48.9766L19.7998 49.2489ZM19.8091 51.6779V49.1128H17.812V51.6779H19.8091ZM19.9115 52.4696C19.8769 52.1687 19.8413 51.8586 19.8006 51.5482L17.8205 51.8075C17.8587 52.0997 17.8926 52.3941 17.9274 52.6976L19.9115 52.4696ZM19.9122 52.4757L19.9122 52.4757L17.9268 52.6916L17.9268 52.6916L19.9122 52.4757ZM20.173 54.3449C20.0584 53.744 19.9872 53.1284 19.9115 52.4697L17.9275 52.6976C18.0017 53.3439 18.0805 54.0333 18.2112 54.719L20.173 54.3449ZM32.2875 70.9785C25.6334 67.3314 21.5914 61.8066 20.1731 54.3455L18.2111 54.7185C19.7416 62.7696 24.154 68.7979 31.3276 72.7298L32.2875 70.9785ZM41.4207 73.5956C38.1762 73.3757 35.1151 72.5284 32.2875 70.9785L31.3276 72.7298C34.4276 74.4289 37.7733 75.3501 41.2857 75.5882L41.4207 73.5956ZM41.8515 73.6741C41.7855 73.6569 41.6151 73.6097 41.4256 73.596L41.2808 75.5878C41.2628 75.5865 41.2566 75.5844 41.2696 75.5872C41.2758 75.5885 41.2847 75.5906 41.2983 75.594C41.3125 75.5975 41.3276 75.6014 41.3489 75.6069L41.8515 73.6741ZM41.93 73.6936C41.9143 73.6903 41.895 73.6854 41.8514 73.6741L41.349 75.6069C41.3855 75.6164 41.4463 75.6324 41.511 75.6463L41.93 73.6936ZM44.3824 73.6714H41.7205V75.6685H44.3824V73.6714ZM44.4774 73.6513L44.2565 73.6794L44.5083 75.6605L44.7292 75.6325L44.4774 73.6513ZM46.0642 73.449C45.5157 73.5193 44.9948 73.5855 44.4773 73.6513L44.7292 75.6325C45.2466 75.5667 45.7684 75.5003 46.3179 75.43L46.0642 73.449ZM45.1761 74.2849C45.1828 74.3633 45.1894 74.4399 45.1956 74.5184L47.1865 74.3607C47.1797 74.2751 47.1726 74.1924 47.166 74.1148L45.1761 74.2849ZM45.1769 74.2929L45.1769 74.293L47.1653 74.1066L47.1652 74.1065L45.1769 74.2929ZM45.1376 73.7719C45.1473 73.9483 45.1622 74.122 45.1761 74.2847L47.166 74.1146C47.1516 73.9465 47.1395 73.8035 47.1318 73.6628L45.1376 73.7719ZM45.0828 73.0698C45.105 73.3179 45.1253 73.5461 45.1377 73.772L47.1318 73.6627C47.1172 73.3968 47.0936 73.1344 47.072 72.8921L45.0828 73.0698ZM45.0823 73.0638L45.0823 73.0639L47.0725 72.898L47.0725 72.8979L45.0823 73.0638ZM45.2508 70.1226C44.9039 71.203 45.0095 72.2498 45.0828 73.0698L47.072 72.892C46.9936 72.0152 46.948 71.3695 47.1523 70.7331L45.2508 70.1226ZM45.816 67.9172C45.6404 68.6951 45.4755 69.4227 45.2508 70.1226L47.1523 70.733C47.4086 69.9346 47.5918 69.1201 47.7641 68.3569L45.816 67.9172ZM46.0105 67.0708C45.9429 67.355 45.8787 67.6393 45.816 67.9172L47.7641 68.3569C47.8272 68.0772 47.8889 67.8041 47.9534 67.5331L46.0105 67.0708Z" fill="#05761E" mask="url(#path-5-outside-1_7812_888)"/>
    </g>
    <path d="M17.5889 14.3154C17.5889 15.0346 17.4506 15.6359 17.174 16.1193C16.9003 16.5998 16.5028 16.9623 15.9816 17.2069C15.4603 17.4486 14.8328 17.5694 14.099 17.5694H12.2908V11.1836H14.2956C14.9653 11.1836 15.5462 11.303 16.0384 11.5418C16.5305 11.7777 16.9119 12.1286 17.1827 12.5945C17.4535 13.0575 17.5889 13.6311 17.5889 14.3154ZM16.1825 14.3503C16.1825 13.8786 16.1126 13.4913 15.9728 13.1885C15.836 12.8827 15.6321 12.6571 15.3613 12.5115C15.0934 12.3659 14.7615 12.2931 14.3655 12.2931H13.6448V16.4513H14.2257C14.8867 16.4513 15.3774 16.2751 15.6977 15.9228C16.0209 15.5704 16.1825 15.0463 16.1825 14.3503ZM20.1398 12.6862V17.5694H18.8076V12.6862H20.1398ZM19.4758 10.7731C19.6739 10.7731 19.8442 10.8197 19.9869 10.9128C20.1296 11.0031 20.2009 11.1735 20.2009 11.4239C20.2009 11.6714 20.1296 11.8432 19.9869 11.9393C19.8442 12.0325 19.6739 12.0791 19.4758 12.0791C19.2749 12.0791 19.1031 12.0325 18.9604 11.9393C18.8207 11.8432 18.7508 11.6714 18.7508 11.4239C18.7508 11.1735 18.8207 11.0031 18.9604 10.9128C19.1031 10.8197 19.2749 10.7731 19.4758 10.7731ZM22.9701 19.7184C22.2887 19.7184 21.7675 19.599 21.4064 19.3602C21.0483 19.1244 20.8692 18.7924 20.8692 18.3644C20.8692 18.0703 20.9609 17.8242 21.1444 17.6262C21.3278 17.4282 21.5972 17.287 21.9524 17.2025C21.8155 17.1443 21.6962 17.0497 21.5942 16.9186C21.4923 16.7847 21.4414 16.6434 21.4414 16.4949C21.4414 16.3086 21.4952 16.1542 21.603 16.0319C21.7107 15.9067 21.8665 15.7844 22.0703 15.6651C21.8141 15.5544 21.6103 15.3768 21.4588 15.1322C21.3103 14.8876 21.2361 14.5993 21.2361 14.2673C21.2361 13.9121 21.3132 13.6107 21.4676 13.3632C21.6248 13.1128 21.8519 12.922 22.149 12.791C22.4489 12.66 22.8129 12.5945 23.2409 12.5945C23.3312 12.5945 23.436 12.6003 23.5554 12.6119C23.6748 12.6236 23.784 12.6367 23.883 12.6512C23.9849 12.6658 24.0533 12.6774 24.0883 12.6862H25.7917V13.3632L25.0274 13.5598C25.0973 13.6675 25.1497 13.7825 25.1846 13.9048C25.2195 14.0271 25.237 14.1567 25.237 14.2935C25.237 14.8177 25.0536 15.2268 24.6867 15.5209C24.3227 15.8121 23.816 15.9577 23.1667 15.9577C23.0123 15.949 22.8667 15.9373 22.7299 15.9228C22.6629 15.9752 22.612 16.0305 22.577 16.0887C22.5421 16.147 22.5246 16.2081 22.5246 16.2722C22.5246 16.3362 22.5508 16.3901 22.6032 16.4338C22.6585 16.4746 22.7401 16.5066 22.8478 16.5299C22.9585 16.5503 23.0953 16.5605 23.2584 16.5605H24.0883C24.6241 16.5605 25.0317 16.6755 25.3113 16.9055C25.5937 17.1356 25.735 17.4733 25.735 17.9189C25.735 18.4896 25.4962 18.9322 25.0186 19.2467C24.544 19.5612 23.8612 19.7184 22.9701 19.7184ZM23.0269 18.8492C23.3443 18.8492 23.6166 18.8186 23.8437 18.7575C24.0737 18.6992 24.2499 18.6148 24.3722 18.5041C24.4945 18.3964 24.5556 18.2668 24.5556 18.1154C24.5556 17.9931 24.5192 17.8956 24.4464 17.8228C24.3766 17.7529 24.2688 17.7034 24.1232 17.6743C23.9805 17.6451 23.7971 17.6306 23.5729 17.6306H22.8828C22.7197 17.6306 22.5726 17.6568 22.4416 17.7092C22.3135 17.7616 22.2116 17.8344 22.1359 17.9276C22.0601 18.0237 22.0223 18.1343 22.0223 18.2595C22.0223 18.443 22.1096 18.5871 22.2844 18.692C22.462 18.7968 22.7095 18.8492 23.0269 18.8492ZM23.2409 15.1453C23.4913 15.1453 23.6748 15.0681 23.7913 14.9138C23.9077 14.7595 23.966 14.5498 23.966 14.2848C23.966 13.9907 23.9048 13.7709 23.7825 13.6253C23.6631 13.4768 23.4826 13.4025 23.2409 13.4025C22.9963 13.4025 22.8129 13.4768 22.6906 13.6253C22.5683 13.7709 22.5071 13.9907 22.5071 14.2848C22.5071 14.5498 22.5668 14.7595 22.6862 14.9138C22.8085 15.0681 22.9934 15.1453 23.2409 15.1453ZM27.932 12.6862V17.5694H26.5998V12.6862H27.932ZM27.2681 10.7731C27.4661 10.7731 27.6364 10.8197 27.7791 10.9128C27.9218 11.0031 27.9931 11.1735 27.9931 11.4239C27.9931 11.6714 27.9218 11.8432 27.7791 11.9393C27.6364 12.0325 27.4661 12.0791 27.2681 12.0791C27.0671 12.0791 26.8953 12.0325 26.7527 11.9393C26.6129 11.8432 26.543 11.6714 26.543 11.4239C26.543 11.1735 26.6129 11.0031 26.7527 10.9128C26.8953 10.8197 27.0671 10.7731 27.2681 10.7731ZM31.3913 16.5954C31.5369 16.5954 31.6781 16.5808 31.815 16.5517C31.9548 16.5226 32.0931 16.4862 32.2299 16.4425V17.434C32.0872 17.4981 31.9096 17.5505 31.6971 17.5913C31.4874 17.6349 31.2574 17.6568 31.0069 17.6568C30.7157 17.6568 30.4537 17.6102 30.2207 17.517C29.9907 17.4209 29.8087 17.2564 29.6747 17.0234C29.5437 16.7876 29.4782 16.46 29.4782 16.0407V13.6864H28.8405V13.123L29.5743 12.6774L29.9587 11.6466H30.8104V12.6862H32.1775V13.6864H30.8104V16.0407C30.8104 16.227 30.8628 16.3668 30.9676 16.46C31.0754 16.5503 31.2166 16.5954 31.3913 16.5954ZM35.2219 12.5857C35.8771 12.5857 36.3794 12.7284 36.7288 13.0138C37.0782 13.2991 37.2529 13.733 37.2529 14.3154V17.5694H36.3226L36.0649 16.9055H36.0299C35.8902 17.0802 35.7475 17.2229 35.6019 17.3336C35.4563 17.4442 35.2889 17.5257 35.0996 17.5782C34.9103 17.6306 34.6803 17.6568 34.4095 17.6568C34.1212 17.6568 33.862 17.6015 33.632 17.4908C33.4049 17.3802 33.2258 17.2113 33.0948 16.9841C32.9637 16.7541 32.8982 16.4629 32.8982 16.1106C32.8982 15.5923 33.0802 15.2108 33.4442 14.9662C33.8082 14.7187 34.3542 14.5818 35.0821 14.5556L35.9295 14.5294V14.3154C35.9295 14.0591 35.8625 13.8713 35.7286 13.7519C35.5946 13.6325 35.4083 13.5729 35.1695 13.5729C34.9336 13.5729 34.7021 13.6063 34.475 13.6733C34.2479 13.7403 34.0207 13.8247 33.7936 13.9267L33.3525 13.0269C33.6116 12.89 33.9014 12.7823 34.2217 12.7037C34.5449 12.625 34.8783 12.5857 35.2219 12.5857ZM35.9295 15.3069L35.4141 15.3244C34.9831 15.336 34.6832 15.4132 34.5143 15.5559C34.3483 15.6985 34.2653 15.8864 34.2653 16.1193C34.2653 16.3231 34.325 16.4687 34.4444 16.5561C34.5638 16.6405 34.7196 16.6828 34.9118 16.6828C35.1971 16.6828 35.4374 16.5983 35.6325 16.4294C35.8305 16.2605 35.9295 16.0203 35.9295 15.7087V15.3069ZM39.961 17.5694H38.6288V10.7731H39.961V17.5694ZM48.8277 12.2188C48.5686 12.2188 48.3385 12.2698 48.1376 12.3717C47.9396 12.4707 47.7722 12.6148 47.6353 12.8041C47.5013 12.9934 47.3994 13.222 47.3295 13.4899C47.2597 13.7578 47.2247 14.0591 47.2247 14.394C47.2247 14.8454 47.28 15.2312 47.3907 15.5515C47.5043 15.8689 47.679 16.112 47.9148 16.2809C48.1507 16.4469 48.455 16.5299 48.8277 16.5299C49.0869 16.5299 49.346 16.5008 49.6052 16.4425C49.8673 16.3843 50.1512 16.3013 50.4569 16.1936V17.3292C50.1745 17.4457 49.8964 17.5287 49.6227 17.5782C49.3489 17.6306 49.0417 17.6568 48.701 17.6568C48.043 17.6568 47.5013 17.5214 47.0762 17.2506C46.654 16.9769 46.341 16.5954 46.1371 16.1062C45.9333 15.6141 45.8314 15.0404 45.8314 14.3853C45.8314 13.9019 45.8969 13.4593 46.0279 13.0575C46.159 12.6556 46.3511 12.3076 46.6045 12.0135C46.8578 11.7194 47.1708 11.4923 47.5436 11.3322C47.9163 11.172 48.3443 11.0919 48.8277 11.0919C49.1451 11.0919 49.4625 11.1327 49.7799 11.2142C50.1002 11.2928 50.406 11.402 50.6971 11.5418L50.2604 12.6425C50.0216 12.5289 49.7814 12.4299 49.5397 12.3455C49.298 12.261 49.0607 12.2188 48.8277 12.2188ZM53.7153 12.5857C54.3705 12.5857 54.8728 12.7284 55.2222 13.0138C55.5717 13.2991 55.7464 13.733 55.7464 14.3154V17.5694H54.816L54.5583 16.9055H54.5234C54.3836 17.0802 54.2409 17.2229 54.0953 17.3336C53.9497 17.4442 53.7823 17.5257 53.593 17.5782C53.4038 17.6306 53.1737 17.6568 52.9029 17.6568C52.6146 17.6568 52.3555 17.6015 52.1254 17.4908C51.8983 17.3802 51.7192 17.2113 51.5882 16.9841C51.4572 16.7541 51.3916 16.4629 51.3916 16.1106C51.3916 15.5923 51.5736 15.2108 51.9376 14.9662C52.3016 14.7187 52.8476 14.5818 53.5756 14.5556L54.4229 14.5294V14.3154C54.4229 14.0591 54.3559 13.8713 54.222 13.7519C54.088 13.6325 53.9017 13.5729 53.6629 13.5729C53.427 13.5729 53.1955 13.6063 52.9684 13.6733C52.7413 13.7403 52.5142 13.8247 52.287 13.9267L51.8459 13.0269C52.105 12.89 52.3948 12.7823 52.7151 12.7037C53.0383 12.625 53.3717 12.5857 53.7153 12.5857ZM54.4229 15.3069L53.9075 15.3244C53.4765 15.336 53.1766 15.4132 53.0077 15.5559C52.8418 15.6985 52.7588 15.8864 52.7588 16.1193C52.7588 16.3231 52.8185 16.4687 52.9378 16.5561C53.0572 16.6405 53.213 16.6828 53.4052 16.6828C53.6906 16.6828 53.9308 16.5983 54.1259 16.4294C54.3239 16.2605 54.4229 16.0203 54.4229 15.7087V15.3069ZM59.8478 12.5945C59.9147 12.5945 59.9919 12.5988 60.0793 12.6076C60.1695 12.6134 60.2423 12.6221 60.2977 12.6338L60.1972 13.883C60.1535 13.8684 60.0909 13.8582 60.0094 13.8524C59.9308 13.8437 59.8623 13.8393 59.8041 13.8393C59.6323 13.8393 59.4649 13.8611 59.3018 13.9048C59.1416 13.9485 58.9975 14.0198 58.8694 14.1188C58.7412 14.2149 58.6393 14.3431 58.5636 14.5032C58.4908 14.6604 58.4544 14.8541 58.4544 15.0841V17.5694H57.1222V12.6862H58.1312L58.3278 13.5073H58.3933C58.4894 13.3414 58.6088 13.1899 58.7514 13.0531C58.897 12.9133 59.0616 12.8027 59.245 12.7211C59.4314 12.6367 59.6323 12.5945 59.8478 12.5945ZM62.5165 10.7731V12.3542C62.5165 12.5377 62.5107 12.7197 62.499 12.9002C62.4903 13.0807 62.4787 13.2205 62.4641 13.3195H62.5165C62.6446 13.1186 62.8194 12.9483 63.0407 12.8085C63.262 12.6658 63.5488 12.5945 63.9011 12.5945C64.4486 12.5945 64.8926 12.8085 65.2333 13.2365C65.574 13.6646 65.7443 14.2921 65.7443 15.1191C65.7443 15.6752 65.6657 16.1426 65.5085 16.5211C65.3512 16.8968 65.1314 17.1807 64.8489 17.3729C64.5665 17.5621 64.2389 17.6568 63.8662 17.6568C63.508 17.6568 63.2256 17.5927 63.0188 17.4646C62.8121 17.3365 62.6446 17.1923 62.5165 17.0322H62.4248L62.202 17.5694H61.1843V10.7731H62.5165ZM63.4731 13.6602C63.2401 13.6602 63.0552 13.7083 62.9184 13.8044C62.7815 13.9004 62.681 14.0446 62.617 14.2368C62.5558 14.429 62.5223 14.6721 62.5165 14.9662V15.1103C62.5165 15.585 62.5864 15.949 62.7262 16.2023C62.8659 16.4527 63.1207 16.5779 63.4905 16.5779C63.7643 16.5779 63.9812 16.4513 64.1413 16.1979C64.3044 15.9446 64.3859 15.5791 64.3859 15.1016C64.3859 14.624 64.3044 14.2644 64.1413 14.0227C63.9783 13.7811 63.7555 13.6602 63.4731 13.6602ZM71.2828 15.1191C71.2828 15.5267 71.2274 15.8878 71.1168 16.2023C71.009 16.5168 70.8504 16.7832 70.6407 17.0016C70.434 17.2171 70.1835 17.3802 69.8894 17.4908C69.5982 17.6015 69.2692 17.6568 68.9023 17.6568C68.5587 17.6568 68.2428 17.6015 67.9545 17.4908C67.6691 17.3802 67.4201 17.2171 67.2076 17.0016C66.9979 16.7832 66.8349 16.5168 66.7184 16.2023C66.6048 15.8878 66.548 15.5267 66.548 15.1191C66.548 14.5775 66.6441 14.1188 66.8363 13.7432C67.0285 13.3676 67.3022 13.0822 67.6575 12.8871C68.0127 12.692 68.4364 12.5945 68.9285 12.5945C69.3857 12.5945 69.7904 12.692 70.1428 12.8871C70.498 13.0822 70.7761 13.3676 70.977 13.7432C71.1809 14.1188 71.2828 14.5775 71.2828 15.1191ZM67.9064 15.1191C67.9064 15.4394 67.9414 15.7087 68.0113 15.9271C68.0811 16.1455 68.1903 16.31 68.3388 16.4207C68.4874 16.5313 68.681 16.5867 68.9198 16.5867C69.1556 16.5867 69.3464 16.5313 69.492 16.4207C69.6405 16.31 69.7482 16.1455 69.8152 15.9271C69.8851 15.7087 69.92 15.4394 69.92 15.1191C69.92 14.7959 69.8851 14.528 69.8152 14.3154C69.7482 14.0999 69.6405 13.9383 69.492 13.8306C69.3434 13.7228 69.1498 13.6689 68.911 13.6689C68.5587 13.6689 68.3024 13.7898 68.1423 14.0315C67.9851 14.2732 67.9064 14.6357 67.9064 15.1191ZM75.157 12.5945C75.6783 12.5945 76.0976 12.7371 76.415 13.0225C76.7324 13.305 76.8911 13.7592 76.8911 14.3853V17.5694H75.5589V14.7172C75.5589 14.3678 75.4948 14.1043 75.3667 13.9267C75.2415 13.749 75.0435 13.6602 74.7727 13.6602C74.365 13.6602 74.0869 13.7985 73.9384 14.0752C73.7899 14.3518 73.7157 14.7507 73.7157 15.2719V17.5694H72.3835V12.6862H73.4012L73.5803 13.3108H73.6545C73.7593 13.1419 73.8889 13.005 74.0432 12.9002C74.2005 12.7954 74.3737 12.7182 74.563 12.6687C74.7552 12.6192 74.9532 12.5945 75.157 12.5945Z" fill="black"/>
    <path d="M42.7038 12.003C42.7038 12.1329 42.6768 12.2455 42.6228 12.3407C42.5687 12.4359 42.4954 12.5138 42.4027 12.5743C42.3114 12.6347 42.2085 12.6791 42.0939 12.7074V12.719C42.3204 12.7473 42.4922 12.8168 42.6092 12.9274C42.7276 13.0381 42.7868 13.1861 42.7868 13.3713C42.7868 13.536 42.7463 13.6834 42.6652 13.8133C42.5854 13.9433 42.4619 14.0455 42.2947 14.1202C42.1274 14.1948 41.9119 14.2321 41.6481 14.2321C41.4924 14.2321 41.347 14.2192 41.2119 14.1935C41.0781 14.1691 40.952 14.1311 40.8337 14.0796V13.5721C40.9546 13.6338 41.0813 13.6808 41.2139 13.7129C41.3464 13.7438 41.4699 13.7593 41.5844 13.7593C41.798 13.7593 41.9473 13.7226 42.0322 13.6493C42.1184 13.5746 42.1615 13.4704 42.1615 13.3366C42.1615 13.2581 42.1415 13.1919 42.1017 13.1378C42.0618 13.0838 41.9923 13.0426 41.8932 13.0143C41.7954 12.986 41.6584 12.9718 41.4821 12.9718H41.2679V12.5144H41.486C41.6597 12.5144 41.7916 12.4984 41.8816 12.4662C41.973 12.4327 42.0348 12.3877 42.0669 12.3311C42.1004 12.2732 42.1171 12.2076 42.1171 12.1342C42.1171 12.0339 42.0862 11.9554 42.0245 11.8988C41.9627 11.8422 41.8598 11.8139 41.7157 11.8139C41.6256 11.8139 41.5433 11.8254 41.4686 11.8486C41.3953 11.8705 41.329 11.8975 41.2698 11.9297C41.2107 11.9605 41.1585 11.9908 41.1135 12.0204L40.8375 11.6093C40.9482 11.5295 41.0775 11.4632 41.2254 11.4105C41.3747 11.3577 41.5523 11.3314 41.7581 11.3314C42.0489 11.3314 42.2792 11.3899 42.4491 11.507C42.6189 11.6241 42.7038 11.7894 42.7038 12.003Z" fill="black"/>
</svg>
