
<svg width="1em" height="1em" viewBox="0 0 27 25" fill="currentColor" xmlns="http://www.w3.org/2000/svg">
<path fill-rule="evenodd" clip-rule="evenodd" d="M20.8674 8.88675L20.808 7.79185C20.7676 7.04795 20.5304 6.3304 20.1233 5.71448C19.7164 5.09872 19.1553 4.60805 18.5009 4.2914C17.8468 3.97483 17.1221 3.84302 16.4023 3.9085C15.6824 3.97398 14.9913 4.23463 14.4017 4.6654L13.4011 5.39632L12.399 4.66757C11.8171 4.2444 11.1369 3.98649 10.4279 3.91795C9.71904 3.84941 9.00415 3.97239 8.35564 4.27554C7.70696 4.57876 7.14639 5.05218 6.73299 5.65002C6.31948 6.24801 6.06861 6.94839 6.008 7.67986L5.91188 8.83992L4.79555 9.16979C3.8097 9.46111 2.95498 10.1042 2.39197 10.9874C1.82862 11.8712 1.59685 12.934 1.74248 13.9803C1.88809 15.0265 2.40026 15.98 3.17921 16.6682C3.9567 17.3551 4.94833 17.7327 5.97228 17.7373C6.1472 17.7371 6.32192 17.7256 6.49543 17.703L7.46977 17.5761L8.06614 18.357C8.67055 19.1484 9.44435 19.7872 10.327 20.2259C11.2095 20.6646 12.1783 20.8922 13.1592 20.8922C14.1401 20.8922 15.1089 20.6646 15.9914 20.2259C16.8741 19.7872 17.6479 19.1484 18.2523 18.357L18.8486 17.5761L19.823 17.703C19.9976 17.7258 20.1735 17.7372 20.3496 17.7373L20.3515 17.7373C21.3485 17.739 22.3176 17.387 23.0901 16.7376C23.8632 16.0878 24.3912 15.1805 24.5767 14.1708C24.7623 13.161 24.5924 12.1182 24.099 11.2247C23.6058 10.3317 22.8224 9.647 21.8893 9.28416L20.8674 8.88675ZM5.96977 19.4373C4.52945 19.4321 3.13917 18.9013 2.05361 17.9422C0.968047 16.983 0.259839 15.6597 0.0587123 14.2147C-0.142414 12.7696 0.177 11.2995 0.958446 10.0736C1.73989 8.84771 2.93108 7.94807 4.3138 7.53948C4.39888 6.51266 4.75117 5.52704 5.33473 4.68313C5.91829 3.83921 6.71228 3.16716 7.63574 2.73549C8.5592 2.30382 9.57913 2.12796 10.5915 2.22584C11.6039 2.32372 12.5726 2.69185 13.3988 3.29268C14.2361 2.68108 15.2203 2.30901 16.2483 2.21549C17.2762 2.12197 18.3101 2.31046 19.2415 2.76117C20.1728 3.21188 20.9673 3.90822 21.5416 4.77714C22.1159 5.64606 22.4488 6.65556 22.5055 7.69974C23.8129 8.20817 24.9033 9.16462 25.5871 10.4029C26.271 11.6412 26.5051 13.0831 26.2487 14.4781C25.9924 15.8731 25.2618 17.133 24.184 18.039C23.1061 18.9449 21.7491 19.4397 20.3486 19.4373C20.0994 19.4372 19.8505 19.421 19.6033 19.3888C18.8419 20.3858 17.8652 21.1929 16.7482 21.7482C15.6312 22.3035 14.4034 22.5922 13.1592 22.5922C11.915 22.5922 10.6873 22.3035 9.57022 21.7482C8.45319 21.1929 7.4765 20.3858 6.71507 19.3888C6.46791 19.421 6.21897 19.4372 5.96977 19.4373ZM8.98115 15.3166C8.35029 15.3166 7.79829 15.19 7.32514 14.9368C6.852 14.6837 6.48469 14.2977 6.22321 13.7789C5.96589 13.2559 5.83723 12.596 5.83723 11.7991C5.83723 10.9691 5.97627 10.2905 6.25434 9.76336C6.53242 9.23211 6.91633 8.8399 7.40608 8.58673C7.89997 8.33355 8.46443 8.20697 9.09944 8.20697C9.47297 8.20697 9.8216 8.24432 10.1453 8.31903C10.4732 8.39373 10.7471 8.48712 10.9671 8.59918L10.5936 9.61395C10.3612 9.52264 10.1101 9.44171 9.84028 9.37115C9.57466 9.3006 9.32148 9.26532 9.08076 9.26532C8.64082 9.26532 8.27558 9.36285 7.98506 9.55792C7.69868 9.74884 7.48286 10.0311 7.33759 10.4046C7.19233 10.7781 7.1197 11.2388 7.1197 11.7867C7.1197 12.3179 7.19026 12.7682 7.33137 13.1376C7.47663 13.5029 7.6883 13.7809 7.96638 13.9719C8.24861 14.1628 8.59931 14.2582 9.0185 14.2582C9.38789 14.2582 9.71992 14.2167 10.0146 14.1337C10.3093 14.0507 10.5811 13.9449 10.8302 13.8162V14.9182C10.5894 15.051 10.3238 15.1506 10.0333 15.217C9.74275 15.2834 9.39204 15.3166 8.98115 15.3166ZM18.444 11.7493C18.444 12.3138 18.3693 12.8181 18.2199 13.2621C18.0747 13.7021 17.8609 14.0756 17.5787 14.3828C17.3006 14.6857 16.9644 14.9182 16.5701 15.08C16.1759 15.2377 15.7297 15.3166 15.2316 15.3166C14.7668 15.3166 14.3393 15.2377 13.9492 15.08C13.5632 14.9182 13.2291 14.6857 12.9469 14.3828C12.6646 14.0756 12.4467 13.7021 12.2932 13.2621C12.1396 12.8181 12.0628 12.3138 12.0628 11.7493C12.0628 10.9981 12.1915 10.3589 12.4488 9.83185C12.7061 9.3006 13.0734 8.89801 13.5507 8.62408C14.0322 8.34601 14.6049 8.20697 15.269 8.20697C15.8999 8.20697 16.4539 8.34601 16.9312 8.62408C17.4085 8.90216 17.78 9.30475 18.0456 9.83185C18.3112 10.3589 18.444 10.9981 18.444 11.7493ZM13.3453 11.7493C13.3453 12.2764 13.4117 12.7309 13.5445 13.1127C13.6815 13.4904 13.889 13.7809 14.1671 13.9843C14.4493 14.1877 14.8125 14.2894 15.2565 14.2894C15.6923 14.2894 16.0513 14.1877 16.3336 13.9843C16.6158 13.7809 16.8233 13.4904 16.9561 13.1127C17.0889 12.7309 17.1553 12.2764 17.1553 11.7493C17.1553 11.2264 17.0889 10.7781 16.9561 10.4046C16.8233 10.0311 16.6158 9.74469 16.3336 9.54547C16.0555 9.34625 15.6923 9.24664 15.2441 9.24664C14.5883 9.24664 14.1069 9.46661 13.7998 9.90655C13.4968 10.3423 13.3453 10.9566 13.3453 11.7493ZM19.7605 15.6921H22.4027V14.8803H21.0256V14.8554L21.292 14.6163C21.5228 14.4071 21.7153 14.2204 21.8697 14.056C22.0241 13.89 22.1395 13.7248 22.2159 13.5605C22.2939 13.3944 22.3329 13.206 22.3329 12.9952C22.3329 12.8043 22.2831 12.6341 22.1835 12.4847C22.0839 12.3336 21.9428 12.2149 21.7602 12.1286C21.5792 12.0422 21.3651 11.9991 21.1177 11.9991C20.877 11.9991 20.6728 12.0273 20.5051 12.0838C20.3374 12.1402 20.1922 12.2132 20.0693 12.3029C19.9464 12.3909 19.8302 12.4839 19.7207 12.5818L20.261 13.2143C20.4088 13.0865 20.5408 12.9902 20.657 12.9255C20.7749 12.859 20.8911 12.8258 21.0056 12.8258C21.1003 12.8258 21.1824 12.8499 21.2522 12.8981C21.3219 12.9462 21.3568 13.0242 21.3568 13.1321C21.3568 13.2201 21.336 13.3048 21.2945 13.3861C21.253 13.4675 21.1808 13.5663 21.0778 13.6825C20.9766 13.7987 20.8338 13.9531 20.6495 14.1457L19.7605 15.0446V15.6921Z" />
</svg>
