
  <svg width="86" height="29" viewBox="0 0 86 29" fill="none" xmlns="http://www.w3.org/2000/svg" >
    <path
      d="M4.12 24.8537C1.37333 22.1604 0 18.7471 0 14.6137C0 10.4804 1.37333 7.06707 4.12 4.37374C6.89333 1.68041 10.28 0.33374 14.28 0.33374C17.32 0.33374 20.0133 1.10707 22.36 2.65374C24.7333 4.20041 26.4267 6.37374 27.44 9.17374H20.68C19.4267 6.72041 17.2933 5.49374 14.28 5.49374C11.7467 5.49374 9.68 6.33374 8.08 8.01374C6.50667 9.66707 5.72 11.8804 5.72 14.6537C5.72 17.4004 6.50667 19.6137 8.08 21.2937C9.68 22.9471 11.6267 23.7737 13.92 23.7737C16.24 23.7737 18.0533 23.2137 19.36 22.0937C20.6933 20.9471 21.52 19.4137 21.84 17.4937H12.56V13.2137H27.88V17.4937C27.4 20.5337 25.9067 23.2004 23.4 25.4937C20.8933 27.7604 17.7333 28.8937 13.92 28.8937C10.1333 28.8937 6.86667 27.5471 4.12 24.8537Z"
      fill="#29953A"
    />
    <path
      d="M34.8622 24.8537C32.1155 22.1604 30.7422 18.7471 30.7422 14.6137C30.7422 10.4804 32.1155 7.06707 34.8622 4.37374C37.6355 1.68041 41.0222 0.33374 45.0222 0.33374C48.0622 0.33374 50.7555 1.10707 53.1022 2.65374C55.4755 4.20041 57.1689 6.37374 58.1822 9.17374H51.4222C50.1689 6.72041 48.0355 5.49374 45.0222 5.49374C42.4889 5.49374 40.4222 6.33374 38.8222 8.01374C37.2489 9.66707 36.4622 11.8804 36.4622 14.6537C36.4622 17.4004 37.2489 19.6137 38.8222 21.2937C40.4222 22.9471 42.3689 23.7737 44.6622 23.7737C46.9822 23.7737 48.7955 23.2137 50.1022 22.0937C51.4355 20.9471 52.2622 19.4137 52.5822 17.4937H43.3022V13.2137H58.6222V17.4937C58.1422 20.5337 56.6489 23.2004 54.1422 25.4937C51.6355 27.7604 48.4755 28.8937 44.6622 28.8937C40.8755 28.8937 37.6089 27.5471 34.8622 24.8537Z"
      fill="#29953A"
    />
    <path
      d="M85.8844 0.73374L77.1644 14.6937L85.8844 28.6537H79.5244L73.7644 19.4537L68.4044 28.6537H62.0444L70.8044 14.6937L62.0444 0.73374H68.4044L74.1644 9.93374L79.5644 0.73374H85.8844Z"
      fill="#29953A"
    />
  </svg>
