<svg width="1em" viewBox="0 0 47 45" fill="none" xmlns="http://www.w3.org/2000/svg">
    <path
        d="M33.3201 3.45401C29.313 3.49011 25.5586 0.56601 18.3747 2.91251C18.3747 2.91251 11.7684 5.29511 8.95264 14.8977C8.95264 14.8977 18.8079 17.4247 23.7175 14.7533C30.2877 11.6848 33.3201 3.49011 33.3201 3.45401Z"
        stroke="currentColor" stroke-width="2.3" stroke-miterlimit="10" stroke-linecap="round"
        stroke-linejoin="round" />
    <path d="M26.389 6.88348C26.389 6.88348 11.4436 8.39968 5.23438 19.8434" stroke="currentColor" stroke-width="2.3"
        stroke-miterlimit="10" stroke-linecap="round" stroke-linejoin="round" />
    <path
        d="M1.15527 25.3667C3.17687 28.8323 2.52707 33.5253 8.15867 38.5793C8.15867 38.5793 13.5376 43.0918 23.2485 40.7453C23.2485 40.7453 20.5049 30.9261 15.7397 28.0381C9.81927 23.9227 1.19137 25.4028 1.15527 25.3667Z"
        stroke="currentColor" stroke-width="2.3" stroke-miterlimit="10" stroke-linecap="round"
        stroke-linejoin="round" />
    <path d="M7.58105 29.6987C7.58105 29.6987 16.3895 41.9005 29.3855 41.5395" stroke="currentColor" stroke-width="2.3"
        stroke-miterlimit="10" stroke-linecap="round" stroke-linejoin="round" />
    <path
        d="M37.1111 42.1893C39.0966 38.6876 43.4647 36.9187 45.0531 29.5182C45.0531 29.5182 46.2805 22.6231 39.3854 15.367C39.3854 15.367 32.2737 22.6592 32.1293 28.2186C31.5156 35.4386 37.1472 42.1893 37.1111 42.1893Z"
        stroke="currentColor" stroke-width="2.3" stroke-miterlimit="10" stroke-linecap="round"
        stroke-linejoin="round" />
    <path d="M37.6527 34.4639C37.6527 34.4639 43.8258 20.7459 37.0029 9.66321" stroke="currentColor" stroke-width="2.3"
        stroke-miterlimit="10" stroke-linecap="round" stroke-linejoin="round" />
</svg>