<svg width="85" height="35" viewBox="0 0 85 35" fill="none" xmlns="http://www.w3.org/2000/svg">
<path d="M5.6582 12.1921H4.32227V1.94214H0.728516V0.770264H9.23633V1.94214H5.6582V12.1921ZM14.6582 3.47339C14.8301 3.47339 15.0098 3.48381 15.1973 3.50464C15.3848 3.52026 15.5514 3.5437 15.6973 3.57495L15.5332 4.77808C15.3926 4.74162 15.2363 4.71297 15.0645 4.69214C14.8926 4.67131 14.7311 4.66089 14.5801 4.66089C14.2363 4.66089 13.9108 4.7312 13.6035 4.87183C13.3014 5.00724 13.0358 5.20516 12.8066 5.46558C12.5775 5.72078 12.3978 6.03068 12.2676 6.39526C12.1374 6.75464 12.0723 7.15568 12.0723 7.59839V12.1921H10.7676V3.62964H11.8457L11.9863 5.20776H12.041C12.2181 4.89006 12.4316 4.60099 12.6816 4.34058C12.9316 4.07495 13.2207 3.86401 13.5488 3.70776C13.8822 3.55151 14.252 3.47339 14.6582 3.47339ZM24.3848 3.62964V12.1921H23.3223L23.1348 10.989H23.0645C22.8874 11.2859 22.6582 11.5359 22.377 11.739C22.0957 11.9421 21.778 12.0932 21.4238 12.1921C21.0749 12.2963 20.7025 12.3484 20.3066 12.3484C19.6296 12.3484 19.0618 12.239 18.6035 12.0203C18.1452 11.8015 17.7988 11.463 17.5645 11.0046C17.3353 10.5463 17.2207 9.95776 17.2207 9.23901V3.62964H18.5332V9.14526C18.5332 9.85881 18.6947 10.3927 19.0176 10.7468C19.3405 11.0958 19.8327 11.2703 20.4941 11.2703C21.1296 11.2703 21.6348 11.1505 22.0098 10.9109C22.39 10.6713 22.6634 10.3197 22.8301 9.8562C22.9967 9.38745 23.0801 8.81453 23.0801 8.13745V3.62964H24.3848ZM32.666 9.84839C32.666 10.3953 32.528 10.8562 32.252 11.2312C31.9811 11.601 31.5905 11.8796 31.0801 12.0671C30.5749 12.2546 29.9707 12.3484 29.2676 12.3484C28.6686 12.3484 28.1504 12.3015 27.7129 12.2078C27.2754 12.114 26.8926 11.9812 26.5645 11.8093V10.614C26.9134 10.7859 27.3301 10.9421 27.8145 11.0828C28.2988 11.2234 28.7936 11.2937 29.2988 11.2937C30.0384 11.2937 30.5749 11.1739 30.9082 10.9343C31.2415 10.6947 31.4082 10.3692 31.4082 9.95776C31.4082 9.72339 31.3405 9.51766 31.2051 9.34058C31.0749 9.15828 30.8535 8.98381 30.541 8.81714C30.2285 8.64526 29.7962 8.45776 29.2441 8.25464C28.6973 8.04631 28.2233 7.84058 27.8223 7.63745C27.4264 7.42912 27.1191 7.17651 26.9004 6.87964C26.6868 6.58276 26.5801 6.19735 26.5801 5.72339C26.5801 4.99943 26.8717 4.44474 27.4551 4.05933C28.0436 3.6687 28.8145 3.47339 29.7676 3.47339C30.2832 3.47339 30.765 3.52547 31.2129 3.62964C31.666 3.7286 32.0879 3.86401 32.4785 4.03589L32.041 5.07495C31.6868 4.92391 31.3092 4.79631 30.9082 4.69214C30.5072 4.58797 30.0983 4.53589 29.6816 4.53589C29.0827 4.53589 28.6217 4.63485 28.2988 4.83276C27.9811 5.03068 27.8223 5.30151 27.8223 5.64526C27.8223 5.91089 27.8952 6.12964 28.041 6.30151C28.1921 6.47339 28.4316 6.63485 28.7598 6.78589C29.0879 6.93693 29.5202 7.11401 30.0566 7.31714C30.5931 7.51506 31.0566 7.72078 31.4473 7.93433C31.8379 8.14266 32.1374 8.39787 32.3457 8.69995C32.5592 8.99683 32.666 9.37964 32.666 9.84839ZM37.5176 11.2859C37.7311 11.2859 37.9499 11.2677 38.1738 11.2312C38.3978 11.1947 38.5801 11.1505 38.7207 11.0984V12.1062C38.5697 12.1739 38.3587 12.2312 38.0879 12.2781C37.8223 12.325 37.5618 12.3484 37.3066 12.3484C36.8535 12.3484 36.4421 12.2703 36.0723 12.114C35.7025 11.9526 35.4056 11.6817 35.1816 11.3015C34.9629 10.9213 34.8535 10.3953 34.8535 9.72339V4.64526H33.6348V4.01245L34.8613 3.50464L35.377 1.64526H36.1582V3.62964H38.666V4.64526H36.1582V9.68433C36.1582 10.2208 36.2806 10.6218 36.5254 10.8875C36.7754 11.1531 37.1061 11.2859 37.5176 11.2859ZM44.8066 12.1921V0.770264H46.1348V11.0046H51.2051V12.1921H44.8066ZM56.1738 3.48901C57.1947 3.48901 57.9525 3.71818 58.4473 4.17651C58.9421 4.63485 59.1895 5.36662 59.1895 6.37183V12.1921H58.2441L57.9941 10.9265H57.9316C57.6921 11.239 57.4421 11.502 57.1816 11.7156C56.9212 11.9239 56.6191 12.0828 56.2754 12.1921C55.9368 12.2963 55.5202 12.3484 55.0254 12.3484C54.5046 12.3484 54.041 12.2572 53.6348 12.075C53.2337 11.8927 52.916 11.6166 52.6816 11.2468C52.4525 10.877 52.3379 10.4083 52.3379 9.84058C52.3379 8.98641 52.6764 8.33016 53.3535 7.87183C54.0306 7.41349 55.0618 7.16349 56.4473 7.12183L57.9238 7.05933V6.53589C57.9238 5.79631 57.765 5.27808 57.4473 4.9812C57.1296 4.68433 56.6816 4.53589 56.1035 4.53589C55.6556 4.53589 55.2285 4.60099 54.8223 4.7312C54.416 4.86141 54.0306 5.01506 53.666 5.19214L53.2676 4.20776C53.653 4.00985 54.0957 3.84058 54.5957 3.69995C55.0957 3.55933 55.6217 3.48901 56.1738 3.48901ZM57.9082 7.97339L56.6035 8.02808C55.5358 8.06974 54.7832 8.24422 54.3457 8.55151C53.9082 8.85881 53.6895 9.2937 53.6895 9.8562C53.6895 10.3458 53.8379 10.7078 54.1348 10.9421C54.4316 11.1765 54.8249 11.2937 55.3145 11.2937C56.0749 11.2937 56.6973 11.0828 57.1816 10.6609C57.666 10.239 57.9082 9.6062 57.9082 8.76245V7.97339ZM63.1582 0.0358887V3.07495C63.1582 3.42391 63.1478 3.76245 63.127 4.09058C63.1113 4.4187 63.0983 4.67391 63.0879 4.8562H63.1582C63.3926 4.47078 63.7311 4.14526 64.1738 3.87964C64.6165 3.61401 65.1816 3.4812 65.8691 3.4812C66.9421 3.4812 67.7962 3.8536 68.4316 4.59839C69.0723 5.33797 69.3926 6.43953 69.3926 7.90308C69.3926 8.86662 69.2467 9.67912 68.9551 10.3406C68.6634 11.002 68.252 11.502 67.7207 11.8406C67.1895 12.1791 66.5618 12.3484 65.8379 12.3484C65.1608 12.3484 64.6035 12.2234 64.166 11.9734C63.7337 11.7182 63.4004 11.4083 63.166 11.0437H63.0645L62.7988 12.1921H61.8613V0.0358887H63.1582ZM65.6582 4.56714C65.0384 4.56714 64.5462 4.68953 64.1816 4.93433C63.8171 5.17391 63.554 5.53849 63.3926 6.02808C63.2363 6.51245 63.1582 7.12703 63.1582 7.87183V7.94214C63.1582 9.02026 63.3379 9.84578 63.6973 10.4187C64.0566 10.9864 64.7103 11.2703 65.6582 11.2703C66.4551 11.2703 67.0514 10.9786 67.4473 10.3953C67.8483 9.81193 68.0488 8.9786 68.0488 7.89526C68.0488 6.7911 67.8509 5.96037 67.4551 5.40308C67.0645 4.84578 66.4655 4.56714 65.6582 4.56714ZM74.9551 3.47339C75.6842 3.47339 76.3092 3.63485 76.8301 3.95776C77.3509 4.28068 77.7493 4.73381 78.0254 5.31714C78.3014 5.89526 78.4395 6.57235 78.4395 7.34839V8.15308H72.5254C72.541 9.15828 72.791 9.92391 73.2754 10.45C73.7598 10.976 74.4421 11.239 75.3223 11.239C75.8639 11.239 76.3431 11.1895 76.7598 11.0906C77.1764 10.9916 77.6087 10.8458 78.0566 10.6531V11.7937C77.6243 11.9864 77.1947 12.127 76.7676 12.2156C76.3457 12.3041 75.8457 12.3484 75.2676 12.3484C74.4447 12.3484 73.7259 12.1817 73.1113 11.8484C72.502 11.5098 72.028 11.0151 71.6895 10.364C71.3509 9.71297 71.1816 8.9161 71.1816 7.97339C71.1816 7.05151 71.3353 6.25464 71.6426 5.58276C71.9551 4.90568 72.3926 4.38485 72.9551 4.02026C73.5228 3.65568 74.1895 3.47339 74.9551 3.47339ZM74.9395 4.53589C74.2467 4.53589 73.6947 4.76245 73.2832 5.21558C72.8717 5.6687 72.627 6.30151 72.5488 7.11401H77.0801C77.0749 6.6036 76.9941 6.15568 76.8379 5.77026C76.6868 5.37964 76.4551 5.07756 76.1426 4.86401C75.8301 4.64526 75.429 4.53589 74.9395 4.53589ZM81.9473 12.1921H80.6426V0.0358887H81.9473V12.1921ZM11.0801 34.1921H9.54883L3.32227 24.5984H3.25977C3.27539 24.8536 3.29362 25.1453 3.31445 25.4734C3.33529 25.7963 3.35091 26.1427 3.36133 26.5125C3.37695 26.877 3.38477 27.2494 3.38477 27.6296V34.1921H2.15039V22.7703H3.67383L9.87695 32.3328H9.93164C9.92122 32.1505 9.9082 31.8927 9.89258 31.5593C9.87695 31.2208 9.86133 30.8588 9.8457 30.4734C9.83529 30.0828 9.83008 29.7208 9.83008 29.3875V22.7703H11.0801V34.1921ZM15.5254 34.1921H14.1973V22.7703H20.5566V23.9421H15.5254V28.1296H20.252V29.2937H15.5254V34.1921ZM25.9707 34.1921H24.6348V23.9421H21.041V22.7703H29.5488V23.9421H25.9707V34.1921ZM43.4082 22.7703L39.3066 34.1921H37.9707L33.8691 22.7703H35.2598L37.9316 30.2937C38.041 30.5958 38.1374 30.8848 38.2207 31.1609C38.3092 31.4369 38.3874 31.7026 38.4551 31.9578C38.5228 32.213 38.5827 32.4604 38.6348 32.7C38.6868 32.4604 38.7467 32.213 38.8145 31.9578C38.8822 31.6973 38.9603 31.4291 39.0488 31.1531C39.1374 30.8718 39.2363 30.5776 39.3457 30.2703L42.002 22.7703H43.4082ZM46.0801 25.6296V34.1921H44.7832V25.6296H46.0801ZM45.4473 22.4265C45.6608 22.4265 45.8431 22.4968 45.9941 22.6375C46.1504 22.7729 46.2285 22.9864 46.2285 23.2781C46.2285 23.5645 46.1504 23.7781 45.9941 23.9187C45.8431 24.0593 45.6608 24.1296 45.4473 24.1296C45.2233 24.1296 45.0358 24.0593 44.8848 23.9187C44.7389 23.7781 44.666 23.5645 44.666 23.2781C44.666 22.9864 44.7389 22.7729 44.8848 22.6375C45.0358 22.4968 45.2233 22.4265 45.4473 22.4265ZM52.127 25.4734C52.8561 25.4734 53.4811 25.6348 54.002 25.9578C54.5228 26.2807 54.9212 26.7338 55.1973 27.3171C55.4733 27.8953 55.6113 28.5723 55.6113 29.3484V30.1531H49.6973C49.7129 31.1583 49.9629 31.9239 50.4473 32.45C50.9316 32.976 51.6139 33.239 52.4941 33.239C53.0358 33.239 53.515 33.1895 53.9316 33.0906C54.3483 32.9916 54.7806 32.8458 55.2285 32.6531V33.7937C54.7962 33.9864 54.3665 34.127 53.9395 34.2156C53.5176 34.3041 53.0176 34.3484 52.4395 34.3484C51.6165 34.3484 50.8978 34.1817 50.2832 33.8484C49.6738 33.5098 49.1999 33.0151 48.8613 32.364C48.5228 31.713 48.3535 30.9161 48.3535 29.9734C48.3535 29.0515 48.5072 28.2546 48.8145 27.5828C49.127 26.9057 49.5645 26.3848 50.127 26.0203C50.6947 25.6557 51.3613 25.4734 52.127 25.4734ZM52.1113 26.5359C51.4186 26.5359 50.8665 26.7625 50.4551 27.2156C50.0436 27.6687 49.7988 28.3015 49.7207 29.114H54.252C54.2467 28.6036 54.166 28.1557 54.0098 27.7703C53.8587 27.3796 53.627 27.0776 53.3145 26.864C53.002 26.6453 52.6009 26.5359 52.1113 26.5359ZM64.7832 34.1765L63.2598 29.1921C63.1921 28.9786 63.127 28.7703 63.0645 28.5671C63.0072 28.3588 62.9525 28.1609 62.9004 27.9734C62.8535 27.7807 62.8092 27.6036 62.7676 27.4421C62.7311 27.2755 62.6999 27.1322 62.6738 27.0125H62.6191C62.5983 27.1322 62.5697 27.2755 62.5332 27.4421C62.4967 27.6036 62.4525 27.7807 62.4004 27.9734C62.3535 28.1661 62.3014 28.3692 62.2441 28.5828C62.1868 28.7911 62.1217 29.002 62.0488 29.2156L60.4551 34.1765H58.9941L56.6348 25.614H57.9785L59.2129 30.3406C59.2962 30.6531 59.3743 30.963 59.4473 31.2703C59.5254 31.5723 59.5905 31.8588 59.6426 32.1296C59.6999 32.3953 59.7415 32.627 59.7676 32.825H59.8301C59.8613 32.6947 59.8952 32.5385 59.9316 32.3562C59.9733 32.1739 60.0176 31.9812 60.0645 31.7781C60.1165 31.5697 60.1712 31.364 60.2285 31.1609C60.2858 30.9526 60.3431 30.7572 60.4004 30.575L61.9785 25.614H63.377L64.9004 30.5671C64.9785 30.8171 65.054 31.0776 65.127 31.3484C65.2051 31.6192 65.2754 31.8822 65.3379 32.1375C65.4004 32.3875 65.4447 32.6114 65.4707 32.8093H65.5332C65.554 32.6322 65.5931 32.4135 65.6504 32.1531C65.7077 31.8927 65.7728 31.6062 65.8457 31.2937C65.9238 30.9812 66.0046 30.6635 66.0879 30.3406L67.3379 25.614H68.6582L66.291 34.1765H64.7832ZM73.5176 25.4734C74.2467 25.4734 74.8717 25.6348 75.3926 25.9578C75.9134 26.2807 76.3118 26.7338 76.5879 27.3171C76.8639 27.8953 77.002 28.5723 77.002 29.3484V30.1531H71.0879C71.1035 31.1583 71.3535 31.9239 71.8379 32.45C72.3223 32.976 73.0046 33.239 73.8848 33.239C74.4264 33.239 74.9056 33.1895 75.3223 33.0906C75.7389 32.9916 76.1712 32.8458 76.6191 32.6531V33.7937C76.1868 33.9864 75.7572 34.127 75.3301 34.2156C74.9082 34.3041 74.4082 34.3484 73.8301 34.3484C73.0072 34.3484 72.2884 34.1817 71.6738 33.8484C71.0645 33.5098 70.5905 33.0151 70.252 32.364C69.9134 31.713 69.7441 30.9161 69.7441 29.9734C69.7441 29.0515 69.8978 28.2546 70.2051 27.5828C70.5176 26.9057 70.9551 26.3848 71.5176 26.0203C72.0853 25.6557 72.752 25.4734 73.5176 25.4734ZM73.502 26.5359C72.8092 26.5359 72.2572 26.7625 71.8457 27.2156C71.4342 27.6687 71.1895 28.3015 71.1113 29.114H75.6426C75.6374 28.6036 75.5566 28.1557 75.4004 27.7703C75.2493 27.3796 75.0176 27.0776 74.7051 26.864C74.3926 26.6453 73.9915 26.5359 73.502 26.5359ZM83.0957 25.4734C83.2676 25.4734 83.4473 25.4838 83.6348 25.5046C83.8223 25.5203 83.9889 25.5437 84.1348 25.575L83.9707 26.7781C83.8301 26.7416 83.6738 26.713 83.502 26.6921C83.3301 26.6713 83.1686 26.6609 83.0176 26.6609C82.6738 26.6609 82.3483 26.7312 82.041 26.8718C81.7389 27.0072 81.4733 27.2052 81.2441 27.4656C81.015 27.7208 80.8353 28.0307 80.7051 28.3953C80.5749 28.7546 80.5098 29.1557 80.5098 29.5984V34.1921H79.2051V25.6296H80.2832L80.4238 27.2078H80.4785C80.6556 26.8901 80.8691 26.601 81.1191 26.3406C81.3691 26.075 81.6582 25.864 81.9863 25.7078C82.3197 25.5515 82.6895 25.4734 83.0957 25.4734Z" fill="white"/>
</svg>
