<svg width="20" height="18" viewBox="0 0 20 18" fill="none" xmlns="http://www.w3.org/2000/svg">
<path fill-rule="evenodd" clip-rule="evenodd" d="M3.33398 2.33332C3.11297 2.33332 2.90101 2.42112 2.74473 2.5774C2.58845 2.73368 2.50065 2.94564 2.50065 3.16666V14.8333C2.50065 15.0543 2.58845 15.2663 2.74473 15.4226C2.90101 15.5789 3.11297 15.6667 3.33398 15.6667H16.6673C16.8883 15.6667 17.1003 15.5789 17.2566 15.4226C17.4129 15.2663 17.5006 15.0543 17.5006 14.8333V5.66666C17.5006 5.44564 17.4129 5.23368 17.2566 5.0774C17.1003 4.92112 16.8883 4.83332 16.6673 4.83332H9.16732C8.88869 4.83332 8.6285 4.69407 8.47394 4.46224L7.05466 2.33332H3.33398ZM1.56622 1.39889C2.03506 0.930048 2.67094 0.666656 3.33398 0.666656H7.50065C7.77928 0.666656 8.03947 0.805907 8.19403 1.03774L9.6133 3.16666H16.6673C17.3304 3.16666 17.9662 3.43005 18.4351 3.89889C18.9039 4.36773 19.1673 5.00361 19.1673 5.66666V14.8333C19.1673 15.4964 18.9039 16.1323 18.4351 16.6011C17.9662 17.0699 17.3304 17.3333 16.6673 17.3333H3.33398C2.67094 17.3333 2.03506 17.0699 1.56622 16.6011C1.09738 16.1322 0.833984 15.4964 0.833984 14.8333V3.16666C0.833984 2.50362 1.09738 1.86773 1.56622 1.39889Z" fill="#666666"/>
</svg>
