<svg viewBox="0 0 122 36" fill="currentColor" xmlns="http://www.w3.org/2000/svg">
    <path fill-rule="evenodd" clip-rule="evenodd"
        d="M19.0771 0L0 35.4171H23.5107C23.4961 35.4124 23.4821 35.4071 23.469 35.4016L22.4884 33.9177C19.1689 32.5607 17.6413 30.931 16.9849 28.8252C18.1034 29.4036 19.3084 29.327 19.8344 29.1917C18.5967 29.2413 17.3677 28.1537 16.6616 27.313C16.511 26.172 16.5188 24.906 16.5771 23.4912C17.1327 23.8859 18.0646 23.8763 18.5187 23.8092C17.8293 23.7669 17.0939 23.0959 16.6748 22.6074C16.9026 19.8268 16.2286 18.1185 15.8254 17.58C17.7545 17.8916 19.3234 18.5881 20.5147 19.3487C20.5273 19.4094 20.54 19.4693 20.5525 19.5284L20.5525 19.5284L20.5525 19.5285C20.7506 20.4646 20.9072 21.2051 20.3906 22.2821C20.9055 21.9644 21.4637 21.1416 21.4804 20.0387C22.2441 20.6488 22.7677 21.2391 23.0424 21.6502C23.4543 22.1514 23.7371 22.7646 23.9225 23.4355C23.5552 24.654 22.7352 26.463 21.5042 26.7866C22.1179 26.7728 23.3444 26.4743 24.2152 25.4823C24.2905 27.4956 23.8591 29.5511 23.5809 30.518C23.1728 31.6184 22.9892 33.1316 22.9484 33.7506C23.1348 33.9911 23.5753 34.5866 23.8463 35.0448C23.891 35.2685 23.8386 35.375 23.7546 35.4171H38.1542L19.0771 0ZM41.9193 35.4171V0.00996094H49.4573V35.4171H41.9193ZM83.5556 29.1001V35.4171H71.187C68.8512 35.4171 67.0641 35.2932 65.8255 35.0455C61.4726 34.1962 58.376 31.772 56.5357 27.773C55.3325 25.0834 54.7309 21.7568 54.7309 17.7932C54.7309 13.051 55.651 9.19352 57.4912 6.22081C58.836 4.06205 60.6232 2.48722 62.8527 1.49632C65.1177 0.505413 68.0196 0.00996094 71.5585 0.00996094H83.5556V6.32698H72.4079C69.0459 6.32698 66.5863 7.22941 65.0292 9.03427C63.7198 10.5206 63.0651 13.2102 63.0651 17.1031C63.0651 22.3407 64.0737 25.7735 66.0909 27.4014C67.5065 28.5339 69.7183 29.1001 72.7264 29.1001H83.5556ZM103.857 0.00996094H88.8345V35.4171H103.857C107.149 35.4171 109.59 35.2755 111.183 34.9924C112.811 34.6739 114.297 34.09 115.642 33.2406C117.765 31.8605 119.287 29.7194 120.207 26.8175C121.127 23.9863 121.587 20.9782 121.587 17.7932C121.587 14.5727 121.11 11.5469 120.154 8.71576C118.88 5.03526 116.35 2.50492 112.563 1.12473C110.511 0.381551 107.609 0.00996094 103.857 0.00996094ZM96.3725 29.1001V6.32698H103.857C106.759 6.32698 108.883 6.9286 110.227 8.13184C111.148 8.98119 111.891 10.2729 112.457 12.007C113.023 13.7411 113.306 15.6521 113.306 17.7401C113.306 19.6157 113.059 21.3852 112.563 23.0485C112.103 24.7118 111.484 26.0035 110.705 26.9236C109.431 28.3746 107.149 29.1001 103.857 29.1001H96.3725Z" />
</svg>