<svg width="1em" viewBox="0 0 86 87" fill="none" xmlns="http://www.w3.org/2000/svg">
<path d="M1.75 18.75C1.75 9.36116 9.36116 1.75 18.75 1.75H67.25C76.6388 1.75 84.25 9.36116 84.25 18.75V67.375C84.25 76.7638 76.6388 84.375 67.25 84.375H18.75C9.36116 84.375 1.75 76.7638 1.75 67.375V18.75Z" stroke="#05761E" stroke-width="3.5"/>
<path fill-rule="evenodd" clip-rule="evenodd" d="M18.9884 33L8 53.4002H21.5417C21.5333 53.3975 21.5252 53.3945 21.5177 53.3913L20.9528 52.5366C19.0407 51.7549 18.1608 50.8162 17.7828 49.6032C18.4271 49.9365 19.1213 49.8923 19.4243 49.8144C18.7112 49.843 18.0033 49.2163 17.5965 48.7321C17.5098 48.0749 17.5143 47.3457 17.5479 46.5308C17.8679 46.7583 18.4048 46.7527 18.6664 46.7141C18.2693 46.6897 17.8456 46.3031 17.6042 46.0217C17.7354 44.4202 17.3472 43.4363 17.1149 43.1261C18.2262 43.3056 19.1299 43.7068 19.8161 44.1449L19.8379 44.2484C19.952 44.7876 20.0422 45.2141 19.7446 45.8345C20.0412 45.6515 20.3627 45.1776 20.3724 44.5424C20.8122 44.8938 21.1137 45.2337 21.2719 45.4705C21.5092 45.7592 21.6721 46.1125 21.7789 46.4991C21.5673 47.201 21.0951 48.2427 20.3861 48.4291C20.7395 48.4211 21.4459 48.2492 21.9475 47.6779C21.9908 48.8376 21.7423 50.0214 21.5821 50.5783C21.347 51.2122 21.2413 52.0838 21.2178 52.4403C21.3252 52.5789 21.5789 52.9219 21.735 53.1858C21.7607 53.3147 21.7305 53.376 21.6821 53.4002H29.9768L18.9884 33ZM32.1458 53.4003V33.0058H36.4876V53.4003H32.1458ZM56.1282 49.7617V53.4003H49.0039C47.6585 53.4003 46.6291 53.329 45.9157 53.1863C43.4084 52.6971 41.6248 51.3008 40.5648 48.9973C39.8717 47.4481 39.5252 45.532 39.5252 43.2489C39.5252 40.5174 40.0552 38.2956 41.1152 36.5833C41.8898 35.3398 42.9192 34.4327 44.2034 33.862C45.508 33.2912 47.1795 33.0058 49.2179 33.0058H56.1282V36.6444H49.7072C47.7707 36.6444 46.3539 37.1642 45.457 38.2038C44.7028 39.06 44.3257 40.6092 44.3257 42.8514C44.3257 45.8683 44.9067 47.8456 46.0686 48.7833C46.8839 49.4356 48.158 49.7617 49.8906 49.7617H56.1282ZM67.8221 33.0058H59.1689V53.4003H67.8221C69.7178 53.4003 71.1243 53.3188 72.0416 53.1557C72.9793 52.9723 73.8354 52.6359 74.61 52.1467C75.8331 51.3517 76.7096 50.1185 77.2396 48.4469C77.7696 46.8162 78.0346 45.0835 78.0346 43.2489C78.0346 41.394 77.7594 39.6511 77.209 38.0204C76.4752 35.9004 75.0177 34.4429 72.8366 33.6479C71.6543 33.2199 69.9828 33.0058 67.8221 33.0058ZM63.5108 49.7617V36.6444H67.8221C69.4936 36.6444 70.7166 36.991 71.4912 37.684C72.0212 38.1732 72.4493 38.9173 72.7754 39.9161C73.1016 40.9149 73.2647 42.0157 73.2647 43.2184C73.2647 44.2987 73.122 45.318 72.8366 46.276C72.5716 47.2341 72.2149 47.9781 71.7664 48.5081C71.0326 49.3439 69.7178 49.7617 67.8221 49.7617H63.5108Z" fill="#227A30"/>
</svg>
