<svg width="86" height="87" viewBox="0 0 86 87" fill="none" xmlns="http://www.w3.org/2000/svg">
    <path d="M18.75 1.75H67.25C76.6388 1.75 84.25 9.36116 84.25 18.75V67.375C84.25 76.7638 76.6388 84.375 67.25 84.375H18.75C9.36116 84.375 1.75 76.7638 1.75 67.375V18.75C1.75 9.36116 9.36116 1.75 18.75 1.75Z" stroke="#29953A" stroke-width="3.5"/>
    <path fill-rule="evenodd" clip-rule="evenodd" d="M18.9883 33L8 53.4H21.5419C21.5334 53.3973 21.5253 53.3942 21.5176 53.391L20.9528 52.5363C19.0407 51.7546 18.1608 50.8159 17.7828 49.6029C18.4271 49.9361 19.1213 49.892 19.4242 49.8141C18.7112 49.8427 18.0033 49.2161 17.5966 48.7318C17.5099 48.0746 17.5143 47.3454 17.548 46.5306C17.868 46.758 18.4048 46.7525 18.6664 46.7138C18.2693 46.6895 17.8456 46.3028 17.6042 46.0215C17.7354 44.42 17.3472 43.4361 17.115 43.1259C18.2262 43.3054 19.1299 43.7066 19.8161 44.1447L19.8379 44.2481C19.9519 44.7873 20.0422 45.2139 19.7446 45.8342C20.0412 45.6512 20.3627 45.1773 20.3723 44.5422C20.8121 44.8935 21.1137 45.2335 21.2719 45.4703C21.5092 45.759 21.6721 46.1122 21.7789 46.4988C21.5673 47.2006 21.095 48.2424 20.386 48.4288C20.7395 48.4208 21.4459 48.2489 21.9474 47.6776C21.9908 48.8373 21.7423 50.0211 21.5821 50.5781C21.347 51.2119 21.2413 52.0835 21.2178 52.44C21.3251 52.5786 21.5789 52.9216 21.735 53.1855C21.7607 53.3145 21.7305 53.3758 21.6819 53.4H29.9766L18.9883 33ZM32.0556 53.3959V33H36.3977V53.3959H32.0556ZM56.0397 49.7571V53.3959H48.9149C47.5694 53.3959 46.54 53.3246 45.8265 53.1819C43.319 52.6926 41.5353 51.2962 40.4752 48.9926C39.7821 47.4433 39.4355 45.527 39.4355 43.2438C39.4355 40.5121 39.9656 38.2901 41.0256 36.5777C41.8003 35.3342 42.8298 34.427 44.1141 33.8562C45.4187 33.2854 47.0904 33 49.1289 33H56.0397V36.6389H49.6182C47.6816 36.6389 46.2648 37.1587 45.3678 38.1984C44.6135 39.0546 44.2364 40.6039 44.2364 42.8463C44.2364 45.8634 44.8174 47.8408 45.9794 48.7785C46.7948 49.4309 48.0689 49.7571 49.8017 49.7571H56.0397ZM63.4228 53.3959V46.2711H70.3947C71.577 46.2711 72.5046 46.1692 73.1773 45.9653C73.8704 45.7615 74.5228 45.3945 75.1344 44.8645C75.8071 44.2733 76.3269 43.519 76.6939 42.6017C77.0812 41.6639 77.2749 40.6752 77.2749 39.6356C77.2749 38.392 76.9895 37.2402 76.4187 36.1802C75.644 34.7736 74.5839 33.846 73.2385 33.3975C72.4434 33.1325 71.1184 33 69.2633 33H59.0806V53.3959H63.4228ZM69.3244 42.6323H63.4228V36.6389H69.4162C70.1704 36.6389 70.7208 36.7102 71.0674 36.8529C72.0255 37.2402 72.5046 38.1168 72.5046 39.4827C72.5046 40.7466 72.1886 41.6334 71.5567 42.143C71.1286 42.4692 70.3845 42.6323 69.3244 42.6323Z" fill="#29953A"/>
</svg>
