<svg width="1em" viewBox="0 0 86 87" fill="none" xmlns="http://www.w3.org/2000/svg">
    <path
        d="M1.25 18.75C1.25 9.08502 9.08502 1.25 18.75 1.25H67.25C76.915 1.25 84.75 9.08502 84.75 18.75V67.375C84.75 77.04 76.915 84.875 67.25 84.875H18.75C9.08502 84.875 1.25 77.04 1.25 67.375V18.75Z"
        stroke="#05761E" stroke-width="2.5" />
    <path
        d="M4.4375 19.375C4.4375 11.1252 11.1252 4.4375 19.375 4.4375H66.625C74.8748 4.4375 81.5625 11.1252 81.5625 19.375V66.75C81.5625 74.9998 74.8748 81.6875 66.625 81.6875H19.375C11.1252 81.6875 4.4375 74.9998 4.4375 66.75V19.375Z"
        stroke="#05761E" stroke-width="0.875" />
    <mask id="mask0_2221_345" style="mask-type:alpha" maskUnits="userSpaceOnUse" x="16" y="22" width="54" height="55">
        <rect x="16" y="22.875" width="53.25" height="53.75" fill="#D9D9D9" />
    </mask>
    <g mask="url(#mask0_2221_345)">
        <circle cx="42.7084" cy="51.4145" r="24.871" fill="white" stroke="#05761E" />
        <mask id="path-5-outside-1_2221_345" maskUnits="userSpaceOnUse" x="17.3379" y="26.0416" width="51" height="51"
            fill="black">
            <rect fill="white" x="17.3379" y="26.0416" width="51" height="51" />
            <path fill-rule="evenodd" clip-rule="evenodd"
                d="M46.4026 28.2284C46.3116 28.1788 46.1491 28.1698 46.0618 28.2179C45.3134 28.6321 44.5642 29.0531 43.7962 29.4869C43.7278 29.5493 43.6481 29.6027 43.5661 29.6162C43.2288 29.8072 42.8884 29.9995 42.5403 30.1961C42.4443 30.2503 42.3477 30.3049 42.2505 30.3598C42.3939 30.4437 42.5259 30.5381 42.6506 30.6272C42.9045 30.8087 43.1279 30.9685 43.3555 30.974C44.0888 30.9936 44.9072 31.0079 45.5436 30.7101C46.1142 30.4425 46.615 30.0265 47.1294 29.5992C47.3548 29.412 47.5828 29.2226 47.8205 29.0426C47.6885 28.9659 47.5611 28.8912 47.4371 28.8185C47.0762 28.6068 46.7429 28.4114 46.4026 28.2284ZM36.16 31.7912C36.2518 31.8431 36.3759 31.907 36.4639 31.8845C37.3014 31.6719 38.1366 31.4501 38.989 31.2237C39.219 31.1626 39.4503 31.1011 39.6833 31.0394C39.6167 30.9247 39.5514 30.8162 39.4884 30.7114C39.348 30.4778 39.2186 30.2628 39.1101 30.038C38.9732 29.7546 38.8115 29.6719 38.5174 29.8102C37.8382 30.1305 37.1604 30.1831 36.5015 29.7463C36.479 29.7315 36.4445 29.7352 36.4396 29.7357C36.4393 29.7358 36.4391 29.7358 36.4391 29.7358C36.1589 29.9529 35.8831 30.1663 35.6026 30.3835C35.3439 30.5837 35.0811 30.7872 34.8068 30.9996C34.9411 31.0784 35.0717 31.1556 35.1999 31.2313C35.5299 31.4262 35.8436 31.6115 36.16 31.7912ZM26.6975 33.0791C30.1673 30.0425 34.1953 28.157 38.7438 27.3924C40.5797 27.0834 41.2368 27.0416 43.0933 27.0416C44.5966 27.0416 45.7991 27.253 46.6716 27.4063C46.7509 27.4203 46.8275 27.4337 46.9013 27.4465C48.9856 27.8066 50.9864 28.4382 52.9007 29.3343L52.8872 29.4922C52.7332 29.4849 52.5767 29.4865 52.4201 29.4882C52.0772 29.4917 51.7342 29.4953 51.4182 29.405C50.3049 29.087 49.3414 29.2494 48.5027 30.0553C48.3259 30.2253 48.1518 30.3979 47.9776 30.5706C47.7034 30.8425 47.4293 31.1143 47.145 31.3755C47.0066 31.5018 46.8103 31.6176 46.6297 31.6379C46.4723 31.6556 46.3148 31.6736 46.1573 31.6916C45.1014 31.8122 44.0451 31.9329 42.9854 31.9852C42.6083 32.0034 42.2285 31.9498 41.848 31.8962C41.5992 31.8611 41.35 31.8259 41.1012 31.8108C40.9417 31.8018 40.7115 31.8965 40.6205 32.0213C40.4618 32.2382 40.3194 32.4671 40.1771 32.6961C40.0347 32.925 39.8924 33.1539 39.7337 33.3708C39.6208 33.5242 39.3974 33.6708 39.2139 33.6851C39.05 33.6977 38.886 33.711 38.7219 33.7243C37.857 33.7947 36.9894 33.8652 36.1277 33.8279C35.6322 33.8061 35.1402 33.6486 34.652 33.4923C34.5014 33.4441 34.3512 33.396 34.2013 33.352C33.8779 33.2573 33.5988 33.2347 33.3085 33.4452C32.2336 34.2226 30.9985 34.497 29.6995 34.5985C27.9198 34.7376 26.2131 35.2248 24.5154 35.7458C24.4102 35.778 24.3039 35.8071 24.1979 35.8361C24.1552 35.8478 24.1126 35.8595 24.0701 35.8713C24.0543 35.8522 24.0387 35.833 24.0231 35.8138C24.0075 35.7947 23.9919 35.7755 23.9761 35.7563C24.2616 35.4738 24.5428 35.1863 24.8239 34.8988C25.4338 34.2753 26.0436 33.6518 26.6975 33.0791ZM53.8077 37.577C53.4782 37.2958 53.2759 36.9778 53.1668 36.5605C52.7983 35.1494 52.2048 33.9194 51.0035 32.9435C50.3982 32.4514 49.7437 32.3298 49.089 32.2083C48.7626 32.1476 48.4362 32.087 48.1159 31.9805C47.9489 32.6533 48.0279 33.142 48.5522 33.5653C49.06 33.9755 49.5159 34.4537 49.9686 34.9286L49.9686 34.9286L50.0889 35.0546C50.392 35.3718 50.6775 35.7054 50.9587 36.034L50.9589 36.0342C51.0803 36.1761 51.2009 36.317 51.3217 36.4553C50.5643 37.1499 49.7857 37.2311 48.9395 36.7823C48.7447 36.6785 48.5386 36.5778 48.3258 36.5297C47.7443 36.3966 47.5232 36.0703 47.6428 35.4779C47.6744 35.32 47.6262 35.0298 47.5269 34.9825C47.0919 34.7728 46.6425 34.5926 46.1845 34.409L46.1844 34.4089L46.1844 34.4089C46.0216 34.3436 45.8578 34.278 45.6931 34.2103C45.639 34.442 45.582 34.667 45.526 34.8878C45.399 35.3889 45.2774 35.8686 45.2079 36.356C45.1274 36.9199 44.8725 37.174 44.3203 37.2349C44.2568 37.242 44.1883 37.2482 44.1175 37.2546C43.7533 37.2874 43.3289 37.3257 43.2124 37.5221C43.0692 37.7632 43.1188 38.1248 43.1665 38.4736L43.1665 38.4737C43.181 38.5794 43.1953 38.684 43.2041 38.7836C43.2154 38.9084 43.3335 39.1062 43.4343 39.128C44.0298 39.2594 44.6297 39.3708 45.2429 39.4847C45.4367 39.5207 45.6318 39.5569 45.8285 39.5941L45.9973 38.6715C46.0962 38.131 46.1947 37.5933 46.2971 37.0319C46.5372 37.0766 46.78 37.1078 47.0202 37.1387C47.5598 37.2081 48.087 37.2759 48.5439 37.4913C49.2156 37.8085 49.8452 38.0311 50.574 37.9521C50.9073 37.9153 51.0998 38.0356 51.2217 38.3513C51.7151 39.6324 52.5132 40.697 53.5422 41.6014C53.778 41.8088 53.9948 42.0377 54.2116 42.2666L54.2116 42.2666C54.3115 42.3721 54.4114 42.4776 54.5133 42.581C55.0797 43.1577 55.1165 43.4336 54.6795 44.2794C53.1902 43.6975 51.8701 44.1779 50.4853 44.8861C49.0539 45.6176 47.8361 46.4897 46.8853 47.7904C46.7281 48.0052 46.5586 48.2118 46.3894 48.418C45.8202 49.1118 45.255 49.8007 45.1778 50.7796C45.1718 50.86 45.0139 50.9984 44.9356 50.9923C44.8822 50.9883 44.8285 50.9845 44.7747 50.9806L44.7741 50.9806C44.4215 50.9556 44.0637 50.9303 43.7336 50.8247C43.4451 50.7321 43.1706 50.5972 42.8958 50.4621C42.7284 50.3799 42.561 50.2976 42.3902 50.2247C42.2721 50.1744 42.1021 50.1435 41.9946 50.1909C41.5669 50.3781 41.1459 50.5803 40.7149 50.7871L40.7142 50.7875C40.564 50.8596 40.4126 50.9323 40.2593 51.0051L40.5538 52.2467L40.7113 52.911L40.7993 53.0282C41.2304 51.9704 42.051 51.9171 42.9867 52.0494L42.9672 52.4346C42.9443 52.8859 42.9212 53.3411 42.8972 53.8192C43.7051 53.9184 44.3625 54.2402 44.7777 54.9183C45.1034 55.4513 45.5043 55.4874 46.0541 55.2837C46.5055 55.116 47.02 54.9326 47.4735 54.995C48.2872 55.106 49.0915 55.2838 49.896 55.4616L49.896 55.4616C50.2361 55.5368 50.5762 55.612 50.917 55.6822C51.1339 55.727 51.3514 55.7692 51.5688 55.8114L51.5689 55.8114C52.0187 55.8987 52.4684 55.9859 52.9126 56.0964C53.1683 56.1596 53.4752 56.2716 53.6234 56.4655C54.8111 58.0128 56.2606 59.2262 58.0154 60.0833C58.3569 60.2502 58.6818 60.4506 59.0067 60.6509L59.0067 60.651C59.1413 60.7339 59.2758 60.8169 59.4115 60.8975C59.4913 60.9448 59.5677 60.9979 59.6495 61.0547C59.6887 61.082 59.7292 61.1101 59.7718 61.1388C59.5818 61.5017 59.3927 61.8634 59.2041 62.2241L59.2005 62.231L59.2004 62.2312C58.5091 63.5535 57.8247 64.8626 57.1301 66.1662C57.0579 66.3023 56.8879 66.4075 56.7405 66.479C56.4524 66.6175 56.162 66.7511 55.8716 66.8847L55.8712 66.8848C55.4133 67.0954 54.9555 67.306 54.5072 67.536C54.3094 67.6375 54.1214 67.8533 54.0349 68.0608C53.8882 68.4124 53.758 68.7707 53.6278 69.1289L53.6278 69.1291C53.493 69.5001 53.3582 69.871 53.2052 70.2343C53.0969 70.4914 52.9051 70.7553 52.6794 70.9132C52.5209 71.0244 52.3627 71.1362 52.2044 71.2481L52.2044 71.2482L52.2043 71.2482C51.3386 71.8603 50.4711 72.4736 49.5503 72.9897C48.8752 73.3682 48.7358 73.94 48.5908 74.5351L48.5908 74.5352C48.5529 74.6905 48.5147 74.8475 48.4664 75.003C48.5035 75.0063 48.531 75.0098 48.5525 75.0126L48.5525 75.0126C48.586 75.017 48.605 75.0195 48.6229 75.0158C48.664 75.0078 48.7044 74.9958 48.7449 74.9837C48.7577 74.9799 48.7705 74.9761 48.7833 74.9724C48.7908 74.9703 48.7982 74.9682 48.8056 74.9662C53.1375 73.8324 56.8894 71.6853 60.0358 68.5006C63.6035 64.8881 65.8247 60.5704 66.7077 55.5746C66.8315 54.8726 66.9037 54.1611 66.9758 53.4495C67.0089 53.1231 67.042 52.7967 67.0801 52.4712V50.2826C67.0724 50.2333 67.0634 50.184 67.0545 50.1348L67.0545 50.1347C67.0355 50.0301 67.0165 49.9255 67.0094 49.8203C66.7386 45.7747 65.5396 42.0292 63.3944 38.5874L63.3933 38.5856C63.1893 38.2585 63.0882 38.0964 62.9444 38.0356C62.8032 37.976 62.6207 38.0141 62.259 38.0896L62.2585 38.0897C62.2004 38.1015 62.1411 38.1058 62.0817 38.11C62.0619 38.1114 62.0421 38.1128 62.0224 38.1145C61.7228 38.1411 61.4234 38.1688 61.1239 38.1964L61.1237 38.1964L61.1236 38.1964C60.3493 38.2678 59.575 38.3392 58.8 38.3934C58.46 38.4167 58.2531 38.5453 58.0869 38.8385C57.9055 39.1597 57.7046 39.47 57.4826 39.8131C57.3834 39.9663 57.28 40.1261 57.1722 40.2963C57.0319 40.2041 56.8925 40.1181 56.7559 40.0339L56.7559 40.0339C56.4649 39.8545 56.1866 39.683 55.9394 39.4753C55.5591 39.1557 55.1922 38.8205 54.8252 38.4852L54.8251 38.4852L54.8251 38.4851C54.4894 38.1785 54.1537 37.8718 53.8077 37.577ZM46.5502 68.4055C46.5893 68.2416 46.6202 68.0521 46.5758 67.8965C46.4745 67.5386 46.3796 67.1777 46.2847 66.8166L46.2847 66.8166C45.868 65.2317 45.4503 63.6429 44.4817 62.2805C43.7769 61.2896 43.7543 60.413 44.4163 59.4108C44.6782 59.0143 44.8712 58.5724 45.0805 58.0929L45.0806 58.0928C45.1797 57.8659 45.2824 57.6306 45.3979 57.3877C44.0941 57.3844 43.3354 56.6122 42.5752 55.8384L42.575 55.8383C42.47 55.7314 42.3648 55.6244 42.2582 55.5194C42.0379 55.3021 41.7219 55.1322 41.4211 55.0548C40.3785 54.7886 39.3255 54.5601 38.2709 54.3451C37.9542 54.2804 37.7857 54.1278 37.6579 53.8413C37.4184 53.3095 37.1636 52.7846 36.9088 52.2597C36.8074 52.0508 36.706 51.8419 36.6055 51.6325C36.5724 51.6378 36.5394 51.643 36.5063 51.6491V53.0452C36.0873 53.1925 35.8646 53.0459 35.651 52.7497C35.1869 52.1078 34.7165 51.4705 34.246 50.8331C33.719 50.1191 33.192 49.4051 32.6739 48.6847C32.5309 48.4847 32.4437 48.2012 32.4369 47.9539C32.4236 47.4158 32.4246 46.8776 32.4256 46.3393C32.4265 45.8472 32.4274 45.3551 32.4174 44.8632C32.4121 44.6256 32.3384 44.3625 32.2173 44.1587C31.9361 43.6854 31.6464 43.2171 31.3566 42.7488L31.3566 42.7487L31.3565 42.7486C30.9712 42.1258 30.5859 41.5031 30.221 40.8688C29.969 40.4305 29.7163 40.3215 29.21 40.4162C29.0392 40.4481 28.8685 40.4805 28.6978 40.5128L28.6977 40.5128C27.1769 40.801 25.6592 41.0885 24.0861 41.0831C23.1173 41.0793 22.4456 40.6726 21.7122 40.1268C21.9659 39.9229 22.2142 39.7231 22.4596 39.5255C22.7419 39.2984 23.0205 39.0742 23.2993 38.8502C22.8157 38.893 22.3666 38.9802 21.9266 39.1028C21.7934 39.1404 21.6453 39.2539 21.5761 39.3734C20.2492 41.6845 19.3029 44.1437 18.8178 46.7653C18.6737 47.5419 18.5754 48.3273 18.4771 49.1129C18.4321 49.4719 18.3872 49.8309 18.3379 50.189V52.758C18.3774 53.0598 18.4122 53.3625 18.447 53.6651C18.5221 54.3186 18.5971 54.9721 18.72 55.6164C20.1965 63.3841 24.4299 69.1693 31.3538 72.9645C34.3219 74.5914 37.53 75.4771 40.9133 75.7064C40.9967 75.7124 41.0786 75.7337 41.1606 75.755L41.1607 75.755C41.2008 75.7655 41.2409 75.7759 41.2812 75.7845H43.9469L44.1613 75.7573C44.6817 75.6911 45.206 75.6245 45.7582 75.5537C45.7517 75.4716 45.7448 75.3918 45.7382 75.3136C45.724 75.1479 45.7105 74.9894 45.7018 74.8305C45.6883 74.5843 45.6663 74.3385 45.6444 74.093L45.6444 74.0929C45.5684 73.2433 45.4927 72.3958 45.7687 71.536C46.0095 70.7858 46.1838 70.0136 46.3581 69.2418L46.3581 69.2415C46.4211 68.9624 46.4841 68.6834 46.5502 68.4055Z" />
        </mask>
        <path fill-rule="evenodd" clip-rule="evenodd"
            d="M46.4026 28.2284C46.3116 28.1788 46.1491 28.1698 46.0618 28.2179C45.3134 28.6321 44.5642 29.0531 43.7962 29.4869C43.7278 29.5493 43.6481 29.6027 43.5661 29.6162C43.2288 29.8072 42.8884 29.9995 42.5403 30.1961C42.4443 30.2503 42.3477 30.3049 42.2505 30.3598C42.3939 30.4437 42.5259 30.5381 42.6506 30.6272C42.9045 30.8087 43.1279 30.9685 43.3555 30.974C44.0888 30.9936 44.9072 31.0079 45.5436 30.7101C46.1142 30.4425 46.615 30.0265 47.1294 29.5992C47.3548 29.412 47.5828 29.2226 47.8205 29.0426C47.6885 28.9659 47.5611 28.8912 47.4371 28.8185C47.0762 28.6068 46.7429 28.4114 46.4026 28.2284ZM36.16 31.7912C36.2518 31.8431 36.3759 31.907 36.4639 31.8845C37.3014 31.6719 38.1366 31.4501 38.989 31.2237C39.219 31.1626 39.4503 31.1011 39.6833 31.0394C39.6167 30.9247 39.5514 30.8162 39.4884 30.7114C39.348 30.4778 39.2186 30.2628 39.1101 30.038C38.9732 29.7546 38.8115 29.6719 38.5174 29.8102C37.8382 30.1305 37.1604 30.1831 36.5015 29.7463C36.479 29.7315 36.4445 29.7352 36.4396 29.7357C36.4393 29.7358 36.4391 29.7358 36.4391 29.7358C36.1589 29.9529 35.8831 30.1663 35.6026 30.3835C35.3439 30.5837 35.0811 30.7872 34.8068 30.9996C34.9411 31.0784 35.0717 31.1556 35.1999 31.2313C35.5299 31.4262 35.8436 31.6115 36.16 31.7912ZM26.6975 33.0791C30.1673 30.0425 34.1953 28.157 38.7438 27.3924C40.5797 27.0834 41.2368 27.0416 43.0933 27.0416C44.5966 27.0416 45.7991 27.253 46.6716 27.4063C46.7509 27.4203 46.8275 27.4337 46.9013 27.4465C48.9856 27.8066 50.9864 28.4382 52.9007 29.3343L52.8872 29.4922C52.7332 29.4849 52.5767 29.4865 52.4201 29.4882C52.0772 29.4917 51.7342 29.4953 51.4182 29.405C50.3049 29.087 49.3414 29.2494 48.5027 30.0553C48.3259 30.2253 48.1518 30.3979 47.9776 30.5706C47.7034 30.8425 47.4293 31.1143 47.145 31.3755C47.0066 31.5018 46.8103 31.6176 46.6297 31.6379C46.4723 31.6556 46.3148 31.6736 46.1573 31.6916C45.1014 31.8122 44.0451 31.9329 42.9854 31.9852C42.6083 32.0034 42.2285 31.9498 41.848 31.8962C41.5992 31.8611 41.35 31.8259 41.1012 31.8108C40.9417 31.8018 40.7115 31.8965 40.6205 32.0213C40.4618 32.2382 40.3194 32.4671 40.1771 32.6961C40.0347 32.925 39.8924 33.1539 39.7337 33.3708C39.6208 33.5242 39.3974 33.6708 39.2139 33.6851C39.05 33.6977 38.886 33.711 38.7219 33.7243C37.857 33.7947 36.9894 33.8652 36.1277 33.8279C35.6322 33.8061 35.1402 33.6486 34.652 33.4923C34.5014 33.4441 34.3512 33.396 34.2013 33.352C33.8779 33.2573 33.5988 33.2347 33.3085 33.4452C32.2336 34.2226 30.9985 34.497 29.6995 34.5985C27.9198 34.7376 26.2131 35.2248 24.5154 35.7458C24.4102 35.778 24.3039 35.8071 24.1979 35.8361C24.1552 35.8478 24.1126 35.8595 24.0701 35.8713C24.0543 35.8522 24.0387 35.833 24.0231 35.8138C24.0075 35.7947 23.9919 35.7755 23.9761 35.7563C24.2616 35.4738 24.5428 35.1863 24.8239 34.8988C25.4338 34.2753 26.0436 33.6518 26.6975 33.0791ZM53.8077 37.577C53.4782 37.2958 53.2759 36.9778 53.1668 36.5605C52.7983 35.1494 52.2048 33.9194 51.0035 32.9435C50.3982 32.4514 49.7437 32.3298 49.089 32.2083C48.7626 32.1476 48.4362 32.087 48.1159 31.9805C47.9489 32.6533 48.0279 33.142 48.5522 33.5653C49.06 33.9755 49.5159 34.4537 49.9686 34.9286L49.9686 34.9286L50.0889 35.0546C50.392 35.3718 50.6775 35.7054 50.9587 36.034L50.9589 36.0342C51.0803 36.1761 51.2009 36.317 51.3217 36.4553C50.5643 37.1499 49.7857 37.2311 48.9395 36.7823C48.7447 36.6785 48.5386 36.5778 48.3258 36.5297C47.7443 36.3966 47.5232 36.0703 47.6428 35.4779C47.6744 35.32 47.6262 35.0298 47.5269 34.9825C47.0919 34.7728 46.6425 34.5926 46.1845 34.409L46.1844 34.4089L46.1844 34.4089C46.0216 34.3436 45.8578 34.278 45.6931 34.2103C45.639 34.442 45.582 34.667 45.526 34.8878C45.399 35.3889 45.2774 35.8686 45.2079 36.356C45.1274 36.9199 44.8725 37.174 44.3203 37.2349C44.2568 37.242 44.1883 37.2482 44.1175 37.2546C43.7533 37.2874 43.3289 37.3257 43.2124 37.5221C43.0692 37.7632 43.1188 38.1248 43.1665 38.4736L43.1665 38.4737C43.181 38.5794 43.1953 38.684 43.2041 38.7836C43.2154 38.9084 43.3335 39.1062 43.4343 39.128C44.0298 39.2594 44.6297 39.3708 45.2429 39.4847C45.4367 39.5207 45.6318 39.5569 45.8285 39.5941L45.9973 38.6715C46.0962 38.131 46.1947 37.5933 46.2971 37.0319C46.5372 37.0766 46.78 37.1078 47.0202 37.1387C47.5598 37.2081 48.087 37.2759 48.5439 37.4913C49.2156 37.8085 49.8452 38.0311 50.574 37.9521C50.9073 37.9153 51.0998 38.0356 51.2217 38.3513C51.7151 39.6324 52.5132 40.697 53.5422 41.6014C53.778 41.8088 53.9948 42.0377 54.2116 42.2666L54.2116 42.2666C54.3115 42.3721 54.4114 42.4776 54.5133 42.581C55.0797 43.1577 55.1165 43.4336 54.6795 44.2794C53.1902 43.6975 51.8701 44.1779 50.4853 44.8861C49.0539 45.6176 47.8361 46.4897 46.8853 47.7904C46.7281 48.0052 46.5586 48.2118 46.3894 48.418C45.8202 49.1118 45.255 49.8007 45.1778 50.7796C45.1718 50.86 45.0139 50.9984 44.9356 50.9923C44.8822 50.9883 44.8285 50.9845 44.7747 50.9806L44.7741 50.9806C44.4215 50.9556 44.0637 50.9303 43.7336 50.8247C43.4451 50.7321 43.1706 50.5972 42.8958 50.4621C42.7284 50.3799 42.561 50.2976 42.3902 50.2247C42.2721 50.1744 42.1021 50.1435 41.9946 50.1909C41.5669 50.3781 41.1459 50.5803 40.7149 50.7871L40.7142 50.7875C40.564 50.8596 40.4126 50.9323 40.2593 51.0051L40.5538 52.2467L40.7113 52.911L40.7993 53.0282C41.2304 51.9704 42.051 51.9171 42.9867 52.0494L42.9672 52.4346C42.9443 52.8859 42.9212 53.3411 42.8972 53.8192C43.7051 53.9184 44.3625 54.2402 44.7777 54.9183C45.1034 55.4513 45.5043 55.4874 46.0541 55.2837C46.5055 55.116 47.02 54.9326 47.4735 54.995C48.2872 55.106 49.0915 55.2838 49.896 55.4616L49.896 55.4616C50.2361 55.5368 50.5762 55.612 50.917 55.6822C51.1339 55.727 51.3514 55.7692 51.5688 55.8114L51.5689 55.8114C52.0187 55.8987 52.4684 55.9859 52.9126 56.0964C53.1683 56.1596 53.4752 56.2716 53.6234 56.4655C54.8111 58.0128 56.2606 59.2262 58.0154 60.0833C58.3569 60.2502 58.6818 60.4506 59.0067 60.6509L59.0067 60.651C59.1413 60.7339 59.2758 60.8169 59.4115 60.8975C59.4913 60.9448 59.5677 60.9979 59.6495 61.0547C59.6887 61.082 59.7292 61.1101 59.7718 61.1388C59.5818 61.5017 59.3927 61.8634 59.2041 62.2241L59.2005 62.231L59.2004 62.2312C58.5091 63.5535 57.8247 64.8626 57.1301 66.1662C57.0579 66.3023 56.8879 66.4075 56.7405 66.479C56.4524 66.6175 56.162 66.7511 55.8716 66.8847L55.8712 66.8848C55.4133 67.0954 54.9555 67.306 54.5072 67.536C54.3094 67.6375 54.1214 67.8533 54.0349 68.0608C53.8882 68.4124 53.758 68.7707 53.6278 69.1289L53.6278 69.1291C53.493 69.5001 53.3582 69.871 53.2052 70.2343C53.0969 70.4914 52.9051 70.7553 52.6794 70.9132C52.5209 71.0244 52.3627 71.1362 52.2044 71.2481L52.2044 71.2482L52.2043 71.2482C51.3386 71.8603 50.4711 72.4736 49.5503 72.9897C48.8752 73.3682 48.7358 73.94 48.5908 74.5351L48.5908 74.5352C48.5529 74.6905 48.5147 74.8475 48.4664 75.003C48.5035 75.0063 48.531 75.0098 48.5525 75.0126L48.5525 75.0126C48.586 75.017 48.605 75.0195 48.6229 75.0158C48.664 75.0078 48.7044 74.9958 48.7449 74.9837C48.7577 74.9799 48.7705 74.9761 48.7833 74.9724C48.7908 74.9703 48.7982 74.9682 48.8056 74.9662C53.1375 73.8324 56.8894 71.6853 60.0358 68.5006C63.6035 64.8881 65.8247 60.5704 66.7077 55.5746C66.8315 54.8726 66.9037 54.1611 66.9758 53.4495C67.0089 53.1231 67.042 52.7967 67.0801 52.4712V50.2826C67.0724 50.2333 67.0634 50.184 67.0545 50.1348L67.0545 50.1347C67.0355 50.0301 67.0165 49.9255 67.0094 49.8203C66.7386 45.7747 65.5396 42.0292 63.3944 38.5874L63.3933 38.5856C63.1893 38.2585 63.0882 38.0964 62.9444 38.0356C62.8032 37.976 62.6207 38.0141 62.259 38.0896L62.2585 38.0897C62.2004 38.1015 62.1411 38.1058 62.0817 38.11C62.0619 38.1114 62.0421 38.1128 62.0224 38.1145C61.7228 38.1411 61.4234 38.1688 61.1239 38.1964L61.1237 38.1964L61.1236 38.1964C60.3493 38.2678 59.575 38.3392 58.8 38.3934C58.46 38.4167 58.2531 38.5453 58.0869 38.8385C57.9055 39.1597 57.7046 39.47 57.4826 39.8131C57.3834 39.9663 57.28 40.1261 57.1722 40.2963C57.0319 40.2041 56.8925 40.1181 56.7559 40.0339L56.7559 40.0339C56.4649 39.8545 56.1866 39.683 55.9394 39.4753C55.5591 39.1557 55.1922 38.8205 54.8252 38.4852L54.8251 38.4852L54.8251 38.4851C54.4894 38.1785 54.1537 37.8718 53.8077 37.577ZM46.5502 68.4055C46.5893 68.2416 46.6202 68.0521 46.5758 67.8965C46.4745 67.5386 46.3796 67.1777 46.2847 66.8166L46.2847 66.8166C45.868 65.2317 45.4503 63.6429 44.4817 62.2805C43.7769 61.2896 43.7543 60.413 44.4163 59.4108C44.6782 59.0143 44.8712 58.5724 45.0805 58.0929L45.0806 58.0928C45.1797 57.8659 45.2824 57.6306 45.3979 57.3877C44.0941 57.3844 43.3354 56.6122 42.5752 55.8384L42.575 55.8383C42.47 55.7314 42.3648 55.6244 42.2582 55.5194C42.0379 55.3021 41.7219 55.1322 41.4211 55.0548C40.3785 54.7886 39.3255 54.5601 38.2709 54.3451C37.9542 54.2804 37.7857 54.1278 37.6579 53.8413C37.4184 53.3095 37.1636 52.7846 36.9088 52.2597C36.8074 52.0508 36.706 51.8419 36.6055 51.6325C36.5724 51.6378 36.5394 51.643 36.5063 51.6491V53.0452C36.0873 53.1925 35.8646 53.0459 35.651 52.7497C35.1869 52.1078 34.7165 51.4705 34.246 50.8331C33.719 50.1191 33.192 49.4051 32.6739 48.6847C32.5309 48.4847 32.4437 48.2012 32.4369 47.9539C32.4236 47.4158 32.4246 46.8776 32.4256 46.3393C32.4265 45.8472 32.4274 45.3551 32.4174 44.8632C32.4121 44.6256 32.3384 44.3625 32.2173 44.1587C31.9361 43.6854 31.6464 43.2171 31.3566 42.7488L31.3566 42.7487L31.3565 42.7486C30.9712 42.1258 30.5859 41.5031 30.221 40.8688C29.969 40.4305 29.7163 40.3215 29.21 40.4162C29.0392 40.4481 28.8685 40.4805 28.6978 40.5128L28.6977 40.5128C27.1769 40.801 25.6592 41.0885 24.0861 41.0831C23.1173 41.0793 22.4456 40.6726 21.7122 40.1268C21.9659 39.9229 22.2142 39.7231 22.4596 39.5255C22.7419 39.2984 23.0205 39.0742 23.2993 38.8502C22.8157 38.893 22.3666 38.9802 21.9266 39.1028C21.7934 39.1404 21.6453 39.2539 21.5761 39.3734C20.2492 41.6845 19.3029 44.1437 18.8178 46.7653C18.6737 47.5419 18.5754 48.3273 18.4771 49.1129C18.4321 49.4719 18.3872 49.8309 18.3379 50.189V52.758C18.3774 53.0598 18.4122 53.3625 18.447 53.6651C18.5221 54.3186 18.5971 54.9721 18.72 55.6164C20.1965 63.3841 24.4299 69.1693 31.3538 72.9645C34.3219 74.5914 37.53 75.4771 40.9133 75.7064C40.9967 75.7124 41.0786 75.7337 41.1606 75.755L41.1607 75.755C41.2008 75.7655 41.2409 75.7759 41.2812 75.7845H43.9469L44.1613 75.7573C44.6817 75.6911 45.206 75.6245 45.7582 75.5537C45.7517 75.4716 45.7448 75.3918 45.7382 75.3136C45.724 75.1479 45.7105 74.9894 45.7018 74.8305C45.6883 74.5843 45.6663 74.3385 45.6444 74.093L45.6444 74.0929C45.5684 73.2433 45.4927 72.3958 45.7687 71.536C46.0095 70.7858 46.1838 70.0136 46.3581 69.2418L46.3581 69.2415C46.4211 68.9624 46.4841 68.6834 46.5502 68.4055Z"
            fill="white" />
        <path
            d="M46.0618 28.2179L45.5789 27.3422L45.5776 27.3429L46.0618 28.2179ZM46.4026 28.2284L45.9239 29.1064L45.9291 29.1092L46.4026 28.2284ZM43.7962 29.4869L43.3044 28.6162C43.239 28.6532 43.178 28.6973 43.1225 28.7479L43.7962 29.4869ZM43.5661 29.6162L43.4032 28.6296C43.2873 28.6487 43.1756 28.6881 43.0734 28.746L43.5661 29.6162ZM42.5403 30.1961L42.0485 29.3254L42.0485 29.3254L42.5403 30.1961ZM42.2505 30.3598L41.7586 29.4891C41.447 29.6652 41.2533 29.9943 41.2505 30.3522C41.2478 30.7101 41.4365 31.0421 41.7454 31.2229L42.2505 30.3598ZM42.6506 30.6272L42.069 31.4407L42.069 31.4407L42.6506 30.6272ZM43.3555 30.974L43.3821 29.9744L43.3798 29.9743L43.3555 30.974ZM45.5436 30.7101L45.9673 31.6159L45.9682 31.6155L45.5436 30.7101ZM47.1294 29.5992L47.7684 30.3685L47.7684 30.3685L47.1294 29.5992ZM47.8205 29.0426L48.4243 29.8397C48.691 29.6377 48.839 29.3157 48.8186 28.9818C48.7983 28.6478 48.6123 28.3462 48.323 28.1781L47.8205 29.0426ZM47.4371 28.8185L47.943 27.9559L47.943 27.9559L47.4371 28.8185ZM36.4639 31.8845L36.2179 30.9152L36.2157 30.9158L36.4639 31.8845ZM36.16 31.7912L35.666 32.6607L35.6679 32.6618L36.16 31.7912ZM38.989 31.2237L39.2457 32.1902L38.989 31.2237ZM39.6833 31.0394L39.9393 32.0061C40.2407 31.9263 40.4876 31.7105 40.607 31.4224C40.7264 31.1344 40.7047 30.8071 40.5482 30.5374L39.6833 31.0394ZM39.4884 30.7114L40.3454 30.1961L40.3454 30.1961L39.4884 30.7114ZM39.1101 30.038L40.0106 29.6031L40.0106 29.6031L39.1101 30.038ZM38.5174 29.8102L38.0918 28.9053L38.0909 28.9057L38.5174 29.8102ZM36.5015 29.7463L37.0541 28.9128L37.05 28.9101L36.5015 29.7463ZM36.4396 29.7357L36.5462 30.73L36.5465 30.73L36.4396 29.7357ZM36.4391 29.7358V28.7358C36.2174 28.7358 36.0019 28.8095 35.8266 28.9453L36.4391 29.7358ZM35.6026 30.3835L34.9905 29.5927L34.9905 29.5927L35.6026 30.3835ZM34.8068 30.9996L34.1945 30.209C33.9321 30.4122 33.7877 30.7323 33.8089 31.0635C33.8301 31.3946 34.0142 31.6937 34.3003 31.8618L34.8068 30.9996ZM35.1999 31.2313L34.6914 32.0923L34.6914 32.0923L35.1999 31.2313ZM38.7438 27.3924L38.9096 28.3785L38.9097 28.3785L38.7438 27.3924ZM26.6975 33.0791L26.0389 32.3266L26.0386 32.3269L26.6975 33.0791ZM46.6716 27.4063L46.4985 28.3912L46.4985 28.3912L46.6716 27.4063ZM46.9013 27.4465L46.7307 28.4319L46.731 28.4319L46.9013 27.4465ZM52.9007 29.3343L53.8971 29.4198C53.9329 29.0021 53.7044 28.6064 53.3247 28.4286L52.9007 29.3343ZM52.8872 29.4922L52.8398 30.4911C53.3767 30.5165 53.8376 30.1131 53.8835 29.5776L52.8872 29.4922ZM52.4201 29.4882L52.4305 30.4881L52.4201 29.4882ZM51.4182 29.405L51.693 28.4435L51.6929 28.4435L51.4182 29.405ZM48.5027 30.0553L47.8098 29.3343L47.8096 29.3345L48.5027 30.0553ZM47.9776 30.5706L47.2735 29.8605L47.2735 29.8605L47.9776 30.5706ZM47.145 31.3755L47.8191 32.1141L47.8215 32.1119L47.145 31.3755ZM46.6297 31.6379L46.518 30.6441L46.5177 30.6442L46.6297 31.6379ZM46.1573 31.6916L46.2708 32.6851L46.1573 31.6916ZM42.9854 31.9852L43.0336 32.9841L43.0347 32.984L42.9854 31.9852ZM41.848 31.8962L41.7083 32.8864H41.7083L41.848 31.8962ZM41.1012 31.8108L41.1619 30.8126L41.1576 30.8124L41.1012 31.8108ZM40.6205 32.0213L41.4275 32.6118L41.4285 32.6105L40.6205 32.0213ZM40.1771 32.6961L41.0263 33.2241V33.2241L40.1771 32.6961ZM39.7337 33.3708L40.5392 33.9634L40.5407 33.9613L39.7337 33.3708ZM39.2139 33.6851L39.2905 34.6821L39.2915 34.682L39.2139 33.6851ZM38.7219 33.7243L38.6409 32.7276H38.6409L38.7219 33.7243ZM36.1277 33.8279L36.0837 34.8269L36.0845 34.827L36.1277 33.8279ZM34.652 33.4923L34.3471 34.4447V34.4447L34.652 33.4923ZM34.2013 33.352L34.4828 32.3924L34.4824 32.3923L34.2013 33.352ZM33.3085 33.4452L33.8945 34.2555L33.8955 34.2548L33.3085 33.4452ZM29.6995 34.5985L29.6216 33.6016L29.6216 33.6016L29.6995 34.5985ZM24.5154 35.7458L24.808 36.702L24.8088 36.7018L24.5154 35.7458ZM24.1979 35.8361L23.9337 34.8716L23.9337 34.8716L24.1979 35.8361ZM24.0701 35.8713L23.2983 36.5072C23.5499 36.8126 23.9578 36.9409 24.3389 36.8345L24.0701 35.8713ZM24.0231 35.8138L24.7986 35.1825L24.7986 35.1825L24.0231 35.8138ZM23.9761 35.7563L23.2727 35.0455C22.9051 35.4092 22.8755 35.9931 23.2043 36.3922L23.9761 35.7563ZM24.8239 34.8988L25.5388 35.5981V35.5981L24.8239 34.8988ZM53.1668 36.5605L52.1993 36.8132L52.1993 36.8134L53.1668 36.5605ZM53.8077 37.577L53.1585 38.3376L53.1591 38.3381L53.8077 37.577ZM51.0035 32.9435L50.3727 33.7194L50.373 33.7197L51.0035 32.9435ZM49.089 32.2083L49.2716 31.2251L49.089 32.2083ZM48.1159 31.9805L48.4315 31.0316C48.167 30.9436 47.8778 30.97 47.6337 31.1044C47.3895 31.2388 47.2125 31.4691 47.1453 31.7396L48.1159 31.9805ZM48.5522 33.5653L49.1805 32.7874L49.1803 32.7872L48.5522 33.5653ZM49.9686 34.9286L50.7034 34.2503C50.6998 34.2463 50.6961 34.2424 50.6924 34.2385L49.9686 34.9286ZM49.9686 34.9286L49.2338 35.6069C49.2375 35.6109 49.2413 35.6149 49.2451 35.6188L49.9686 34.9286ZM50.0889 35.0546L49.3653 35.7449L49.366 35.7456L50.0889 35.0546ZM50.9587 36.034L51.7277 35.3948C51.7247 35.3911 51.7216 35.3875 51.7185 35.3838L50.9587 36.034ZM50.9589 36.0342L50.1898 36.6734C50.1929 36.6771 50.196 36.6808 50.1991 36.6844L50.9589 36.0342ZM51.3217 36.4553L51.9976 37.1922C52.3978 36.8252 52.432 36.2059 52.0746 35.7971L51.3217 36.4553ZM48.9395 36.7823L48.4695 37.6649L48.471 37.6657L48.9395 36.7823ZM48.3258 36.5297L48.1027 37.5045L48.1053 37.5051L48.3258 36.5297ZM47.6428 35.4779L48.623 35.6758L48.6233 35.6741L47.6428 35.4779ZM47.5269 34.9825L47.0928 35.8833L47.0964 35.885L47.5269 34.9825ZM46.1845 34.409L45.7741 35.3209C45.7867 35.3266 45.7995 35.332 45.8123 35.3371L46.1845 34.409ZM46.1844 34.4089L46.5948 33.497C46.5836 33.492 46.5722 33.4871 46.5608 33.4825L46.1844 34.4089ZM46.1844 34.4089L46.5607 33.4824L46.5565 33.4807L46.1844 34.4089ZM45.6931 34.2103L46.0729 33.2853C45.8018 33.174 45.4955 33.1872 45.2349 33.3215C44.9744 33.4558 44.7859 33.6976 44.7193 33.983L45.6931 34.2103ZM45.526 34.8878L46.4953 35.1335L46.4953 35.1335L45.526 34.8878ZM45.2079 36.356L46.1979 36.4973L46.1979 36.4971L45.2079 36.356ZM44.3203 37.2349L44.2107 36.2409L44.2093 36.2411L44.3203 37.2349ZM44.1175 37.2546L44.0277 36.2586H44.0277L44.1175 37.2546ZM43.2124 37.5221L44.0723 38.0325L44.0724 38.0323L43.2124 37.5221ZM43.1665 38.4736L42.1758 38.6094C42.1807 38.6453 42.1876 38.681 42.1964 38.7162L43.1665 38.4736ZM43.1665 38.4737L44.1573 38.338C44.1524 38.302 44.1455 38.2663 44.1367 38.2311L43.1665 38.4737ZM43.2041 38.7836L42.2079 38.8711L42.2082 38.8737L43.2041 38.7836ZM43.4343 39.128L43.6497 38.1514L43.6457 38.1506L43.4343 39.128ZM45.2429 39.4847L45.4255 38.5015H45.4255L45.2429 39.4847ZM45.8285 39.5941L45.6427 40.5767C45.9043 40.6261 46.1748 40.5692 46.3943 40.4186C46.6139 40.2679 46.7642 40.036 46.8122 39.7741L45.8285 39.5941ZM45.9973 38.6715L45.0136 38.4915L45.0136 38.4915L45.9973 38.6715ZM46.2971 37.0319L46.4802 36.0488C46.2188 36.0001 45.9488 36.0575 45.7299 36.2083C45.5109 36.3591 45.3611 36.5909 45.3133 36.8524L46.2971 37.0319ZM47.0202 37.1387L46.8927 38.1306H46.8927L47.0202 37.1387ZM48.5439 37.4913L48.971 36.587L48.9702 36.5867L48.5439 37.4913ZM50.574 37.9521L50.6817 38.9463L50.6839 38.9461L50.574 37.9521ZM51.2217 38.3513L52.1549 37.9919L52.1546 37.9913L51.2217 38.3513ZM53.5422 41.6014L54.2026 40.8505L54.2024 40.8503L53.5422 41.6014ZM54.2116 42.2666L54.959 41.6022C54.952 41.5943 54.9448 41.5866 54.9376 41.5789L54.2116 42.2666ZM54.2116 42.2666L53.4642 42.931C53.4712 42.9388 53.4783 42.9466 53.4855 42.9543L54.2116 42.2666ZM54.5133 42.581L55.2267 41.8803L55.2259 41.8795L54.5133 42.581ZM54.6795 44.2794L54.3156 45.2108C54.7924 45.3971 55.3329 45.1932 55.5679 44.7384L54.6795 44.2794ZM50.4853 44.8861L50.9403 45.7766L50.9406 45.7764L50.4853 44.8861ZM46.8853 47.7904L47.6923 48.3809L47.6926 48.3805L46.8853 47.7904ZM46.3894 48.418L47.1625 49.0523L46.3894 48.418ZM45.1778 50.7796L44.1809 50.701L44.1806 50.705L45.1778 50.7796ZM44.9356 50.9923L45.0123 49.9953L45.0117 49.9952L44.9356 50.9923ZM44.7747 50.9806L44.7034 51.9781L44.704 51.9781L44.7747 50.9806ZM44.7741 50.9806L44.8454 49.9831L44.8448 49.9831L44.7741 50.9806ZM43.7336 50.8247L43.4282 51.7769L43.4289 51.7771L43.7336 50.8247ZM42.8958 50.4621L42.4546 51.3595L42.8958 50.4621ZM42.3902 50.2247L41.9979 51.1446L41.998 51.1446L42.3902 50.2247ZM41.9946 50.1909L42.3957 51.1069L42.3976 51.1061L41.9946 50.1909ZM40.7149 50.7871L40.2822 49.8856L40.282 49.8857L40.7149 50.7871ZM40.7142 50.7875L41.147 51.689L41.1472 51.6889L40.7142 50.7875ZM40.2593 51.0051L39.8302 50.1019C39.4041 50.3043 39.1774 50.7769 39.2863 51.2359L40.2593 51.0051ZM40.5538 52.2467L39.5807 52.4775L39.5808 52.4776L40.5538 52.2467ZM40.7113 52.911L39.7383 53.1418C39.7701 53.2755 39.829 53.4012 39.9115 53.5111L40.7113 52.911ZM40.7993 53.0282L39.9995 53.6284C40.2157 53.9166 40.5701 54.0661 40.9274 54.02C41.2847 53.9739 41.5895 53.7392 41.7254 53.4056L40.7993 53.0282ZM42.9867 52.0494L43.9854 52.1C44.0116 51.5832 43.6392 51.1317 43.1267 51.0592L42.9867 52.0494ZM42.9672 52.4346L43.9659 52.4853V52.4853L42.9672 52.4346ZM42.8972 53.8192L41.8985 53.769C41.8722 54.2927 42.2548 54.7478 42.7753 54.8117L42.8972 53.8192ZM44.7777 54.9183L45.631 54.3969L45.6305 54.3961L44.7777 54.9183ZM46.0541 55.2837L46.4016 56.2214L46.4024 56.2211L46.0541 55.2837ZM47.4735 54.995L47.3372 55.9857L47.3384 55.9858L47.4735 54.995ZM49.896 55.4616L50.2122 54.5129C50.1792 54.502 50.1457 54.4927 50.1118 54.4852L49.896 55.4616ZM49.896 55.4616L49.5797 56.4103C49.6127 56.4213 49.6462 56.4306 49.6801 56.4381L49.896 55.4616ZM50.917 55.6822L51.1194 54.7029L51.1186 54.7027L50.917 55.6822ZM51.5688 55.8114L51.3783 56.793C51.387 56.7947 51.3957 56.7963 51.4044 56.7977L51.5688 55.8114ZM51.5689 55.8114L51.7594 54.8297C51.7507 54.828 51.742 54.8264 51.7333 54.825L51.5689 55.8114ZM52.9126 56.0964L52.6712 57.0668L52.6729 57.0672L52.9126 56.0964ZM53.6234 56.4655L52.8288 57.0726L52.8302 57.0745L53.6234 56.4655ZM58.0154 60.0833L58.4546 59.1849L58.4543 59.1847L58.0154 60.0833ZM59.0067 60.6509L58.4817 61.5021C58.507 61.5176 58.5329 61.5321 58.5595 61.5453L59.0067 60.6509ZM59.0067 60.651L59.5317 59.7998C59.5064 59.7842 59.4805 59.7698 59.4539 59.7565L59.0067 60.651ZM59.4115 60.8975L58.9009 61.7573L58.9021 61.758L59.4115 60.8975ZM59.6495 61.0547L60.2203 60.2336L60.2203 60.2336L59.6495 61.0547ZM59.7718 61.1388L60.6577 61.6026C60.8941 61.1512 60.7532 60.5943 60.3307 60.3096L59.7718 61.1388ZM59.2041 62.2241L58.3179 61.7608L58.3178 61.7611L59.2041 62.2241ZM59.2005 62.231L60.0768 62.7129C60.0802 62.7067 60.0836 62.7004 60.0869 62.6941L59.2005 62.231ZM59.2004 62.2312L58.3242 61.7493C58.3208 61.7555 58.3175 61.7617 58.3142 61.7679L59.2004 62.2312ZM57.1301 66.1662L56.2476 65.6959L56.2468 65.6974L57.1301 66.1662ZM56.7405 66.479L57.174 67.3801L57.1765 67.3789L56.7405 66.479ZM55.8716 66.8847L56.2807 67.7972L56.2894 67.7932L55.8716 66.8847ZM55.8712 66.8848L55.4622 65.9723L55.4534 65.9763L55.8712 66.8848ZM54.5072 67.536L54.9637 68.4257L54.9638 68.4257L54.5072 67.536ZM54.0349 68.0608L54.9578 68.4458L54.9579 68.4456L54.0349 68.0608ZM53.6278 69.1289L52.6879 68.7875C52.6849 68.7958 52.682 68.8042 52.6792 68.8127L53.6278 69.1289ZM53.6278 69.1291L54.5677 69.4706C54.5707 69.4622 54.5736 69.4538 54.5765 69.4453L53.6278 69.1291ZM53.2052 70.2343L52.2836 69.846L52.2836 69.846L53.2052 70.2343ZM52.6794 70.9132L52.1061 70.0938L52.105 70.0946L52.6794 70.9132ZM52.2044 71.2481L51.6271 70.4316C51.6195 70.437 51.6119 70.4425 51.6044 70.4481L52.2044 71.2481ZM52.2043 71.2482L52.7816 72.0648C52.7892 72.0594 52.7968 72.0539 52.8043 72.0482L52.2043 71.2482ZM49.5503 72.9897L49.0614 72.1173L49.0613 72.1174L49.5503 72.9897ZM48.5908 74.5351L49.5544 74.8027C49.5572 74.7924 49.5599 74.7821 49.5624 74.7718L48.5908 74.5351ZM48.5908 74.5352L47.6273 74.2675C47.6244 74.2778 47.6218 74.2881 47.6192 74.2984L48.5908 74.5352ZM48.4664 75.003L47.5114 74.7065C47.4217 74.9954 47.4676 75.3094 47.6362 75.5605C47.8049 75.8117 48.0781 75.9729 48.3795 75.9992L48.4664 75.003ZM48.5525 75.0126L48.7169 74.0262C48.7051 74.0243 48.6932 74.0225 48.6813 74.021L48.5525 75.0126ZM48.5525 75.0126L48.3881 75.999C48.3999 76.001 48.4117 76.0027 48.4236 76.0043L48.5525 75.0126ZM48.6229 75.0158L48.4314 74.0343L48.4222 74.0361L48.6229 75.0158ZM48.7449 74.9837L48.4599 74.0252L48.4599 74.0252L48.7449 74.9837ZM48.7833 74.9724L48.5075 74.0112L48.5072 74.0113L48.7833 74.9724ZM48.8056 74.9662L48.5524 73.9987L48.5437 74.0011L48.8056 74.9662ZM60.0358 68.5006L60.7472 69.2034L60.7473 69.2033L60.0358 68.5006ZM66.7077 55.5746L67.6925 55.7487L67.6926 55.7483L66.7077 55.5746ZM66.9758 53.4495L67.9707 53.5503V53.5503L66.9758 53.4495ZM67.0801 52.4712L68.0733 52.5873C68.0778 52.5488 68.0801 52.51 68.0801 52.4712H67.0801ZM67.0801 50.2826H68.0801C68.0801 50.2309 68.0761 50.1794 68.0681 50.1283L67.0801 50.2826ZM67.0545 50.1348L68.0384 49.9563L68.0384 49.9559L67.0545 50.1348ZM67.0545 50.1347L66.0705 50.3132L66.0706 50.3136L67.0545 50.1347ZM67.0094 49.8203L66.0116 49.887L66.0117 49.8881L67.0094 49.8203ZM63.3944 38.5874L64.243 38.0584L64.2423 38.0574L63.3944 38.5874ZM63.3933 38.5856L62.5447 39.1147L62.5453 39.1157L63.3933 38.5856ZM62.9444 38.0356L63.3333 37.1144L63.3333 37.1144L62.9444 38.0356ZM62.259 38.0896L62.462 39.0688L62.4634 39.0685L62.259 38.0896ZM62.2585 38.0897L62.4582 39.0696L62.4615 39.0689L62.2585 38.0897ZM62.0817 38.11L62.1527 39.1075L62.1527 39.1075L62.0817 38.11ZM62.0224 38.1145L61.937 37.1182L61.9338 37.1184L62.0224 38.1145ZM61.1239 38.1964L61.2111 39.1926L61.2157 39.1922L61.1239 38.1964ZM61.1237 38.1964L61.2067 39.193L61.2108 39.1926L61.1237 38.1964ZM61.1236 38.1964L61.0405 37.1998L61.0317 37.2006L61.1236 38.1964ZM58.8 38.3934L58.8684 39.3911L58.8698 39.391L58.8 38.3934ZM58.0869 38.8385L57.217 38.3453L57.2163 38.3466L58.0869 38.8385ZM57.4826 39.8131L56.6431 39.2698L56.6431 39.2698L57.4826 39.8131ZM57.1722 40.2963L56.623 41.132C56.8471 41.2792 57.1209 41.3303 57.3831 41.2738C57.6452 41.2173 57.8736 41.0579 58.0171 40.8313L57.1722 40.2963ZM56.7559 40.0339L57.2807 39.1827L57.2749 39.1791L56.7559 40.0339ZM56.7559 40.0339L56.2311 40.8852L56.2369 40.8887L56.7559 40.0339ZM55.9394 39.4753L55.296 40.2408L55.2961 40.2409L55.9394 39.4753ZM54.8252 38.4852L54.1412 39.2148L54.1508 39.2236L54.8252 38.4852ZM54.8251 38.4852L55.5091 37.7556C55.5007 37.7478 55.4922 37.7401 55.4836 37.7326L54.8251 38.4852ZM54.8251 38.4851L54.1506 39.2234C54.1559 39.2283 54.1612 39.233 54.1666 39.2377L54.8251 38.4851ZM46.5758 67.8965L45.6136 68.1689L45.6141 68.1707L46.5758 67.8965ZM46.5502 68.4055L45.5775 68.1734L45.5774 68.174L46.5502 68.4055ZM46.2847 66.8166L47.2518 66.5624C47.2463 66.5415 47.2402 66.5209 47.2334 66.5004L46.2847 66.8166ZM46.2847 66.8166L45.3175 67.0709C45.323 67.0917 45.3292 67.1124 45.336 67.1328L46.2847 66.8166ZM44.4817 62.2805L45.2967 61.701L45.2966 61.7008L44.4817 62.2805ZM44.4163 59.4108L43.5819 58.8596L43.5819 58.8597L44.4163 59.4108ZM45.0805 58.0929L44.1667 57.6867L44.1641 57.6927L45.0805 58.0929ZM45.0806 58.0928L45.9944 58.4989L45.997 58.4929L45.0806 58.0928ZM45.3979 57.3877L46.301 57.817C46.4481 57.5076 46.4266 57.1444 46.2439 56.8546C46.0613 56.5647 45.743 56.3885 45.4004 56.3877L45.3979 57.3877ZM42.5752 55.8384L41.8518 56.5289C41.8551 56.5324 41.8585 56.5359 41.8619 56.5393L42.5752 55.8384ZM42.575 55.8383L43.2984 55.1478C43.2951 55.1444 43.2917 55.1409 43.2883 55.1375L42.575 55.8383ZM42.2582 55.5194L41.5562 56.2315L41.5565 56.2318L42.2582 55.5194ZM41.4211 55.0548L41.6703 54.0863L41.6684 54.0859L41.4211 55.0548ZM38.2709 54.3451L38.0708 55.3249L38.0711 55.3249L38.2709 54.3451ZM37.6579 53.8413L38.571 53.4337L38.5697 53.4309L37.6579 53.8413ZM36.9088 52.2597L36.0092 52.6964V52.6964L36.9088 52.2597ZM36.6055 51.6325L37.5071 51.1999C37.3158 50.8012 36.8853 50.5755 36.4485 50.6449L36.6055 51.6325ZM36.5063 51.6491L36.3274 50.6652C35.8519 50.7516 35.5063 51.1658 35.5063 51.6491H36.5063ZM36.5063 53.0452L36.838 53.9885C37.2384 53.8477 37.5063 53.4696 37.5063 53.0452H36.5063ZM35.651 52.7497L36.4621 52.1648L36.4614 52.1638L35.651 52.7497ZM34.246 50.8331L33.4414 51.4269L34.246 50.8331ZM32.6739 48.6847L31.8603 49.2661L31.862 49.2685L32.6739 48.6847ZM32.4369 47.9539L31.4372 47.9787L31.4373 47.9813L32.4369 47.9539ZM32.4256 46.3393L33.4256 46.3412V46.3412L32.4256 46.3393ZM32.4174 44.8632L33.4172 44.8427L33.4171 44.841L32.4174 44.8632ZM32.2173 44.1587L31.3575 44.6695L31.3577 44.6697L32.2173 44.1587ZM31.3566 42.7488L30.5038 43.271L30.5062 43.2749L31.3566 42.7488ZM31.3566 42.7487L32.2094 42.2265C32.2056 42.2203 32.2017 42.2141 32.1977 42.2079L31.3566 42.7487ZM31.3565 42.7486L30.5061 43.2748C30.5092 43.2797 30.5122 43.2845 30.5154 43.2894L31.3565 42.7486ZM30.221 40.8688L29.354 41.3672L29.3542 41.3675L30.221 40.8688ZM29.21 40.4162L29.3938 41.3992L29.394 41.3991L29.21 40.4162ZM28.6978 40.5128L28.8716 41.4977L28.8839 41.4953L28.6978 40.5128ZM28.6977 40.5128L28.5239 39.528L28.5116 39.5303L28.6977 40.5128ZM24.0861 41.0831L24.0822 42.0831L24.0827 42.0831L24.0861 41.0831ZM21.7122 40.1268L21.0857 39.3473C20.8445 39.5412 20.7066 39.8359 20.7124 40.1454C20.7181 40.4548 20.8669 40.7442 21.1152 40.929L21.7122 40.1268ZM22.4596 39.5255L23.0866 40.3046L23.0866 40.3046L22.4596 39.5255ZM23.2993 38.8502L23.9256 39.6298C24.2691 39.3538 24.3915 38.8856 24.227 38.4769C24.0626 38.0681 23.6499 37.8152 23.2111 37.8541L23.2993 38.8502ZM21.9266 39.1028L21.6583 38.1394L21.6549 38.1404L21.9266 39.1028ZM21.5761 39.3734L20.7106 38.8724L20.7088 38.8755L21.5761 39.3734ZM18.8178 46.7653L19.801 46.9476L19.8011 46.9473L18.8178 46.7653ZM18.4771 49.1129L19.4693 49.2371L18.4771 49.1129ZM18.3379 50.189L17.3472 50.0527C17.341 50.0979 17.3379 50.1434 17.3379 50.189H18.3379ZM18.3379 52.758H17.3379C17.3379 52.8014 17.3407 52.8448 17.3464 52.8879L18.3379 52.758ZM18.447 53.6651L17.4535 53.7793H17.4535L18.447 53.6651ZM18.72 55.6164L19.7024 55.4296L19.7023 55.4291L18.72 55.6164ZM31.3538 72.9645L31.8344 72.0876L31.8344 72.0876L31.3538 72.9645ZM40.9133 75.7064L40.9858 74.709L40.981 74.7086L40.9133 75.7064ZM41.1606 75.755L41.4353 74.7935C41.4277 74.7913 41.42 74.7892 41.4122 74.7872L41.1606 75.755ZM41.1607 75.755L40.8859 76.7166C40.8936 76.7188 40.9013 76.7209 40.9091 76.7229L41.1607 75.755ZM41.2812 75.7845L41.0713 76.7623C41.1403 76.7771 41.2106 76.7845 41.2812 76.7845V75.7845ZM43.9469 75.7845V76.7845C43.9891 76.7845 44.0312 76.7819 44.073 76.7766L43.9469 75.7845ZM44.1613 75.7573L44.0352 74.7653L44.1613 75.7573ZM45.7582 75.5537L45.8852 76.5456C46.4144 76.4779 46.7972 76.0066 46.7551 75.4748L45.7582 75.5537ZM45.7382 75.3136L44.7418 75.3987L44.7418 75.3987L45.7382 75.3136ZM45.7018 74.8305L46.7003 74.7759L46.7003 74.7758L45.7018 74.8305ZM45.6444 74.093L44.6478 74.176L44.6483 74.182L45.6444 74.093ZM45.6444 74.0929L46.6409 74.0099L46.6404 74.0039L45.6444 74.0929ZM45.7687 71.536L46.7208 71.8417L46.7209 71.8417L45.7687 71.536ZM46.3581 69.2418L45.3839 69.0157L45.3826 69.0216L46.3581 69.2418ZM46.3581 69.2415L47.3323 69.4676L47.3336 69.4617L46.3581 69.2415ZM46.5447 29.0936C46.4457 29.1482 46.3611 29.1685 46.3142 29.1768C46.2636 29.1858 46.2225 29.1869 46.192 29.1857C46.1609 29.1845 46.127 29.1804 46.0893 29.1713C46.0542 29.1629 45.9951 29.1452 45.9239 29.1064L46.8812 27.3504C46.6637 27.2318 46.4384 27.1938 46.2696 27.1872C46.1109 27.1811 45.8435 27.1963 45.5789 27.3422L46.5447 29.0936ZM44.2881 30.3576C45.055 29.9244 45.8013 29.505 46.5461 29.0928L45.5776 27.3429C44.8255 27.7592 44.0735 28.1818 43.3044 28.6162L44.2881 30.3576ZM43.7289 30.6029C44.0976 30.542 44.3536 30.332 44.4699 30.2259L43.1225 28.7479C43.1237 28.7469 43.1421 28.7299 43.1784 28.7085C43.2134 28.6878 43.2901 28.6483 43.4032 28.6296L43.7289 30.6029ZM43.0321 31.0668C43.3801 30.8702 43.721 30.6777 44.0587 30.4865L43.0734 28.746C42.7367 28.9367 42.3966 29.1287 42.0485 29.3254L43.0321 31.0668ZM42.7424 31.2305C42.8396 31.1755 42.9361 31.121 43.0321 31.0668L42.0485 29.3254C41.9525 29.3796 41.8559 29.4342 41.7586 29.4891L42.7424 31.2305ZM43.2322 29.8137C43.1125 29.7282 42.9445 29.6073 42.7556 29.4967L41.7454 31.2229C41.8433 31.2802 41.9393 31.348 42.069 31.4407L43.2322 29.8137ZM43.3798 29.9743C43.4907 29.977 43.5403 30.0152 43.4919 29.9888C43.4714 29.9776 43.4408 29.959 43.3948 29.928C43.3481 29.8965 43.2979 29.8607 43.2322 29.8137L42.069 31.4407C42.1831 31.5223 42.3542 31.6464 42.5339 31.7444C42.7177 31.8447 42.9927 31.9655 43.3311 31.9737L43.3798 29.9743ZM45.1198 29.8044C44.7366 29.9836 44.1712 29.9954 43.3821 29.9744L43.3288 31.9737C44.0065 31.9917 45.0778 32.0321 45.9673 31.6159L45.1198 29.8044ZM46.4905 28.83C45.9558 29.274 45.5532 29.6011 45.1189 29.8048L45.9682 31.6155C46.6752 31.2839 47.2741 30.779 47.7684 30.3685L46.4905 28.83ZM47.2166 28.2455C46.9582 28.4413 46.7131 28.6451 46.4905 28.83L47.7684 30.3685C47.9965 30.179 48.2075 30.004 48.4243 29.8397L47.2166 28.2455ZM46.9312 29.6811C47.055 29.7537 47.184 29.8293 47.3179 29.9071L48.323 28.1781C48.193 28.1025 48.0672 28.0287 47.943 27.9559L46.9312 29.6811ZM45.9291 29.1092C46.2502 29.2818 46.5673 29.4676 46.9312 29.6811L47.943 27.9559C47.5851 27.746 47.2356 27.5409 46.8761 27.3476L45.9291 29.1092ZM36.2157 30.9158C36.356 30.8798 36.4704 30.8877 36.5334 30.8967C36.5977 30.9059 36.6415 30.921 36.658 30.927C36.686 30.9373 36.6917 30.9431 36.6521 30.9207L35.6679 32.6618C35.7201 32.6913 35.8338 32.755 35.9687 32.8045C36.0754 32.8436 36.3669 32.9416 36.7122 32.8532L36.2157 30.9158ZM38.7322 30.2572C37.879 30.4838 37.0492 30.7043 36.2179 30.9152L36.7099 32.8537C37.5537 32.6396 38.3943 32.4163 39.2457 32.1902L38.7322 30.2572ZM39.4273 30.0727C39.1939 30.1345 38.9622 30.1961 38.7322 30.2572L39.2457 32.1902C39.4758 32.129 39.7068 32.0677 39.9393 32.0061L39.4273 30.0727ZM38.6314 31.2268C38.6949 31.3323 38.7563 31.4344 38.8184 31.5414L40.5482 30.5374C40.4771 30.415 40.4079 30.3 40.3454 30.1961L38.6314 31.2268ZM38.2096 30.4729C38.3415 30.7461 38.4955 31.0007 38.6314 31.2268L40.3454 30.1961C40.2004 29.9549 40.0957 29.7794 40.0106 29.6031L38.2096 30.4729ZM38.943 30.7151C38.9805 30.6975 38.7753 30.8073 38.4921 30.6907C38.2386 30.5863 38.1736 30.3983 38.2096 30.4729L40.0106 29.6031C39.9098 29.3943 39.6955 29.0232 39.2533 28.8412C38.7815 28.647 38.3483 28.7846 38.0918 28.9053L38.943 30.7151ZM35.949 30.5798C36.9811 31.264 38.0484 31.1369 38.9439 30.7147L38.0909 28.9057C37.6279 29.124 37.3398 29.1023 37.0541 28.9128L35.949 30.5798ZM36.5465 30.73C36.5467 30.73 36.5457 30.7301 36.5446 30.7302C36.5433 30.7303 36.5417 30.7305 36.5398 30.7307C36.5361 30.7311 36.5317 30.7315 36.5267 30.7319C36.5169 30.7327 36.5054 30.7335 36.4925 30.7341C36.4678 30.7352 36.4336 30.7357 36.3928 30.7327C36.3531 30.7299 36.2948 30.7231 36.2256 30.7046C36.1576 30.6865 36.0588 30.6518 35.9531 30.5825L37.05 28.9101C36.83 28.7658 36.616 28.7436 36.5351 28.7378C36.4337 28.7306 36.354 28.7392 36.3328 28.7415L36.5465 30.73ZM36.4391 30.7358C36.4559 30.7358 36.4695 30.7354 36.4779 30.735C36.4869 30.7347 36.4943 30.7343 36.4996 30.734C36.5099 30.7333 36.5181 30.7327 36.5224 30.7323C36.5311 30.7316 36.5379 30.7309 36.5398 30.7307C36.5437 30.7303 36.5479 30.7298 36.5462 30.73L36.3331 28.7414C36.331 28.7416 36.335 28.7412 36.3388 28.7408C36.3406 28.7407 36.3473 28.74 36.3559 28.7393C36.3602 28.7389 36.3683 28.7382 36.3786 28.7376C36.3839 28.7373 36.3913 28.7369 36.4003 28.7365C36.4087 28.7362 36.4223 28.7358 36.4391 28.7358V30.7358ZM36.2147 31.1743C36.4952 30.9571 36.7711 30.7435 37.0515 30.5263L35.8266 28.9453C35.5466 29.1622 35.2711 29.3755 34.9905 29.5927L36.2147 31.1743ZM35.4192 31.7901C35.6933 31.5778 35.956 31.3745 36.2147 31.1743L34.9905 29.5927C34.7318 29.7929 34.4688 29.9965 34.1945 30.209L35.4192 31.7901ZM35.7084 30.3702C35.5804 30.2946 35.4487 30.2169 35.3134 30.1374L34.3003 31.8618C34.4334 31.94 34.563 32.0166 34.6914 32.0923L35.7084 30.3702ZM36.6541 30.9218C36.3462 30.7469 36.0397 30.5659 35.7084 30.3702L34.6914 32.0923C35.0201 32.2865 35.3411 32.4761 35.666 32.6607L36.6541 30.9218ZM38.578 26.4062C33.8502 27.201 29.6508 29.1657 26.0389 32.3266L27.3561 33.8316C30.6839 30.9193 34.5404 29.113 38.9096 28.3785L38.578 26.4062ZM43.0933 26.0416C41.1882 26.0416 40.4751 26.087 38.5778 26.4062L38.9097 28.3785C40.6843 28.0799 41.2853 28.0416 43.0933 28.0416V26.0416ZM46.8447 26.4214C45.9667 26.2671 44.6904 26.0416 43.0933 26.0416V28.0416C44.5029 28.0416 45.6316 28.2389 46.4985 28.3912L46.8447 26.4214ZM47.0718 26.4612C46.9995 26.4486 46.9243 26.4354 46.8447 26.4214L46.4985 28.3912C46.5775 28.4051 46.6554 28.4188 46.7307 28.4319L47.0718 26.4612ZM53.3247 28.4286C51.3305 27.4951 49.2444 26.8365 47.0715 26.4611L46.731 28.4319C48.7268 28.7767 50.6423 29.3812 52.4768 30.24L53.3247 28.4286ZM53.8835 29.5776L53.8971 29.4198L51.9044 29.2489L51.8909 29.4068L53.8835 29.5776ZM52.4305 30.4881C52.5923 30.4864 52.7197 30.4854 52.8398 30.4911L52.9346 28.4933C52.7468 28.4844 52.5611 28.4866 52.4097 28.4882L52.4305 30.4881ZM51.1434 30.3665C51.6241 30.5039 52.1179 30.4914 52.4305 30.4881L52.4097 28.4882C52.0365 28.4921 51.8443 28.4867 51.693 28.4435L51.1434 30.3665ZM49.1956 30.7763C49.4951 30.4885 49.7811 30.3464 50.0625 30.2874C50.3517 30.2268 50.7024 30.2405 51.1435 30.3665L51.6929 28.4435C51.0207 28.2514 50.333 28.1873 49.6524 28.3299C48.9641 28.4741 48.3489 28.8162 47.8098 29.3343L49.1956 30.7763ZM48.6817 31.2807C48.8568 31.1071 49.0255 30.9399 49.1958 30.7762L47.8096 29.3345C47.6264 29.5106 47.4468 29.6887 47.2735 29.8605L48.6817 31.2807ZM47.8215 32.1119C48.1222 31.8357 48.4098 31.5503 48.6817 31.2807L47.2735 29.8605C46.9971 30.1346 46.7364 30.393 46.4685 30.6391L47.8215 32.1119ZM46.7415 32.6316C47.2105 32.5789 47.5959 32.3178 47.8191 32.1141L46.4709 30.6368C46.4666 30.6408 46.46 30.6463 46.452 30.652C46.4439 30.6577 46.4375 30.6615 46.4339 30.6634C46.43 30.6655 46.4331 30.6634 46.444 30.6597C46.4544 30.6561 46.4795 30.6485 46.518 30.6441L46.7415 32.6316ZM46.2708 32.6851C46.4284 32.6671 46.5852 32.6492 46.7418 32.6316L46.5177 30.6442C46.3594 30.662 46.2012 30.6801 46.0438 30.6981L46.2708 32.6851ZM43.0347 32.984C44.132 32.9298 45.2203 32.8051 46.2708 32.6851L46.0438 30.6981C44.9825 30.8193 43.9582 30.9359 42.9361 30.9864L43.0347 32.984ZM41.7083 32.8864C42.0718 32.9376 42.5461 33.0076 43.0336 32.9841L42.9372 30.9864C42.6706 30.9992 42.3853 30.962 41.9876 30.906L41.7083 32.8864ZM41.0404 32.8089C41.243 32.8213 41.4527 32.8503 41.7083 32.8864L41.9876 30.906C41.7456 30.8718 41.4571 30.8306 41.1619 30.8126L41.0404 32.8089ZM41.4285 32.6105C41.3721 32.6879 41.3175 32.7306 41.2922 32.7487C41.2639 32.7688 41.2424 32.7793 41.2297 32.7847C41.2166 32.7904 41.2001 32.7961 41.1776 32.8009C41.1575 32.8051 41.1117 32.813 41.0447 32.8092L41.1576 30.8124C40.8815 30.7968 40.6273 30.8668 40.4406 30.947C40.2617 31.0238 40.0032 31.1706 39.8125 31.4321L41.4285 32.6105ZM41.0263 33.2241C41.172 32.9898 41.2948 32.7932 41.4275 32.6118L39.8135 31.4308C39.6288 31.6832 39.4669 31.9445 39.3279 32.168L41.0263 33.2241ZM40.5407 33.9613C40.7254 33.7089 40.8873 33.4476 41.0263 33.2241L39.3279 32.168C39.1821 32.4024 39.0594 32.5989 38.9267 32.7803L40.5407 33.9613ZM39.2915 34.682C39.5947 34.6584 39.8512 34.5392 40.0273 34.4299C40.2101 34.3166 40.3953 34.159 40.5392 33.9634L38.9282 32.7782C38.9467 32.7531 38.96 32.7408 38.9635 32.7377C38.9678 32.7339 38.9705 32.732 38.9733 32.7302C38.9757 32.7287 38.986 32.7225 39.0063 32.7149C39.025 32.7079 39.0694 32.6933 39.1363 32.6881L39.2915 34.682ZM38.8029 34.721C38.9674 34.7077 39.1292 34.6945 39.2905 34.6821L39.1373 32.688C38.9709 32.7008 38.8046 32.7143 38.6409 32.7276L38.8029 34.721ZM36.0845 34.827C37.0189 34.8674 37.9488 34.7905 38.8029 34.721L38.6409 32.7276C37.7651 32.7988 36.9599 32.863 36.1709 32.8288L36.0845 34.827ZM34.3471 34.4447C34.8094 34.5926 35.431 34.7982 36.0837 34.8269L36.1717 32.8289C35.8333 32.814 35.471 32.7045 34.9569 32.5399L34.3471 34.4447ZM33.9198 34.3116C34.056 34.3515 34.1945 34.3958 34.3471 34.4447L34.9569 32.5399C34.8084 32.4923 34.6464 32.4404 34.4828 32.3924L33.9198 34.3116ZM33.8955 34.2548C33.8984 34.2527 33.8877 34.2608 33.8645 34.2691C33.8409 34.2777 33.8185 34.2814 33.8027 34.2823C33.7889 34.2832 33.7888 34.2814 33.8087 34.2845C33.8299 34.2879 33.8646 34.2954 33.9203 34.3117L34.4824 32.3923C34.0377 32.2621 33.3805 32.1579 32.7215 32.6356L33.8955 34.2548ZM29.7774 35.5955C31.1589 35.4875 32.6058 35.1876 33.8945 34.2555L32.7225 32.6349C31.8614 33.2577 30.8381 33.5065 29.6216 33.6016L29.7774 35.5955ZM24.8088 36.7018C26.5058 36.181 28.1187 35.7251 29.7774 35.5955L29.6216 33.6016C27.7209 33.7501 25.9203 34.2686 24.222 34.7898L24.8088 36.7018ZM24.462 36.8006C24.5657 36.7722 24.6863 36.7393 24.808 36.702L24.2228 34.7895C24.1342 34.8167 24.0422 34.8419 23.9337 34.8716L24.462 36.8006ZM24.3389 36.8345C24.3787 36.8234 24.419 36.8124 24.462 36.8006L23.9337 34.8716C23.8914 34.8832 23.8465 34.8955 23.8013 34.9081L24.3389 36.8345ZM23.2476 36.4452C23.2629 36.464 23.2804 36.4854 23.2983 36.5072L24.8419 35.2354C24.8283 35.2189 24.8145 35.202 24.7986 35.1825L23.2476 36.4452ZM23.2043 36.3922C23.2179 36.4087 23.2317 36.4256 23.2476 36.4452L24.7986 35.1825C24.7833 35.1637 24.7658 35.1422 24.7479 35.1204L23.2043 36.3922ZM24.109 34.1996C23.8269 34.488 23.5514 34.7697 23.2727 35.0455L24.6795 36.4671C24.9717 36.1779 25.2586 35.8846 25.5388 35.5981L24.109 34.1996ZM26.0386 32.3269C25.3509 32.9293 24.7144 33.5807 24.109 34.1996L25.5388 35.5981C26.1533 34.9698 26.7364 34.3744 27.3564 33.8313L26.0386 32.3269ZM52.1993 36.8134C52.3614 37.4332 52.6773 37.9269 53.1585 38.3376L54.4569 36.8163C54.2792 36.6647 54.1905 36.5223 54.1343 36.3076L52.1993 36.8134ZM50.373 33.7197C51.3544 34.5169 51.8634 35.5273 52.1993 36.8132L54.1344 36.3078C53.7331 34.7715 53.0552 33.3219 51.6341 32.1674L50.373 33.7197ZM48.9064 33.1914C49.5796 33.3165 49.9897 33.4081 50.3727 33.7194L51.6344 32.1676C50.8067 31.4947 49.9077 31.3432 49.2716 31.2251L48.9064 33.1914ZM47.8002 32.9293C48.1966 33.0612 48.5906 33.1328 48.9064 33.1914L49.2716 31.2251C48.9346 31.1625 48.6759 31.1129 48.4315 31.0316L47.8002 32.9293ZM49.1803 32.7872C49.0557 32.6866 49.048 32.6363 49.0453 32.6253C49.0361 32.5883 49.0225 32.4788 49.0865 32.2213L47.1453 31.7396C47.0423 32.155 46.9847 32.6263 47.1043 33.1076C47.2304 33.615 47.5243 34.0207 47.924 34.3434L49.1803 32.7872ZM50.6924 34.2385C50.2475 33.7719 49.7475 33.2454 49.1805 32.7874L47.9238 34.3432C48.3725 34.7057 48.7842 35.1354 49.2448 35.6186L50.6924 34.2385ZM50.7034 34.2503L50.7034 34.2503L49.2338 35.6068L49.2338 35.6069L50.7034 34.2503ZM50.8124 34.3644L50.6922 34.2383L49.2451 35.6188L49.3653 35.7449L50.8124 34.3644ZM51.7185 35.3838C51.4402 35.0586 51.137 34.704 50.8118 34.3637L49.366 35.7456C49.6469 36.0395 49.9148 36.3521 50.1989 36.6842L51.7185 35.3838ZM51.7279 35.395L51.7277 35.3948L50.1896 36.6732L50.1898 36.6734L51.7279 35.395ZM52.0746 35.7971C51.9578 35.6635 51.8406 35.5266 51.7186 35.384L50.1991 36.6844C50.3199 36.8255 50.4439 36.9705 50.5689 37.1134L52.0746 35.7971ZM48.471 37.6657C49.0299 37.9622 49.6444 38.123 50.292 38.0394C50.939 37.9558 51.5065 37.6427 51.9976 37.1922L50.6458 35.7183C50.3795 35.9625 50.179 36.0373 50.0358 36.0558C49.8932 36.0743 49.6954 36.0513 49.4081 35.8989L48.471 37.6657ZM48.1053 37.5051C48.1769 37.5213 48.2812 37.5646 48.4695 37.6649L49.4096 35.8997C49.2083 35.7925 48.9003 35.6343 48.5462 35.5543L48.1053 37.5051ZM46.6625 35.28C46.5753 35.7119 46.5713 36.2461 46.8853 36.7246C47.197 37.1998 47.6842 37.4087 48.1027 37.5045L48.5488 35.5549C48.473 35.5375 48.451 35.523 48.4599 35.5282C48.4738 35.5363 48.5174 35.5664 48.5575 35.6275C48.5978 35.689 48.6089 35.7426 48.611 35.7621C48.6125 35.7753 48.6077 35.7515 48.623 35.6758L46.6625 35.28ZM47.0964 35.885C46.9459 35.8133 46.8497 35.7179 46.7967 35.6549C46.7427 35.5907 46.7113 35.5339 46.6951 35.5012C46.6639 35.4382 46.6558 35.3967 46.655 35.393C46.6531 35.3839 46.6527 35.3789 46.6525 35.3729C46.6524 35.3713 46.6508 35.3385 46.6622 35.2817L48.6233 35.6741C48.6726 35.4279 48.6525 35.1745 48.6128 34.9844C48.5916 34.8825 48.5547 34.7497 48.4876 34.6141C48.436 34.5099 48.2868 34.237 47.9575 34.0799L47.0964 35.885ZM45.8123 35.3371C46.2758 35.523 46.6934 35.6908 47.0928 35.8833L47.9611 34.0816C47.4903 33.8548 47.0092 33.6622 46.5566 33.4808L45.8123 35.3371ZM45.7741 35.3209L45.7741 35.3209L46.5948 33.497L46.5948 33.497L45.7741 35.3209ZM45.808 35.3354L45.8081 35.3354L46.5608 33.4825L46.5607 33.4824L45.808 35.3354ZM45.3133 35.1354C45.4824 35.2048 45.65 35.2721 45.8122 35.3371L46.5565 33.4807C46.3932 33.4152 46.2331 33.3511 46.0729 33.2853L45.3133 35.1354ZM46.4953 35.1335C46.551 34.914 46.6103 34.68 46.6669 34.4377L44.7193 33.983C44.6677 34.2039 44.613 34.4199 44.5567 34.6421L46.4953 35.1335ZM46.1979 36.4971C46.2585 36.0717 46.3659 35.6441 46.4953 35.1335L44.5567 34.6421C44.432 35.1337 44.2962 35.6656 44.2179 36.215L46.1979 36.4971ZM44.43 38.2289C44.8319 38.1845 45.2833 38.0529 45.6451 37.6941C46.0027 37.3395 46.1415 36.8925 46.1979 36.4973L44.218 36.2147C44.2123 36.2542 44.2063 36.2831 44.2011 36.3032C44.1959 36.3233 44.192 36.3328 44.1914 36.3344C44.1909 36.3356 44.1937 36.3287 44.2015 36.3167C44.2097 36.3044 44.2213 36.2894 44.2369 36.274C44.2524 36.2585 44.2684 36.2462 44.2828 36.2369C44.2969 36.2279 44.3065 36.2238 44.3087 36.2229C44.3105 36.2222 44.3046 36.2247 44.2882 36.2285C44.2718 36.2323 44.2466 36.237 44.2107 36.2409L44.43 38.2289ZM44.2073 38.2505C44.2757 38.2443 44.3553 38.2372 44.4314 38.2287L44.2093 36.2411C44.1583 36.2468 44.1009 36.252 44.0277 36.2586L44.2073 38.2505ZM44.0724 38.0323C43.9725 38.2008 43.8452 38.2728 43.808 38.2919C43.7685 38.3122 43.7561 38.3108 43.7962 38.3015C43.8317 38.2934 43.8843 38.2844 43.9594 38.2753C44.0343 38.2662 44.1137 38.259 44.2073 38.2505L44.0277 36.2586C43.8632 36.2734 43.5935 36.2959 43.3479 36.3524C43.2218 36.3814 43.0587 36.4285 42.8955 36.5122C42.7346 36.5947 42.5105 36.7452 42.3523 37.0119L44.0724 38.0323ZM44.1573 38.3379C44.145 38.248 44.1351 38.1756 44.1279 38.107C44.1208 38.0394 44.118 37.9905 44.1178 37.9547C44.1177 37.9182 44.1206 37.9099 44.1185 37.9207C44.116 37.9329 44.1057 37.9762 44.0723 38.0325L42.3525 37.0116C42.1467 37.3583 42.1172 37.7209 42.1179 37.9603C42.1185 38.2036 42.154 38.4501 42.1758 38.6094L44.1573 38.3379ZM44.1367 38.2311L44.1367 38.2311L42.1964 38.7162L42.1964 38.7162L44.1367 38.2311ZM44.2003 38.6962C44.189 38.568 44.1711 38.4387 44.1573 38.338L42.1758 38.6094C42.191 38.7201 42.2017 38.8 42.2079 38.8711L44.2003 38.6962ZM43.6457 38.1506C43.8679 38.1986 43.9987 38.3135 44.037 38.349C44.088 38.3962 44.1154 38.4359 44.1269 38.4539C44.1401 38.4744 44.1516 38.4964 44.1621 38.5231C44.1704 38.5445 44.1919 38.6035 44.2 38.6936L42.2082 38.8737C42.233 39.1488 42.3474 39.3841 42.4443 39.535C42.4994 39.6207 42.5758 39.7217 42.6777 39.8161C42.7669 39.8986 42.9502 40.0464 43.2228 40.1054L43.6457 38.1506ZM45.4255 38.5015C44.8095 38.3871 44.2262 38.2786 43.6497 38.1514L43.2188 40.1045C43.8335 40.2401 44.45 40.3545 45.0603 40.4678L45.4255 38.5015ZM46.0143 38.6115C45.8157 38.574 45.619 38.5374 45.4255 38.5015L45.0603 40.4678C45.2543 40.5039 45.4478 40.5398 45.6427 40.5767L46.0143 38.6115ZM45.0136 38.4915L44.8448 39.4141L46.8122 39.7741L46.981 38.8515L45.0136 38.4915ZM45.3133 36.8524C45.211 37.4135 45.1126 37.9509 45.0136 38.4915L46.981 38.8516C47.0799 38.3111 47.1784 37.7731 47.2809 37.2114L45.3133 36.8524ZM47.1478 36.1469C46.9029 36.1154 46.688 36.0875 46.4802 36.0488L46.114 38.015C46.3864 38.0657 46.657 38.1003 46.8927 38.1306L47.1478 36.1469ZM48.9702 36.5867C48.3449 36.292 47.6527 36.2118 47.1478 36.1469L46.8927 38.1306C47.4669 38.2044 47.829 38.2598 48.1176 38.3958L48.9702 36.5867ZM50.4664 36.9579C50.0197 37.0063 49.5982 36.8833 48.971 36.587L48.1168 38.3955C48.833 38.7337 49.6706 39.0558 50.6817 38.9463L50.4664 36.9579ZM52.1546 37.9913C52.0483 37.7158 51.859 37.3891 51.503 37.169C51.1441 36.9471 50.7643 36.925 50.4642 36.9582L50.6839 38.9461C50.717 38.9424 50.6001 38.9621 50.4512 38.87C50.3053 38.7798 50.2732 38.6711 50.2887 38.7114L52.1546 37.9913ZM54.2024 40.8503C53.2763 40.0364 52.5821 39.1011 52.1549 37.9919L50.2885 38.7108C50.8482 40.1638 51.75 41.3576 52.882 42.3525L54.2024 40.8503ZM54.9376 41.5789C54.7261 41.3557 54.4784 41.0931 54.2026 40.8505L52.8818 42.3523C53.0776 42.5245 53.2634 42.7197 53.4855 42.9542L54.9376 41.5789ZM54.959 41.6022L54.959 41.6022L53.4641 42.9309L53.4642 42.931L54.959 41.6022ZM55.2259 41.8795C55.132 41.7841 55.0387 41.6856 54.9376 41.5789L53.4855 42.9543C53.5844 43.0586 53.6909 43.1711 53.8006 43.2826L55.2259 41.8795ZM55.5679 44.7384C55.782 44.3241 56.0265 43.8012 55.9674 43.227C55.9039 42.6097 55.5219 42.1808 55.2267 41.8803L53.7998 43.2818C53.9245 43.4087 53.9754 43.4752 53.9953 43.5066C54.0069 43.5248 53.9842 43.4933 53.9779 43.4316C53.9724 43.3777 53.9866 43.3663 53.965 43.4339C53.9412 43.5082 53.8915 43.6259 53.7911 43.8203L55.5679 44.7384ZM50.9406 45.7764C52.2884 45.0872 53.2572 44.7973 54.3156 45.2108L55.0434 43.348C53.1231 42.5977 51.4518 43.2686 50.03 43.9958L50.9406 45.7764ZM47.6926 48.3805C48.5206 47.2478 49.5936 46.4648 50.9403 45.7766L50.0302 43.9956C48.5141 44.7704 47.1515 45.7317 46.078 47.2002L47.6926 48.3805ZM47.1625 49.0523C47.3287 48.8497 47.5161 48.6218 47.6923 48.3809L46.0783 47.1998C45.9402 47.3885 45.7885 47.5739 45.6163 47.7837L47.1625 49.0523ZM46.1748 50.8581C46.2237 50.2374 46.5658 49.7796 47.1625 49.0523L45.6163 47.7837C45.0746 48.444 44.2863 49.364 44.1809 50.701L46.1748 50.8581ZM44.859 51.9894C45.1559 52.0122 45.3817 51.9042 45.4646 51.8614C45.5765 51.8036 45.6702 51.7342 45.7433 51.6701C45.8166 51.6058 45.8971 51.5223 45.9685 51.4198C46.023 51.3419 46.1537 51.1398 46.1751 50.8542L44.1806 50.705C44.199 50.4595 44.3077 50.305 44.3284 50.2754C44.3661 50.2213 44.401 50.1871 44.4243 50.1667C44.4474 50.1464 44.4866 50.1155 44.5467 50.0845C44.5777 50.0684 44.7545 49.9755 45.0123 49.9953L44.859 51.9894ZM44.704 51.9781C44.7583 51.982 44.8093 51.9856 44.8595 51.9894L45.0117 49.9952C44.9551 49.9909 44.8987 49.9869 44.8453 49.9831L44.704 51.9781ZM44.7029 51.9781L44.7034 51.9781L44.8459 49.9832L44.8454 49.9831L44.7029 51.9781ZM43.4289 51.7771C43.8932 51.9257 44.3743 51.9548 44.7035 51.9781L44.8448 49.9831C44.4687 49.9565 44.2342 49.9349 44.0384 49.8723L43.4289 51.7771ZM42.4546 51.3595C42.7178 51.4889 43.058 51.6582 43.4282 51.7769L44.0391 49.8725C43.8323 49.8061 43.6234 49.7055 43.3369 49.5647L42.4546 51.3595ZM41.998 51.1446C42.1398 51.2051 42.2832 51.2753 42.4546 51.3595L43.3369 49.5647C43.1737 49.4844 42.9822 49.39 42.7825 49.3049L41.998 51.1446ZM42.3976 51.1061C42.3019 51.1482 42.2217 51.1608 42.1755 51.165C42.1276 51.1694 42.093 51.1668 42.0749 51.1647C42.043 51.1611 42.0214 51.1546 41.9979 51.1446L42.7826 49.3049C42.641 49.2445 42.4753 49.1974 42.302 49.1776C42.1468 49.1599 41.875 49.1509 41.5916 49.2757L42.3976 51.1061ZM41.1477 51.6886C41.5814 51.4805 41.9867 51.286 42.3957 51.1069L41.5935 49.2749C41.1472 49.4703 40.7104 49.6801 40.2822 49.8856L41.1477 51.6886ZM41.1472 51.6889L41.1479 51.6886L40.282 49.8857L40.2813 49.8861L41.1472 51.6889ZM40.6884 51.9084C40.8438 51.8345 40.9971 51.761 41.147 51.689L40.2814 49.886C40.131 49.9582 39.9814 50.03 39.8302 50.1019L40.6884 51.9084ZM41.5268 52.016L41.2323 50.7743L39.2863 51.2359L39.5807 52.4775L41.5268 52.016ZM41.6843 52.6801L41.5267 52.0159L39.5808 52.4776L39.7383 53.1418L41.6843 52.6801ZM41.5992 52.4281L41.5112 52.3108L39.9115 53.5111L39.9995 53.6284L41.5992 52.4281ZM43.1267 51.0592C42.6319 50.9893 41.992 50.9364 41.3792 51.1467C40.6942 51.3817 40.1826 51.8917 39.8733 52.6509L41.7254 53.4056C41.7923 53.2415 41.8565 53.1594 41.8974 53.1186C41.9351 53.0811 41.9742 53.057 42.0283 53.0384C42.1675 52.9906 42.4058 52.9772 42.8467 53.0395L43.1267 51.0592ZM43.9659 52.4853L43.9854 52.1L41.988 51.9987L41.9685 52.384L43.9659 52.4853ZM43.8959 53.8693C43.9199 53.3916 43.943 52.9366 43.9659 52.4853L41.9685 52.384C41.9456 52.8352 41.9225 53.2907 41.8985 53.769L43.8959 53.8693ZM45.6305 54.3961C45.0117 53.3854 44.0337 52.9512 43.0191 52.8266L42.7753 54.8117C43.3764 54.8855 43.7133 55.0949 43.9248 55.4405L45.6305 54.3961ZM45.7067 54.346C45.6606 54.3631 45.6228 54.3751 45.5923 54.3834C45.5617 54.3917 45.541 54.3956 45.5287 54.3973C45.5047 54.4007 45.5225 54.3947 45.5646 54.4048C45.5854 54.4097 45.6069 54.4174 45.6274 54.4277C45.6476 54.4378 45.6619 54.448 45.67 54.4546C45.6849 54.4668 45.6686 54.4585 45.631 54.3969L43.9244 55.4397C44.1805 55.8589 44.5569 56.2201 45.0991 56.3498C45.5956 56.4687 46.0596 56.3481 46.4016 56.2214L45.7067 54.346ZM47.6098 54.0043C46.862 53.9014 46.1016 54.1993 45.7059 54.3463L46.4024 56.2211C46.9093 56.0328 47.1779 55.9637 47.3372 55.9857L47.6098 54.0043ZM50.1118 54.4852C49.3142 54.3089 48.4698 54.1216 47.6087 54.0042L47.3384 55.9858C48.1046 56.0903 48.8688 56.2587 49.6801 56.438L50.1118 54.4852ZM50.2122 54.5129L50.2122 54.5129L49.5797 56.4103L49.5797 56.4103L50.2122 54.5129ZM51.1186 54.7027C50.7861 54.6343 50.4531 54.5607 50.1118 54.4852L49.6801 56.4381C50.019 56.513 50.3663 56.5898 50.7155 56.6616L51.1186 54.7027ZM51.7592 54.8297C51.5408 54.7873 51.3294 54.7462 51.1194 54.7029L50.7146 56.6615C50.9385 56.7077 51.1619 56.7511 51.3783 56.793L51.7592 54.8297ZM51.7333 54.825L51.7332 54.825L51.4044 56.7977L51.4045 56.7978L51.7333 54.825ZM53.154 55.126C52.6802 55.0081 52.2049 54.9161 51.7594 54.8297L51.3784 56.7931C51.8325 56.8812 52.2565 56.9637 52.6712 57.0668L53.154 55.126ZM54.4181 55.8585C54.2071 55.5823 53.9331 55.4211 53.7358 55.3279C53.5273 55.2293 53.3174 55.1663 53.1523 55.1256L52.6729 57.0672C52.7158 57.0778 52.7566 57.0894 52.7937 57.1019C52.8312 57.1144 52.8602 57.1262 52.8809 57.136C52.9024 57.1461 52.9068 57.1503 52.8998 57.1452C52.8932 57.1404 52.8636 57.1182 52.8288 57.0726L54.4181 55.8585ZM58.4543 59.1847C56.8454 58.3989 55.5151 57.2876 54.4167 55.8566L52.8302 57.0745C54.1071 58.738 55.6758 60.0535 57.5766 60.9818L58.4543 59.1847ZM59.5316 59.7998C59.2139 59.6038 58.8475 59.3769 58.4546 59.1849L57.5763 60.9817C57.8663 61.1235 58.1497 61.2973 58.4817 61.5021L59.5316 59.7998ZM59.4539 59.7565L59.4539 59.7565L58.5595 61.5453L58.5595 61.5454L59.4539 59.7565ZM59.9221 60.0377C59.7948 59.9621 59.6674 59.8835 59.5317 59.7998L58.4818 61.5021C58.6152 61.5844 58.7568 61.6717 58.9009 61.7573L59.9221 60.0377ZM60.2203 60.2336C60.1441 60.1807 60.0376 60.1061 59.921 60.037L58.9021 61.758C58.9451 61.7835 58.9914 61.8151 59.0787 61.8758L60.2203 60.2336ZM60.3307 60.3096C60.2949 60.2855 60.2603 60.2614 60.2203 60.2336L59.0787 61.8758C59.1172 61.9025 59.1634 61.9347 59.2129 61.9681L60.3307 60.3096ZM60.0903 62.6874C60.279 62.3267 60.4679 61.9652 60.6577 61.6026L58.8859 60.675C58.6958 61.0382 58.5065 61.4001 58.3179 61.7608L60.0903 62.6874ZM60.0869 62.6941L60.0905 62.6872L58.3178 61.7611L58.3142 61.7679L60.0869 62.6941ZM60.0766 62.7132L60.0768 62.7129L58.3243 61.7491L58.3242 61.7493L60.0766 62.7132ZM58.0127 66.6365C58.7094 65.3288 59.3956 64.0162 60.0866 62.6945L58.3142 61.7679C57.6226 63.0908 56.94 64.3964 56.2476 65.6959L58.0127 66.6365ZM57.1765 67.3789C57.2829 67.3273 57.4232 67.2516 57.5619 67.148C57.6929 67.0502 57.881 66.8846 58.0135 66.635L56.2468 65.6974C56.2792 65.6364 56.3127 65.5968 56.3319 65.5765C56.3513 65.5558 56.3644 65.5462 56.3651 65.5456C56.3663 65.5447 56.3617 65.5482 56.3497 65.5552C56.3381 65.562 56.323 65.5701 56.3045 65.579L57.1765 67.3789ZM56.2894 67.7932C56.5785 67.6602 56.8768 67.5231 57.174 67.3801L56.307 65.5778C56.028 65.712 55.7454 65.842 55.4537 65.9762L56.2894 67.7932ZM56.2803 67.7973L56.2806 67.7972L55.4625 65.9722L55.4622 65.9723L56.2803 67.7973ZM54.9638 68.4257C55.3897 68.2072 55.8279 68.0054 56.2891 67.7933L55.4534 65.9763C54.9987 66.1854 54.5213 66.4048 54.0507 66.6463L54.9638 68.4257ZM54.9579 68.4456C54.9558 68.4504 54.9546 68.4526 54.9548 68.4524C54.9548 68.4523 54.9558 68.4505 54.9578 68.4475C54.962 68.4409 54.9682 68.4326 54.9756 68.4242C54.9792 68.4203 54.9824 68.417 54.9851 68.4144C54.9878 68.4118 54.9895 68.4104 54.9899 68.41C54.9903 68.4097 54.9888 68.411 54.985 68.4135C54.9812 68.416 54.9742 68.4204 54.9637 68.4257L54.0508 66.6463C53.6209 66.8668 53.2795 67.2739 53.1119 67.676L54.9579 68.4456ZM54.5677 69.4704C54.6992 69.1085 54.8216 68.7722 54.9578 68.4458L53.112 67.6757C52.9548 68.0525 52.8168 68.4329 52.6879 68.7875L54.5677 69.4704ZM54.5765 69.4453L54.5765 69.4451L52.6792 68.8127L52.6791 68.8129L54.5765 69.4453ZM54.1268 70.6225C54.2912 70.2322 54.4343 69.8376 54.5677 69.4706L52.6879 68.7876C52.5517 69.1625 52.4253 69.5097 52.2836 69.846L54.1268 70.6225ZM53.2527 71.7325C53.664 71.4448 53.9616 71.0145 54.1268 70.6225L52.2836 69.846C52.2321 69.9683 52.1462 70.0658 52.1061 70.0938L53.2527 71.7325ZM52.7817 72.0647C52.9402 71.9526 53.097 71.8418 53.2539 71.7317L52.105 70.0946C51.9448 70.207 51.7852 70.3199 51.6271 70.4316L52.7817 72.0647ZM52.8044 72.0482L52.8044 72.0481L51.6044 70.4481L51.6044 70.4482L52.8044 72.0482ZM52.8043 72.0482L52.8044 72.0482L51.6044 70.4482L51.6043 70.4482L52.8043 72.0482ZM50.0392 73.862C51.0133 73.316 51.9233 72.6716 52.7816 72.0648L51.627 70.4317C50.754 71.0489 49.9288 71.6311 49.0614 72.1173L50.0392 73.862ZM49.5624 74.7718C49.6401 74.4528 49.6869 74.2814 49.7594 74.1418C49.8132 74.038 49.8836 73.9492 50.0394 73.8619L49.0613 72.1174C47.971 72.7287 47.76 73.7208 47.6193 74.2983L49.5624 74.7718ZM49.5543 74.8028L49.5544 74.8027L47.6273 74.2674L47.6273 74.2675L49.5543 74.8028ZM49.4214 75.2995C49.4804 75.1095 49.5257 74.9225 49.5624 74.7719L47.6192 74.2984C47.5802 74.4586 47.549 74.5855 47.5114 74.7065L49.4214 75.2995ZM48.6813 74.021C48.6575 74.0179 48.6125 74.012 48.5533 74.0068L48.3795 75.9992C48.3873 75.9999 48.3939 76.0006 48.4 76.0013C48.4066 76.0021 48.4126 76.0029 48.4236 76.0043L48.6813 74.021ZM48.7169 74.0262L48.7169 74.0262L48.3881 75.999L48.3881 75.999L48.7169 74.0262ZM48.4222 74.0361C48.5297 74.0141 48.6159 74.0166 48.6565 74.0192C48.6756 74.0204 48.6889 74.022 48.6906 74.0222C48.692 74.0223 48.6917 74.0223 48.6815 74.021L48.4236 76.0043C48.4287 76.005 48.479 76.012 48.5306 76.0152C48.5935 76.0192 48.6982 76.0211 48.8235 75.9955L48.4222 74.0361ZM48.4599 74.0252C48.4493 74.0284 48.442 74.0305 48.4353 74.0325C48.4288 74.0344 48.4247 74.0355 48.4221 74.0362C48.4166 74.0377 48.4209 74.0364 48.4314 74.0343L48.8143 75.9973C48.9108 75.9785 48.9974 75.9519 49.0299 75.9423L48.4599 74.0252ZM48.5072 74.0113C48.4892 74.0165 48.472 74.0216 48.4599 74.0252L49.0299 75.9423C49.0434 75.9382 49.0518 75.9358 49.0594 75.9336L48.5072 74.0113ZM48.5437 74.0011C48.5306 74.0047 48.5184 74.0081 48.5075 74.0112L49.0592 75.9336C49.0631 75.9325 49.0658 75.9318 49.0676 75.9313L48.5437 74.0011ZM59.3245 67.7978C56.3062 70.8528 52.7132 72.9098 48.5525 73.9988L49.0588 75.9336C53.5618 74.7551 57.4727 72.5178 60.7472 69.2034L59.3245 67.7978ZM65.723 55.4006C64.875 60.1978 62.7485 64.3307 59.3243 67.7979L60.7473 69.2033C64.4585 65.4455 66.7743 60.9431 67.6925 55.7487L65.723 55.4006ZM65.9809 53.3486C65.9081 54.0664 65.8392 54.7413 65.7229 55.401L67.6926 55.7483C67.8238 55.004 67.8992 54.2558 67.9707 53.5503L65.9809 53.3486ZM66.0868 52.355C66.0477 52.6894 66.0139 53.0235 65.9809 53.3486L67.9707 53.5503C68.0039 53.2227 68.0363 52.9039 68.0733 52.5873L66.0868 52.355ZM66.0801 50.2826V52.4712H68.0801V50.2826H66.0801ZM66.0706 50.3133C66.0799 50.3646 66.0866 50.4018 66.0921 50.4369L68.0681 50.1283C68.0582 50.0648 68.047 50.0035 68.0384 49.9563L66.0706 50.3133ZM66.0706 50.3136L66.0706 50.3137L68.0384 49.9559L68.0384 49.9558L66.0706 50.3136ZM66.0117 49.8881C66.0233 50.0585 66.0533 50.2182 66.0705 50.3132L68.0384 49.9562C68.0177 49.8421 68.0098 49.7926 68.0071 49.7524L66.0117 49.8881ZM62.5457 39.1164C64.6032 42.4174 65.7517 46.0039 66.0116 49.887L68.0071 49.7535C67.7255 45.5455 66.476 41.641 64.243 38.0584L62.5457 39.1164ZM62.5453 39.1157L62.5464 39.1174L64.2423 38.0574L64.2412 38.0556L62.5453 39.1157ZM62.5555 38.9569C62.4788 38.9246 62.4225 38.884 62.3871 38.853C62.3558 38.8255 62.3445 38.8086 62.3548 38.8219C62.3651 38.8353 62.3845 38.8624 62.4189 38.9152C62.4531 38.9678 62.4922 39.0305 62.5447 39.1147L64.2419 38.0566C64.151 37.9109 64.0444 37.7376 63.9377 37.5995C63.8239 37.4521 63.6349 37.2417 63.3333 37.1144L62.5555 38.9569ZM62.4634 39.0685C62.5565 39.0491 62.6256 39.0347 62.6844 39.0236C62.7436 39.0124 62.7746 39.008 62.7898 39.0064C62.805 39.0048 62.7848 39.0082 62.7436 39.0047C62.6974 39.0007 62.6305 38.9886 62.5555 38.9569L63.3333 37.1144C63.0377 36.9896 62.7609 36.9982 62.5789 37.0175C62.4088 37.0356 62.2152 37.0772 62.0547 37.1107L62.4634 39.0685ZM62.4615 39.0689L62.462 39.0688L62.056 37.1104L62.0555 37.1105L62.4615 39.0689ZM62.1527 39.1075C62.201 39.104 62.3257 39.0966 62.4582 39.0696L62.0589 37.1098C62.0715 37.1073 62.0762 37.1071 62.0673 37.1081C62.0631 37.1085 62.0568 37.1091 62.0471 37.1098C62.0369 37.1107 62.0261 37.1114 62.0106 37.1125L62.1527 39.1075ZM62.1077 39.1109C62.1191 39.1099 62.1317 39.109 62.1527 39.1075L62.0106 37.1125C61.992 37.1139 61.9651 37.1158 61.937 37.1182L62.1077 39.1109ZM61.2157 39.1922C61.5155 39.1645 61.8133 39.137 62.1109 39.1106L61.9338 37.1184C61.6324 37.1452 61.3312 37.173 61.032 37.2006L61.2157 39.1922ZM61.2108 39.1926L61.2111 39.1926L61.0367 37.2002L61.0365 37.2002L61.2108 39.1926ZM61.2066 39.193L61.2067 39.1929L61.0406 37.1999L61.0405 37.1999L61.2066 39.193ZM58.8698 39.391C59.6577 39.3359 60.443 39.2634 61.2154 39.1922L61.0317 37.2006C60.2556 37.2722 59.4924 37.3426 58.7302 37.3959L58.8698 39.391ZM58.9568 39.3317C58.9703 39.3079 58.9741 39.3062 58.9653 39.316C58.9552 39.3273 58.9358 39.3456 58.9074 39.3633C58.8792 39.3809 58.8551 39.3897 58.8428 39.3932C58.8325 39.3962 58.8382 39.3932 58.8684 39.3911L58.7316 37.3958C58.4497 37.4151 58.1413 37.4841 57.8492 37.6662C57.5559 37.8491 57.3579 38.0968 57.217 38.3453L58.9568 39.3317ZM58.3221 40.3564C58.541 40.0182 58.7587 39.6823 58.9576 39.3304L57.2163 38.3466C57.0522 38.637 56.8682 38.9218 56.6431 39.2698L58.3221 40.3564ZM58.0171 40.8313C58.1218 40.6659 58.2227 40.5101 58.3221 40.3564L56.6431 39.2698C56.5442 39.4226 56.4382 39.5863 56.3274 39.7612L58.0171 40.8313ZM56.2312 40.8852C56.3696 40.9705 56.4968 41.049 56.623 41.132L57.7215 39.4606C57.5671 39.3591 57.4155 39.2658 57.2807 39.1827L56.2312 40.8852ZM56.2369 40.8887L56.237 40.8887L57.2749 39.1791L57.2748 39.1791L56.2369 40.8887ZM55.2961 40.2409C55.6092 40.504 55.952 40.7131 56.2311 40.8852L57.2806 39.1826C56.9778 38.996 56.764 38.862 56.5827 38.7097L55.2961 40.2409ZM54.1508 39.2236C54.5152 39.5565 54.8973 39.9057 55.296 40.2408L56.5828 38.7098C56.221 38.4057 55.8692 38.0845 55.4997 37.7469L54.1508 39.2236ZM54.1412 39.2147L54.1413 39.2148L55.5092 37.7557L55.5091 37.7556L54.1412 39.2147ZM54.1666 39.2377L54.1666 39.2377L55.4836 37.7326L55.4836 37.7326L54.1666 39.2377ZM53.1591 38.3381C53.4898 38.6199 53.8128 38.9149 54.1506 39.2234L55.4996 37.7468C55.166 37.4421 54.8176 37.1237 54.4563 36.8158L53.1591 38.3381ZM45.6141 68.1707C45.6024 68.1295 45.5991 68.0987 45.5981 68.0834C45.5971 68.068 45.598 68.0619 45.5976 68.0674C45.5972 68.0726 45.5959 68.0842 45.5925 68.1034C45.5891 68.1225 45.5842 68.1453 45.5776 68.1734L47.5229 68.6376C47.5628 68.4706 47.66 68.0519 47.5375 67.6223L45.6141 68.1707ZM45.3176 67.0709C45.4121 67.4304 45.5093 67.8004 45.6136 68.1689L47.538 67.6241C47.4397 67.2767 47.3471 66.925 47.2518 66.5624L45.3176 67.0709ZM45.336 67.1328L45.336 67.1329L47.2334 66.5004L47.2334 66.5004L45.336 67.1328ZM43.6667 62.8599C44.5123 64.0493 44.893 65.4563 45.3175 67.0709L47.2518 66.5623C46.8429 65.0071 46.3883 63.2364 45.2967 61.701L43.6667 62.8599ZM43.5819 58.8597C43.1741 59.4771 42.9196 60.1449 42.9367 60.8733C42.9538 61.5995 43.2377 62.2568 43.6668 62.8601L45.2966 61.7008C45.0209 61.3132 44.9411 61.0368 44.9362 60.8264C44.9313 60.6182 44.9966 60.3467 45.2507 59.9619L43.5819 58.8597ZM44.1641 57.6927C43.9477 58.1882 43.7878 58.5478 43.5819 58.8596L45.2507 59.962C45.5686 59.4807 45.7946 58.9566 45.997 58.493L44.1641 57.6927ZM44.1668 57.6866L44.1667 57.6867L45.9944 58.499L45.9944 58.4989L44.1668 57.6866ZM44.4947 56.9583C44.3713 57.2179 44.2624 57.4675 44.1641 57.6926L45.997 58.4929C46.0969 58.2642 46.1935 58.0432 46.301 57.817L44.4947 56.9583ZM41.8619 56.5393C42.5937 57.2842 43.624 58.3832 45.3953 58.3877L45.4004 56.3877C44.5642 56.3855 44.0771 55.9403 43.2885 55.1376L41.8619 56.5393ZM41.8517 56.5288L41.8518 56.5289L43.2985 55.148L43.2984 55.1478L41.8517 56.5288ZM41.5565 56.2318C41.6563 56.3301 41.7557 56.4313 41.8617 56.5392L43.2883 55.1375C43.1842 55.0315 43.0734 54.9186 42.96 54.807L41.5565 56.2318ZM41.1718 56.0232C41.3182 56.0609 41.473 56.1496 41.5562 56.2315L42.9603 54.8073C42.6027 54.4547 42.1256 54.2035 41.6703 54.0863L41.1718 56.0232ZM38.0711 55.3249C39.1184 55.5384 40.1537 55.7633 41.1737 56.0237L41.6684 54.0859C40.6034 53.814 39.5325 53.5817 38.4707 53.3652L38.0711 55.3249ZM36.7447 54.249C36.8477 54.4796 37.0006 54.7323 37.2505 54.9422C37.5049 55.1558 37.7912 55.2678 38.0708 55.3249L38.4709 53.3653C38.4499 53.361 38.4518 53.3594 38.4678 53.3665C38.4856 53.3745 38.5107 53.3888 38.5367 53.4106C38.5912 53.4564 38.5959 53.4895 38.571 53.4337L36.7447 54.249ZM36.0092 52.6964C36.2651 53.2234 36.5135 53.7354 36.746 54.2518L38.5697 53.4309C38.3234 52.8836 38.0622 52.3457 37.8084 51.823L36.0092 52.6964ZM35.7039 52.0651C35.8055 52.2768 35.908 52.4878 36.0092 52.6964L37.8084 51.823C37.7068 51.6137 37.6064 51.4069 37.5071 51.1999L35.7039 52.0651ZM36.6851 52.6329C36.7055 52.6292 36.7277 52.6257 36.7626 52.6201L36.4485 50.6449C36.4172 50.6499 36.3732 50.6569 36.3274 50.6652L36.6851 52.6329ZM37.5063 53.0452V51.6491H35.5063V53.0452H37.5063ZM34.8399 53.3346C34.9838 53.5342 35.228 53.8273 35.6222 53.989C36.0497 54.1643 36.4747 54.1163 36.838 53.9885L36.1745 52.1018C36.1429 52.1129 36.1542 52.1045 36.1977 52.1032C36.2471 52.1018 36.3129 52.1106 36.3811 52.1386C36.4457 52.1651 36.4835 52.1969 36.4945 52.2071C36.5027 52.2147 36.4925 52.2069 36.4621 52.1648L34.8399 53.3346ZM33.4414 51.4269C33.9124 52.065 34.3799 52.6984 34.8406 53.3356L36.4614 52.1638C35.9939 51.5173 35.5206 50.876 35.0506 50.2392L33.4414 51.4269ZM31.862 49.2685C32.3844 49.9949 32.9151 50.7138 33.4414 51.4269L35.0506 50.2392C34.523 49.5245 33.9997 48.8154 33.4857 48.1008L31.862 49.2685ZM31.4373 47.9813C31.4489 48.407 31.59 48.888 31.8603 49.2661L33.4875 48.1032C33.4882 48.1043 33.4841 48.0985 33.4774 48.0847C33.4708 48.0712 33.4635 48.0535 33.4569 48.0326C33.4424 47.9875 33.4371 47.9481 33.4365 47.9265L31.4373 47.9813ZM31.4256 46.3375C31.4246 46.8735 31.4235 47.4251 31.4372 47.9787L33.4366 47.9291C33.4236 47.4066 33.4246 46.8817 33.4256 46.3412L31.4256 46.3375ZM31.4176 44.8836C31.4274 45.3625 31.4265 45.8435 31.4256 46.3375L33.4256 46.3412C33.4265 45.851 33.4275 45.3477 33.4172 44.8427L31.4176 44.8836ZM31.3577 44.6697C31.3883 44.7212 31.4161 44.8153 31.4176 44.8853L33.4171 44.841C33.4081 44.436 33.2885 44.0037 33.0769 43.6478L31.3577 44.6697ZM30.5062 43.2749C30.7968 43.7445 31.0817 44.2052 31.3575 44.6695L33.077 43.648C32.7905 43.1657 32.496 42.6897 32.207 42.2227L30.5062 43.2749ZM30.5037 43.2708L30.5038 43.271L32.2095 42.2267L32.2094 42.2265L30.5037 43.2708ZM30.5154 43.2894L30.5154 43.2894L32.1977 42.2079L32.1977 42.2079L30.5154 43.2894ZM29.3542 41.3675C29.7284 42.0179 30.1222 42.6542 30.5061 43.2748L32.2069 42.2225C31.8202 41.5974 31.4434 40.9882 31.0877 40.3701L29.3542 41.3675ZM29.394 41.3991C29.4333 41.3918 29.4619 41.388 29.4817 41.3861C29.5014 41.3843 29.5094 41.3847 29.5082 41.3846C29.5066 41.3845 29.4947 41.384 29.4754 41.3798C29.4555 41.3755 29.4311 41.3682 29.4047 41.3564C29.3783 41.3447 29.3553 41.331 29.3366 41.3174C29.3184 41.3042 29.3076 41.2936 29.3038 41.2896C29.3003 41.2859 29.3035 41.2886 29.3127 41.3015C29.322 41.3145 29.3358 41.3355 29.354 41.3672L31.0879 40.3704C30.9156 40.0706 30.6547 39.7233 30.217 39.5288C29.7862 39.3374 29.3568 39.3714 29.0261 39.4333L29.394 41.3991ZM28.8839 41.4953C29.0548 41.463 29.2243 41.4309 29.3938 41.3992L29.0263 39.4332C28.854 39.4654 28.6821 39.498 28.5117 39.5303L28.8839 41.4953ZM28.8715 41.4976L28.8716 41.4976L28.524 39.528L28.524 39.528L28.8715 41.4976ZM24.0827 42.0831C25.7669 42.0888 27.3778 41.7807 28.8839 41.4954L28.5116 39.5303C26.9759 39.8212 25.5514 40.0881 24.0896 40.0831L24.0827 42.0831ZM21.1152 40.929C21.8921 41.5072 22.7818 42.078 24.0822 42.0831L24.09 40.0831C23.4528 40.0806 22.9991 39.838 22.3093 39.3245L21.1152 40.929ZM21.8327 38.7465C21.5872 38.944 21.3391 39.1437 21.0857 39.3473L22.3387 40.9062C22.5926 40.7021 22.8411 40.5021 23.0866 40.3046L21.8327 38.7465ZM22.673 38.0706C22.3938 38.2949 22.1149 38.5193 21.8327 38.7465L23.0866 40.3046C23.3689 40.0774 23.6472 39.8534 23.9256 39.6298L22.673 38.0706ZM22.1949 40.0661C22.5819 39.9584 22.9706 39.8832 23.3876 39.8463L23.2111 37.8541C22.6608 37.9028 22.1514 38.0021 21.6583 38.1394L22.1949 40.0661ZM22.4415 39.8744C22.4168 39.9172 22.3933 39.9455 22.3785 39.9617C22.3629 39.9787 22.3492 39.9907 22.3376 39.9996C22.3218 40.0118 22.2793 40.0423 22.1983 40.0652L21.6549 38.1404C21.2772 38.247 20.9132 38.5225 20.7106 38.8724L22.4415 39.8744ZM19.8011 46.9473C20.2639 44.4467 21.1675 42.0935 22.4433 39.8713L20.7088 38.8755C19.3309 41.2755 18.342 43.8407 17.8345 46.5833L19.8011 46.9473ZM19.4693 49.2371C19.5683 48.4466 19.6632 47.6905 19.801 46.9476L17.8346 46.5829C17.6842 47.3933 17.5825 48.2081 17.4848 48.9887L19.4693 49.2371ZM19.3285 50.3254C19.3788 49.9602 19.4245 49.5951 19.4693 49.2371L17.4848 48.9887C17.4398 49.3487 17.3956 49.7016 17.3472 50.0527L19.3285 50.3254ZM19.3379 52.758V50.189H17.3379V52.758H19.3379ZM19.4404 53.551C19.4058 53.2496 19.3701 52.9391 19.3294 52.6281L17.3464 52.8879C17.3847 53.1805 17.4186 53.4753 17.4535 53.7793L19.4404 53.551ZM19.7023 55.4291C19.5875 54.8272 19.5162 54.2107 19.4404 53.551L17.4535 53.7793C17.5279 54.4265 17.6067 55.1169 17.7377 55.8037L19.7023 55.4291ZM31.8344 72.0876C25.1707 68.435 21.1228 62.9019 19.7024 55.4296L17.7376 55.8031C19.2703 63.8663 23.6891 69.9037 30.8731 73.8414L31.8344 72.0876ZM40.981 74.7086C37.7317 74.4884 34.6662 73.6398 31.8344 72.0876L30.8731 73.8414C33.9776 75.5431 37.3282 76.4657 40.8457 76.7041L40.981 74.7086ZM41.4122 74.7872C41.3462 74.77 41.1755 74.7228 40.9858 74.709L40.8408 76.7037C40.8227 76.7024 40.8165 76.7003 40.8296 76.7031C40.8357 76.7044 40.8447 76.7065 40.8583 76.7099C40.8725 76.7134 40.8876 76.7173 40.909 76.7229L41.4122 74.7872ZM41.4354 74.7935L41.4353 74.7935L40.8859 76.7166L40.8859 76.7166L41.4354 74.7935ZM41.491 74.8068C41.4753 74.8034 41.456 74.7986 41.4122 74.7872L40.9091 76.7229C40.9456 76.7324 41.0065 76.7484 41.0713 76.7623L41.491 74.8068ZM43.9469 74.7845H41.2812V76.7845H43.9469V74.7845ZM44.0352 74.7653L43.8208 74.7925L44.073 76.7766L44.2874 76.7493L44.0352 74.7653ZM45.6311 74.5618C45.0795 74.6325 44.5556 74.6991 44.0352 74.7653L44.2874 76.7493C44.8078 76.6831 45.3325 76.6164 45.8852 76.5456L45.6311 74.5618ZM44.7418 75.3987C44.7485 75.4773 44.7551 75.5541 44.7613 75.6327L46.7551 75.4748C46.7483 75.389 46.7412 75.3062 46.7345 75.2284L44.7418 75.3987ZM44.7033 74.8851C44.7129 75.0619 44.7279 75.2357 44.7418 75.3987L46.7345 75.2284C46.7201 75.06 46.708 74.9169 46.7003 74.7759L44.7033 74.8851ZM44.6483 74.182C44.6705 74.4304 44.6909 74.659 44.7033 74.8852L46.7003 74.7758C46.6857 74.5095 46.6621 74.2467 46.6404 74.004L44.6483 74.182ZM44.6478 74.176L44.6478 74.176L46.6409 74.01L46.6409 74.0099L44.6478 74.176ZM44.8166 71.2304C44.4692 72.3124 44.5749 73.3607 44.6483 74.1819L46.6404 74.0039C46.5619 73.1258 46.5162 72.4791 46.7208 71.8417L44.8166 71.2304ZM45.3826 69.0216C45.2067 69.8008 45.0416 70.5294 44.8166 71.2304L46.7209 71.8417C46.9775 71.0421 47.161 70.2264 47.3335 69.462L45.3826 69.0216ZM45.384 69.0154L45.384 69.0157L47.3322 69.468L47.3322 69.4676L45.384 69.0154ZM45.5774 68.174C45.5097 68.4585 45.4455 68.7432 45.3827 69.0213L47.3336 69.4617C47.3968 69.1817 47.4585 68.9083 47.5231 68.6369L45.5774 68.174Z"
            fill="#05761E" mask="url(#path-5-outside-1_2221_345)" />
    </g>
    <path
        d="M21.7324 20.876C20.11 20.876 18.8716 20.4248 18.0172 19.5224C17.1724 18.62 16.75 17.3384 16.75 15.6776C16.75 14.852 16.8796 14.1176 17.1388 13.4744C17.398 12.8216 17.7532 12.2744 18.2044 11.8328C18.6556 11.3816 19.1932 11.0408 19.8172 10.8104C20.4412 10.58 21.118 10.4648 21.8476 10.4648C22.27 10.4648 22.654 10.4984 22.9996 10.5656C23.3452 10.6232 23.6476 10.6952 23.9068 10.7816C24.166 10.8584 24.382 10.94 24.5548 11.0264C24.7276 11.1128 24.8524 11.18 24.9292 11.228L24.2812 13.0424C23.974 12.8792 23.614 12.74 23.2012 12.6248C22.798 12.5096 22.3372 12.452 21.8188 12.452C21.4732 12.452 21.1324 12.5096 20.7964 12.6248C20.47 12.74 20.1772 12.9272 19.918 13.1864C19.6684 13.436 19.4668 13.7624 19.3132 14.1656C19.1596 14.5688 19.0828 15.0584 19.0828 15.6344C19.0828 16.0952 19.1308 16.5272 19.2268 16.9304C19.3324 17.324 19.4956 17.6648 19.7164 17.9528C19.9468 18.2408 20.2444 18.4712 20.6092 18.644C20.974 18.8072 21.4156 18.8888 21.934 18.8888C22.2604 18.8888 22.5532 18.8696 22.8124 18.8312C23.0716 18.7928 23.302 18.7496 23.5036 18.7016C23.7052 18.644 23.8828 18.5816 24.0364 18.5144C24.19 18.4472 24.3292 18.3848 24.454 18.3272L25.0732 20.1272C24.7564 20.3192 24.31 20.492 23.734 20.6456C23.158 20.7992 22.4908 20.876 21.7324 20.876Z"
        fill="black" />
    <path
        d="M28.6905 19.1768C28.9017 19.1768 29.1033 19.172 29.2953 19.1624C29.4873 19.1528 29.6409 19.1384 29.7561 19.1192V17.492C29.6697 17.4728 29.5401 17.4536 29.3673 17.4344C29.1945 17.4152 29.0361 17.4056 28.8921 17.4056C28.6905 17.4056 28.4985 17.42 28.3161 17.4488C28.1433 17.468 27.9897 17.5112 27.8553 17.5784C27.7209 17.6456 27.6153 17.7368 27.5385 17.852C27.4617 17.9672 27.4233 18.1112 27.4233 18.284C27.4233 18.62 27.5337 18.8552 27.7545 18.9896C27.9849 19.1144 28.2969 19.1768 28.6905 19.1768ZM28.5177 12.8984C29.1513 12.8984 29.6793 12.9704 30.1017 13.1144C30.5241 13.2584 30.8601 13.4648 31.1097 13.7336C31.3689 14.0024 31.5513 14.3288 31.6569 14.7128C31.7625 15.0968 31.8153 15.524 31.8153 15.9944V20.4584C31.5081 20.5256 31.0809 20.6024 30.5337 20.6888C29.9865 20.7848 29.3241 20.8328 28.5465 20.8328C28.0569 20.8328 27.6105 20.7896 27.2073 20.7032C26.8137 20.6168 26.4729 20.4776 26.1849 20.2856C25.8969 20.084 25.6761 19.8248 25.5225 19.508C25.3689 19.1912 25.2921 18.8024 25.2921 18.3416C25.2921 17.9 25.3785 17.5256 25.5513 17.2184C25.7337 16.9112 25.9737 16.6664 26.2713 16.484C26.5689 16.3016 26.9097 16.172 27.2937 16.0952C27.6777 16.0088 28.0761 15.9656 28.4889 15.9656C28.7673 15.9656 29.0121 15.98 29.2233 16.0088C29.4441 16.028 29.6217 16.0568 29.7561 16.0952V15.8936C29.7561 15.5288 29.6457 15.236 29.4249 15.0152C29.2041 14.7944 28.8201 14.684 28.2729 14.684C27.9081 14.684 27.5481 14.7128 27.1929 14.7704C26.8377 14.8184 26.5305 14.8904 26.2713 14.9864L25.9977 13.2584C26.1225 13.22 26.2761 13.1816 26.4585 13.1432C26.6505 13.0952 26.8569 13.0568 27.0777 13.028C27.2985 12.9896 27.5289 12.9608 27.7689 12.9416C28.0185 12.9128 28.2681 12.8984 28.5177 12.8984Z"
        fill="black" />
    <path
        d="M37.6003 15.0008C37.4083 14.9528 37.1827 14.9048 36.9235 14.8568C36.6643 14.7992 36.3859 14.7704 36.0883 14.7704C35.9539 14.7704 35.7907 14.7848 35.5987 14.8136C35.4163 14.8328 35.2771 14.8568 35.1811 14.8856V20.6744H33.0355V13.5032C33.4195 13.3688 33.8707 13.244 34.3891 13.1288C34.9171 13.004 35.5027 12.9416 36.1459 12.9416C36.2611 12.9416 36.4003 12.9512 36.5635 12.9704C36.7267 12.98 36.8899 12.9992 37.0531 13.028C37.2163 13.0472 37.3795 13.076 37.5427 13.1144C37.7059 13.1432 37.8451 13.1816 37.9603 13.2296L37.6003 15.0008Z"
        fill="black" />
    <path
        d="M43.2433 16.8296C43.2433 15.4472 42.7345 14.756 41.7169 14.756C41.4961 14.756 41.2753 14.7848 41.0545 14.8424C40.8433 14.9 40.6705 14.972 40.5361 15.0584V18.9608C40.6417 18.98 40.7761 18.9992 40.9393 19.0184C41.1025 19.028 41.2801 19.0328 41.4721 19.0328C42.0577 19.0328 42.4993 18.8312 42.7969 18.428C43.0945 18.0248 43.2433 17.492 43.2433 16.8296ZM45.4321 16.8872C45.4321 17.492 45.3409 18.0392 45.1585 18.5288C44.9857 19.0184 44.7313 19.436 44.3953 19.7816C44.0593 20.1272 43.6465 20.396 43.1569 20.588C42.6673 20.7704 42.1105 20.8616 41.4865 20.8616C41.2273 20.8616 40.9537 20.8472 40.6657 20.8184C40.3873 20.7992 40.1089 20.7704 39.8305 20.732C39.5617 20.6936 39.3025 20.6504 39.0529 20.6024C38.8033 20.5448 38.5825 20.4872 38.3905 20.4296V9.8456L40.5361 9.5V13.2728C40.7761 13.1672 41.0257 13.0856 41.2849 13.028C41.5441 12.9704 41.8225 12.9416 42.1201 12.9416C42.6577 12.9416 43.1329 13.0376 43.5457 13.2296C43.9585 13.412 44.3041 13.676 44.5825 14.0216C44.8609 14.3672 45.0721 14.7848 45.2161 15.2744C45.3601 15.7544 45.4321 16.292 45.4321 16.8872Z"
        fill="black" />
    <path
        d="M53.4459 16.8728C53.4459 17.468 53.3595 18.0152 53.1867 18.5144C53.0139 19.004 52.7643 19.4264 52.4379 19.7816C52.1115 20.1272 51.7179 20.396 51.2571 20.588C50.8059 20.78 50.2971 20.876 49.7307 20.876C49.1739 20.876 48.6651 20.78 48.2043 20.588C47.7531 20.396 47.3643 20.1272 47.0379 19.7816C46.7115 19.4264 46.4571 19.004 46.2747 18.5144C46.0923 18.0152 46.0011 17.468 46.0011 16.8728C46.0011 16.2776 46.0923 15.7352 46.2747 15.2456C46.4667 14.756 46.7259 14.3384 47.0523 13.9928C47.3883 13.6472 47.7819 13.3784 48.2331 13.1864C48.6939 12.9944 49.1931 12.8984 49.7307 12.8984C50.2779 12.8984 50.7771 12.9944 51.2283 13.1864C51.6891 13.3784 52.0827 13.6472 52.4091 13.9928C52.7355 14.3384 52.9899 14.756 53.1723 15.2456C53.3547 15.7352 53.4459 16.2776 53.4459 16.8728ZM51.2571 16.8728C51.2571 16.2104 51.1227 15.692 50.8539 15.3176C50.5947 14.9336 50.2203 14.7416 49.7307 14.7416C49.2411 14.7416 48.8619 14.9336 48.5931 15.3176C48.3243 15.692 48.1899 16.2104 48.1899 16.8728C48.1899 17.5352 48.3243 18.0632 48.5931 18.4568C48.8619 18.8408 49.2411 19.0328 49.7307 19.0328C50.2203 19.0328 50.5947 18.8408 50.8539 18.4568C51.1227 18.0632 51.2571 17.5352 51.2571 16.8728Z"
        fill="black" />
    <path
        d="M54.388 13.3592C54.7528 13.2536 55.2232 13.1576 55.7992 13.0712C56.3752 12.9752 56.98 12.9272 57.6136 12.9272C58.2568 12.9272 58.7896 13.0136 59.212 13.1864C59.644 13.3496 59.9848 13.5848 60.2344 13.892C60.484 14.1992 60.6616 14.564 60.7672 14.9864C60.8728 15.4088 60.9256 15.8792 60.9256 16.3976V20.6744H58.78V16.6568C58.78 15.9656 58.6888 15.476 58.5064 15.188C58.324 14.9 57.9832 14.756 57.484 14.756C57.3304 14.756 57.1672 14.7656 56.9944 14.7848C56.8216 14.7944 56.668 14.8088 56.5336 14.828V20.6744H54.388V13.3592Z"
        fill="black" />
    <path
        d="M64.4229 20.8904C64.1637 20.8904 63.8901 20.8712 63.6021 20.8328C63.3141 20.804 63.0357 20.7608 62.7669 20.7032C62.4981 20.6456 62.2533 20.5832 62.0325 20.516C61.8117 20.4488 61.6389 20.3864 61.5141 20.3288L61.9317 18.5432C62.1813 18.6488 62.4981 18.764 62.8821 18.8888C63.2757 19.004 63.7605 19.0616 64.3365 19.0616C64.9989 19.0616 65.4837 18.9368 65.7909 18.6872C66.0981 18.4376 66.2517 18.1016 66.2517 17.6792C66.2517 17.42 66.1941 17.204 66.0789 17.0312C65.9733 16.8488 65.8245 16.7048 65.6325 16.5992C65.4405 16.484 65.2101 16.4072 64.9413 16.3688C64.6821 16.3208 64.4037 16.2968 64.1061 16.2968H63.2709V14.5688H64.2213C64.4325 14.5688 64.6341 14.5496 64.8261 14.5112C65.0277 14.4728 65.2053 14.4104 65.3589 14.324C65.5125 14.228 65.6325 14.1032 65.7189 13.9496C65.8149 13.7864 65.8629 13.5848 65.8629 13.3448C65.8629 13.1624 65.8245 13.004 65.7477 12.8696C65.6709 12.7352 65.5701 12.6248 65.4453 12.5384C65.3301 12.452 65.1909 12.3896 65.0277 12.3512C64.8741 12.3032 64.7157 12.2792 64.5525 12.2792C64.1397 12.2792 63.7557 12.3416 63.4005 12.4664C63.0549 12.5912 62.7381 12.7448 62.4501 12.9272L61.6869 11.3576C61.8405 11.2616 62.0181 11.1608 62.2197 11.0552C62.4309 10.9496 62.6613 10.8536 62.9109 10.7672C63.1605 10.6808 63.4245 10.6088 63.7029 10.5512C63.9909 10.4936 64.2933 10.4648 64.6101 10.4648C65.1957 10.4648 65.6997 10.5368 66.1221 10.6808C66.5541 10.8152 66.9093 11.012 67.1877 11.2712C67.4661 11.5208 67.6725 11.8184 67.8069 12.164C67.9413 12.5 68.0085 12.8696 68.0085 13.2728C68.0085 13.6664 67.8981 14.0504 67.6773 14.4248C67.4565 14.7896 67.1589 15.068 66.7845 15.26C67.3029 15.4712 67.7013 15.788 67.9797 16.2104C68.2677 16.6232 68.4117 17.1224 68.4117 17.708C68.4117 18.1688 68.3349 18.596 68.1813 18.9896C68.0277 19.3736 67.7877 19.7096 67.4613 19.9976C67.1349 20.276 66.7173 20.4968 66.2085 20.66C65.7093 20.8136 65.1141 20.8904 64.4229 20.8904Z"
        fill="black" />
</svg>