
<svg width="1em" viewBox="0 0 86 87" fill="none" xmlns="http://www.w3.org/2000/svg">
<path d="M1.25 18.75C1.25 9.08502 9.08502 1.25 18.75 1.25H67.25C76.915 1.25 84.75 9.08502 84.75 18.75V67.375C84.75 77.04 76.915 84.875 67.25 84.875H18.75C9.08502 84.875 1.25 77.04 1.25 67.375V18.75Z" stroke="#05761E" stroke-width="2.5"/>
<path d="M4.4375 19.375C4.4375 11.1252 11.1252 4.4375 19.375 4.4375H66.625C74.8748 4.4375 81.5625 11.1252 81.5625 19.375V66.75C81.5625 74.9998 74.8748 81.6875 66.625 81.6875H19.375C11.1252 81.6875 4.4375 74.9998 4.4375 66.75V19.375Z" stroke="#05761E" stroke-width="0.875"/>
<mask id="mask0_2248_524" style="mask-type:alpha" maskUnits="userSpaceOnUse" x="16" y="22" width="54" height="55">
<rect x="16" y="22.875" width="53.25" height="53.75" fill="#D9D9D9"/>
</mask>
<g mask="url(#mask0_2248_524)">
<circle cx="42.7089" cy="51.4145" r="24.871" stroke="#05761E"/>
<path d="M44.8902 61.9908L44.8901 61.9907C44.5761 61.5491 44.4453 61.1775 44.4373 60.8381C44.4294 60.4999 44.5419 60.1293 44.8344 59.6864C45.0498 59.3604 45.2184 59.0145 45.3739 58.669C45.4331 58.5374 45.4891 58.4092 45.5449 58.2811C45.6414 58.0601 45.7377 57.8395 45.8504 57.6023C45.924 57.4476 45.9132 57.266 45.8219 57.1211C45.7306 56.9762 45.5714 56.8881 45.4001 56.8877C44.3176 56.8849 43.7122 56.2735 42.9409 55.4944C42.8344 55.3868 42.7247 55.276 42.6101 55.1632M44.8902 61.9908L42.2592 55.5194M44.8902 61.9908C45.917 63.4351 46.3622 65.1333 46.7788 66.7227C46.8712 67.0751 46.9622 67.4221 47.0577 67.7599M44.8902 61.9908L18.3389 50.189M42.6101 55.1632L42.2592 55.5194M42.6101 55.1632C42.6101 55.1632 42.6102 55.1633 42.6102 55.1633L42.2592 55.5194M42.6101 55.1632C42.3211 54.8783 41.9247 54.6679 41.5467 54.5706L41.5457 54.5703C40.492 54.3013 39.4301 54.0709 38.3719 53.8552M42.2592 55.5194C42.0388 55.3021 41.7229 55.1322 41.422 55.0548C40.3795 54.7886 39.3264 54.5601 38.2719 54.3451M38.3719 53.8552L38.2719 54.3451M38.3719 53.8552C38.3718 53.8552 38.3718 53.8552 38.3718 53.8551L38.2719 54.3451M38.3719 53.8552C38.2742 53.8352 38.2354 53.8097 38.2161 53.7935C38.1945 53.7754 38.1598 53.7371 38.1154 53.6375L38.1148 53.6361C37.8722 53.0972 37.6124 52.5621 37.3564 52.0347C37.2557 51.8273 37.1556 51.621 37.0573 51.4162C36.9617 51.2169 36.7464 51.104 36.528 51.1387L36.5258 51.1391C36.494 51.1441 36.4563 51.1501 36.4178 51.1571C36.1801 51.2003 36.0072 51.4074 36.0072 51.6491V52.3877M38.2719 54.3451C37.9552 54.2804 37.7867 54.1278 37.6588 53.8413C37.4499 53.3773 37.2293 52.9186 37.0072 52.4605V51.6491H36.6145C36.6118 51.6435 36.6092 51.638 36.6065 51.6325C36.5734 51.6378 36.5403 51.643 36.5072 51.6491V51.6802L36.1557 51.8488C36.2584 52.0627 36.3611 52.2743 36.4632 52.4847C36.4779 52.5149 36.4926 52.5452 36.5072 52.5754V53.0452M36.0072 52.3877C36.0239 52.4107 36.0405 52.4337 36.0572 52.4568L36.0575 52.4572C36.1458 52.5797 36.1873 52.5991 36.1923 52.6012C36.1933 52.6016 36.1942 52.6019 36.1961 52.6022C36.198 52.6026 36.2032 52.6033 36.2128 52.603C36.2326 52.6025 36.2732 52.5975 36.3413 52.5735L36.5072 53.0452M36.0072 52.3877C35.548 51.7534 35.0955 51.1405 34.6445 50.5296C34.124 49.8247 33.6056 49.1225 33.0813 48.3935C33.0023 48.2826 32.9421 48.0984 32.9377 47.9406C32.9251 47.4335 32.9255 46.9249 32.9264 46.4095L32.9266 46.3385C32.9275 45.8478 32.9284 45.3506 32.9182 44.853L32.9182 44.8521C32.9111 44.5308 32.8144 44.1831 32.6481 43.9033C32.355 43.4098 32.0629 42.9381 31.7736 42.4708C31.3948 41.8588 31.0207 41.2545 30.6553 40.6194C30.5062 40.36 30.3127 40.1181 30.0149 39.9857C29.7205 39.8549 29.4109 39.8701 29.119 39.9247M36.0072 52.3877V52.4929V52.4935V53.0452H36.5072M36.5072 53.0452C36.0883 53.1925 35.8656 53.0459 35.652 52.7497C35.1879 52.1078 34.7175 51.4705 34.247 50.8331C33.72 50.1191 33.193 49.4051 32.6748 48.6847C32.5319 48.4847 32.4447 48.2012 32.4379 47.9539C32.4245 47.4158 32.4255 46.8776 32.4266 46.3393C32.4275 45.8472 32.4284 45.3551 32.4183 44.8632C32.4131 44.6256 32.3394 44.3625 32.2183 44.1587C31.9371 43.6854 31.6473 43.217 31.3575 42.7487C30.9722 42.1258 30.5869 41.5031 30.2219 40.8688L22.1369 40.4276M18.3389 50.189C18.3882 49.8309 18.4331 49.4719 18.4781 49.1129C18.5764 48.3273 18.6747 47.5419 18.8188 46.7653M18.3389 50.189V52.758V50.189ZM18.8188 46.7653L18.3271 46.6743C18.1804 47.4656 18.0789 48.2758 17.9796 49.0687C17.9351 49.424 17.891 49.7758 17.8435 50.1209C17.8404 50.1434 17.8389 50.1662 17.8389 50.189V52.758C17.8389 52.7797 17.8403 52.8014 17.8431 52.8229C17.8804 53.1078 17.9142 53.4013 17.9484 53.6993C18.0247 54.3621 18.1034 55.0471 18.2298 55.7098C19.7344 63.6252 24.0604 69.5365 31.1144 73.4029C34.1503 75.067 37.4291 75.9711 40.8789 76.2051C40.8981 76.2066 40.9266 76.2114 40.9786 76.2243C40.9888 76.2268 41.003 76.2305 41.0196 76.2348C41.0642 76.2464 41.1265 76.2625 41.1772 76.2734C41.2117 76.2808 41.2469 76.2845 41.2821 76.2845H43.9479C43.969 76.2845 43.99 76.2832 44.011 76.2806L44.2323 76.2524C44.7504 76.1865 45.2727 76.1201 45.8227 76.0497C46.0873 76.0158 46.2787 75.7802 46.2576 75.5143C46.2505 75.4247 46.2434 75.3413 46.2365 75.2615C46.2228 75.1005 46.2103 74.9544 46.202 74.8032L46.202 74.8031C46.188 74.5477 46.1652 74.2932 46.1434 74.0488C46.1409 74.0204 46.1383 73.9921 46.1358 73.9639C46.1115 73.6901 46.0895 73.4281 46.0799 73.1685C46.0608 72.6514 46.0924 72.1665 46.2458 71.6889L46.2458 71.6889C46.4939 70.9157 46.6755 70.1112 46.8512 69.3329C46.9132 69.0583 46.9744 68.7868 47.0376 68.5212C47.0771 68.3558 47.1409 68.0521 47.0577 67.7599M18.8188 46.7653C19.2606 44.3781 20.0847 42.1255 21.2304 39.9968M18.8188 46.7653L18.3271 46.6741M47.0577 67.7599C47.0577 67.7597 47.0577 67.7595 47.0576 67.7594L46.5769 67.8965L47.0579 67.7603C47.0578 67.7602 47.0578 67.76 47.0577 67.7599ZM21.2304 39.9968L18.3271 46.6741M21.2304 39.9968C21.2508 39.921 21.2889 39.8507 21.3418 39.7919C21.4189 39.6519 21.4973 39.5124 21.577 39.3734C21.6462 39.2539 21.7944 39.1404 21.9276 39.1028C22.0535 39.0677 22.1801 39.0356 22.3081 39.0065C22.5359 38.8232 22.7617 38.6415 22.9872 38.4604L23.3003 38.8502L23.3444 39.3482C23.0627 39.3732 22.7934 39.4143 22.5299 39.4698C22.5065 39.4886 22.4832 39.5074 22.4597 39.5262C22.3459 39.6178 22.2315 39.7099 22.1162 39.8027C22.2645 39.9109 22.4069 40.0095 22.5473 40.0976M21.2304 39.9968L18.3271 46.6741M18.3271 46.6741C18.8235 43.9921 19.7911 41.4799 21.1434 39.1245L21.1443 39.1229C21.2802 38.8882 21.5363 38.6937 21.7917 38.6216L21.7934 38.6211C22.26 38.4912 22.7392 38.3979 23.2562 38.3521C23.4756 38.3327 23.6819 38.4592 23.7642 38.6635C23.8464 38.8679 23.7852 39.102 23.6134 39.24C23.3341 39.4644 23.0558 39.6884 22.7736 39.9154C22.6985 39.9759 22.6231 40.0366 22.5473 40.0976M22.5473 40.0976C22.4119 40.2065 22.2753 40.3164 22.1369 40.4276M22.5473 40.0976C23.0346 40.4033 23.4964 40.5808 24.089 40.5831M22.1369 40.4276C22.7192 40.8156 23.3068 41.08 24.0871 41.0831M22.1369 40.4276L24.0871 41.0831M24.089 40.5831C25.6112 40.5883 27.081 40.3101 28.6085 40.021C28.7779 39.9889 28.948 39.9567 29.119 39.9247M24.089 40.5831L24.0871 41.0831M24.089 40.5831C24.089 40.5831 24.0889 40.5831 24.0888 40.5831L24.0871 41.0831M29.119 39.9247C29.1191 39.9247 29.1191 39.9247 29.1191 39.9247L29.211 40.4162L29.119 39.9247Z" stroke="#05761E" stroke-linejoin="round"/>
<path d="M57.0199 39.6084C57.0377 39.5809 57.0553 39.5537 57.0727 39.5268C57.29 39.1911 57.4782 38.9003 57.6521 38.5926L57.6524 38.5919C57.7644 38.3944 57.9101 38.2178 58.1142 38.0905C58.3175 37.9637 58.5399 37.9102 58.7656 37.8947C59.5348 37.8408 60.3007 37.7702 61.0731 37.699C61.3737 37.6712 61.6754 37.6434 61.9786 37.6165L61.9802 37.6163C62.0236 37.6126 62.054 37.6105 62.0771 37.6089C62.1162 37.6061 62.1342 37.6049 62.1592 37.5998L62.1776 37.5959C62.3425 37.5615 62.5014 37.5283 62.6364 37.5143C62.7839 37.499 62.965 37.4985 63.1499 37.5795C63.333 37.6599 63.456 37.7924 63.5458 37.9094C63.629 38.0178 63.716 38.1573 63.8076 38.3044L63.8191 38.3229L63.8192 38.3229C66.0083 41.8351 67.2325 45.6601 67.5087 49.7869M67.5087 49.7869C67.5087 49.7867 67.5087 49.7865 67.5087 49.7863L67.0099 49.8203L67.5087 49.7869Z" stroke="#05761E" stroke-linejoin="round"/>
<path d="M39.7342 33.3708C39.8929 33.1539 40.0352 32.925 40.1776 32.6961C40.3199 32.4671 40.4623 32.2382 40.621 32.0213C40.712 31.8965 40.9422 31.8018 41.1016 31.8108M39.7342 33.3708L46.6302 31.6379C46.4728 31.6556 46.3153 31.6736 46.1578 31.6916C45.1019 31.8122 44.0456 31.9329 42.9859 31.9852C42.6088 32.0034 42.229 31.9498 41.8485 31.8962C41.5997 31.8611 41.3505 31.8259 41.1016 31.8108M39.7342 33.3708C39.6213 33.5242 39.3979 33.6708 39.2144 33.6851L39.7342 33.3708ZM41.1016 31.8108L41.0734 32.31C41.0811 32.3104 41.0848 32.31 41.0841 32.3101C41.0838 32.3101 41.0828 32.3102 41.0811 32.3105M41.1016 31.8108L41.0712 32.3099C41.0745 32.3101 41.0778 32.3103 41.0811 32.3105M46.9869 26.9538C49.1155 27.3216 51.1589 27.9666 53.1132 28.8815C53.3031 28.9703 53.4173 29.1682 53.3994 29.377L53.3859 29.5349C53.3629 29.8027 53.1324 30.0044 52.864 29.9916C52.7206 29.9848 52.5919 29.9863 52.4491 29.988C52.3541 29.9891 52.2528 29.9903 52.1367 29.9892C51.8752 29.9866 51.577 29.9703 51.2813 29.8857C50.7824 29.7432 50.3475 29.717 49.9605 29.798C49.5774 29.8783 49.2091 30.0704 48.8497 30.4157C48.6853 30.5738 48.5157 30.7419 48.3429 30.9131C48.0618 31.1917 47.7724 31.4785 47.4837 31.7437L47.4825 31.7448C47.3018 31.9098 47.0109 32.0982 46.6863 32.1347L38.6613 26.8993L38.7443 27.3924L38.6614 26.8993C40.5279 26.5852 41.213 26.5416 43.0938 26.5416C44.6424 26.5416 45.8838 26.76 46.7571 26.9136C46.8368 26.9276 46.9134 26.9411 46.9869 26.9538ZM46.9869 26.9538L46.9018 27.4465L46.987 26.9538C46.987 26.9538 46.9869 26.9538 46.9869 26.9538ZM41.0811 32.3105C41.0796 32.3107 41.0776 32.3111 41.0751 32.3116C41.0636 32.314 41.0486 32.3186 41.0329 32.3253C41.023 32.3296 41.0152 32.3337 41.0097 32.3369M41.0811 32.3105C41.3049 32.3246 41.5258 32.3557 41.768 32.3898C41.8364 32.3995 41.9065 32.4093 41.9789 32.4191C42.2978 32.4623 42.6497 32.502 43.01 32.4846L43.0105 32.4846C44.0876 32.4314 45.1613 32.3087 46.2159 32.1882C46.3731 32.1703 46.5298 32.1524 46.6861 32.1347L41.0097 32.3369M41.0097 32.3369C40.8698 32.5302 40.7413 32.7363 40.6022 32.9601L40.5977 32.9673C40.4583 33.1915 40.3076 33.4339 40.1377 33.6661L40.1369 33.6671C40.0368 33.8033 39.9021 33.9195 39.7643 34.005C39.6298 34.0884 39.4507 34.1682 39.2532 34.1836L39.2527 34.1836C39.0935 34.1958 38.9327 34.2089 38.7705 34.2221C37.906 34.2926 37.0023 34.3662 36.1066 34.3274L36.1062 34.3274C35.5364 34.3023 34.9536 34.1151 34.4561 33.9553C34.3171 33.9106 34.1847 33.868 34.0611 33.8318L41.0097 32.3369ZM43.201 30.3974C43.3147 30.4665 43.358 30.4739 43.3681 30.4742L43.3693 30.4742C44.1305 30.4945 44.8224 30.4957 45.3322 30.2572C45.6887 30.09 46.0264 29.85 46.3857 29.563C46.5134 29.4609 46.6508 29.347 46.7933 29.2287C46.8418 29.1884 46.8909 29.1477 46.9404 29.1068C46.6939 28.9628 46.4607 28.8285 46.2239 28.6999C45.5182 29.091 44.8109 29.4884 44.0863 29.8976C44.0079 29.9627 43.8958 30.0397 43.7555 30.0838C43.5719 30.1878 43.3873 30.2921 43.201 30.3974ZM52.1286 28.989C52.1346 28.9891 52.1405 28.9892 52.1465 28.9892C52.2176 28.9899 52.3006 28.9891 52.3892 28.9883C52.5575 28.9867 52.746 28.9849 52.9114 28.9928L52.8953 29.3315C52.6413 29.2127 52.3857 29.0985 52.1286 28.989ZM52.8284 29.4898L52.6892 29.7872C52.4676 29.6834 52.2448 29.5833 52.0208 29.4868C52.153 29.4909 52.2868 29.4896 52.4206 29.4882C52.5571 29.4867 52.6936 29.4853 52.8284 29.4898ZM36.3403 31.4001L36.3414 31.3998L36.3403 31.4001ZM36.4405 31.3746C37.2418 31.1706 38.0414 30.9582 38.8597 30.7408C38.8783 30.7359 38.8969 30.7309 38.9155 30.726C38.8302 30.5804 38.7482 30.434 38.6762 30.2878C37.9884 30.599 37.2383 30.6911 36.4995 30.3218C36.303 30.474 36.1073 30.6255 35.9091 30.7789C35.8386 30.8335 35.7677 30.8883 35.6965 30.9435C35.9381 31.0859 36.1716 31.2225 36.4075 31.3565L36.3899 31.3875C36.4068 31.3832 36.4236 31.3789 36.4405 31.3746Z" stroke="#05761E" stroke-linejoin="round"/>
</g>
<path d="M21.7324 20.876C20.11 20.876 18.8716 20.4248 18.0172 19.5224C17.1724 18.62 16.75 17.3384 16.75 15.6776C16.75 14.852 16.8796 14.1176 17.1388 13.4744C17.398 12.8216 17.7532 12.2744 18.2044 11.8328C18.6556 11.3816 19.1932 11.0408 19.8172 10.8104C20.4412 10.58 21.118 10.4648 21.8476 10.4648C22.27 10.4648 22.654 10.4984 22.9996 10.5656C23.3452 10.6232 23.6476 10.6952 23.9068 10.7816C24.166 10.8584 24.382 10.94 24.5548 11.0264C24.7276 11.1128 24.8524 11.18 24.9292 11.228L24.2812 13.0424C23.974 12.8792 23.614 12.74 23.2012 12.6248C22.798 12.5096 22.3372 12.452 21.8188 12.452C21.4732 12.452 21.1324 12.5096 20.7964 12.6248C20.47 12.74 20.1772 12.9272 19.918 13.1864C19.6684 13.436 19.4668 13.7624 19.3132 14.1656C19.1596 14.5688 19.0828 15.0584 19.0828 15.6344C19.0828 16.0952 19.1308 16.5272 19.2268 16.9304C19.3324 17.324 19.4956 17.6648 19.7164 17.9528C19.9468 18.2408 20.2444 18.4712 20.6092 18.644C20.974 18.8072 21.4156 18.8888 21.934 18.8888C22.2604 18.8888 22.5532 18.8696 22.8124 18.8312C23.0716 18.7928 23.302 18.7496 23.5036 18.7016C23.7052 18.644 23.8828 18.5816 24.0364 18.5144C24.19 18.4472 24.3292 18.3848 24.454 18.3272L25.0732 20.1272C24.7564 20.3192 24.31 20.492 23.734 20.6456C23.158 20.7992 22.4908 20.876 21.7324 20.876Z" fill="black"/>
<path d="M28.6905 19.1768C28.9017 19.1768 29.1033 19.172 29.2953 19.1624C29.4873 19.1528 29.6409 19.1384 29.7561 19.1192V17.492C29.6697 17.4728 29.5401 17.4536 29.3673 17.4344C29.1945 17.4152 29.0361 17.4056 28.8921 17.4056C28.6905 17.4056 28.4985 17.42 28.3161 17.4488C28.1433 17.468 27.9897 17.5112 27.8553 17.5784C27.7209 17.6456 27.6153 17.7368 27.5385 17.852C27.4617 17.9672 27.4233 18.1112 27.4233 18.284C27.4233 18.62 27.5337 18.8552 27.7545 18.9896C27.9849 19.1144 28.2969 19.1768 28.6905 19.1768ZM28.5177 12.8984C29.1513 12.8984 29.6793 12.9704 30.1017 13.1144C30.5241 13.2584 30.8601 13.4648 31.1097 13.7336C31.3689 14.0024 31.5513 14.3288 31.6569 14.7128C31.7625 15.0968 31.8153 15.524 31.8153 15.9944V20.4584C31.5081 20.5256 31.0809 20.6024 30.5337 20.6888C29.9865 20.7848 29.3241 20.8328 28.5465 20.8328C28.0569 20.8328 27.6105 20.7896 27.2073 20.7032C26.8137 20.6168 26.4729 20.4776 26.1849 20.2856C25.8969 20.084 25.6761 19.8248 25.5225 19.508C25.3689 19.1912 25.2921 18.8024 25.2921 18.3416C25.2921 17.9 25.3785 17.5256 25.5513 17.2184C25.7337 16.9112 25.9737 16.6664 26.2713 16.484C26.5689 16.3016 26.9097 16.172 27.2937 16.0952C27.6777 16.0088 28.0761 15.9656 28.4889 15.9656C28.7673 15.9656 29.0121 15.98 29.2233 16.0088C29.4441 16.028 29.6217 16.0568 29.7561 16.0952V15.8936C29.7561 15.5288 29.6457 15.236 29.4249 15.0152C29.2041 14.7944 28.8201 14.684 28.2729 14.684C27.9081 14.684 27.5481 14.7128 27.1929 14.7704C26.8377 14.8184 26.5305 14.8904 26.2713 14.9864L25.9977 13.2584C26.1225 13.22 26.2761 13.1816 26.4585 13.1432C26.6505 13.0952 26.8569 13.0568 27.0777 13.028C27.2985 12.9896 27.5289 12.9608 27.7689 12.9416C28.0185 12.9128 28.2681 12.8984 28.5177 12.8984Z" fill="black"/>
<path d="M37.6003 15.0008C37.4083 14.9528 37.1827 14.9048 36.9235 14.8568C36.6643 14.7992 36.3859 14.7704 36.0883 14.7704C35.9539 14.7704 35.7907 14.7848 35.5987 14.8136C35.4163 14.8328 35.2771 14.8568 35.1811 14.8856V20.6744H33.0355V13.5032C33.4195 13.3688 33.8707 13.244 34.3891 13.1288C34.9171 13.004 35.5027 12.9416 36.1459 12.9416C36.2611 12.9416 36.4003 12.9512 36.5635 12.9704C36.7267 12.98 36.8899 12.9992 37.0531 13.028C37.2163 13.0472 37.3795 13.076 37.5427 13.1144C37.7059 13.1432 37.8451 13.1816 37.9603 13.2296L37.6003 15.0008Z" fill="black"/>
<path d="M43.2433 16.8296C43.2433 15.4472 42.7345 14.756 41.7169 14.756C41.4961 14.756 41.2753 14.7848 41.0545 14.8424C40.8433 14.9 40.6705 14.972 40.5361 15.0584V18.9608C40.6417 18.98 40.7761 18.9992 40.9393 19.0184C41.1025 19.028 41.2801 19.0328 41.4721 19.0328C42.0577 19.0328 42.4993 18.8312 42.7969 18.428C43.0945 18.0248 43.2433 17.492 43.2433 16.8296ZM45.4321 16.8872C45.4321 17.492 45.3409 18.0392 45.1585 18.5288C44.9857 19.0184 44.7313 19.436 44.3953 19.7816C44.0593 20.1272 43.6465 20.396 43.1569 20.588C42.6673 20.7704 42.1105 20.8616 41.4865 20.8616C41.2273 20.8616 40.9537 20.8472 40.6657 20.8184C40.3873 20.7992 40.1089 20.7704 39.8305 20.732C39.5617 20.6936 39.3025 20.6504 39.0529 20.6024C38.8033 20.5448 38.5825 20.4872 38.3905 20.4296V9.8456L40.5361 9.5V13.2728C40.7761 13.1672 41.0257 13.0856 41.2849 13.028C41.5441 12.9704 41.8225 12.9416 42.1201 12.9416C42.6577 12.9416 43.1329 13.0376 43.5457 13.2296C43.9585 13.412 44.3041 13.676 44.5825 14.0216C44.8609 14.3672 45.0721 14.7848 45.2161 15.2744C45.3601 15.7544 45.4321 16.292 45.4321 16.8872Z" fill="black"/>
<path d="M53.4459 16.8728C53.4459 17.468 53.3595 18.0152 53.1867 18.5144C53.0139 19.004 52.7643 19.4264 52.4379 19.7816C52.1115 20.1272 51.7179 20.396 51.2571 20.588C50.8059 20.78 50.2971 20.876 49.7307 20.876C49.1739 20.876 48.6651 20.78 48.2043 20.588C47.7531 20.396 47.3643 20.1272 47.0379 19.7816C46.7115 19.4264 46.4571 19.004 46.2747 18.5144C46.0923 18.0152 46.0011 17.468 46.0011 16.8728C46.0011 16.2776 46.0923 15.7352 46.2747 15.2456C46.4667 14.756 46.7259 14.3384 47.0523 13.9928C47.3883 13.6472 47.7819 13.3784 48.2331 13.1864C48.6939 12.9944 49.1931 12.8984 49.7307 12.8984C50.2779 12.8984 50.7771 12.9944 51.2283 13.1864C51.6891 13.3784 52.0827 13.6472 52.4091 13.9928C52.7355 14.3384 52.9899 14.756 53.1723 15.2456C53.3547 15.7352 53.4459 16.2776 53.4459 16.8728ZM51.2571 16.8728C51.2571 16.2104 51.1227 15.692 50.8539 15.3176C50.5947 14.9336 50.2203 14.7416 49.7307 14.7416C49.2411 14.7416 48.8619 14.9336 48.5931 15.3176C48.3243 15.692 48.1899 16.2104 48.1899 16.8728C48.1899 17.5352 48.3243 18.0632 48.5931 18.4568C48.8619 18.8408 49.2411 19.0328 49.7307 19.0328C50.2203 19.0328 50.5947 18.8408 50.8539 18.4568C51.1227 18.0632 51.2571 17.5352 51.2571 16.8728Z" fill="black"/>
<path d="M54.388 13.3592C54.7528 13.2536 55.2232 13.1576 55.7992 13.0712C56.3752 12.9752 56.98 12.9272 57.6136 12.9272C58.2568 12.9272 58.7896 13.0136 59.212 13.1864C59.644 13.3496 59.9848 13.5848 60.2344 13.892C60.484 14.1992 60.6616 14.564 60.7672 14.9864C60.8728 15.4088 60.9256 15.8792 60.9256 16.3976V20.6744H58.78V16.6568C58.78 15.9656 58.6888 15.476 58.5064 15.188C58.324 14.9 57.9832 14.756 57.484 14.756C57.3304 14.756 57.1672 14.7656 56.9944 14.7848C56.8216 14.7944 56.668 14.8088 56.5336 14.828V20.6744H54.388V13.3592Z" fill="black"/>
<path d="M64.4229 20.8904C64.1637 20.8904 63.8901 20.8712 63.6021 20.8328C63.3141 20.804 63.0357 20.7608 62.7669 20.7032C62.4981 20.6456 62.2533 20.5832 62.0325 20.516C61.8117 20.4488 61.6389 20.3864 61.5141 20.3288L61.9317 18.5432C62.1813 18.6488 62.4981 18.764 62.8821 18.8888C63.2757 19.004 63.7605 19.0616 64.3365 19.0616C64.9989 19.0616 65.4837 18.9368 65.7909 18.6872C66.0981 18.4376 66.2517 18.1016 66.2517 17.6792C66.2517 17.42 66.1941 17.204 66.0789 17.0312C65.9733 16.8488 65.8245 16.7048 65.6325 16.5992C65.4405 16.484 65.2101 16.4072 64.9413 16.3688C64.6821 16.3208 64.4037 16.2968 64.1061 16.2968H63.2709V14.5688H64.2213C64.4325 14.5688 64.6341 14.5496 64.8261 14.5112C65.0277 14.4728 65.2053 14.4104 65.3589 14.324C65.5125 14.228 65.6325 14.1032 65.7189 13.9496C65.8149 13.7864 65.8629 13.5848 65.8629 13.3448C65.8629 13.1624 65.8245 13.004 65.7477 12.8696C65.6709 12.7352 65.5701 12.6248 65.4453 12.5384C65.3301 12.452 65.1909 12.3896 65.0277 12.3512C64.8741 12.3032 64.7157 12.2792 64.5525 12.2792C64.1397 12.2792 63.7557 12.3416 63.4005 12.4664C63.0549 12.5912 62.7381 12.7448 62.4501 12.9272L61.6869 11.3576C61.8405 11.2616 62.0181 11.1608 62.2197 11.0552C62.4309 10.9496 62.6613 10.8536 62.9109 10.7672C63.1605 10.6808 63.4245 10.6088 63.7029 10.5512C63.9909 10.4936 64.2933 10.4648 64.6101 10.4648C65.1957 10.4648 65.6997 10.5368 66.1221 10.6808C66.5541 10.8152 66.9093 11.012 67.1877 11.2712C67.4661 11.5208 67.6725 11.8184 67.8069 12.164C67.9413 12.5 68.0085 12.8696 68.0085 13.2728C68.0085 13.6664 67.8981 14.0504 67.6773 14.4248C67.4565 14.7896 67.1589 15.068 66.7845 15.26C67.3029 15.4712 67.7013 15.788 67.9797 16.2104C68.2677 16.6232 68.4117 17.1224 68.4117 17.708C68.4117 18.1688 68.3349 18.596 68.1813 18.9896C68.0277 19.3736 67.7877 19.7096 67.4613 19.9976C67.1349 20.276 66.7173 20.4968 66.2085 20.66C65.7093 20.8136 65.1141 20.8904 64.4229 20.8904Z" fill="black"/>
</svg>
