<svg xmlns="http://www.w3.org/2000/svg" width="156" height="156" viewBox="0 0 156 156" fill="none">
  <g clip-path="url(#clip0_21883_2662)">
    <path d="M78.0233 2.31775C36.2511 2.31775 2.36133 36.192 2.36133 78C2.36133 119.808 36.2066 153.682 77.9788 153.682C119.751 153.682 153.596 119.808 153.596 78C153.596 36.192 119.796 2.31775 78.0233 2.31775ZM78.0233 133.135C47.6071 133.135 22.9357 108.442 22.9357 78C22.9357 47.5578 47.6071 22.8652 78.0233 22.8652C108.44 22.8652 133.111 47.5578 133.111 78C133.066 108.442 108.44 133.135 78.0233 133.135Z" fill="#D2DFB0"/>
    <path d="M78.0238 128.811C106.062 128.811 128.792 106.062 128.792 78C128.792 49.9377 106.062 27.1886 78.0238 27.1886C49.9854 27.1886 27.2559 49.9377 27.2559 78C27.2559 106.062 49.9854 128.811 78.0238 128.811Z" fill="#8BB835"/>
    <path d="M78.023 156C35.0485 156 0.0898438 121.011 0.0898438 78C0.0898438 34.9886 35.0039 0 78.023 0C121.042 0 155.956 34.9886 155.956 78C155.956 121.011 120.998 156 78.023 156ZM78.023 0.445714C35.2711 0.445714 0.535176 35.256 0.535176 78C0.535176 120.789 35.3157 155.554 78.023 155.554C120.775 155.554 155.511 120.744 155.511 78C155.511 35.256 120.73 0.445714 78.023 0.445714Z" fill="#D2DFB0"/>
    <path d="M78.0237 126.85C51.1256 126.85 29.2598 104.966 29.2598 78.0446C29.2598 51.1235 51.1256 29.1943 78.0237 29.1943C104.922 29.1943 126.788 51.0789 126.788 78C126.788 104.921 104.877 126.85 78.0237 126.85ZM78.0237 29.6401C51.3928 29.6401 29.7051 51.3463 29.7051 78C29.7051 104.654 51.3928 126.36 78.0237 126.36C104.655 126.36 126.342 104.654 126.342 78C126.342 51.3463 104.655 29.6401 78.0237 29.6401Z" fill="white"/>
    <path d="M47.3392 72.5623C43.4202 77.5989 41.1045 85.4435 43.7765 91.3269C46.404 97.2995 50.1002 99.5726 53.6629 104.253C55.4887 106.659 56.7357 109.378 57.9381 112.097C59.3186 115.173 60.4765 118.248 63.5047 120.12C67.1119 122.393 72.0996 122.215 75.7068 119.763C79.7148 117.045 81.3626 111.874 79.893 107.551C79.314 105.902 78.3343 104.386 76.9538 103.227C74.7716 101.355 72.1887 100.107 70.1847 98.0126C68.6706 96.4972 67.4237 94.7143 66.6666 92.7086C65.9986 90.9703 65.5978 88.9646 66.0431 87.0926C66.0431 87.0926 67.6018 80.4069 67.6909 76.8858C67.8245 73.3646 66.8893 69.3978 63.6829 67.4366C58.2498 64.0492 50.9018 68.0161 47.3392 72.5623Z" fill="white"/>
    <path d="M41.1928 82.5463C41.8163 81.4766 41.2819 80.0503 39.9904 79.4263C38.7435 78.8023 37.2294 79.1589 36.6059 80.2286C35.9824 81.2983 36.5168 82.7246 37.8083 83.3486C39.0552 84.0172 40.5694 83.616 41.1928 82.5463Z" fill="white"/>
    <path d="M43.286 76.7075C43.954 75.6378 43.2414 74.0778 41.6828 73.1863C40.1241 72.2949 38.3428 72.4286 37.7193 73.4983C37.0513 74.568 37.7639 76.128 39.3225 77.0195C40.8367 77.9109 42.618 77.7772 43.286 76.7075Z" fill="white"/>
    <path d="M46.0023 71.7155C47.1156 70.6903 46.8484 68.6401 45.4233 67.0801C43.9983 65.5201 41.9052 65.0743 40.7473 66.0995C39.634 67.1246 39.9012 69.1749 41.3263 70.7349C42.7959 72.2949 44.8889 72.6961 46.0023 71.7155Z" fill="white"/>
    <path d="M51.8368 66.8571C53.44 65.8765 53.7517 63.5143 52.5493 61.5977C51.3469 59.6811 49.0757 58.9234 47.4725 59.904C45.8694 60.8845 45.5576 63.2468 46.76 65.1634C47.9624 67.1245 50.2336 67.8823 51.8368 66.8571Z" fill="white"/>
    <path d="M57.7143 54.0652C55.4431 54.6892 54.1516 57.408 54.8642 60.1715C55.5767 62.9349 57.9815 64.7177 60.2527 64.0937C62.5239 63.4697 63.8153 60.7509 63.1028 57.9875C62.3903 55.224 59.9855 53.4857 57.7143 54.0652Z" fill="white"/>
    <path d="M75.5285 119.897C62.9256 105.501 48.6304 89.1874 57.2699 70.512L57.6706 70.6903C49.1648 89.0537 63.3264 105.278 75.8402 119.541L75.7066 119.719L75.5285 119.897Z" fill="#8BB835"/>
    <path d="M56.7349 92.3074C48.7189 90.5245 45.2008 85.3988 45.1562 85.3097L45.5125 85.0422C45.557 85.0868 48.9861 90.1234 56.7794 91.8171L56.7349 92.3074Z" fill="#8BB835"/>
    <path d="M59.9406 99.0822L59.6289 98.7702C59.6734 98.7256 63.4142 94.6696 63.5033 87.5828H63.9486C63.8596 94.8925 59.9852 99.0376 59.9406 99.0822Z" fill="#8BB835"/>
    <path d="M68.9375 112.677C62.124 112.677 59.452 109.601 59.3184 109.467L59.6746 109.2C59.7192 109.245 62.4357 112.409 69.4274 112.231V112.677C69.2493 112.677 69.0711 112.677 68.9375 112.677Z" fill="#8BB835"/>
    <path d="M55.3535 77.4651V77.0193C55.398 77.0193 60.7866 76.7519 63.6812 73.4091L64.0375 73.7211C60.9202 77.1976 55.5762 77.4651 55.3535 77.4651Z" fill="#8BB835"/>
    <path d="M50.0102 89.3657L49.6094 89.1428C49.6539 89.0982 51.8361 84.8639 49.1641 78.6685L49.5649 78.4902C52.3705 84.8639 50.0993 89.1874 50.0102 89.3657Z" fill="#8BB835"/>
    <path d="M104.118 52.9062C108.571 57.4971 111.733 65.0297 109.729 71.136C107.77 77.3314 104.341 80.0502 101.312 85.0868C99.7538 87.672 98.8631 90.5245 97.9279 93.3771C96.8591 96.5862 96.0575 99.7508 93.2519 101.979C89.9119 104.654 84.9687 105.01 81.0498 102.96C76.7746 100.687 74.5479 95.784 75.5277 91.2822C75.9285 89.544 76.7301 87.984 77.977 86.6914C79.9365 84.5965 82.3412 83.0365 84.1226 80.7634C85.4586 79.0697 86.4828 77.1531 87.0618 75.1028C87.5516 73.32 87.6852 71.2697 87.0618 69.4422C87.0618 69.4422 84.7906 62.9794 84.3007 59.5028C83.7663 56.0262 84.2562 51.9702 87.2399 49.6525C92.3167 45.6857 100.065 48.7611 104.118 52.9062Z" fill="white"/>
    <path d="M111.332 62.1325C110.619 61.1074 110.976 59.6811 112.178 58.9234C113.38 58.1657 114.894 58.344 115.607 59.3691C116.32 60.3943 115.963 61.8205 114.761 62.5783C113.603 63.336 112.044 63.1577 111.332 62.1325Z" fill="white"/>
    <path d="M108.615 56.6057C107.858 55.6251 108.393 53.976 109.818 52.9508C111.243 51.9257 113.024 51.8365 113.826 52.8171C114.583 53.7977 114.048 55.4468 112.623 56.472C111.154 57.4971 109.372 57.5417 108.615 56.6057Z" fill="white"/>
    <path d="M105.365 51.9256C104.118 51.0342 104.163 48.9839 105.454 47.2902C106.701 45.5965 108.75 44.9279 109.952 45.8194C111.199 46.7108 111.154 48.7611 109.863 50.4548C108.616 52.1039 106.567 52.7725 105.365 51.9256Z" fill="white"/>
    <path d="M98.9967 47.736C97.3044 46.9337 96.7255 44.616 97.7052 42.5657C98.685 40.5154 100.867 39.5348 102.559 40.3371C104.252 41.1394 104.831 43.4571 103.851 45.5074C102.916 47.5577 100.734 48.5383 98.9967 47.736Z" fill="white"/>
    <path d="M91.7824 35.6571C94.0981 36.0137 95.7013 38.5988 95.3005 41.4068C94.8997 44.2594 92.7176 46.2651 90.4019 45.9085C88.0861 45.552 86.4829 42.9668 86.8837 40.1588C87.24 37.3508 89.4667 35.3451 91.7824 35.6571Z" fill="white"/>
    <path d="M81.4067 103.227L81.0059 103.005C91.872 87.4045 104.163 69.7543 93.6978 52.416L94.0986 52.1931C104.742 69.7543 92.3173 87.5383 81.4067 103.227Z" fill="#8BB835"/>
    <path d="M97.0379 73.7211L96.9043 73.32C104.519 70.7348 107.325 65.3862 107.37 65.3417L107.77 65.5645C107.726 65.5645 104.831 71.0914 97.0379 73.7211Z" fill="#8BB835"/>
    <path d="M94.5893 80.808C94.5448 80.7634 90.225 77.064 89.3789 69.8434L89.8242 69.7988C90.6704 76.8411 94.8565 80.4514 94.901 80.496L94.5893 80.808Z" fill="#8BB835"/>
    <path d="M86.6617 95.3828L86.6172 94.9371C93.5644 94.3131 95.9692 90.8811 96.0137 90.8365L96.37 91.104C96.2809 91.2377 93.8316 94.7588 86.6617 95.3828Z" fill="#8BB835"/>
    <path d="M96.1476 58.8342C94.589 58.8342 90.5365 58.5668 87.7754 56.0708L88.0871 55.7588C91.3826 58.7451 96.7266 58.3885 96.7711 58.3885L96.8156 58.8342C96.7266 58.8342 96.5039 58.8342 96.1476 58.8342Z" fill="#8BB835"/>
    <path d="M103.406 70.0217C103.272 69.8434 100.556 65.8319 102.649 59.1908L103.094 59.3245C101.09 65.7874 103.762 69.7542 103.807 69.7988L103.406 70.0217Z" fill="#8BB835"/>
    <path d="M16.8787 62.2217C23.2024 68.5508 22.8907 79.1143 22.8907 79.1143C22.8907 79.1143 12.3363 79.4263 6.01255 73.0971C-0.311175 66.768 0.000557542 56.2045 0.000557542 56.2045C0.000557542 56.2045 10.5549 55.8925 16.8787 62.2217Z" fill="#8BB835"/>
    <path d="M1.65083 57.4931L1.33594 57.8082L21.4577 77.9472L21.7726 77.6321L1.65083 57.4931Z" fill="#6A9223"/>
    <path d="M8.23968 64.1383H3.25195V64.584H8.23968V64.1383Z" fill="#6A9223"/>
    <path d="M18.7045 74.6125H13.7168V75.0583H18.7045V74.6125Z" fill="#6A9223"/>
    <path d="M14.2511 70.1554H6.10156V70.6011H14.2511V70.1554Z" fill="#6A9223"/>
    <path d="M11.2676 60.1268H10.8223V67.2137H11.2676V60.1268Z" fill="#6A9223"/>
    <path d="M16.3887 65.2526H15.9434V72.3394H16.3887V65.2526Z" fill="#6A9223"/>
    <path d="M6.01255 85.176C12.3363 78.8469 22.8907 79.1589 22.8907 79.1589C22.8907 79.1589 23.2024 89.7223 16.8787 96.0515C10.5549 102.381 0.000557542 102.069 0.000557542 102.069C0.000557542 102.069 -0.311175 91.5052 6.01255 85.176Z" fill="#8BB835"/>
    <path d="M21.4518 80.2637L1.33008 100.406L1.64502 100.721L21.7668 80.5788L21.4518 80.2637Z" fill="#6A9223"/>
    <path d="M8.37307 93.8674H7.92773V98.8594H8.37307V93.8674Z" fill="#6A9223"/>
    <path d="M18.8379 83.3932H18.3926V88.3852H18.8379V83.3932Z" fill="#6A9223"/>
    <path d="M14.3848 87.8503H13.9395V96.0069H14.3848V87.8503Z" fill="#6A9223"/>
    <path d="M11.0007 90.792H3.91992V91.2377H11.0007V90.792Z" fill="#6A9223"/>
    <path d="M16.1667 85.6663H9.08594V86.112H16.1667V85.6663Z" fill="#6A9223"/>
    <path d="M139.122 96.0515C132.798 89.7223 133.11 79.1589 133.11 79.1589C133.11 79.1589 143.664 78.8469 149.988 85.176C156.312 91.5052 156 102.069 156 102.069C156 102.069 145.446 102.381 139.122 96.0515Z" fill="#8BB835"/>
    <path d="M134.524 80.2892L134.209 80.6044L154.331 100.743L154.646 100.428L134.524 80.2892Z" fill="#6A9223"/>
    <path d="M152.794 93.6892H147.807V94.1349H152.794V93.6892Z" fill="#6A9223"/>
    <path d="M142.328 83.2148H137.34V83.6606H142.328V83.2148Z" fill="#6A9223"/>
    <path d="M149.943 87.672H141.793V88.1177H149.943V87.672Z" fill="#6A9223"/>
    <path d="M145.178 91.0594H144.732V98.1463H145.178V91.0594Z" fill="#6A9223"/>
    <path d="M140.057 85.9337H139.611V93.0206H140.057V85.9337Z" fill="#6A9223"/>
    <path d="M149.988 73.0971C143.664 79.4263 133.11 79.1143 133.11 79.1143C133.11 79.1143 132.798 68.5508 139.122 62.2217C145.446 55.8925 156 56.2045 156 56.2045C156 56.2045 156.312 66.768 149.988 73.0971Z" fill="#8BB835"/>
    <path d="M154.354 57.5174L134.232 77.6593L134.547 77.9745L154.669 57.8326L154.354 57.5174Z" fill="#6A9223"/>
    <path d="M148.072 59.4137H147.627V64.4057H148.072V59.4137Z" fill="#6A9223"/>
    <path d="M137.607 69.8879H137.162V74.8799H137.607V69.8879Z" fill="#6A9223"/>
    <path d="M142.061 62.2662H141.615V70.4228H142.061V62.2662Z" fill="#6A9223"/>
    <path d="M152.081 67.0354H145V67.4811H152.081V67.0354Z" fill="#6A9223"/>
    <path d="M146.96 72.1611H139.879V72.6068H146.96V72.1611Z" fill="#6A9223"/>
  </g>
  <defs>
    <clipPath id="clip0_21883_2662">
      <rect width="156" height="156" fill="white"/>
    </clipPath>
  </defs>
</svg>