<svg width="1em" viewBox="0 0 50 51" fill="currentColor" xmlns="http://www.w3.org/2000/svg">
<g clip-path="url(#clip0_1029_513)">
<path d="M3.38977 18.8362C3.38972 19.1701 3.45545 19.5007 3.5832 19.8092C3.71094 20.1177 3.8982 20.398 4.13429 20.6341C4.37038 20.8703 4.65066 21.0576 4.95914 21.1853C5.26762 21.3131 5.59824 21.3789 5.93214 21.3789C6.26604 21.3789 6.59667 21.3131 6.90515 21.1853C7.21363 21.0576 7.49391 20.8703 7.73 20.6341C7.96608 20.398 8.15335 20.1177 8.28109 19.8092C8.40884 19.5007 8.47456 19.1701 8.47452 18.8362C8.47456 18.5023 8.40884 18.1716 8.28109 17.8631C8.15335 17.5547 7.96608 17.2743 7.73 17.0382C7.49391 16.8021 7.21363 16.6148 6.90515 16.487C6.59667 16.3592 6.26604 16.2935 5.93214 16.2935C5.59824 16.2935 5.26762 16.3592 4.95914 16.487C4.65066 16.6148 4.37038 16.8021 4.13429 17.0382C3.8982 17.2743 3.71094 17.5547 3.5832 17.8631C3.45545 18.1716 3.38972 18.5023 3.38977 18.8362Z" />
<path d="M22.4576 10.3617C22.4576 11.036 22.7255 11.6827 23.2023 12.1594C23.6791 12.6362 24.3257 12.9041 25 12.9041C25.6743 12.9041 26.321 12.6362 26.7977 12.1594C27.2745 11.6827 27.5424 11.036 27.5424 10.3617C27.5424 10.0278 27.4766 9.69724 27.3489 9.38879C27.2211 9.08033 27.0338 8.80006 26.7977 8.56398C26.5617 8.3279 26.2814 8.14063 25.9729 8.01286C25.6645 7.8851 25.3339 7.81934 25 7.81934C24.6661 7.81934 24.3355 7.8851 24.0271 8.01286C23.7186 8.14063 23.4384 8.3279 23.2023 8.56398C22.9662 8.80006 22.7789 9.08033 22.6512 9.38879C22.5234 9.69724 22.4576 10.0278 22.4576 10.3617Z" />
<path d="M11.4407 10.3616C11.4406 10.6399 11.4954 10.9154 11.6019 11.1725C11.7083 11.4296 11.8644 11.6632 12.0611 11.86C12.2578 12.0567 12.4914 12.2128 12.7485 12.3193C13.0055 12.4258 13.2811 12.4806 13.5593 12.4806C13.8376 12.4806 14.1131 12.4258 14.3702 12.3193C14.6272 12.2128 14.8608 12.0567 15.0575 11.86C15.2543 11.6632 15.4103 11.4296 15.5168 11.1725C15.6232 10.9154 15.678 10.6399 15.678 10.3616C15.678 10.0834 15.6232 9.80786 15.5168 9.55077C15.4103 9.29369 15.2543 9.06009 15.0575 8.86333C14.8608 8.66656 14.6272 8.51047 14.3702 8.40398C14.1131 8.29749 13.8376 8.24268 13.5593 8.24268C13.2811 8.24268 13.0055 8.29749 12.7485 8.40398C12.4914 8.51047 12.2578 8.66656 12.0611 8.86333C11.8644 9.06009 11.7083 9.29369 11.6019 9.55077C11.4954 9.80786 11.4406 10.0834 11.4407 10.3616Z" />
<path d="M34.322 10.7855C34.322 11.0637 34.3767 11.3393 34.4832 11.5963C34.5897 11.8534 34.7457 12.087 34.9424 12.2838C35.1392 12.4806 35.3728 12.6366 35.6298 12.7431C35.8869 12.8496 36.1624 12.9044 36.4407 12.9044C36.7189 12.9044 36.9944 12.8496 37.2515 12.7431C37.5086 12.6366 37.7421 12.4806 37.9389 12.2838C38.1356 12.087 38.2917 11.8534 38.3981 11.5963C38.5046 11.3393 38.5593 11.0637 38.5593 10.7855C38.5593 10.5072 38.5046 10.2317 38.3981 9.9746C38.2917 9.71752 38.1356 9.48392 37.9389 9.28715C37.7421 9.09039 37.5086 8.9343 37.2515 8.82781C36.9944 8.72131 36.7189 8.6665 36.4407 8.6665C36.1624 8.6665 35.8869 8.72131 35.6298 8.82781C35.3728 8.9343 35.1392 9.09039 34.9424 9.28715C34.7457 9.48392 34.5897 9.71752 34.4832 9.9746C34.3767 10.2317 34.322 10.5072 34.322 10.7855Z" />
<path d="M42.7966 9.51425C42.7966 9.96377 42.9752 10.3949 43.2931 10.7127C43.6109 11.0306 44.042 11.2092 44.4915 11.2092C44.9411 11.2092 45.3722 11.0306 45.69 10.7127C46.0079 10.3949 46.1865 9.96377 46.1865 9.51425C46.1865 9.06473 46.0079 8.63362 45.69 8.31577C45.3722 7.99791 44.9411 7.81934 44.4915 7.81934C44.042 7.81934 43.6109 7.99791 43.2931 8.31577C42.9752 8.63362 42.7966 9.06473 42.7966 9.51425Z" />
<path d="M3.38977 9.93783C3.38977 10.3874 3.56834 10.8185 3.8862 11.1363C4.20406 11.4542 4.63517 11.6328 5.08469 11.6328C5.53421 11.6328 5.96531 11.4542 6.28317 11.1363C6.60103 10.8185 6.7796 10.3874 6.7796 9.93783C6.7796 9.48832 6.60103 9.05721 6.28317 8.73935C5.96531 8.42149 5.53421 8.24292 5.08469 8.24292C4.63517 8.24292 4.20406 8.42149 3.8862 8.73935C3.56834 9.05721 3.38977 9.48832 3.38977 9.93783Z" />
<path d="M23.3051 1.88705C23.3051 2.33657 23.4836 2.76768 23.8015 3.08554C24.1193 3.4034 24.5504 3.58197 25 3.58197C25.4495 3.58197 25.8806 3.4034 26.1985 3.08554C26.5163 2.76768 26.6949 2.33657 26.6949 1.88705C26.6949 1.43753 26.5163 1.00643 26.1985 0.688568C25.8806 0.37071 25.4495 0.192139 25 0.192139C24.5504 0.192139 24.1193 0.37071 23.8015 0.688568C23.4836 1.00643 23.3051 1.43753 23.3051 1.88705Z" />
<path d="M14.8306 3.15815C14.8306 3.32508 14.8634 3.49038 14.9273 3.64461C14.9912 3.79884 15.0848 3.93897 15.2029 4.05701C15.3209 4.17505 15.4611 4.26869 15.6153 4.33257C15.7695 4.39646 15.9348 4.42934 16.1018 4.42934C16.2687 4.42934 16.434 4.39646 16.5882 4.33257C16.7424 4.26869 16.8826 4.17505 17.0006 4.05701C17.1187 3.93897 17.2123 3.79884 17.2762 3.64461C17.3401 3.49038 17.3729 3.32508 17.3729 3.15815C17.3729 2.99121 17.3401 2.82591 17.2762 2.67169C17.2123 2.51746 17.1187 2.37733 17.0006 2.25928C16.8826 2.14124 16.7424 2.04761 16.5882 1.98373C16.434 1.91984 16.2687 1.88696 16.1018 1.88696C15.9348 1.88696 15.7695 1.91984 15.6153 1.98373C15.4611 2.04761 15.3209 2.14124 15.2029 2.25928C15.0848 2.37733 14.9912 2.51746 14.9273 2.67169C14.8634 2.82591 14.8306 2.99121 14.8306 3.15815Z" />
<path d="M31.7797 4.42939C31.7797 4.76653 31.9136 5.08986 32.152 5.32825C32.3904 5.56665 32.7137 5.70058 33.0508 5.70058C33.388 5.70058 33.7113 5.56665 33.9497 5.32825C34.1881 5.08986 34.322 4.76653 34.322 4.42939C34.322 4.09225 34.1881 3.76892 33.9497 3.53053C33.7113 3.29213 33.388 3.1582 33.0508 3.1582C32.7137 3.1582 32.3904 3.29213 32.152 3.53053C31.9136 3.76892 31.7797 4.09225 31.7797 4.42939Z" />
<path d="M41.9491 18.4124C41.9491 18.7463 42.0148 19.0769 42.1425 19.3854C42.2703 19.6939 42.4575 19.9742 42.6936 20.2103C42.9297 20.4464 43.21 20.6337 43.5185 20.7615C43.8269 20.8893 44.1576 20.9551 44.4915 20.9551C44.8254 20.9551 45.156 20.8893 45.4645 20.7615C45.773 20.6337 46.0532 20.4464 46.2893 20.2103C46.5254 19.9742 46.7127 19.6939 46.8404 19.3854C46.9682 19.0769 47.0339 18.7463 47.0338 18.4124C47.0339 18.0785 46.9682 17.7478 46.8404 17.4393C46.7127 17.1308 46.5254 16.8505 46.2893 16.6144C46.0532 16.3783 45.773 16.191 45.4645 16.0632C45.156 15.9354 44.8254 15.8696 44.4915 15.8696C44.1576 15.8696 43.8269 15.9354 43.5185 16.0632C43.21 16.191 42.9297 16.3783 42.6936 16.6144C42.4575 16.8505 42.2703 17.1308 42.1425 17.4393C42.0148 17.7478 41.9491 18.0785 41.9491 18.4124Z" />
<path d="M28.161 27.993C27.6831 27.9781 27.2076 28.0682 26.7683 28.2571C26.329 28.446 25.9366 28.7291 25.6186 29.0862C24.9717 29.8122 24.6469 30.9083 24.6441 32.3744C24.6412 33.8405 24.9746 34.9337 25.6441 35.654C25.9665 36.0076 26.3591 36.2901 26.7969 36.4833C27.2347 36.6766 27.7079 36.7764 28.1864 36.7764C28.665 36.7764 29.1382 36.6766 29.576 36.4833C30.0137 36.2901 30.4064 36.0076 30.7288 35.654C31.3559 34.9379 31.6695 33.8151 31.6695 32.3405C31.6695 30.8659 31.3517 29.7981 30.7119 29.0693C30.3918 28.7136 29.9973 28.4328 29.5564 28.2468C29.1156 28.0608 28.6391 27.9741 28.161 27.993Z" />
<path d="M41.5254 24.2006C41.4252 22.3784 40.8366 20.6167 39.8211 19.1004C38.8057 17.5841 37.401 16.3689 35.7542 15.5824C34.1075 14.7958 32.2795 14.4669 30.4618 14.6301C28.6442 14.7933 26.904 15.4426 25.4237 16.5099C23.9629 15.4614 22.2501 14.819 20.46 14.6482C18.6699 14.4774 16.8666 14.7842 15.2338 15.5375C13.601 16.2908 12.1971 17.4636 11.1653 18.9363C10.1335 20.409 9.5106 22.129 9.36016 23.9209C6.91531 24.6339 4.80915 26.2039 3.42745 28.3432C2.04574 30.4825 1.48098 33.0479 1.8366 35.5697C2.19222 38.0914 3.44441 40.4007 5.36384 42.0745C7.28327 43.7482 9.74144 44.6745 12.2881 44.6836C12.7287 44.6834 13.1689 44.6551 13.6059 44.5989C14.9522 46.3388 16.6791 47.7473 18.6542 48.7163C20.6293 49.6853 22.8 50.1892 25 50.1892C27.2 50.1892 29.3707 49.6853 31.3458 48.7163C33.3208 47.7473 35.0477 46.3388 36.3941 44.5989C36.8311 44.6551 37.2712 44.6834 37.7119 44.6836C40.1881 44.6878 42.5875 43.8244 44.4933 42.2434C46.399 40.6624 47.6908 38.4637 48.144 36.0294C48.5972 33.595 48.1833 31.0788 46.9742 28.9178C45.7651 26.7569 43.8372 25.0878 41.5254 24.2006ZM19.2712 37.9548C18.2859 38.6612 17.0926 39.0177 15.8814 38.9675C15.1025 38.9918 14.3273 38.8498 13.6076 38.551C12.8879 38.2522 12.2402 37.8033 11.7076 37.2345C10.6172 36.0763 10.0734 34.4958 10.0763 32.4929C10.0763 30.3743 10.6243 28.7288 11.7203 27.5565C12.2722 26.9711 12.9432 26.5108 13.688 26.2068C14.4329 25.9027 15.2342 25.7619 16.0381 25.7938C17.4421 25.7309 18.8137 26.2277 19.8517 27.1751C20.4908 27.8254 20.9418 28.6366 21.1568 29.5226L18.6144 30.1328C18.4927 29.5174 18.1551 28.9657 17.6625 28.5772C17.1699 28.1888 16.5548 27.9891 15.928 28.0141C15.4925 27.9942 15.0582 28.0731 14.6576 28.2448C14.2569 28.4165 13.9003 28.6766 13.6144 29.0057C13.0127 29.6864 12.7119 30.7853 12.7119 32.3023C12.7119 33.9124 13.0042 35.0607 13.5805 35.7429C13.8544 36.0752 14.2008 36.3403 14.593 36.518C14.9852 36.6958 15.4128 36.7814 15.8432 36.7684C16.4914 36.7814 17.1206 36.5499 17.6059 36.1201C18.1664 35.5714 18.5425 34.8621 18.6822 34.0904L21.1864 34.8573C20.9105 36.0742 20.2365 37.1642 19.2712 37.9548ZM32.6525 37.226C31.5226 38.387 30.0282 38.9675 28.1695 38.9675C26.3107 38.9675 24.8037 38.3898 23.6483 37.2345C22.5325 36.0763 21.9675 34.4845 21.9534 32.459C21.9188 31.3416 22.1165 30.2292 22.5339 29.1921C22.8258 28.5441 23.2304 27.953 23.7288 27.4463C24.1939 26.9548 24.7549 26.564 25.3771 26.298C26.2493 25.9475 27.1831 25.776 28.1229 25.7938C28.9537 25.7562 29.7833 25.8921 30.5587 26.1926C31.3342 26.4932 32.0386 26.9519 32.6271 27.5396C33.7571 28.7062 34.322 30.3249 34.322 32.3955C34.322 34.4661 33.7655 36.0763 32.6525 37.226ZM41.0508 40.0226H35.7415C35.8058 39.4924 35.9961 38.9853 36.2966 38.5438C36.7834 37.9082 37.3702 37.3559 38.0339 36.9082C38.4007 36.658 38.7351 36.3633 39.0297 36.0311C39.1604 35.8681 39.2361 35.6678 39.2458 35.459C39.2467 35.3658 39.228 35.2735 39.1907 35.188C39.1535 35.1026 39.0986 35.026 39.0297 34.9633C38.9579 34.894 38.8728 34.8398 38.7796 34.8042C38.6864 34.7685 38.587 34.752 38.4873 34.7557C38.386 34.7524 38.285 34.7694 38.1904 34.8058C38.0958 34.8422 38.0094 34.8972 37.9364 34.9675C37.7626 35.1822 37.6603 35.446 37.6441 35.7218L35.8729 35.5777C35.9153 35.1665 36.0453 34.7692 36.2542 34.4124C36.4479 34.1266 36.7201 33.9029 37.0381 33.7684C37.4859 33.6004 37.9628 33.524 38.4407 33.5438C38.9341 33.5242 39.4268 33.596 39.8941 33.7557C40.2267 33.887 40.5118 34.116 40.7119 34.4124C40.9108 34.7027 41.0145 35.0478 41.0085 35.3997C41.006 35.7949 40.8881 36.1807 40.6695 36.5099C40.3298 36.9705 39.9091 37.3653 39.428 37.6751C39.072 37.9209 38.8347 38.0989 38.7119 38.1921C38.589 38.2853 38.4534 38.4209 38.2881 38.5819H41.0508V40.0226Z" />
</g>
<defs>
<clipPath id="clip0_1029_513">
<rect width="50" height="50" fill="white" transform="translate(0 0.192139)"/>
</clipPath>
</defs>
</svg>
