<svg width="248" height="36" viewBox="0 0 248 36" fill="none" xmlns="http://www.w3.org/2000/svg">
    <path fill-rule="evenodd" clip-rule="evenodd" d="M109.746 10.365V12.489H115.038C115.938 12.489 116.61 12.447 117.054 12.363C117.51 12.267 117.93 12.093 118.314 11.841C119.178 11.289 119.61 10.443 119.61 9.30303C119.61 8.06703 119.076 7.10103 118.008 6.40503C119.076 5.78103 119.61 4.91103 119.61 3.79503C119.61 3.14703 119.43 2.54103 119.07 1.97703C118.71 1.36503 118.218 0.945033 117.594 0.717033C117.33 0.621033 117.084 0.561032 116.856 0.537033C116.64 0.513033 116.136 0.495033 115.344 0.483032H109.746V2.62503H114.894C115.314 2.62503 115.608 2.64303 115.776 2.67903C115.956 2.70303 116.112 2.76303 116.244 2.85903C116.604 3.09903 116.784 3.48303 116.784 4.01103C116.784 4.49103 116.646 4.84503 116.37 5.07303C116.142 5.26503 115.65 5.36103 114.894 5.36103H110.88V7.48503H114.894C115.518 7.48503 115.956 7.55703 116.208 7.70103C116.604 7.92903 116.802 8.34303 116.802 8.94303C116.802 9.43503 116.646 9.80703 116.334 10.059C116.082 10.263 115.602 10.365 114.894 10.365H109.746ZM0 5.27698H10.188C12.732 5.27698 14.7 5.52898 16.092 6.03298C18.66 6.96898 20.376 8.68498 21.24 11.181C21.888 13.101 22.212 15.153 22.212 17.337C22.212 19.497 21.9 21.537 21.276 23.457C20.652 25.425 19.62 26.877 18.18 27.813C17.268 28.389 16.26 28.785 15.156 29.001C14.076 29.193 12.42 29.289 10.188 29.289H0V5.27698ZM5.112 9.56098V25.005H10.188C12.42 25.005 13.968 24.513 14.832 23.529C15.36 22.905 15.78 22.029 16.092 20.901C16.428 19.773 16.596 18.573 16.596 17.301C16.596 15.885 16.404 14.589 16.02 13.413C15.636 12.237 15.132 11.361 14.508 10.785C13.596 9.96898 12.156 9.56098 10.188 9.56098H5.112ZM25.6615 11.757H30.4855V29.289H25.6615V11.757ZM25.6615 9.95698V5.27698H30.4855V9.95698H25.6615ZM52.036 29.181V11.757H43.036C41.716 11.757 40.624 11.877 39.76 12.117C38.92 12.333 38.116 12.717 37.348 13.269C35.212 14.781 34.144 17.193 34.144 20.505C34.144 23.409 35.02 25.689 36.772 27.345C37.516 28.041 38.344 28.545 39.256 28.857C40.192 29.145 41.368 29.289 42.784 29.289H47.212C47.212 30.297 47.044 30.957 46.708 31.269C46.396 31.605 45.712 31.773 44.656 31.773H35.692V35.517H45.304C46.792 35.517 47.92 35.385 48.688 35.121C49.48 34.881 50.152 34.425 50.704 33.753C51.136 33.225 51.46 32.577 51.676 31.809C51.916 31.041 52.036 30.165 52.036 29.181ZM43.216 15.501H47.212V25.545H43.468C42.028 25.545 40.924 25.125 40.156 24.285C39.412 23.421 39.04 22.173 39.04 20.541C39.04 17.181 40.432 15.501 43.216 15.501ZM56.7397 11.757H61.5637V29.289H56.7397V11.757ZM56.7397 9.95698V5.27698H61.5637V9.95698H56.7397ZM67.5982 5.27698V11.757H64.5381V15.501H67.5982V22.701C67.5982 25.077 68.0422 26.769 68.9302 27.777C69.8182 28.785 71.3062 29.289 73.3941 29.289H76.8862V25.545H74.9781C73.9462 25.545 73.2262 25.257 72.8182 24.681C72.5542 24.297 72.4221 23.361 72.4221 21.873V15.501H76.8862V11.757H72.4221V5.27698H67.5982ZM92.2497 18.633C92.2497 17.409 91.9977 16.581 91.4937 16.149C91.0137 15.717 90.0417 15.501 88.5777 15.501H80.4417V11.757H88.5777C90.0417 11.757 91.0497 11.793 91.6017 11.865C92.1537 11.913 92.7177 12.021 93.2937 12.189C95.9577 13.197 97.2177 15.609 97.0737 19.425V29.289H86.9217C85.0977 29.289 83.8377 29.241 83.1417 29.145C82.4457 29.025 81.8337 28.797 81.3057 28.461C79.8897 27.501 79.1817 26.049 79.1817 24.105C79.1817 22.929 79.4577 21.885 80.0097 20.973C80.5857 20.037 81.3417 19.401 82.2777 19.065C83.0937 18.777 84.4497 18.633 86.3457 18.633H92.2497ZM92.2497 22.377H86.7057H85.8777C85.3257 22.377 84.8817 22.521 84.5457 22.809C84.2337 23.097 84.0777 23.493 84.0777 23.997C84.0777 24.549 84.2697 24.945 84.6537 25.185C85.0617 25.425 85.7457 25.545 86.7057 25.545H92.2497V22.377ZM101.564 29.289H106.388V5.27698H101.564V29.289ZM147.486 25.005V29.289H139.098C137.514 29.289 136.302 29.205 135.462 29.037C132.51 28.461 130.41 26.817 129.162 24.105C128.346 22.281 127.938 20.025 127.938 17.337C127.938 14.121 128.562 11.505 129.81 9.48898C130.722 8.02498 131.934 6.95698 133.446 6.28498C134.982 5.61298 136.95 5.27698 139.35 5.27698H147.486V9.56098H139.926C137.646 9.56098 135.978 10.173 134.922 11.397C134.034 12.405 133.59 14.229 133.59 16.869C133.59 20.421 134.274 22.749 135.642 23.853C136.602 24.621 138.102 25.005 140.142 25.005H147.486ZM162.298 16.149C162.802 16.581 163.054 17.409 163.054 18.633H157.15C155.254 18.633 153.898 18.777 153.082 19.065C152.146 19.401 151.39 20.037 150.814 20.973C150.262 21.885 149.986 22.929 149.986 24.105C149.986 26.049 150.694 27.501 152.11 28.461C152.638 28.797 153.25 29.025 153.946 29.145C154.642 29.241 155.902 29.289 157.726 29.289H167.878V19.425C168.022 15.609 166.762 13.197 164.098 12.189C163.522 12.021 162.958 11.913 162.406 11.865C161.854 11.793 160.846 11.757 159.382 11.757H151.246V15.501H159.382C160.846 15.501 161.818 15.717 162.298 16.149ZM157.51 22.377H163.054V25.545H157.51C156.55 25.545 155.866 25.425 155.458 25.185C155.074 24.945 154.882 24.549 154.882 23.997C154.882 23.493 155.038 23.097 155.35 22.809C155.686 22.521 156.13 22.377 156.682 22.377H157.51ZM172.369 11.757H179.497C180.961 11.757 182.089 11.865 182.881 12.081C183.697 12.273 184.369 12.609 184.897 13.089C185.425 13.569 185.797 14.169 186.013 14.889C186.229 15.609 186.337 16.641 186.337 17.985V19.677H181.693V18.741C181.693 17.493 181.477 16.641 181.045 16.185C180.613 15.729 179.785 15.501 178.561 15.501H177.193V29.289H172.369V11.757ZM198.28 11.757H194.032V5.27698H189.208V29.289H197.056C198.64 29.289 199.864 29.205 200.728 29.037C201.592 28.845 202.432 28.497 203.248 27.993C205.816 26.409 207.1 23.841 207.1 20.289C207.1 18.825 206.848 17.481 206.344 16.257C205.624 14.625 204.46 13.413 202.852 12.621C201.676 12.045 200.152 11.757 198.28 11.757ZM194.032 25.545V15.501H197.596C200.644 15.501 202.168 17.145 202.168 20.433C202.168 21.897 201.784 23.133 201.016 24.141C200.248 25.077 199.108 25.545 197.596 25.545H194.032ZM218.754 11.505C221.994 11.505 224.382 12.441 225.918 14.313C227.334 16.017 228.042 18.165 228.042 20.757C228.042 23.493 227.154 25.677 225.378 27.309C223.746 28.797 221.514 29.541 218.682 29.541C215.754 29.541 213.462 28.701 211.806 27.021C210.27 25.509 209.502 23.301 209.502 20.397C209.502 17.949 210.234 15.909 211.698 14.277C213.33 12.453 215.682 11.529 218.754 11.505ZM218.79 15.177C215.886 15.177 214.434 16.977 214.434 20.577C214.434 22.041 214.674 23.157 215.154 23.925C215.946 25.221 217.17 25.869 218.826 25.869C221.682 25.869 223.11 24.081 223.11 20.505C223.11 17.001 221.67 15.225 218.79 15.177ZM240.895 11.757H231.607V29.289H236.431V15.501H240.607C241.495 15.501 242.131 15.693 242.515 16.077C242.899 16.461 243.091 17.085 243.091 17.949V29.289H247.915V18.489C247.915 16.065 247.303 14.289 246.079 13.161C245.479 12.633 244.807 12.273 244.063 12.081C243.343 11.865 242.287 11.757 240.895 11.757Z" fill="white"/>
</svg>
