<svg viewBox="0 0 103 100" fill="none" xmlns="http://www.w3.org/2000/svg">
<mask id="mask0_29_56783" style="mask-type:alpha" maskUnits="userSpaceOnUse" x="0" y="0" width="103" height="100">
<rect x="0.96814" width="101.064" height="100" fill="#D9D9D9"/>
</mask>
<g mask="url(#mask0_29_56783)">
<circle cx="51.4045" cy="49.7849" r="48.9638" fill="#05761E" stroke="black" stroke-width="2"/>
<path d="M55.71 70.5901L55.7099 70.5899C55.093 69.7226 54.8372 68.9943 54.8216 68.3305C54.8061 67.669 55.0261 66.9428 55.6006 66.0729C56.0251 65.4302 56.3573 64.7487 56.6634 64.0685C56.7802 63.8091 56.8903 63.5567 57.0003 63.3046C57.1901 62.8698 57.3794 62.436 57.6012 61.9695C57.7483 61.6601 57.7267 61.2969 57.5441 61.007C57.3615 60.7172 57.0432 60.541 56.7006 60.5401C54.5771 60.5348 53.3905 59.3365 51.8722 57.8031C51.6625 57.5913 51.4464 57.3731 51.2207 57.1508M55.71 70.5901L50.519 57.8633M55.71 70.5901C57.7326 73.4352 58.6096 76.7809 59.4296 79.9091C59.6114 80.6026 59.7903 81.2853 59.9784 81.9495M55.71 70.5901L59.9388 83.4554C60.0165 83.1298 60.1431 82.5289 59.9784 81.9495M51.2207 57.1508L50.519 57.8633M51.2207 57.1508C51.2209 57.1509 51.221 57.151 51.2211 57.1512L50.519 57.8633M51.2207 57.1508C50.6498 56.5881 49.8671 56.1726 49.1206 55.9804L49.1187 55.9799C47.0446 55.4504 44.9543 54.997 42.8717 54.5723M50.519 57.8633C50.0853 57.4357 49.4635 57.1013 48.8714 56.9489C46.8196 56.4251 44.7471 55.9753 42.6716 55.5521M42.8717 54.5723L42.6716 55.5521M42.8717 54.5723C42.6814 54.5335 42.6077 54.4842 42.5722 54.4543C42.5321 54.4207 42.4651 54.3476 42.3783 54.1531L42.377 54.1503C41.8995 53.0895 41.3881 52.036 40.8842 50.9979C40.686 50.5898 40.489 50.184 40.2957 49.7811C40.1044 49.3823 39.6739 49.1566 39.2371 49.226C39.1737 49.2361 39.0977 49.2482 39.0199 49.2623C38.5444 49.3487 38.1987 49.7629 38.1987 50.2462V51.6507L40.1987 51.8761M42.8717 54.5723C42.8716 54.5723 42.8715 54.5723 42.8714 54.5723L42.6716 55.5521M42.6716 55.5521C42.0484 55.4249 41.7168 55.1245 41.4651 54.5608C41.059 53.6586 40.6304 52.7666 40.1987 51.8761M11.7521 27.5105C11.895 27.3954 12.0373 27.2809 12.1791 27.1668C12.7347 26.7197 13.2827 26.2787 13.8329 25.8367C14.1764 25.5608 14.2988 25.0925 14.1343 24.6838C13.9698 24.2751 13.5572 24.0221 13.1183 24.061C12.0998 24.1513 11.1557 24.335 10.2366 24.5909L10.2332 24.5919C9.72665 24.7349 9.2192 25.1203 8.94964 25.5859L8.94785 25.589C6.28554 30.2261 4.38062 35.1719 3.40338 40.4522L11.7521 27.5105ZM11.7521 27.5105C12.7026 28.1039 13.6041 28.4471 14.7589 28.4516C17.7531 28.4618 20.6441 27.9147 23.6505 27.3456C23.9839 27.2825 24.3187 27.2192 24.6553 27.1562C24.6554 27.1562 24.6554 27.1562 24.6555 27.1562L24.8392 28.1392M11.7521 27.5105L29.896 32.1738C30.4653 33.0934 31.0401 34.0221 31.6173 34.9938M24.8392 28.1392C25.8355 27.9527 26.3329 28.1673 26.8288 29.0299M24.8392 28.1392C24.503 28.202 24.1669 28.2657 23.8309 28.3293C20.8378 28.8964 17.8509 29.4622 14.755 29.4516L24.8392 28.1392ZM26.8288 29.0299L27.6956 28.5312C27.6957 28.5313 27.6957 28.5314 27.6958 28.5315L26.8288 29.0299ZM26.8288 29.0299C27.5471 30.2782 28.3054 31.5038 29.0637 32.7296C29.634 33.6513 30.2043 34.5731 30.7577 35.5047M30.7577 35.5047L31.6173 34.9938M30.7577 35.5047L31.6175 34.994C31.6174 34.9939 31.6174 34.9939 31.6173 34.9938M30.7577 35.5047C30.996 35.9057 31.1411 36.4236 31.1515 36.8911C31.1713 37.8593 31.1695 38.8278 31.1677 39.7963C31.1657 40.8556 31.1637 41.9149 31.19 42.9739M31.6173 34.9938L32.4692 43.8296M31.19 42.9739L32.1896 42.9465C32.1896 42.9467 32.1896 42.9469 32.1896 42.9472C32.1896 42.9478 32.1897 42.9484 32.1897 42.949L31.19 42.9739ZM31.19 42.9739C31.2033 43.4607 31.375 44.0185 31.6563 44.412M31.6563 44.412L32.4681 43.8282C32.4685 43.8286 32.4688 43.8291 32.4692 43.8296M31.6563 44.412C32.6761 45.83 33.7133 47.2352 34.7504 48.6402C35.6763 49.8947 36.6022 51.1491 37.5155 52.4124L35.5454 48.0333C34.5213 46.6462 33.5013 45.2647 32.4692 43.8296M31.6563 44.412L32.4699 43.8306C32.4696 43.8303 32.4694 43.8299 32.4692 43.8296M40.1987 51.8761C40.1295 51.7333 40.0602 51.5906 39.9909 51.4478C39.7966 51.0475 39.6023 50.6472 39.4097 50.2462H40.1987V51.8761ZM2.45148 47.2364C2.44526 47.2816 2.44214 47.3272 2.44214 47.3728V52.4286C2.44214 52.4721 2.44497 52.5154 2.45061 52.5585C2.52399 53.1187 2.59037 53.696 2.65778 54.2822C2.80783 55.587 2.96299 56.9362 3.21175 58.2409C6.17386 73.8238 14.6908 85.4616 28.5776 93.0733C34.5545 96.3494 41.0097 98.1294 47.8013 98.5901M2.45148 47.2364L47.8045 98.5903C47.8035 98.5902 47.8024 98.5901 47.8013 98.5901M2.45148 47.2364C2.54491 46.5577 2.63159 45.8655 2.71914 45.1664M2.45148 47.2364L2.71914 45.1664M47.8013 98.5901C47.8377 98.5929 47.8928 98.6022 47.9949 98.6275C48.0146 98.6323 48.0422 98.6395 48.0748 98.648C48.1625 98.6707 48.286 98.7027 48.3862 98.7242C48.4552 98.739 48.5255 98.7465 48.596 98.7465H53.8424C53.8846 98.7465 53.9267 98.7438 53.9686 98.7385L54.4035 98.6832C55.4234 98.5535 56.4515 98.4228 57.5342 98.2841C58.0633 98.2163 58.4461 97.7451 58.404 97.2132C58.39 97.0367 58.376 96.8724 58.3625 96.7153C58.3354 96.3986 58.3109 96.1116 58.2946 95.8142L58.2946 95.8141C58.267 95.3111 58.2222 94.8099 58.1792 94.3289C58.1742 94.2729 58.1693 94.2173 58.1643 94.1619C58.1164 93.623 58.0731 93.1077 58.0543 92.5973C58.0168 91.5805 58.079 90.6284 58.38 89.6908L58.38 89.6907C58.8687 88.1683 59.2263 86.584 59.572 85.0522C59.6939 84.512 59.8144 83.9783 59.9386 83.4561L47.8013 98.5901ZM59.9784 81.9495C59.9782 81.949 59.9781 81.9485 59.9779 81.948L59.0163 82.2223L59.9785 81.9499C59.9784 81.9498 59.9784 81.9497 59.9784 81.9495ZM2.71914 45.1664C2.9146 43.6057 3.1144 42.0103 3.4033 40.4526L2.71914 45.1664ZM39.1987 50.3074V52.1059C39.1651 52.0366 39.1314 51.9672 39.0977 51.8978C38.8967 51.4838 38.6946 51.0673 38.4925 50.6462L39.1987 50.3074Z" fill="white" stroke="#05761E" stroke-width="2" stroke-linejoin="round"/>
<path d="M83.0741 24.1583C82.405 24.2041 81.9979 24.4571 81.6707 25.0342C81.3136 25.6663 80.9182 26.2772 80.4813 26.9523C80.4579 26.9885 80.4343 27.0249 80.4107 27.0615C80.1037 26.86 79.8243 26.6871 79.5649 26.5275M83.0741 24.1583L72.7264 30.4718C70.7012 28.6918 69.1306 26.5967 68.1595 24.0754C67.9196 23.454 67.5407 23.2172 66.8849 23.2897C65.4504 23.4451 64.2113 23.0071 62.8894 22.3827C61.9901 21.9589 60.9526 21.8255 59.8907 21.6889C59.4489 21.6321 59.0029 21.5747 58.5608 21.4957L59.4513 21.6582C59.3924 21.9812 59.3341 22.3003 59.2763 22.6168M83.0741 24.1583L83.0057 23.1606C83.0052 23.1606 83.0048 23.1607 83.0043 23.1607M83.0741 24.1583L83.0043 23.1607M79.5649 26.5275C79.3948 26.7904 79.2157 27.0682 79.0258 27.3681L79.2101 27.4849C79.1569 27.452 79.1039 27.4193 79.0511 27.3868C78.4784 27.0338 77.9308 26.6962 77.4443 26.2874M79.5649 26.5275C79.5971 26.4778 79.629 26.4285 79.6605 26.3798C80.088 25.7193 80.4581 25.1475 80.8001 24.5423L80.8008 24.541C81.0221 24.1506 81.3105 23.8008 81.715 23.5485C82.118 23.2972 82.5583 23.1914 83.0043 23.1607M79.5649 26.5275C79.5428 26.5139 79.5208 26.5004 79.499 26.4869C78.9668 26.1596 78.5186 25.884 78.0875 25.5218M77.4443 26.2874C76.6958 25.6584 75.9736 24.9986 75.2513 24.3388C74.5906 23.7353 73.9299 23.1317 73.2489 22.5514M77.4443 26.2874L78.0877 25.5219C78.0876 25.5219 78.0876 25.5218 78.0875 25.5218M77.4443 26.2874L78.0875 25.5218M73.2489 22.5514C72.6005 21.998 72.2023 21.3721 71.9877 20.5509M73.2489 22.5514L73.8975 21.7903C74.592 22.382 75.2643 22.9962 75.9217 23.5968L76.0182 23.6849C76.711 24.3177 77.3891 24.9347 78.0875 25.5218M73.2489 22.5514L83.0043 23.1607M71.9877 20.5509C71.2623 17.7737 70.0943 15.353 67.7302 13.4325M71.9877 20.5509L72.9552 20.2982C72.9552 20.2982 72.9552 20.2981 72.9552 20.298M71.9877 20.5509L72.9552 20.298M67.7302 13.4325C66.5388 12.4639 65.2506 12.2247 63.9623 11.9854C63.6453 11.9265 63.3283 11.8677 63.0127 11.7979C63.0143 11.7913 63.016 11.7846 63.0176 11.778L62.0471 11.5371L61.7314 12.486C61.7853 12.5039 61.8396 12.5213 61.8944 12.5382C61.867 13.373 62.1534 14.0488 62.9057 14.6561C63.9052 15.4635 64.8023 16.4045 65.6934 17.3392C65.7723 17.422 65.8512 17.5047 65.93 17.5873C66.5265 18.2114 67.0884 18.868 67.6418 19.5147C67.8809 19.794 68.1183 20.0715 68.3564 20.3438M67.7302 13.4325L68.361 12.6566M67.7302 13.4325L68.3607 12.6563C68.3608 12.6564 68.3609 12.6565 68.361 12.6566M68.3564 20.3438C68.2796 20.4142 68.2027 20.4814 68.1257 20.5454L68.3564 20.3438ZM68.3564 20.3438L67.6804 19.6068C67.4098 19.8551 67.1502 20.0452 66.9006 20.1868M66.9006 20.1868C67.1181 20.4409 67.3377 20.6973 67.563 20.9556C66.3209 21.7349 65.0396 21.7149 63.6681 20.9874M66.9006 20.1868C66.8876 20.1715 66.8745 20.1563 66.8615 20.1411C66.3167 19.5043 65.784 18.8818 65.2071 18.2782L65.207 18.278C65.13 18.1975 65.0535 18.1172 64.9773 18.0373C64.0769 17.0931 63.2237 16.1985 62.2773 15.4341M66.9006 20.1868C66.5666 20.3763 66.2504 20.4789 65.9496 20.5178C65.4249 20.5856 64.8344 20.4738 64.1381 20.1048M63.6681 20.9874C63.2846 20.7832 62.879 20.585 62.4601 20.4903M63.6681 20.9874L64.1381 20.1048M63.6681 20.9874L64.1366 20.104C64.1371 20.1043 64.1376 20.1045 64.1381 20.1048M62.4601 20.4903C61.3158 20.2284 60.8805 19.5862 61.1159 18.4203C61.1781 18.1096 61.0833 17.5384 60.8879 17.4452M62.4601 20.4903L62.6832 19.5155C62.6828 19.5154 62.6824 19.5153 62.682 19.5152M62.4601 20.4903L62.6806 19.5149C62.681 19.515 62.6815 19.5151 62.682 19.5152M60.8879 17.4452C60.0317 17.0326 59.1473 16.678 58.246 16.3166C58.2363 16.3127 58.2266 16.3088 58.2169 16.3049C58.2288 16.2546 58.2407 16.204 58.2526 16.153L57.2788 15.9257L56.899 16.8507C56.9458 16.8699 56.9923 16.889 57.0388 16.9079C57.0091 17.0256 56.9795 17.1426 56.95 17.259C56.7 18.2451 56.4607 19.1893 56.324 20.1485M60.8879 17.4452L61.3221 16.5444M60.8879 17.4452L61.3185 16.5427C61.3197 16.5432 61.3209 16.5438 61.3221 16.5444M56.324 20.1485C56.1656 21.2582 55.6638 21.7583 54.5772 21.8782C54.4521 21.8921 54.3173 21.9043 54.1779 21.9169C53.4612 21.9815 52.6259 22.0569 52.3966 22.4434M56.324 20.1485L55.334 20.0072M56.324 20.1485L55.334 20.0074C55.271 20.4488 55.1608 20.6087 55.0945 20.6744C55.0324 20.736 54.8849 20.8382 54.4675 20.8842L54.4662 20.8843C54.3817 20.8938 54.2728 20.9037 54.15 20.9148C53.8437 20.9427 53.4501 20.9784 53.1285 21.0349C52.887 21.0773 52.6084 21.142 52.3483 21.2544C52.0978 21.3625 51.7577 21.5606 51.5367 21.9329M52.3966 22.4434C52.1149 22.918 52.2124 23.6296 52.3064 24.3161C52.3349 24.5242 52.3631 24.73 52.3803 24.9262C52.4025 25.1718 52.6349 25.5609 52.8333 25.6039M52.3966 22.4434L51.5367 21.9329M52.3966 22.4434L51.5366 21.9332C51.1857 22.5245 51.1909 23.2051 51.2258 23.6746C51.2447 23.9285 51.2789 24.1832 51.3092 24.4049L51.3146 24.4445C51.3441 24.66 51.3691 24.8427 51.3841 25.0136L51.3844 25.0162C51.4147 25.3518 51.5604 25.6652 51.6994 25.8816C51.7756 26.0001 51.8758 26.1308 52.0023 26.248C52.1156 26.3529 52.323 26.5155 52.6179 26.5804M52.8333 25.6039C54.0054 25.8624 55.186 26.0817 56.3927 26.3058C56.4492 26.3163 56.5057 26.3268 56.5623 26.3374C56.5621 26.3387 56.5618 26.34 56.5616 26.3413L57.5453 26.5212L57.7311 25.5386C57.7291 25.5383 57.7272 25.5379 57.7253 25.5375C57.776 25.2604 57.8265 24.9846 57.8769 24.7091C58.0134 23.9634 58.1494 23.2205 58.2879 22.4624C58.6046 22.5213 58.9424 22.5713 59.2763 22.6168M52.8333 25.6039L52.6219 26.5812C52.6212 26.5811 52.6205 26.581 52.6199 26.5808M52.8333 25.6039L52.6179 26.5804M59.2763 22.6168C59.1361 23.3837 58.9986 24.1349 58.8606 24.8887C58.7509 25.4881 58.6409 26.0891 58.529 26.7011C58.4811 26.963 58.3307 27.195 58.1112 27.3457C57.8917 27.4964 57.6211 27.5533 57.3595 27.5038C56.9798 27.432 56.6006 27.3616 56.2221 27.2913C55.0122 27.0666 53.8093 26.8432 52.6199 26.5808M59.2763 22.6168L52.6199 26.5808M84.9867 68.9227C84.6107 69.641 84.2364 70.3569 83.8631 71.071C82.5022 73.6739 81.155 76.2509 79.7877 78.8169C79.6456 79.0848 79.311 79.2919 79.0209 79.4325M84.9867 68.9227L84.4278 69.752C84.3118 69.6738 84.2189 69.6091 84.1379 69.5526C83.9991 69.4559 83.8948 69.3833 83.7681 69.3083L83.767 69.3076C83.7388 69.2908 83.7108 69.2741 83.6829 69.2575M84.9867 68.9227L84.2307 68.5269L84.2306 68.5269L84.1008 68.4589C83.9612 68.7254 83.8219 68.9916 83.6829 69.2575M84.9867 68.9227C84.9028 68.8662 84.8232 68.8109 84.7461 68.7573C84.5851 68.6453 84.4347 68.5408 84.2776 68.4478C84.0105 68.2892 83.7457 68.1259 83.4809 67.9625C82.8416 67.5682 82.2021 67.1739 81.5301 66.8453M83.6829 69.2575C83.4466 69.7092 83.2109 70.16 82.9757 70.6099C81.6191 73.2048 80.2781 75.7698 78.9169 78.3247M83.6829 69.2575C83.4141 69.0968 83.1588 68.9393 82.9108 68.7863C82.2913 68.4041 81.7172 68.0499 81.0912 67.7439L81.5301 66.8453M78.9169 78.3247C78.9185 78.323 78.9199 78.3216 78.9211 78.3204C78.9293 78.3117 78.9196 78.3198 78.9052 78.3467C78.9091 78.3393 78.913 78.332 78.9169 78.3247ZM78.9169 78.3247C78.9073 78.3342 78.8897 78.3501 78.8614 78.3713C78.7927 78.4225 78.6978 78.4778 78.5859 78.532M78.5859 78.532C78.5864 78.5318 78.5869 78.5315 78.5874 78.5313L79.0209 79.4325M78.5859 78.532C78.5856 78.5322 78.5852 78.5323 78.5849 78.5325L79.0209 79.4325M78.5859 78.532C78.0542 78.7878 77.4963 79.0445 76.9294 79.3054C76.0084 79.7293 75.0637 80.1641 74.1692 80.6231M79.0209 79.4325C78.4539 79.7052 77.8823 79.9681 77.3108 80.2309C76.4094 80.6455 75.5081 81.0601 74.6257 81.5128M74.6257 81.5128L74.1692 80.6231C74.1692 80.6231 74.1692 80.6231 74.1692 80.6231M74.6257 81.5128C74.2363 81.7126 73.8662 82.1372 73.696 82.5456M74.6257 81.5128L74.1692 80.6231M74.1692 80.6231C73.5479 80.9419 73.0243 81.5579 72.773 82.1608M73.696 82.5456L72.7731 82.1605C72.7731 82.1606 72.773 82.1607 72.773 82.1608M73.696 82.5456L72.773 82.1608M73.696 82.5456L63.8287 96.023C63.787 96.1818 63.7419 96.3441 63.6919 96.5049L63.4875 96.4414L63.6665 97.101C63.666 97.1011 63.6652 97.1013 63.6643 97.1016M72.773 82.1608C72.4752 82.8746 72.2121 83.5987 71.9583 84.2974L71.9414 84.344C71.6795 85.0648 71.4264 85.7589 71.1416 86.435C70.9852 86.8061 70.7136 87.1591 70.4551 87.3399L70.454 87.3407C70.1361 87.5638 69.8207 87.7867 69.5069 88.0085C67.8022 89.2135 66.1437 90.3858 64.3812 91.3737L64.3811 91.3737C63.2999 91.9799 62.7465 92.8067 62.4146 93.6642C62.2566 94.0726 62.1488 94.4872 62.0572 94.8584C62.0403 94.9273 62.0239 94.9944 62.0079 95.06C61.9336 95.3647 61.8669 95.6381 61.7819 95.9119C61.6922 96.2008 61.7381 96.5148 61.9067 96.7659C62.0754 97.017 62.3486 97.1783 62.65 97.2046C62.7004 97.209 62.7301 97.2129 62.7681 97.2178C62.7826 97.2197 62.7982 97.2217 62.8166 97.224C62.8186 97.2242 62.821 97.2246 62.8238 97.2249C62.8735 97.2313 63.0437 97.2532 63.2387 97.2146M63.2387 97.2146C63.241 97.2141 63.2434 97.2137 63.2457 97.2132L63.0602 96.3088L63.4843 96.4404L63.6577 97.1033C63.6599 97.1028 63.6621 97.1022 63.6643 97.1016M63.2387 97.2146C63.3762 97.1875 63.5712 97.1293 63.6415 97.1084C63.6522 97.1052 63.6601 97.1028 63.6643 97.1016M63.2387 97.2146C63.2379 97.2148 63.2371 97.2149 63.2362 97.2151L63.0595 96.3085L63.6643 97.1016M63.6643 97.1016C72.358 94.8251 79.8988 90.5097 86.2177 84.114L86.2178 84.1138C93.3826 76.859 97.8488 68.1768 99.6218 58.1461L99.6219 58.1457C99.872 56.7273 100.02 55.2645 100.164 53.8454C100.229 53.2124 100.292 52.5881 100.363 51.9804C100.368 51.9418 100.37 51.903 100.37 51.8642V47.557C100.37 47.5053 100.366 47.4537 100.358 47.4027C100.333 47.2446 100.311 47.1233 100.292 47.0194C100.261 46.8547 100.239 46.7339 100.228 46.5802C100.228 46.5799 100.228 46.5795 100.228 46.5792L63.6643 97.1016ZM72.9552 20.298C72.1971 17.3958 70.9448 14.7557 68.361 12.6566M72.9552 20.298L64.1381 20.1048M68.361 12.6566C67.2974 11.7918 66.1794 11.4303 65.1467 11.2007C64.7477 11.112 64.3901 11.0461 64.0541 10.9843C63.4594 10.8747 62.9323 10.7777 62.3627 10.5882C62.0982 10.5002 61.809 10.5266 61.5648 10.6611C61.3206 10.7955 61.1436 11.0257 61.0765 11.2962C60.8926 12.0373 60.8138 12.7898 60.9957 13.522C61.1841 14.2802 61.624 14.9065 62.2773 15.4341M62.2773 15.4341L62.9048 14.6573L62.2775 15.4342C62.2774 15.4342 62.2774 15.4341 62.2773 15.4341ZM81.5301 66.8453C78.0764 65.1586 75.2237 62.7705 72.8862 59.7254L81.0909 67.7437M81.5301 66.8453L81.0909 67.7437M81.0909 67.7437C77.4914 65.9857 74.5197 63.4955 72.093 60.3343L72.0916 60.3325C72.0826 60.3207 72.019 60.2549 71.8387 60.1697C71.6696 60.0897 71.4621 60.0227 71.2476 59.9697L71.2459 59.9693C70.3963 59.758 69.5555 59.595 68.6856 59.4263C68.252 59.3422 67.8111 59.2567 67.3583 59.1631M81.0909 67.7437L46.1556 48.0756M72.0662 31.2229C69.9381 29.3524 68.2636 27.128 67.2263 24.4348M72.0662 31.2229L67.2263 24.4348M72.0662 31.2229C72.4961 31.601 72.8707 31.9968 73.2787 32.428C73.4822 32.6429 73.6939 32.8666 73.9249 33.1013L72.0662 31.2229ZM67.2263 24.4348C67.1933 24.3495 67.1663 24.3026 67.1504 24.2793C67.124 24.2764 67.0751 24.2748 66.9948 24.2837L66.9925 24.2839C65.2759 24.4698 63.8287 23.9324 62.4623 23.2869M67.2263 24.4348L62.4623 23.2869M62.4623 23.2869C62.4626 23.2871 62.4628 23.2872 62.4631 23.2873L62.8892 22.3832L62.4623 23.2869ZM52.6199 26.5808L52.6179 26.5804M52.6179 26.5804L51.5367 21.9329M51.5367 21.9329L55.334 20.0072M55.334 20.0072C55.4785 18.993 55.7392 17.9642 55.9952 16.9537C56.1022 16.5312 56.2084 16.112 56.305 15.6983C56.3717 15.4129 56.5602 15.1711 56.8207 15.0368C57.0812 14.9025 57.3875 14.8893 57.6586 15.0006C57.9655 15.1266 58.2772 15.2516 58.5914 15.3775C59.5019 15.7426 60.4326 16.1158 61.3221 16.5444M55.334 20.0072L61.3221 16.5444M61.3221 16.5444C61.673 16.7132 61.8422 17.0107 61.911 17.1497C61.9955 17.3204 62.0462 17.4975 62.0774 17.6469C62.1369 17.932 62.161 18.2939 62.0965 18.6165L62.0961 18.6182C62.0058 19.0655 62.0852 19.2129 62.1067 19.2458C62.1304 19.2818 62.2385 19.4135 62.682 19.5152M61.3221 16.5444L62.682 19.5152M46.1556 48.0756C45.7296 48.278 45.5029 48.7506 45.6117 49.2095C45.8102 50.0474 46.0026 50.8581 46.1927 51.6595C46.2961 52.095 46.3988 52.5277 46.5014 52.9605C46.5331 53.0942 46.5921 53.22 46.6745 53.3299L46.7612 53.4453L46.8477 53.5608C47.0639 53.8489 47.4184 53.9985 47.7757 53.9523C48.1329 53.9062 48.4378 53.6715 48.5737 53.3379C48.904 52.5273 49.3211 52.2128 49.7521 52.0649C50.0678 51.9565 50.4464 51.9184 50.9055 51.9362C50.8636 52.7608 50.8214 53.5947 50.7776 54.467C50.7513 54.9907 51.134 55.4457 51.6544 55.5097C53.0376 55.6796 54.0109 56.2005 54.6244 57.2025C55.0381 57.8793 55.5903 58.3779 56.3351 58.5562C57.0347 58.7236 57.7287 58.5625 58.3369 58.3371L58.3376 58.3368C59.2815 57.9862 60.0481 57.7396 60.6465 57.8219L60.6477 57.8221C62.2067 58.0347 63.7256 58.3706 65.2903 58.7166C65.9687 58.8666 66.6557 59.0185 67.3583 59.1631M46.1556 48.0756C46.4493 47.9361 46.7425 47.7954 47.0356 47.6547C47.8882 47.2454 48.7395 46.8367 49.5984 46.4606M46.1556 48.0756L49.5984 46.4606M67.3583 59.1631L67.5599 58.1836L67.3575 59.1629C67.3578 59.163 67.3581 59.1631 67.3583 59.1631ZM49.5984 46.4606C49.5986 46.4606 49.5987 46.4605 49.5988 46.4604L49.9999 47.3765L49.5984 46.4606ZM71.0284 88.1593C70.7165 88.3782 70.405 88.5984 70.0935 88.8186C68.3897 90.0231 66.6823 91.2303 64.8701 92.246C63.5703 92.9748 63.2796 94.0676 63.0004 95.2111C62.9814 95.2168 62.9663 95.2215 62.9536 95.2255L71.0284 88.1593ZM67.1346 24.2594C67.1346 24.2596 67.1355 24.2605 67.1373 24.2621C67.1354 24.26 67.1345 24.2592 67.1346 24.2594ZM67.1712 24.2826C67.1741 24.2837 67.1757 24.2841 67.1758 24.284C67.1759 24.2839 67.1744 24.2834 67.1712 24.2826ZM55.2676 48.4604L55.2679 48.4565L55.2676 48.4604ZM66.2551 36.0458C68.7688 34.7603 71.4374 33.7039 74.4308 34.5141L51.1708 46.5232C51.1709 46.5232 51.1709 46.5232 51.1709 46.5232C51.5342 46.6782 51.898 46.857 52.232 47.0212C52.3334 47.0711 52.4321 47.1196 52.5272 47.1657C52.9543 47.3727 53.3409 47.5474 53.7273 47.6714C54.2038 47.8238 54.7174 47.8722 55.3329 47.9177C55.5359 46.6766 56.0753 45.6613 56.6922 44.7764C57.0405 44.2768 57.4228 43.806 57.7849 43.3643C57.8145 43.3281 57.844 43.2922 57.8733 43.2564C58.2097 42.8464 58.526 42.4608 58.8182 42.0615C60.812 39.3341 63.3535 37.5287 66.2551 36.0458ZM55.8648 47.9567C55.8641 47.9566 55.8634 47.9566 55.8627 47.9565C55.8632 47.9566 55.8637 47.9566 55.8642 47.9567L55.8648 47.9567Z" fill="white" stroke="#05761E" stroke-width="2" stroke-linejoin="round"/>
<path d="M56.5611 8.13133C56.5608 8.13147 56.5605 8.13161 56.5602 8.13175L56.9849 9.03711C55.7325 9.62303 54.1219 9.59492 52.6785 9.55645C52.2727 9.54656 51.8734 9.28734 51.4301 8.9729C51.4737 8.94827 51.5173 8.92367 51.5608 8.8991C51.8444 8.73888 52.1256 8.58005 52.4049 8.42225M56.5611 8.13133C55.5619 8.59881 54.2042 8.59676 52.7052 8.55681L52.703 8.55675C52.7012 8.55666 52.6667 8.55435 52.5844 8.51772C52.5334 8.495 52.4746 8.46394 52.4049 8.42225M56.5611 8.13133C57.2611 7.80289 57.9245 7.33156 58.6312 6.76694C58.8821 6.5665 59.1523 6.34238 59.4327 6.10967C59.5226 6.0351 59.6135 5.95965 59.7053 5.88381C59.2301 5.60639 58.7798 5.34726 58.323 5.09909C56.9371 5.86703 55.548 6.6476 54.125 7.45122M56.5611 8.13133L53.546 6.62976M52.4049 8.42225C52.3505 8.38975 52.2895 8.35078 52.2204 8.30426C52.1436 8.25259 52.0455 8.18269 51.9337 8.10299C51.8008 8.00821 51.6484 7.89955 51.489 7.79114C52.0306 7.48519 52.5638 7.18385 53.093 6.88426M52.4049 8.42225C52.7631 8.21984 53.1182 8.01911 53.4713 7.81925M53.4713 7.81925C53.4028 7.84085 53.331 7.85851 53.2559 7.87091L53.093 6.88426M53.4713 7.81925C53.5094 7.79765 53.5476 7.77605 53.5857 7.75447L53.093 6.88426M53.4713 7.81925C53.7486 7.73173 53.9702 7.57955 54.125 7.45122M53.093 6.88426C53.2544 6.85762 53.4113 6.75257 53.546 6.62976M53.546 6.62976L54.0378 7.50046C54.0669 7.48404 54.096 7.46762 54.125 7.45122M53.546 6.62976L54.2197 7.36876C54.1917 7.39434 54.16 7.42217 54.125 7.45122M19.2359 12.9469L19.2356 12.9472C17.9194 14.1001 16.6729 15.3743 15.4586 16.6155C14.9121 17.1742 14.3721 17.7262 13.8352 18.2575C13.4676 18.6212 13.438 19.2051 13.7668 19.6042C13.7957 19.6393 13.8246 19.6748 13.8556 19.7129L13.8564 19.7139C13.8866 19.7509 13.9189 19.7906 13.9518 19.8306C14.2034 20.1359 14.6113 20.2642 14.9924 20.1579C15.0662 20.1373 15.1442 20.116 15.2247 20.0939C15.4385 20.0353 15.6705 19.9718 15.8926 19.9038L15.8934 19.9036C19.2339 18.8784 22.499 17.9509 25.8805 17.6867C28.5196 17.4805 31.1621 16.9148 33.4914 15.2303L33.4924 15.2296C33.627 15.1319 33.7251 15.1069 33.8197 15.1011C33.9392 15.0939 34.1065 15.1157 34.3811 15.1961L19.2359 12.9469ZM19.2359 12.9469C26.2068 6.84643 34.3055 3.05634 43.4365 1.52141L19.2359 12.9469ZM38.4097 16.1721L38.4105 16.1722C40.1745 16.2485 41.9542 16.1035 43.6555 15.9649C43.9747 15.9389 44.2912 15.9131 44.6043 15.889L44.6053 15.8889C44.9973 15.8584 45.3523 15.7002 45.6183 15.5352C45.891 15.3661 46.1576 15.1359 46.3561 14.8661L46.3576 14.864C46.6923 14.4066 46.9893 13.929 47.2636 13.4879L47.2725 13.4736C47.5457 13.0342 47.7977 12.6298 48.0719 12.2508C48.0819 12.2451 48.0957 12.2379 48.113 12.2305C48.1428 12.2177 48.1714 12.209 48.1929 12.2045C48.1966 12.2037 48.1997 12.2032 48.2023 12.2027C48.6415 12.2306 49.0748 12.2916 49.5507 12.3586C49.6854 12.3776 49.8236 12.397 49.9663 12.4164C50.594 12.5013 51.2878 12.5797 51.9984 12.5454L51.9995 12.5453C54.1199 12.4406 56.2336 12.1991 58.309 11.962C58.6184 11.9266 58.927 11.8913 59.2346 11.8567C59.8782 11.7842 60.4536 11.4111 60.8107 11.0852L60.8131 11.083C61.3814 10.5609 61.9515 9.99599 62.5049 9.44755C62.8449 9.11062 63.1786 8.77991 63.5017 8.4692C64.2072 7.79136 64.9292 7.41495 65.68 7.25766C66.4385 7.09873 67.2918 7.15007 68.2717 7.42999C68.8558 7.59692 69.4445 7.62909 69.9595 7.63415C70.1887 7.63641 70.3883 7.63407 70.5754 7.63187C70.856 7.62858 71.1084 7.62562 71.3902 7.639C71.9271 7.66447 72.3881 7.26104 72.434 6.72555L72.4473 6.57017L72.4606 6.41483C72.4964 5.99715 72.2679 5.60146 71.8883 5.42373C68.0408 3.62261 64.0178 2.35271 59.8272 1.62867M38.4097 16.1721L59.8272 1.62867M38.4097 16.1721C37.286 16.1226 36.1361 15.7531 35.1569 15.4385M38.4097 16.1721L35.1569 15.4385M59.8272 1.62867C59.6826 1.60364 59.5318 1.57712 59.375 1.54954C57.6561 1.24718 55.2118 0.817196 52.1627 0.817196C48.4603 0.817196 47.1111 0.903021 43.4367 1.52138L59.8272 1.62867ZM35.1569 15.4385C34.8837 15.3508 34.6238 15.2673 34.3815 15.1962L35.1569 15.4385ZM43.915 9.05824C43.7535 8.78195 43.5982 8.5042 43.4609 8.22691C42.1108 8.83439 40.6377 9.01333 39.1863 8.2917C38.8022 8.58914 38.4193 8.88553 38.0318 9.18549C37.8993 9.28803 37.7663 9.39099 37.6326 9.49454C38.1005 9.77021 38.5531 10.0349 39.0103 10.2947C39.0322 10.3071 39.0521 10.3181 39.0705 10.3279C40.6455 9.92674 42.217 9.50929 43.8252 9.08209C43.8551 9.07414 43.8851 9.06619 43.915 9.05824ZM38.8672 10.3796L38.8695 10.379L38.8672 10.3796Z" fill="white" stroke="#05761E" stroke-width="2" stroke-linejoin="round"/>
<circle cx="51.4045" cy="49.7849" r="48.9638" stroke="black" stroke-width="2"/>
</g>
</svg>
