<svg width="1em" viewBox="0 0 60 58" fill="currentColor" xmlns="http://www.w3.org/2000/svg">
<path d="M7.87862 30.6142C7.59456 30.3301 7.45253 30.0461 7.45253 29.62L7.38152 28.6968C7.38152 21.7374 11.2873 15.4172 17.3945 12.2925C18.1047 11.8664 19.0279 12.0795 19.4539 12.7896C19.88 13.4998 19.667 14.423 18.9568 14.849C18.8858 14.9201 18.8858 14.9201 18.7438 14.9201C13.5598 17.5476 10.3641 22.8736 10.3641 28.6968C10.3641 28.9809 10.4351 29.1939 10.4351 29.478C10.4351 30.3301 9.86702 31.0403 9.01485 31.0403C8.65978 31.1113 8.23369 30.9693 7.87862 30.6142ZM17.2971 45.7138C16.6579 45.2167 16.5159 44.2225 17.013 43.5833C17.5101 42.9442 18.5043 42.8022 19.1434 43.2993C24.2565 46.5659 30.8608 46.637 35.9028 43.2993C36.6129 42.8732 37.5361 43.0862 37.9622 43.7964C38.3173 44.4355 38.1752 45.2877 37.5361 45.7848C31.4289 49.7616 23.6173 49.7616 17.4391 45.8558L17.2971 45.7138ZM45.1082 30.6852C44.8241 30.4012 44.6821 29.9751 44.6821 29.549C44.6821 29.2649 44.7531 29.0519 44.7531 28.7678C44.7531 22.9447 41.5575 17.6186 36.3024 14.9201C35.5213 14.565 35.3082 13.6418 35.6633 12.8606C36.0184 12.0795 36.9415 11.8664 37.7227 12.2215C43.9009 15.4172 47.8067 21.7374 47.7357 28.6258L47.7357 29.478C47.7357 30.3301 46.9545 30.9693 46.1734 30.8983C45.6763 31.1113 45.3212 30.8983 45.1082 30.6852Z" />
<path d="M34.953 18.9677C34.811 18.8257 34.669 18.6836 34.598 18.4706L32.9646 14.1387C32.4675 12.7895 33.1777 11.3692 34.4559 10.9431L38.7878 9.30976C39.5689 8.95469 40.4211 9.38077 40.7052 10.2329C41.0602 11.0141 40.6342 11.8663 39.782 12.1503L35.8762 13.6416L37.3675 17.5474C37.7226 18.3286 37.2965 19.1807 36.4443 19.4648C35.9472 19.5358 35.3791 19.3938 34.953 18.9677ZM3.54663 29.6908C2.97852 29.1227 2.97852 28.1285 3.54663 27.5604C4.11475 26.9923 5.10895 26.9923 5.67706 27.5604L8.65966 30.401L11.5002 27.4184C12.0683 26.8503 13.0625 26.8503 13.6307 27.4184C14.1988 27.9865 14.1988 28.9807 13.6307 29.5488L10.435 32.8865C9.44081 33.8807 7.8785 33.8807 6.95532 32.9575L3.54663 29.6908ZM37.1809 49.2643C36.8259 48.9092 36.6838 48.3411 36.8259 47.915L37.607 43.8672L33.5592 43.0861C32.707 42.9441 32.2099 42.1629 32.352 41.3107C32.494 40.4586 33.2751 39.9615 34.1273 40.1035L38.7432 41.0267C40.1635 41.3107 40.9447 42.66 40.7316 44.0093L39.7374 48.5542C39.5954 49.4063 38.8143 49.9034 37.9621 49.7614C37.678 49.6194 37.394 49.4774 37.1809 49.2643Z" />
</svg>
