<svg width="1em" viewBox="0 0 50 51" fill="currentColor" xmlns="http://www.w3.org/2000/svg">
<path fill-rule="evenodd" clip-rule="evenodd" d="M28.1438 32.1921H40C44.4183 32.1921 48 35.7739 48 40.1921C48 44.6104 44.4183 48.1921 40 48.1921H28.1438C30.5722 46.3677 32.1429 43.4633 32.1429 40.1921C32.1429 36.9209 30.5722 34.0166 28.1438 32.1921ZM22.1429 30.1921H40C45.5228 30.1921 50 34.6693 50 40.1921C50 45.715 45.5228 50.1921 40 50.1921H22.1429H10C9.30964 50.1921 8.63563 50.1222 7.98465 49.989C3.42782 49.0565 0 45.0246 0 40.1921C0 34.6693 4.47715 30.1921 10 30.1921H22.1429Z" />
<path d="M29.808 23.0081C30.592 23.0081 30.984 22.4721 30.984 21.4001C30.984 20.3281 30.592 19.7921 29.808 19.7921C29.04 19.7921 28.656 20.3281 28.656 21.4001C28.656 22.4721 29.04 23.0081 29.808 23.0081ZM26.928 24.3761C26.192 23.6721 25.824 22.6801 25.824 21.4001C25.824 20.1201 26.192 19.1281 26.928 18.4241C27.68 17.7201 28.648 17.3681 29.832 17.3681C31.016 17.3681 31.976 17.7201 32.712 18.4241C33.448 19.1281 33.816 20.1201 33.816 21.4001C33.816 22.6801 33.448 23.6721 32.712 24.3761C31.976 25.0801 31.016 25.4321 29.832 25.4321C28.648 25.4321 27.68 25.0801 26.928 24.3761ZM18.168 25.1921L27.408 8.29614H31.368L22.128 25.1921H18.168ZM19.704 13.6961C20.488 13.6961 20.88 13.1601 20.88 12.0881C20.88 11.0161 20.488 10.4801 19.704 10.4801C18.936 10.4801 18.552 11.0161 18.552 12.0881C18.552 13.1601 18.936 13.6961 19.704 13.6961ZM16.824 15.0641C16.088 14.3601 15.72 13.3681 15.72 12.0881C15.72 10.8081 16.088 9.81614 16.824 9.11214C17.576 8.40814 18.544 8.05614 19.728 8.05614C20.912 8.05614 21.872 8.40814 22.608 9.11214C23.344 9.81614 23.712 10.8081 23.712 12.0881C23.712 13.3681 23.344 14.3601 22.608 15.0641C21.872 15.7681 20.912 16.1201 19.728 16.1201C18.544 16.1201 17.576 15.7681 16.824 15.0641Z" />
</svg>
