<svg viewBox="0 0 93 101" fill="none" xmlns="http://www.w3.org/2000/svg">
<path d="M17.0002 23.5L17.0001 23.4964C16.9559 11.082 27.0509 1 39.5001 1C51.946 1 62 11.0795 62 23.5C62 35.9192 51.901 46 39.5001 46C27.0541 46 17.0002 35.9205 17.0002 23.5Z" stroke="black" stroke-width="2"/>
<path d="M30.6197 56H50.3803C66.7586 56 80 69.0795 80 85.2086V87.1727C80 88.3884 79.4047 89.3519 78.0722 90.1684C76.6922 91.0141 74.6065 91.6365 71.877 92.0714C66.4313 92.9389 58.8636 93 50.3803 93H30.6197C22.129 93 14.5646 92.9972 9.11794 92.1582C6.38881 91.7378 4.30786 91.1225 2.93212 90.2698C1.60979 89.4501 1 88.4607 1 87.1727V85.2086C1 69.0795 14.2414 56 30.6197 56Z" stroke="black" stroke-width="2"/>
<path d="M55 62.9574L73.48 55L91.96 62.9574V77.9362C90.112 84.4894 87.802 91.9787 73.48 99C59.0656 91.8851 55.154 81.9929 55 77.9362V62.9574Z" fill="#29953A" stroke="black" stroke-width="2" stroke-linecap="round"/>
<path d="M81.5729 69.787C81.9635 69.3965 82.5966 69.3965 82.9871 69.787L84.0616 70.8615C84.4521 71.252 84.4521 71.8852 84.0616 72.2757L73.3287 83.0086C72.9986 83.3385 72.5511 83.5239 72.0844 83.5239C71.6177 83.5239 71.1701 83.3385 70.84 83.0086L64.5072 76.6757C64.1166 76.2852 64.1166 75.652 64.5072 75.2615L65.5816 74.187C65.9721 73.7965 66.6053 73.7965 66.9958 74.187L71.3773 78.5678C71.7678 78.9582 72.4009 78.9582 72.7914 78.5678L81.5729 69.787Z" fill="white"/>
</svg>
